<?xml version="1.0" encoding="UTF-8"?>
<svg version="1.1" xmlns="http://www.w3.org/2000/svg" width="1024" height="1025">
<path d="M0 0 C0.78655975 -0.00067474 1.57311951 -0.00134949 2.3835144 -0.00204468 C14.25102026 0.01414523 25.66261441 0.47274504 37.25 3.25 C37.97815918 3.41628906 38.70631836 3.58257812 39.45654297 3.75390625 C68.71728019 10.58668381 94.62462366 25.53837195 116.25 46.25 C116.9821875 46.930625 117.714375 47.61125 118.46875 48.3125 C139.13094798 68.10164736 153.66448563 94.80997644 161.25 122.25 C161.25 123.57 161.25 124.89 161.25 126.25 C158.62646482 127.25399524 156.00132205 128.25334445 153.375 129.25 C152.25544922 129.67925781 152.25544922 129.67925781 151.11328125 130.1171875 C145.4765625 132.25 145.4765625 132.25 143.25 132.25 C143.04955078 131.60675781 142.84910156 130.96351563 142.64257812 130.30078125 C136.58048467 111.02854762 129.62204208 93.44882987 117.25 77.25 C112.43700412 77.88922602 108.55089749 79.88191425 104.25 82 C97.79239459 85.12028917 91.33413756 87.87893493 84.59375 90.33984375 C82.32659262 91.03901392 82.32659262 91.03901392 81.25 92.25 C81.54043324 94.07623357 81.54043324 94.07623357 82.140625 96.23828125 C82.35428711 97.07979736 82.56794922 97.92131348 82.78808594 98.78833008 C83.02301758 99.70380615 83.25794922 100.61928223 83.5 101.5625 C87.15473379 116.37785809 89.43947159 131.09969702 89.94140625 146.35546875 C90.09416016 147.78826172 90.09416016 147.78826172 90.25 149.25 C90.91 149.58 91.57 149.91 92.25 150.25 C80.22598969 154.57442476 67.99422621 158.08703612 55.6875 161.5 C54.89678101 161.72000671 54.10606201 161.94001343 53.29138184 162.16668701 C48.28510881 163.55705932 43.27175864 164.91660635 38.25 166.25 C36.9045813 166.61424072 36.9045813 166.61424072 35.53198242 166.98583984 C29.89628817 168.39554104 24.47783702 168.48545397 18.6875 168.375 C17.77419922 168.36597656 16.86089844 168.35695313 15.91992188 168.34765625 C13.69632681 168.32437253 11.47331323 168.2916771 9.25 168.25 C8.92 169.9 8.59 171.55 8.25 173.25 C6.00113762 173.75509208 3.75086131 174.25389179 1.5 174.75 C0.24703125 175.0284375 -1.0059375 175.306875 -2.296875 175.59375 C-5.75 176.25 -5.75 176.25 -9.75 176.25 C-9.75 173.61 -9.75 170.97 -9.75 168.25 C-29.55 168.25 -49.35 168.25 -69.75 168.25 C-69.42 168.91 -69.09 169.57 -68.75 170.25 C-68.67818179 172.96760108 -68.65700494 175.65859388 -68.6875 178.375 C-68.69201172 179.12910156 -68.69652344 179.88320313 -68.70117188 180.66015625 C-68.71296501 182.52347127 -68.73090058 184.38674555 -68.75 186.25 C-70.0376948 186.59836188 -71.33058218 186.92751528 -72.625 187.25 C-73.34429687 187.435625 -74.06359375 187.62125 -74.8046875 187.8125 C-79.07539687 188.44687593 -83.43243224 188.25 -87.75 188.25 C-88.08 181.65 -88.41 175.05 -88.75 168.25 C-107.23 168.25 -125.71 168.25 -144.75 168.25 C-144.09 176.5 -143.43 184.75 -142.75 193.25 C-147.31638911 194.01106485 -151.06573454 194.35902312 -155.625 194.3125 C-156.77742188 194.30347656 -157.92984375 194.29445313 -159.1171875 194.28515625 C-159.98601562 194.27355469 -160.85484375 194.26195312 -161.75 194.25 C-164.00509484 185.33909128 -164.40794758 176.39151854 -164.75 167.25 C-164.79253906 166.21746094 -164.83507812 165.18492187 -164.87890625 164.12109375 C-165.68283093 125.58630407 -150.19120003 85.99855604 -124.75 57.25 C-124.10611328 56.51571777 -124.10611328 56.51571777 -123.44921875 55.76660156 C-97.64048755 26.44356907 -62.60980928 6.74945839 -23.75 1.25 C-22.68434814 1.07944092 -21.61869629 0.90888184 -20.52075195 0.7331543 C-13.71479533 -0.13890709 -6.85248269 0.00525231 0 0 Z M42.25 25.25 C42.96800781 25.94609375 43.68601562 26.6421875 44.42578125 27.359375 C57.41204601 40.3775919 66.43666493 56.7657687 74.25 73.25 C84.32159489 69.88484626 93.89584903 66.33260226 103.25 61.25 C89.46023012 43.4326571 66.23750114 32.13189505 45.25 25.25 C44.26 25.25 43.27 25.25 42.25 25.25 Z M-99.75 59.25 C-100.41 59.91 -101.07 60.57 -101.75 61.25 C-98.6299082 62.69832209 -95.50309784 64.13156163 -92.375 65.5625 C-91.50488281 65.96662109 -90.63476562 66.37074219 -89.73828125 66.78710938 C-83.85549955 69.46704326 -77.98929759 71.55959542 -71.75 73.25 C-71.2653125 72.25742187 -70.780625 71.26484375 -70.28125 70.2421875 C-63.7072235 56.86698655 -57.21434943 44.2887266 -47.265625 33.08984375 C-45.00421808 30.53698221 -42.85587781 27.93155002 -40.75 25.25 C-60.99466359 25.25 -86.04019099 46.10671203 -99.75 59.25 Z M9.25 28.25 C9.25 47.06 9.25 65.87 9.25 85.25 C25.15080707 83.97793543 39.82261125 82.59178978 55.25 79.25 C49.62259157 60.75590397 36.71556362 43.35163245 20.78125 32.5390625 C17.126815 30.67800764 13.14057558 29.54685853 9.25 28.25 Z M-31.1640625 42.51171875 C-39.10518067 50.92066715 -52.75 67.05145054 -52.75 79.25 C-49.71090425 79.89013673 -46.66955188 80.51174026 -43.625 81.125 C-42.80773437 81.29902344 -41.99046875 81.47304688 -41.1484375 81.65234375 C-30.6617317 83.73426328 -20.59527386 84.26406601 -9.75 85.25 C-9.75 66.77 -9.75 48.29 -9.75 29.25 C-17.3384415 29.25 -26.11203098 37.62615818 -31.1640625 42.51171875 Z M-114.75 76.25 C-133.20637965 95.05297833 -141.57126014 123.82008116 -144.75 149.25 C-125.94 149.25 -107.13 149.25 -87.75 149.25 C-87.193125 144.238125 -86.63625 139.22625 -86.0625 134.0625 C-84.78451092 123.00096427 -83.22929408 112.23910764 -80.23754883 101.48364258 C-78.43835344 95.77173155 -78.43835344 95.77173155 -79.75 90.25 C-82.68297388 88.52731097 -85.80082402 87.44291012 -89 86.3125 C-90.8266052 85.62919382 -92.65212738 84.94298561 -94.4765625 84.25390625 C-95.37407227 83.91891113 -96.27158203 83.58391602 -97.19628906 83.23876953 C-101.71605462 81.4887647 -106.05131521 79.38972427 -110.4140625 77.28125 C-112.62936522 76.11537794 -112.62936522 76.11537794 -114.75 76.25 Z M-59.75 97.25 C-62.51674252 105.04985923 -64.41486742 112.8778752 -65.9375 121 C-66.10411133 121.85480957 -66.27072266 122.70961914 -66.44238281 123.59033203 C-67.99722518 132.2345532 -68.2226485 140.28502454 -68.75 149.25 C-49.28 149.25 -29.81 149.25 -9.75 149.25 C-9.75 134.4 -9.75 119.55 -9.75 104.25 C-12.42076447 103.35974518 -14.34855663 103.04580129 -17.1171875 102.85546875 C-17.9932666 102.7889209 -18.8693457 102.72237305 -19.77197266 102.65380859 C-20.71347168 102.58242676 -21.6549707 102.51104492 -22.625 102.4375 C-31.57054306 101.70679602 -40.26024009 100.39299399 -49.04638672 98.57104492 C-49.86896973 98.40064697 -50.69155273 98.23024902 -51.5390625 98.0546875 C-52.25787598 97.89983887 -52.97668945 97.74499023 -53.71728516 97.58544922 C-56.06440224 97.14145133 -56.06440224 97.14145133 -59.75 97.25 Z M57.90234375 96.984375 C41.79112498 100.49172311 25.62128294 102.3076444 9.25 104.25 C9.25 119.1 9.25 133.95 9.25 149.25 C29.71 149.25 50.17 149.25 71.25 149.25 C69.67514755 131.88278389 69.67514755 131.88278389 66.75 114.875 C66.53730469 113.83601563 66.32460938 112.79703125 66.10546875 111.7265625 C65.01820993 106.4970477 63.80466836 101.36025247 62.25 96.25 C60.84158562 96.21428755 60.84158562 96.21428755 57.90234375 96.984375 Z " fill="#14253A" transform="translate(530.75,347.75)"/>
<path d="M0 0 C10.71604628 4.57680647 21.246227 9.45432049 31.70446777 14.59173584 C35.76456195 16.58605191 39.83003581 18.56936142 43.89453125 20.5546875 C44.69015472 20.94371246 45.4857782 21.33273743 46.30551147 21.73355103 C52.60522955 24.81251001 58.92043225 27.85783791 65.25 30.875 C66.56049316 31.49979248 66.56049316 31.49979248 67.89746094 32.13720703 C69.65275644 32.97379143 71.40812773 33.81021685 73.16357422 34.64648438 C78.71761007 37.29681789 84.26472434 39.96159419 89.8125 42.625 C90.90014648 43.14690918 91.98779297 43.66881836 93.10839844 44.20654297 C94.11032227 44.68752441 95.11224609 45.16850586 96.14453125 45.6640625 C97.03503174 46.09154785 97.92553223 46.5190332 98.84301758 46.95947266 C100.23330273 47.63014558 101.61936392 48.30968196 103 49 C102.5173151 53.25366072 99.84485161 55.63005591 97 58.5625 C93.34304354 62.4328975 89.83234708 66.34060301 86.5 70.5 C82.86500611 75.01777813 79.0328971 79.27818516 75.0859375 83.51953125 C72.09558642 86.75211747 69.26213671 90.06705866 66.5 93.5 C62.38347389 98.61245985 58.0077116 103.42576554 53.55078125 108.23828125 C49.25803078 112.8860218 45.12733502 117.66174698 41.046875 122.49609375 C40.51505615 123.12338379 39.9832373 123.75067383 39.43530273 124.39697266 C38.37376953 125.64998748 37.31583298 126.90606049 36.26196289 128.16552734 C35.76946045 128.74641113 35.27695801 129.32729492 34.76953125 129.92578125 C34.33229736 130.44567627 33.89506348 130.96557129 33.44458008 131.5012207 C31.77364203 133.2348507 29.95497889 134.60045144 28 136 C28.55018898 130.59216609 29.10158079 125.18445663 29.65405273 119.77685547 C29.84155218 117.93997455 30.02873179 116.10306095 30.21557617 114.26611328 C30.48530887 111.61482069 30.75621898 108.96365055 31.02734375 106.3125 C31.10967758 105.50071289 31.19201141 104.68892578 31.27684021 103.85253906 C31.78552372 98.89203441 32.36445249 93.94589502 33 89 C31.9493335 89.41342651 31.9493335 89.41342651 30.87744141 89.83520508 C-0.49069141 102.1126629 -32.48428643 112.22436434 -65 121 C-65.79545227 121.21507202 -66.59090454 121.43014404 -67.41046143 121.6517334 C-157.92570182 146.03362641 -258.2812344 165.87109049 -405 145 C-404.73729847 140.97955769 -404.47064351 136.95939836 -404.20043945 132.93945312 C-404.10920231 131.57396416 -404.01901594 130.20840454 -403.92993164 128.84277344 C-403.80115521 126.87155885 -403.66819413 124.90061907 -403.53515625 122.9296875 C-403.456604 121.74616699 -403.37805176 120.56264648 -403.29711914 119.34326172 C-403.01660648 116.18686037 -402.56644464 113.11648297 -402 110 C-401.34 110 -400.68 110 -400 110 C-399.40703125 110.76183594 -398.8140625 111.52367187 -398.203125 112.30859375 C-390.22054043 122.06036817 -374.24303338 124.35417607 -362.30859375 125.6875 C-289.52950004 132.83261367 -210.45961846 118.43227029 -140 101 C-139.23036926 100.8100647 -138.46073853 100.62012939 -137.66778564 100.42443848 C-111.4505778 93.93489493 -85.6332586 86.5021074 -60 78 C-59.19695435 77.73447327 -58.39390869 77.46894653 -57.56652832 77.19537354 C-31.91710424 68.70814163 -6.67053158 59.48851258 18.20825195 48.92822266 C22.78973301 47 22.78973301 47 25 47 C24.47321655 46.03839966 24.47321655 46.03839966 23.93579102 45.05737305 C21.11045024 39.8899674 18.30466166 34.71292152 15.52734375 29.51953125 C14.93759766 28.41802734 14.34785156 27.31652344 13.74023438 26.18164062 C12.53266688 23.9248108 11.32695433 21.66698752 10.12304688 19.40820312 C7.55917387 14.62586388 4.99432122 9.8948991 2.06640625 5.32421875 C0 2 0 2 0 0 Z " fill="#164FCD" transform="translate(700,430)"/>
<path d="M0 0 C-6.93174551 31.0297549 -22.02114 57.19821856 -44 80 C-44.65097656 80.70253906 -45.30195312 81.40507813 -45.97265625 82.12890625 C-69.39126206 106.74081681 -103.62153799 122.41046147 -137 127 C-138.73443359 127.27070312 -138.73443359 127.27070312 -140.50390625 127.546875 C-183.85662692 132.78268571 -227.48315598 121.09182312 -262.1171875 94.6171875 C-267.41574583 90.38121268 -272.30938153 85.89260683 -277 81 C-277.78761719 80.21753906 -278.57523437 79.43507813 -279.38671875 78.62890625 C-294.81742179 63.10594191 -294.81742179 63.10594191 -298 57 C-297.67 56.01 -297.34 55.02 -297 54 C-292.27212103 53.70976612 -287.54394267 53.42522266 -282.81542969 53.14550781 C-281.21345218 53.04999175 -279.61155988 52.95303362 -278.00976562 52.85449219 C-267.98876293 52.23916746 -258.04409198 51.8538746 -248 52 C-250.26998204 53.51332136 -252.36821083 54.74263257 -254.79296875 55.9453125 C-255.50517578 56.29980469 -256.21738281 56.65429688 -256.95117188 57.01953125 C-257.68916016 57.38433594 -258.42714844 57.74914062 -259.1875 58.125 C-259.93708984 58.49753906 -260.68667969 58.87007812 -261.45898438 59.25390625 C-263.3050916 60.17108054 -265.15242743 61.08578112 -267 62 C-263.60377694 67.14849575 -260.23671841 70.82069105 -255.3125 74.5 C-254.69455566 74.97211914 -254.07661133 75.44423828 -253.43994141 75.93066406 C-251.6361663 77.30046577 -249.82117009 78.65344416 -248 80 C-247.10410156 80.66515625 -246.20820313 81.3303125 -245.28515625 82.015625 C-233.35488594 90.600779 -218.83998463 99.73479687 -204 102 C-204.46148437 101.58492187 -204.92296875 101.16984375 -205.3984375 100.7421875 C-215.06502229 91.61051254 -221.77345842 80.86700717 -227.9375 69.1875 C-228.62839722 67.88099487 -228.62839722 67.88099487 -229.33325195 66.5480957 C-232.09895446 61.16462481 -234.27697953 55.80233079 -236 50 C-233.79248152 49.66131223 -231.58394089 49.32928311 -229.375 49 C-228.14523437 48.814375 -226.91546875 48.62875 -225.6484375 48.4375 C-222.3833973 48.04597484 -219.28287549 47.91919076 -216 48 C-215.73372803 48.51796143 -215.46745605 49.03592285 -215.19311523 49.56958008 C-204.1264871 71.02888416 -194.2705355 87.86473225 -172 99 C-172 79.86 -172 60.72 -172 41 C-156 38 -156 38 -153 38 C-152.67 58.13 -152.34 78.26 -152 99 C-143.67814965 95.67125986 -139.30706088 93.58402921 -133 88 C-131.88818359 87.02933594 -131.88818359 87.02933594 -130.75390625 86.0390625 C-118.75228626 74.84864386 -110.15699799 58.47099397 -105 43 C-116.27321219 40.22049712 -127.54438273 37.89254253 -139 36 C-136.18910582 34.47824237 -133.61844782 33.55976527 -130.49780273 32.88671875 C-129.61265488 32.69311768 -128.72750702 32.4995166 -127.8155365 32.30004883 C-126.86449539 32.09790771 -125.91345428 31.8957666 -124.93359375 31.6875 C-123.94432388 31.47311279 -122.95505402 31.25872559 -121.93580627 31.0378418 C-119.8408056 30.58487536 -117.74524329 30.13449987 -115.64916992 29.68652344 C-112.47257323 29.00749722 -109.29769109 28.320903 -106.12304688 27.6328125 C-104.08082604 27.19225901 -102.03851116 26.75214126 -99.99609375 26.3125 C-99.05922226 26.11035889 -98.12235077 25.90821777 -97.15708923 25.69995117 C-90.79227439 24.34168689 -84.40911884 23.13035162 -78 22 C-78.66 24.64 -79.32 27.28 -80 30 C-79.27111572 30.12673096 -78.54223145 30.25346191 -77.79125977 30.3840332 C-75.11794774 30.97397165 -72.85034471 31.77782964 -70.33984375 32.85546875 C-69.4686792 33.22808838 -68.59751465 33.60070801 -67.69995117 33.98461914 C-66.78834229 34.38156982 -65.8767334 34.77852051 -64.9375 35.1875 C-64.00462158 35.59025146 -63.07174316 35.99300293 -62.1105957 36.40795898 C-55.28430595 39.37954213 -48.5857026 42.52307627 -42 46 C-36.8352045 39.65516844 -33.25260231 32.79244956 -29.75 25.4375 C-29.32605957 24.55167236 -28.90211914 23.66584473 -28.46533203 22.75317383 C-26.48646034 18.52187362 -24.89231278 14.62225074 -23.83203125 10.0703125 C-22.94253473 7.27338139 -22.45959449 6.28049021 -19.92822266 4.7355957 C-17.2832734 3.76489473 -14.68327473 3.06669996 -11.9375 2.4375 C-11.01388672 2.19193359 -10.09027344 1.94636719 -9.13867188 1.69335938 C-2.64508929 0 -2.64508929 0 0 0 Z M-86 48 C-86.46148438 49.17433594 -86.92296875 50.34867188 -87.3984375 51.55859375 C-95.14356155 70.84574819 -104.7497307 87.63238295 -120 102 C-116.02892402 103.32369199 -113.60788773 102.06909352 -109.875 100.625 C-109.17286377 100.35606934 -108.47072754 100.08713867 -107.74731445 99.81005859 C-95.19973702 94.84328024 -83.59205723 88.37356335 -73 80 C-72.15050781 79.35289062 -71.30101562 78.70578125 -70.42578125 78.0390625 C-64.49636959 73.44444948 -59.18745272 68.41299414 -54 63 C-60.51030507 55.3815579 -74.70728187 51.09282183 -84 48 C-84.66 48 -85.32 48 -86 48 Z " fill="#14253A" transform="translate(693,550)"/>
<path d="M0 0 C38.07264652 -1.1371255 80.77298248 5.64634088 109.625 32.4375 C110.800625 33.7059375 110.800625 33.7059375 112 35 C112.60328125 35.62132812 113.2065625 36.24265625 113.828125 36.8828125 C125.08377908 48.86879528 130.62504866 62.8806494 133 79 C127.75660005 78.41220942 123.61423626 76.68368637 118.8984375 74.47265625 C118.13955231 74.12367783 117.38066711 73.7746994 116.5987854 73.41514587 C114.18767151 72.30434859 111.78137076 71.18352955 109.375 70.0625 C107.75029977 69.31250132 106.12530251 68.56314572 104.5 67.81445312 C100.3273828 65.88872692 96.15856702 63.95591932 92 62 C91.21222168 61.64236572 90.42444336 61.28473145 89.61279297 60.91625977 C87.09927729 59.48828151 86.17094009 57.3512985 84.75 54.875 C74.01540164 37.41703324 55.3124899 28.41380736 36.3125 22.625 C28.1771067 20.11188119 22.45947058 17.0277605 16.01953125 11.5078125 C11.76291726 7.97256517 7.14628531 5.29550745 2.38671875 2.49609375 C1.59910156 2.00238281 0.81148437 1.50867188 0 1 C0 0.67 0 0.34 0 0 Z " fill="#1643A3" transform="translate(627,361)"/>
<path d="M0 0 C4.78755816 0.94181472 9.56781578 1.89923218 14.33203125 2.953125 C15.10981934 3.12263672 15.88760742 3.29214844 16.68896484 3.46679688 C18.3276055 3.82546507 19.96465246 4.19148515 21.60009766 4.56445312 C25.6099695 5.44207952 29.3925335 6.10059393 33.50390625 6.140625 C37.61848951 6.21189158 41.1113636 6.48302907 45 8 C48.55979969 11.93341536 50.22828302 17.1109933 52.13330078 21.98046875 C61.31429689 43.37348279 86.14175426 56.61123845 106.6328125 64.90625 C118.02291048 69.35349103 129.74759031 72.99721715 141.921875 74.4765625 C142.93765625 74.64929688 143.9534375 74.82203125 145 75 C145.33 75.66 145.66 76.32 146 77 C110.40933864 77.44032435 73.26984978 72.70477727 41 57 C39.86046875 56.46761719 38.7209375 55.93523438 37.546875 55.38671875 C29.00768755 51.14747759 22.63522855 45.71329006 16 39 C15.3090625 38.319375 14.618125 37.63875 13.90625 36.9375 C5.43308173 28.01837551 -0.11280469 15.1245228 -0.1875 2.75 C-0.125625 1.8425 -0.06375 0.935 0 0 Z " fill="#145CFC" transform="translate(302,589)"/>
<path d="M0 0 C35.31 0 70.62 0 107 0 C107 4.62 107 9.24 107 14 C71.69 14 36.38 14 0 14 C0 9.38 0 4.76 0 0 Z " fill="#1550CF" transform="translate(244,464)"/>
<path d="M0 0 C29.7 0 59.4 0 90 0 C90 4.95 90 9.9 90 15 C60.3 15 30.6 15 0 15 C0 10.05 0 5.1 0 0 Z " fill="#1650CF" transform="translate(229,494)"/>
<path d="M0 0 C0 0.66 0 1.32 0 2 C0.66 2 1.32 2 2 2 C5.82622781 8.54161528 7.84931333 13.30622041 7 21 C5.38774203 27.01328647 1.90131508 30.7400287 -3.36328125 33.93359375 C-9.28838876 36.32997056 -15.37656869 35.82589504 -21.375 33.9375 C-26.49225159 30.16048097 -29.95214422 26.4708514 -31.5625 20.1875 C-32.36317233 14.64179062 -31.65908264 9.95368044 -29 5 C-20.74613918 -4.59751258 -11.14334818 -4.86255194 0 0 Z " fill="#1642A3" transform="translate(695,629)"/>
<path d="M0 0 C-0.30292969 0.53625 -0.60585938 1.0725 -0.91796875 1.625 C-8.24889286 15.33946725 -10.94524965 29.75587797 -13 45 C-13.19137258 46.35305418 -13.38396692 47.70593647 -13.578125 49.05859375 C-13.71734375 50.02925781 -13.8565625 50.99992188 -14 52 C-24.18154935 52.83114689 -35.57016034 49.75696367 -44 44 C-42.13888986 29.68214133 -31.995208 17.87966952 -21.33203125 8.78515625 C-6.64197935 -2.45999235 -6.64197935 -2.45999235 0 0 Z " fill="#145CFC" transform="translate(354,494)"/>
<path d="M0 0 C4.15285882 3.75734845 6.07084271 7.38003375 7.5625 12.75 C7.66688467 18.80431088 6.10713728 23.48115792 2.375 28.25 C-2.34157196 31.89462378 -6.32772329 33.68533585 -12.3125 33.4375 C-17.81408657 32.65754947 -21.58887621 30.40626849 -25.375 26.375 C-28.22269122 21.56952106 -29.32403258 16.91102337 -28.375 11.375 C-26.59249863 6.11374596 -24.17475726 2.3462783 -19.375 -0.625 C-12.99745145 -3.73961673 -6.26485014 -3.01640933 0 0 Z " fill="#145CFC" transform="translate(390.375,367.625)"/>
<path d="M0 0 C22.44 0 44.88 0 68 0 C68 4.62 68 9.24 68 14 C45.56 14 23.12 14 0 14 C0 9.38 0 4.76 0 0 Z " fill="#1650CF" transform="translate(220,526)"/>
<path d="M0 0 C18.81 0 37.62 0 57 0 C57 4.62 57 9.24 57 14 C38.19 14 19.38 14 0 14 C0 9.38 0 4.76 0 0 Z " fill="#154FCF" transform="translate(224,559)"/>
<path d="M0 0 C18.48 0 36.96 0 56 0 C56 4.62 56 9.24 56 14 C37.52 14 19.04 14 0 14 C0 9.38 0 4.76 0 0 Z " fill="#1550CF" transform="translate(235,590)"/>
<path d="M0 0 C3.65281158 4.3833739 5.2631571 8.34212246 5 14 C3.36083995 19.68884958 1.01398629 22.84304567 -4 26 C-8.73390955 27.49907136 -12.73628797 27.46853814 -17.3125 25.5 C-21.54388092 23.0422518 -23.16244808 20.51731515 -25 16 C-25.73220515 10.9660896 -24.8163865 7.1866146 -22.38671875 2.8046875 C-16.83806518 -4.41637715 -7.38963597 -4.38132905 0 0 Z " fill="#1642A3" transform="translate(725,592)"/>
<path d="M0 0 C3.84324769 2.03039501 6.95120023 4.1180636 9 8 C10.37484126 13.9903798 10.25300121 17.5433528 7 23 C2.89302241 26.54693519 -0.57367734 27.90480136 -6 28 C-11.21230653 26.40980479 -13.98116952 24.52824572 -17 20 C-19.12484858 15.75030284 -18.35620877 11.08957977 -16.9375 6.75 C-12.53335819 0.49896001 -7.23716199 -0.9190047 0 0 Z " fill="#145CFC" transform="translate(356,410)"/>
</svg>
