<?xml version="1.0" encoding="UTF-8"?>
<svg version="1.1" xmlns="http://www.w3.org/2000/svg" width="600" height="473">
<path d="M0 0 C198 0 396 0 600 0 C600 156.09 600 312.18 600 473 C402 473 204 473 0 473 C0 316.91 0 160.82 0 0 Z " fill="#262E35" transform="translate(0,0)"/>
<path d="M0 0 C1.29873047 -0.00773437 2.59746094 -0.01546875 3.93554688 -0.0234375 C16.79779081 0.00214628 29.19688869 1.24158261 41.4375 5.3125 C42.36506104 5.61631592 43.29262207 5.92013184 44.24829102 6.2331543 C76.707867 17.22266392 104.83466842 38.54227919 123.6875 67.25 C124.10837891 67.88566895 124.52925781 68.52133789 124.96289062 69.17626953 C133.25215357 81.90620905 148.35101899 105.32691109 146.34155273 120.9375 C145.58507375 123.61214311 144.83636792 124.4713902 142.6875 126.1875 C142.06746094 126.68378906 141.44742187 127.18007812 140.80859375 127.69140625 C137.19131629 130.34940571 133.46861075 132.83214687 129.6875 135.25 C130.0175 135.58 130.3475 135.91 130.6875 136.25 C130.25 138.3125 130.25 138.3125 129.6875 140.25 C132.65938965 139.64673006 134.7368392 138.74754734 137.2265625 137.02734375 C137.8851123 136.57464111 138.54366211 136.12193848 139.22216797 135.65551758 C139.91197754 135.17107178 140.60178711 134.68662598 141.3125 134.1875 C142.02164551 133.69596436 142.73079102 133.20442871 143.46142578 132.69799805 C148.44967174 129.20826698 153.2177953 125.5455638 157.8671875 121.61328125 C159.6875 120.25 159.6875 120.25 161.6875 120.25 C157.57745957 110.86158277 153.46476285 101.52560972 148.71875 92.4375 C147.6875 90.25 147.6875 90.25 147.6875 88.25 C155.14748308 89.78146743 162.34780944 91.89128012 169.625 94.125 C179.02279337 96.98530229 188.43799645 99.76727688 197.890625 102.44140625 C199.31750389 102.84558777 199.31750389 102.84558777 200.77320862 103.25793457 C205.51664819 104.60025384 210.26194627 105.93556921 215.00952148 107.26318359 C216.76030341 107.75731161 218.51103809 108.25160708 220.26171875 108.74609375 C221.06977966 108.96971085 221.87784058 109.19332794 222.71038818 109.42372131 C226.10518681 110.38703134 228.7282861 111.27719073 231.6875 113.25 C231.38024248 120.220905 228.26211357 125.01102173 224.6875 130.875 C223.41372589 133.00891369 222.14030449 135.14303795 220.8671875 137.27734375 C220.19010742 138.40382324 219.51302734 139.53030273 218.81542969 140.69091797 C216.60135887 144.38304312 214.42635339 148.097403 212.2578125 151.81640625 C211.88726746 152.45149109 211.51672241 153.08657593 211.13494873 153.74090576 C210.39130458 155.01567217 209.64775331 156.29049276 208.90429688 157.56536865 C203.85032703 166.23153687 198.73495984 174.85139949 193.45507812 183.38208008 C192.03529424 185.68569905 190.63692747 187.99780809 189.26171875 190.328125 C188.63910156 191.37484375 188.01648438 192.4215625 187.375 193.5 C186.73949219 194.57765625 186.10398437 195.6553125 185.44921875 196.765625 C183.6875 199.25 183.6875 199.25 180.6875 200.25 C179.02160689 193.79909476 177.46543265 187.33818689 176.08203125 180.8203125 C175.8188208 179.58297363 175.55561035 178.34563477 175.28442383 177.07080078 C175.08743896 176.13993652 174.8904541 175.20907227 174.6875 174.25 C173.94516113 174.64155273 173.20282227 175.03310547 172.43798828 175.43652344 C150.58810004 186.93010813 128.50883346 197.78951995 105.6875 207.25 C111.4084805 206.67194595 111.4084805 206.67194595 115.6875 203.25 C117.0075 203.25 118.3275 203.25 119.6875 203.25 C118.99611291 207.56293849 117.56824126 211.47000137 115.9375 215.5 C115.54087158 216.48818726 115.54087158 216.48818726 115.13623047 217.49633789 C113.02940025 222.63985307 110.59325007 227.50565586 107.6875 232.25 C110.74439835 228.65255255 112.37873282 224.67970793 114.1875 220.375 C115.069369 218.29933453 115.95463052 216.22710045 116.87011719 214.16601562 C117.59415666 212.46880481 118.20462059 210.72413008 118.796875 208.9765625 C121.72613956 204.75212724 125.65501215 203.96360619 130.4375 202.5 C131.76007813 202.06494141 131.76007813 202.06494141 133.109375 201.62109375 C137.93600052 200.04813097 142.79777846 198.61270928 147.6875 197.25 C145.89961329 234.79562093 121.11443957 271.85569042 94.43505859 296.69775391 C65.15960544 322.70129276 27.37481212 334.41215195 -11.3125 332.25 C-31.22352516 330.74621445 -49.9343951 323.83525441 -67.3125 314.25 C-68.40175781 313.6621875 -69.49101562 313.074375 -70.61328125 312.46875 C-81.34082339 306.47114067 -90.3715155 298.61971803 -99.3125 290.25 C-100.27285156 289.35539062 -101.23320312 288.46078125 -102.22265625 287.5390625 C-109.92336589 280.19756964 -116.51194984 272.17919335 -122.3125 263.25 C-122.3125 262.59 -122.3125 261.93 -122.3125 261.25 C-117.12190547 260.97573587 -111.93211702 260.72441888 -106.73828125 260.51953125 C-103.66156585 260.39140069 -100.72535664 260.17133663 -97.66796875 259.76171875 C-94.50933333 259.41075926 -92.36765288 259.34460433 -89.3125 260.25 C-86.00875911 262.90280139 -83.27073541 265.79940037 -80.4453125 268.94140625 C-72.51733928 277.64204226 -61.47957947 283.56988479 -51.3125 289.25 C-51.63001221 288.6108667 -51.94752441 287.9717334 -52.2746582 287.31323242 C-53.73486684 284.35952569 -55.17995691 281.39865387 -56.625 278.4375 C-57.37426758 276.93026367 -57.37426758 276.93026367 -58.13867188 275.39257812 C-61.33634598 268.80664007 -63.66623607 262.38557201 -65.3125 255.25 C-63.6625 254.92 -62.0125 254.59 -60.3125 254.25 C-60.3125 253.59 -60.3125 252.93 -60.3125 252.25 C-68.44158941 250.08224282 -77.15081438 251.3402056 -85.390625 252.23046875 C-96.57456139 253.33352211 -107.68559907 253.58930537 -118.91845703 253.56567383 C-122.07488805 253.56248749 -125.23040055 253.58620053 -128.38671875 253.61132812 C-147.90120697 253.67314815 -171.95184566 252.8642875 -187.484375 239.19921875 C-196.16582952 229.94271062 -198.66040345 217.69721223 -198.3125 205.25 C-197.69375 205.930625 -197.075 206.61125 -196.4375 207.3125 C-183.94191927 219.56511111 -168.06517379 222.93618317 -151.3125 225.25 C-150.29144165 225.39465698 -150.29144165 225.39465698 -149.24975586 225.54223633 C-95.57600964 232.38008284 -19.66483726 217.81288529 28.6875 192.25 C27.553125 192.724375 26.41875 193.19875 25.25 193.6875 C20.77451048 195.3848234 16.44037814 195.93094105 11.6875 196.25 C13.0075 195.59 14.3275 194.93 15.6875 194.25 C15.71434679 191.60409986 15.73426357 188.95846904 15.75 186.3125 C15.75837891 185.55775391 15.76675781 184.80300781 15.77539062 184.02539062 C15.78402441 182.10005687 15.73974333 180.17464419 15.6875 178.25 C15.3575 177.92 15.0275 177.59 14.6875 177.25 C14.6875 182.53 14.6875 187.81 14.6875 193.25 C8.04629349 195.09944991 1.42959899 196.81315923 -5.3125 198.25 C-6.61725618 195.64048764 -6.42551572 193.72298715 -6.41015625 190.8046875 C-6.40693359 189.72832031 -6.40371094 188.65195313 -6.40039062 187.54296875 C-6.39201172 186.41503906 -6.38363281 185.28710938 -6.375 184.125 C-6.37048828 182.98933594 -6.36597656 181.85367188 -6.36132812 180.68359375 C-6.34951615 177.87234362 -6.33304507 175.0611977 -6.3125 172.25 C-7.60795448 173.32029129 -7.60795448 173.32029129 -7.42602539 175.84204102 C-7.42078857 176.96795654 -7.41555176 178.09387207 -7.41015625 179.25390625 C-7.40693359 180.46884766 -7.40371094 181.68378906 -7.40039062 182.93554688 C-7.39201172 184.21494141 -7.38363281 185.49433594 -7.375 186.8125 C-7.36823242 188.73739258 -7.36823242 188.73739258 -7.36132812 190.70117188 C-7.34949545 193.88416022 -7.33301068 197.06705762 -7.3125 200.25 C-8.6325 200.25 -9.9525 200.25 -11.3125 200.25 C-11.3125 192.66 -11.3125 185.07 -11.3125 177.25 C-25.5025 177.25 -39.6925 177.25 -54.3125 177.25 C-53.32825826 185.9108725 -53.32825826 185.9108725 -52.33789062 194.57104492 C-52.21607422 195.65490479 -52.09425781 196.73876465 -51.96875 197.85546875 C-51.84306641 198.96043701 -51.71738281 200.06540527 -51.58789062 201.20385742 C-51.34328724 203.90945712 -51.25950005 206.53596085 -51.3125 209.25 C-52.3025 209.58 -53.2925 209.91 -54.3125 210.25 C-55.3025 204.805 -55.3025 204.805 -56.3125 199.25 C-56.3125 202.88 -56.3125 206.51 -56.3125 210.25 C-58.54021342 210.75643553 -60.76974076 211.2548962 -63 211.75 C-64.86205078 212.16765625 -64.86205078 212.16765625 -66.76171875 212.59375 C-69.73648218 213.14354126 -72.30618602 213.38795705 -75.3125 213.25 C-78.71853402 201.21534646 -78.3125 189.92017049 -78.3125 177.25 C-92.8325 177.25 -107.3525 177.25 -122.3125 177.25 C-120.8650467 189.43908039 -119.34275306 200.74516101 -115.30078125 212.328125 C-114.3125 215.25 -114.3125 215.25 -114.3125 217.25 C-118.02076651 217.30837668 -121.7289137 217.34372277 -125.4375 217.375 C-126.48421875 217.39175781 -127.5309375 217.40851563 -128.609375 217.42578125 C-139.46923902 217.49451457 -139.46923902 217.49451457 -143.3125 215.25 C-145.24933946 211.1865443 -145.98863305 206.78765298 -146.87451172 202.38867188 C-147.27953469 200.41096774 -147.74837843 198.44662315 -148.22265625 196.484375 C-150.56341363 185.94303204 -150.60412138 175.30934715 -150.625 164.5625 C-150.62858521 163.81995972 -150.63217041 163.07741943 -150.63586426 162.31237793 C-150.67223667 148.29042686 -149.42172261 134.80144946 -145.5625 121.25 C-145.29937012 120.31140137 -145.03624023 119.37280273 -144.76513672 118.40576172 C-132.97818332 77.41468316 -105.70235424 39.36819661 -68.19091797 18.27392578 C-46.53638575 6.47003858 -24.7716321 -0.14621721 0 0 Z " fill="#1C303F" transform="translate(329.3125,58.75)"/>
<path d="M0 0 C7.45998308 1.53146743 14.66030944 3.64128012 21.9375 5.875 C31.33529337 8.73530229 40.75049645 11.51727688 50.203125 14.19140625 C51.63000389 14.59558777 51.63000389 14.59558777 53.08570862 15.00793457 C57.82914819 16.35025384 62.57444627 17.68556921 67.32202148 19.01318359 C69.07280341 19.50731161 70.82353809 20.00160708 72.57421875 20.49609375 C73.38227966 20.71971085 74.19034058 20.94332794 75.02288818 21.17372131 C78.41768681 22.13703134 81.0407861 23.02719073 84 25 C83.69274248 31.970905 80.57461357 36.76102173 77 42.625 C75.72622589 44.75891369 74.45280449 46.89303795 73.1796875 49.02734375 C72.50260742 50.15382324 71.82552734 51.28030273 71.12792969 52.44091797 C68.91385887 56.13304312 66.73885339 59.847403 64.5703125 63.56640625 C64.19976746 64.20149109 63.82922241 64.83657593 63.44744873 65.49090576 C62.70380458 66.76567217 61.96025331 68.04049276 61.21679688 69.31536865 C56.16282703 77.98153687 51.04745984 86.60139949 45.76757812 95.13208008 C44.34779424 97.43569905 42.94942747 99.74780809 41.57421875 102.078125 C40.95160156 103.12484375 40.32898438 104.1715625 39.6875 105.25 C38.73423828 106.86648437 38.73423828 106.86648437 37.76171875 108.515625 C36 111 36 111 33 112 C31.33410689 105.54909476 29.77793265 99.08818689 28.39453125 92.5703125 C28.1313208 91.33297363 27.86811035 90.09563477 27.59692383 88.82080078 C27.39993896 87.88993652 27.2029541 86.95907227 27 86 C26.25766113 86.39155273 25.51532227 86.78310547 24.75048828 87.18652344 C2.90060004 98.68010813 -19.17866654 109.53951995 -42 119 C-36.2790195 118.42194595 -36.2790195 118.42194595 -32 115 C-30.68 115 -29.36 115 -28 115 C-28.69138709 119.31293849 -30.11925874 123.22000137 -31.75 127.25 C-32.14662842 128.23818726 -32.14662842 128.23818726 -32.55126953 129.24633789 C-34.65809975 134.38985307 -37.09424993 139.25565586 -40 144 C-36.94310165 140.40255255 -35.30876718 136.42970793 -33.5 132.125 C-32.618131 130.04933453 -31.73286948 127.97710045 -30.81738281 125.91601562 C-30.09334334 124.21880481 -29.48287941 122.47413008 -28.890625 120.7265625 C-25.96136044 116.50212724 -22.03248785 115.71360619 -17.25 114.25 C-15.92742187 113.81494141 -15.92742187 113.81494141 -14.578125 113.37109375 C-9.75149948 111.79813097 -4.88972154 110.36270928 0 109 C-1.78788671 146.54562093 -26.57306043 183.60569042 -53.25244141 208.44775391 C-82.52789456 234.45129276 -120.31268788 246.16215195 -159 244 C-178.91102516 242.49621445 -197.6218951 235.58525441 -215 226 C-216.08925781 225.4121875 -217.17851562 224.824375 -218.30078125 224.21875 C-229.02832339 218.22114067 -238.0590155 210.36971803 -247 202 C-247.96035156 201.10539063 -248.92070312 200.21078125 -249.91015625 199.2890625 C-257.61086589 191.94756964 -264.19944984 183.92919335 -270 175 C-270 174.34 -270 173.68 -270 173 C-264.80940547 172.72573587 -259.61961702 172.47441888 -254.42578125 172.26953125 C-251.34906585 172.14140069 -248.41285664 171.92133663 -245.35546875 171.51171875 C-242.19683333 171.16075926 -240.05515288 171.09460433 -237 172 C-233.69625911 174.65280139 -230.95823541 177.54940037 -228.1328125 180.69140625 C-220.20483928 189.39204226 -209.16707947 195.31988479 -199 201 C-199.31751221 200.3608667 -199.63502441 199.7217334 -199.9621582 199.06323242 C-201.42236684 196.10952569 -202.86745691 193.14865387 -204.3125 190.1875 C-205.06176758 188.68026367 -205.06176758 188.68026367 -205.82617188 187.14257812 C-209.02384598 180.55664007 -211.35373607 174.13557201 -213 167 C-211.35 166.67 -209.7 166.34 -208 166 C-208 165.34 -208 164.68 -208 164 C-216.12908941 161.83224282 -224.83831438 163.0902056 -233.078125 163.98046875 C-244.26206139 165.08352211 -255.37309907 165.33930537 -266.60595703 165.31567383 C-269.76238805 165.31248749 -272.91790055 165.33620053 -276.07421875 165.36132812 C-295.58870697 165.42314815 -319.63934566 164.6142875 -335.171875 150.94921875 C-343.85332952 141.69271062 -346.34790345 129.44721223 -346 117 C-345.38125 117.680625 -344.7625 118.36125 -344.125 119.0625 C-331.62941927 131.31511111 -315.75267379 134.68618317 -299 137 C-297.97894165 137.14465698 -297.97894165 137.14465698 -296.93725586 137.29223633 C-213.31371945 147.94558079 -118.32049187 109.81343525 2 40 C4.78313902 37.82924968 7.51727684 35.60463087 10.21484375 33.328125 C12 32 12 32 14 32 C9.88995957 22.61158277 5.77726285 13.27560972 1.03125 4.1875 C0 2 0 2 0 0 Z " fill="#1D303E" transform="translate(477,147)"/>
<path d="M0 0 C7.45998308 1.53146743 14.66030944 3.64128012 21.9375 5.875 C31.33529337 8.73530229 40.75049645 11.51727688 50.203125 14.19140625 C51.63000389 14.59558777 51.63000389 14.59558777 53.08570862 15.00793457 C57.82914819 16.35025384 62.57444627 17.68556921 67.32202148 19.01318359 C69.07280341 19.50731161 70.82353809 20.00160708 72.57421875 20.49609375 C73.38227966 20.71971085 74.19034058 20.94332794 75.02288818 21.17372131 C78.41768681 22.13703134 81.0407861 23.02719073 84 25 C83.69274248 31.970905 80.57461357 36.76102173 77 42.625 C75.72622589 44.75891369 74.45280449 46.89303795 73.1796875 49.02734375 C72.50260742 50.15382324 71.82552734 51.28030273 71.12792969 52.44091797 C68.91385887 56.13304312 66.73885339 59.847403 64.5703125 63.56640625 C64.19976746 64.20149109 63.82922241 64.83657593 63.44744873 65.49090576 C62.70380458 66.76567217 61.96025331 68.04049276 61.21679688 69.31536865 C56.16282703 77.98153687 51.04745984 86.60139949 45.76757812 95.13208008 C44.34779424 97.43569905 42.94942747 99.74780809 41.57421875 102.078125 C40.95160156 103.12484375 40.32898438 104.1715625 39.6875 105.25 C38.73423828 106.86648437 38.73423828 106.86648437 37.76171875 108.515625 C36 111 36 111 33 112 C31.33410689 105.54909476 29.77793265 99.08818689 28.39453125 92.5703125 C28.1313208 91.33297363 27.86811035 90.09563477 27.59692383 88.82080078 C27.39993896 87.88993652 27.2029541 86.95907227 27 86 C26.25766113 86.39155273 25.51532227 86.78310547 24.75048828 87.18652344 C-26.91003168 114.36124191 -80.0368296 135.93067553 -137 149 C-138.25780273 149.29100586 -139.51560547 149.58201172 -140.81152344 149.88183594 C-148.84882596 151.72358218 -156.90773023 153.41790262 -165 155 C-166.09119141 155.2160791 -167.18238281 155.4321582 -168.30664062 155.65478516 C-202.23626757 162.22902307 -236.95949167 165.46370291 -271.5 165.5 C-272.50922516 165.50440094 -273.51845032 165.50880188 -274.55825806 165.51333618 C-294.46990867 165.54988331 -319.32055302 164.89475202 -335.171875 150.94921875 C-343.85332952 141.69271062 -346.34790345 129.44721223 -346 117 C-345.38125 117.680625 -344.7625 118.36125 -344.125 119.0625 C-331.62941927 131.31511111 -315.75267379 134.68618317 -299 137 C-297.97894165 137.14465698 -297.97894165 137.14465698 -296.93725586 137.29223633 C-213.31371945 147.94558079 -118.32049187 109.81343525 2 40 C4.78313902 37.82924968 7.51727684 35.60463087 10.21484375 33.328125 C12 32 12 32 14 32 C9.88995957 22.61158277 5.77726285 13.27560972 1.03125 4.1875 C0 2 0 2 0 0 Z " fill="#1268E1" transform="translate(477,147)"/>
<path d="M0 0 C1.29873047 -0.00773437 2.59746094 -0.01546875 3.93554688 -0.0234375 C16.79779081 0.00214628 29.19688869 1.24158261 41.4375 5.3125 C42.36506104 5.61631592 43.29262207 5.92013184 44.24829102 6.2331543 C76.707867 17.22266392 104.83466842 38.54227919 123.6875 67.25 C124.10837891 67.88566895 124.52925781 68.52133789 124.96289062 69.17626953 C133.38878911 82.11604221 148.00594328 104.99005069 146.42749023 120.86499023 C144.52047124 127.0113672 136.54491334 130.78532091 131.375 134.1875 C130.75214111 134.60161133 130.12928223 135.01572266 129.48754883 135.44238281 C127.92745868 136.44339628 126.31082649 137.35517022 124.6875 138.25 C122.6875 137.25 122.6875 137.25 121.98901367 135.39916992 C121.77994385 134.60099854 121.57087402 133.80282715 121.35546875 132.98046875 C121.11650879 132.09665527 120.87754883 131.2128418 120.63134766 130.30224609 C120.38175293 129.35687988 120.1321582 128.41151367 119.875 127.4375 C117.89029529 120.15942909 115.73161935 113.2891269 112.5703125 106.4296875 C111.6875 104.25 111.6875 104.25 111.6875 101.25 C111.09324219 101.45157715 110.49898438 101.6531543 109.88671875 101.86083984 C107.15473678 102.78548615 104.42114091 103.70527035 101.6875 104.625 C100.75292969 104.94210938 99.81835938 105.25921875 98.85546875 105.5859375 C83.81881175 110.63320698 83.81881175 110.63320698 77.6875 110.25 C77.89246094 111.33796875 78.09742188 112.4259375 78.30859375 113.546875 C80.58257689 125.84801419 81.85243389 137.71502464 81.6875 150.25 C88.2875 150.25 94.8875 150.25 101.6875 150.25 C100.6875 152.25 100.6875 152.25 98.67578125 153.3671875 C94.68133092 154.54724733 91.01316547 154.46518634 86.875 154.375 C86.08673828 154.36597656 85.29847656 154.35695312 84.48632812 154.34765625 C82.55325334 154.32422504 80.6203362 154.28835838 78.6875 154.25 C78.64262451 153.63817871 78.59774902 153.02635742 78.55151367 152.39599609 C77.44492327 137.59276559 75.87075303 122.93336105 73.6875 108.25 C82.20103703 105.57289167 90.75244658 103.02370907 99.3125 100.5 C100.37984375 100.18216553 101.4471875 99.86433105 102.546875 99.53686523 C103.55492187 99.24110596 104.56296875 98.94534668 105.6015625 98.640625 C106.5085791 98.37282227 107.4155957 98.10501953 108.35009766 97.82910156 C110.6875 97.25 110.6875 97.25 113.6875 97.25 C125.6875 126.39847162 125.6875 126.39847162 125.6875 132.25 C128.17964738 130.7055284 130.65479032 129.14137382 133.125 127.5625 C133.83205078 127.12744141 134.53910156 126.69238281 135.26757812 126.24414062 C139.1998696 123.73098722 139.1998696 123.73098722 141.84375 120 C141.59980983 115.70665299 140.22273288 111.95532557 138.75 107.9375 C138.27119385 106.60779175 138.27119385 106.60779175 137.78271484 105.2512207 C134.69897175 96.90834023 130.99269258 89.02576623 126.6875 81.25 C126.16567139 80.30133057 126.16567139 80.30133057 125.63330078 79.33349609 C106.79251552 45.50631048 75.937161 20.121416 38.6171875 9.3125 C16.46181567 3.18558236 -5.82841365 2.38205749 -28.3125 7.25 C-29.35470703 7.47550537 -29.35470703 7.47550537 -30.41796875 7.70556641 C-68.06488126 16.33746563 -100.09525106 42.94582542 -120.4375 75.0625 C-132.31115484 94.27388443 -139.82951262 114.13087148 -144.3125 136.25 C-144.58513672 137.59179321 -144.58513672 137.59179321 -144.86328125 138.96069336 C-145.43628815 143.15641179 -145.47486966 147.26630058 -145.48046875 151.49609375 C-145.48379715 152.38426285 -145.48712555 153.27243195 -145.49055481 154.18751526 C-145.49560443 156.06600429 -145.49796374 157.94450224 -145.49780273 159.82299805 C-145.49996903 162.6471307 -145.51808962 165.47085926 -145.53710938 168.29492188 C-145.58010099 181.94205526 -144.92248464 194.9302482 -140.8984375 208.078125 C-140.3125 210.25 -140.3125 210.25 -140.3125 213.25 C-139.42111328 213.23259766 -139.42111328 213.23259766 -138.51171875 213.21484375 C-132.05354487 213.14453704 -125.73260387 213.56649084 -119.3125 214.25 C-119.69341797 213.12078125 -119.69341797 213.12078125 -120.08203125 211.96875 C-122.09413512 205.75911108 -123.80305105 199.5896341 -125.0625 193.1875 C-125.30484375 191.95902344 -125.5471875 190.73054687 -125.796875 189.46484375 C-126.45353072 184.09718073 -126.3125 178.65768 -126.3125 173.25 C-109.4825 173.25 -92.6525 173.25 -75.3125 173.25 C-74.375 186.5 -74.375 186.5 -74.08618164 190.59863281 C-73.54894414 198.15405068 -72.96237303 205.70342601 -72.3125 213.25 C-73.3025 213.25 -74.2925 213.25 -75.3125 213.25 C-78.71853402 201.21534646 -78.3125 189.92017049 -78.3125 177.25 C-92.8325 177.25 -107.3525 177.25 -122.3125 177.25 C-120.8650467 189.43908039 -119.34275306 200.74516101 -115.30078125 212.328125 C-114.3125 215.25 -114.3125 215.25 -114.3125 217.25 C-118.02076651 217.30837668 -121.7289137 217.34372277 -125.4375 217.375 C-126.48421875 217.39175781 -127.5309375 217.40851563 -128.609375 217.42578125 C-139.46923902 217.49451457 -139.46923902 217.49451457 -143.3125 215.25 C-145.24933946 211.1865443 -145.98863305 206.78765298 -146.87451172 202.38867188 C-147.27953469 200.41096774 -147.74837843 198.44662315 -148.22265625 196.484375 C-150.56341363 185.94303204 -150.60412138 175.30934715 -150.625 164.5625 C-150.62858521 163.81995972 -150.63217041 163.07741943 -150.63586426 162.31237793 C-150.67223667 148.29042686 -149.42172261 134.80144946 -145.5625 121.25 C-145.29937012 120.31140137 -145.03624023 119.37280273 -144.76513672 118.40576172 C-132.97818332 77.41468316 -105.70235424 39.36819661 -68.19091797 18.27392578 C-46.53638575 6.47003858 -24.7716321 -0.14621721 0 0 Z " fill="#F0F1F1" transform="translate(329.3125,58.75)"/>
<path d="M0 0 C31.25000485 -1.24446922 60.74172924 8.87109104 84.3125 29.5 C94.21940047 38.78271773 109.4809799 54.45180267 110.125 68.78125 C110.08375 69.5134375 110.0425 70.245625 110 71 C102.35687797 70.07197343 95.2023282 67.94293218 87.84790039 65.71923828 C86.24318921 65.24040924 84.63435934 64.77516932 83.02172852 64.32373047 C67.88775356 60.08084831 67.88775356 60.08084831 64.20703125 54.55859375 C63.44020658 53.05454059 62.70201484 51.5353733 62 50 C61.21904818 48.78603107 60.4128006 47.58783318 59.578125 46.41015625 C59.19825439 45.85884033 58.81838379 45.30752441 58.42700195 44.73950195 C43.95259365 24.11624732 22.9729012 10.68560877 0 1 C0 0.67 0 0.34 0 0 Z " fill="#1268E1" transform="translate(417,78)"/>
<path d="M0 0 C-1.78788671 37.54562093 -26.57306043 74.60569042 -53.25244141 99.44775391 C-82.52789456 125.45129276 -120.31268788 137.16215195 -159 135 C-178.91102516 133.49621445 -197.6218951 126.58525441 -215 117 C-216.08925781 116.4121875 -217.17851562 115.824375 -218.30078125 115.21875 C-229.02832339 109.22114067 -238.0590155 101.36971803 -247 93 C-248.44052734 91.65808594 -248.44052734 91.65808594 -249.91015625 90.2890625 C-257.61086589 82.94756964 -264.19944984 74.92919335 -270 66 C-270 65.34 -270 64.68 -270 64 C-264.80940547 63.72573587 -259.61961702 63.47441888 -254.42578125 63.26953125 C-251.34906585 63.14140069 -248.41285664 62.92133663 -245.35546875 62.51171875 C-242.19683333 62.16075926 -240.05515288 62.09460433 -237 63 C-233.69625911 65.65280139 -230.95823541 68.54940037 -228.1328125 71.69140625 C-220.20483928 80.39204226 -209.16707947 86.31988479 -199 92 C-199.31751221 91.3608667 -199.63502441 90.7217334 -199.9621582 90.06323242 C-201.42236684 87.10952569 -202.86745691 84.14865387 -204.3125 81.1875 C-205.06176758 79.68026367 -205.06176758 79.68026367 -205.82617188 78.14257812 C-209.02384598 71.55664007 -211.35373607 65.13557201 -213 58 C-211.68 58 -210.36 58 -209 58 C-208.38125 59.670625 -208.38125 59.670625 -207.75 61.375 C-204.7569934 69.33178213 -201.62230537 77.14484772 -197.8125 84.75 C-197.49216797 85.39195312 -197.17183594 86.03390625 -196.84179688 86.6953125 C-194.807794 90.6710542 -192.53485512 94.33542009 -190 98 C-190.33 98.66 -190.66 99.32 -191 100 C-202.94614949 94.76086418 -213.78396227 89.14095296 -224 81 C-224.56928223 80.54882812 -225.13856445 80.09765625 -225.72509766 79.6328125 C-235.38836146 71.91745781 -235.38836146 71.91745781 -238 68 C-240.71004503 67.489395 -240.71004503 67.489395 -243.8828125 67.48828125 C-245.04941406 67.45283203 -246.21601563 67.41738281 -247.41796875 67.38085938 C-248.64128906 67.35830078 -249.86460937 67.33574219 -251.125 67.3125 C-252.35605469 67.27833984 -253.58710938 67.24417969 -254.85546875 67.20898438 C-257.9035551 67.12628436 -260.95134571 67.05720573 -264 67 C-240.19853767 99.27316925 -207.93439637 122.29747453 -167.875 129.09375 C-161.10075421 130.09827748 -154.46471361 130.30804288 -147.625 130.25 C-146.43962646 130.24178223 -145.25425293 130.23356445 -144.03295898 130.22509766 C-115.33507254 129.85906825 -87.79834605 120.68674989 -65 103 C-64.07316406 102.29359375 -63.14632812 101.5871875 -62.19140625 100.859375 C-32.86141128 77.72820166 -11.47952184 42.99354914 -5 6 C-6.19238281 6.433125 -7.38476562 6.86625 -8.61328125 7.3125 C-10.1795982 7.87524861 -11.74600939 8.43773498 -13.3125 9 C-14.09818359 9.28617187 -14.88386719 9.57234375 -15.69335938 9.8671875 C-16.45068359 10.13789063 -17.20800781 10.40859375 -17.98828125 10.6875 C-18.68477783 10.93886719 -19.38127441 11.19023437 -20.09887695 11.44921875 C-22 12 -22 12 -25 12 C-25.185625 12.78697266 -25.185625 12.78697266 -25.375 13.58984375 C-26.99524662 19.67589513 -29.3325927 25.34477646 -31.9375 31.0625 C-32.27330078 31.8248999 -32.60910156 32.5872998 -32.95507812 33.37280273 C-33.45491211 34.44316772 -33.45491211 34.44316772 -33.96484375 35.53515625 C-34.2599585 36.178479 -34.55507324 36.82180176 -34.85913086 37.48461914 C-36 39 -36 39 -37.74462891 39.82910156 C-40.87645239 40.06641228 -43.15384314 39.21608678 -46.12109375 38.19921875 C-47.30380859 37.79896484 -48.48652344 37.39871094 -49.70507812 36.98632812 C-50.93677734 36.55771484 -52.16847656 36.12910156 -53.4375 35.6875 C-55.27924805 35.06198242 -55.27924805 35.06198242 -57.15820312 34.42382812 C-62.15222629 32.7192813 -67.11470824 30.99788584 -72 29 C-71.34 28.34 -70.68 27.68 -70 27 C-62.73246817 27.28371746 -56.29940757 29.26914241 -49.4375 31.5625 C-47.92446289 32.0565332 -47.92446289 32.0565332 -46.38085938 32.56054688 C-43.91791158 33.36596582 -41.45786243 34.17922039 -39 35 C-37.74874665 32.35475322 -36.49897547 29.70882213 -35.25 27.0625 C-34.90195312 26.32708984 -34.55390625 25.59167969 -34.1953125 24.83398438 C-33.84726562 24.09599609 -33.49921875 23.35800781 -33.140625 22.59765625 C-32.77783447 21.84637451 -32.41504395 21.09509277 -32.04125977 20.32104492 C-30.95847074 18.01203055 -30.95847074 18.01203055 -30.19116211 15.5637207 C-28.96838209 12.07542188 -28.08995114 9.68838355 -24.89208984 7.66870117 C-22.30881426 6.61897547 -19.74874892 5.80878739 -17.0625 5.0625 C-15.2824837 4.5119398 -13.50253373 3.96116509 -11.72265625 3.41015625 C-10.89523926 3.16797363 -10.06782227 2.92579102 -9.21533203 2.67626953 C-0.44837545 0 -0.44837545 0 0 0 Z " fill="#F0F2F2" transform="translate(477,256)"/>
<path d="M0 0 C7.39724929 1.96514398 14.74312981 4.08127596 22.07202148 6.28588867 C25.69344005 7.36522493 29.27705597 8.34300988 33 9 C33.20717744 15.36845444 32.40201086 21.50640676 31.5625 27.8125 C31.29174867 29.88135111 31.02220478 31.95036062 30.75390625 34.01953125 C30.57323608 35.38235229 30.57323608 35.38235229 30.38891602 36.77270508 C29.8584992 41.17419903 29.44113368 45.58866324 29 50 C14.81 50 0.62 50 -14 50 C-14 43.83855886 -13.40720546 39.18041546 -12 33.3125 C-11.78504883 32.40781982 -11.57009766 31.50313965 -11.34863281 30.57104492 C-8.70985271 20.05687111 -4.8526582 9.7053164 0 0 Z " fill="#242C33" transform="translate(221,159)"/>
<path d="M0 0 C1.52501633 -0.01292336 1.52501633 -0.01292336 3.08084106 -0.02610779 C6.44420779 -0.048825 9.80674516 -0.0420178 13.17016602 -0.03295898 C15.50659941 -0.03819218 17.84303069 -0.04446754 20.17945862 -0.05174255 C25.07791072 -0.06215758 29.97607254 -0.05756952 34.87451172 -0.04296875 C41.15410163 -0.02578417 47.43277631 -0.04926743 53.71226406 -0.08445835 C58.53784762 -0.10641208 63.36321154 -0.10499561 68.18882942 -0.09669304 C70.5041002 -0.09587233 72.81938691 -0.10275848 75.13461113 -0.11746407 C78.37156394 -0.13487062 81.60686391 -0.12039803 84.84375 -0.09765625 C85.80131699 -0.10934845 86.75888397 -0.12104065 87.74546814 -0.13308716 C92.32158763 -0.06762546 94.35813981 0.06338891 98.12049866 2.87757874 C99.98657227 5.53344727 99.98657227 5.53344727 99.98657227 8.65844727 C98.96483021 11.59595566 98.38107314 12.6536284 95.98657227 14.53344727 C93.95475006 14.913764 93.95475006 14.913764 91.5838623 14.92112732 C90.23370781 14.93598427 90.23370781 14.93598427 88.85627747 14.95114136 C87.87124741 14.94663971 86.88621735 14.94213806 85.87133789 14.9375 C84.31246101 14.94779488 84.31246101 14.94779488 82.72209167 14.95829773 C79.27886382 14.97663412 75.83608858 14.97271871 72.39282227 14.96704102 C70.00532888 14.97159923 67.61783682 14.97690371 65.23034668 14.98292542 C60.22341587 14.99186977 55.21664445 14.98941791 50.2097168 14.97949219 C43.78318177 14.9679957 37.35719562 14.98821828 30.93073273 15.01740932 C25.99974047 15.03572564 21.06888088 15.03548806 16.13786316 15.0297718 C13.76791107 15.02961806 11.39795028 15.03570611 9.0280304 15.04806328 C5.71893525 15.06288645 2.41086886 15.0523598 -0.89819336 15.03515625 C-1.88322342 15.04482422 -2.86825348 15.05449219 -3.88313293 15.06445312 C-5.23328743 15.04970192 -5.23328743 15.04970192 -6.61071777 15.03465271 C-7.39311073 15.03444343 -8.17550369 15.03423414 -8.98160553 15.03401852 C-11.01342773 14.53344727 -11.01342773 14.53344727 -12.76125336 12.68962193 C-14.47579705 9.73727301 -14.50350948 7.8940078 -14.01342773 4.53344727 C-10.54859461 -0.79211769 -5.74468399 -0.03906779 0 0 Z " fill="#1169E3" transform="translate(65.013427734375,174.466552734375)"/>
<path d="M0 0 C1.00023697 -0.00700928 2.00047394 -0.01401855 3.03102112 -0.02124023 C6.34452905 -0.03887683 9.65718618 -0.02717699 12.97070312 -0.01367188 C15.26851567 -0.01636515 17.56632711 -0.02024619 19.86413574 -0.02526855 C24.68280881 -0.0311713 29.50118555 -0.02257538 34.31982422 -0.00390625 C40.50425553 0.01888337 46.68799255 0.00576449 52.87239838 -0.01819611 C57.6181158 -0.0326329 62.36366793 -0.02805776 67.10939026 -0.01768494 C69.39002056 -0.0150118 71.67066576 -0.01830791 73.95127869 -0.02760315 C77.13589369 -0.03773358 80.31937588 -0.02231597 83.50390625 0 C84.92534691 -0.01214539 84.92534691 -0.01214539 86.37550354 -0.02453613 C92.73259517 0.05821974 92.73259517 0.05821974 95.33776855 2.36242676 C96.58260314 5.29707153 96.64671499 7.35948324 96.25195312 10.51757812 C95.33103943 12.67272949 95.33103943 12.67272949 93.25195312 14.51757812 C90.04890313 15.14125519 86.86566358 15.06328476 83.61157227 15.03515625 C82.62269516 15.04216553 81.63381805 15.0491748 80.61497498 15.05639648 C77.338736 15.07403404 74.06335749 15.06233205 70.78710938 15.04882812 C68.51411269 15.05152159 66.24111712 15.05540279 63.96812439 15.0604248 C59.20072476 15.06632786 54.43362462 15.05773146 49.66625977 15.0390625 C43.55142626 15.0162858 37.43729547 15.02938335 31.32248783 15.05335236 C26.62734168 15.06779938 21.93236238 15.06320907 17.23721123 15.05284119 C14.98252721 15.05017022 12.72782811 15.05345661 10.4731617 15.0627594 C7.32227532 15.07290518 4.17252981 15.05745 1.02172852 15.03515625 C-0.38029312 15.04730164 -0.38029312 15.04730164 -1.81063843 15.05969238 C-8.1046151 14.977087 -8.1046151 14.977087 -11.33131409 12.67272949 C-13.26186475 9.73595205 -13.25119892 7.96776355 -12.74804688 4.51757812 C-10.3554496 -1.0988698 -5.28062145 -0.04511985 0 0 Z " fill="#116AE4" transform="translate(42.748046875,208.482421875)"/>
<path d="M0 0 C1.22332031 0.13277344 2.44664062 0.26554688 3.70703125 0.40234375 C15.47127409 1.64650298 27.18151815 2.46279628 39 3 C39 13.89 39 24.78 39 36 C24.81 36 10.62 36 -4 36 C-3.71125 32.101875 -3.4225 28.20375 -3.125 24.1875 C-3.03879395 22.98246826 -2.95258789 21.77743652 -2.86376953 20.53588867 C-2.3274743 13.58616013 -1.39888781 6.82880386 0 0 Z " fill="#242C32" transform="translate(279,173)"/>
<path d="M0 0 C0.51012614 3.95709552 1.00621646 7.91583468 1.5 11.875 C1.64308594 12.98359375 1.78617187 14.0921875 1.93359375 15.234375 C2.13662109 16.87792969 2.13662109 16.87792969 2.34375 18.5546875 C2.46943359 19.54968262 2.59511719 20.54467773 2.72460938 21.56982422 C3.08294447 26.03312924 3 30.52233367 3 35 C-10.86 35 -24.72 35 -39 35 C-39 24.11 -39 13.22 -39 2 C-34.05 1.67 -29.1 1.34 -24 1 C-22.45441406 0.89558594 -20.90882813 0.79117188 -19.31640625 0.68359375 C-18.07761719 0.60238281 -16.83882813 0.52117187 -15.5625 0.4375 C-13.67724609 0.31181641 -13.67724609 0.31181641 -11.75390625 0.18359375 C-7.82385134 -0.00861497 -3.93384807 -0.03049495 0 0 Z " fill="#242C32" transform="translate(383,174)"/>
<path d="M0 0 C0 18.48 0 36.96 0 56 C-11.25 56 -11.25 56 -15.7890625 55.5625 C-17.22958984 55.42714844 -17.22958984 55.42714844 -18.69921875 55.2890625 C-19.66472656 55.19367188 -20.63023437 55.09828125 -21.625 55 C-23.13126953 54.85691406 -23.13126953 54.85691406 -24.66796875 54.7109375 C-27.11241236 54.47813335 -29.5563625 54.2410936 -32 54 C-30.82441594 47.66527069 -28.99703317 42.03663306 -26.3125 36.1875 C-25.95655762 35.40487793 -25.60061523 34.62225586 -25.23388672 33.81591797 C-9.60888822 0 -9.60888822 0 0 0 Z " fill="#242B31" transform="translate(318,93)"/>
<path d="M0 0 C14.75485449 12.64701813 25.57812696 31.25173374 31 50 C31 51.32 31 52.64 31 54 C28.27175343 54.34294457 25.54282824 54.67438471 22.8125 55 C22.06291016 55.09539062 21.31332031 55.19078125 20.54101562 55.2890625 C13.55868157 56.10707653 7.18292603 56 0 56 C0 37.52 0 19.04 0 0 Z " fill="#232B31" transform="translate(344,93)"/>
<path d="M0 0 C1.28813599 -0.01268417 2.57627197 -0.02536835 3.90344238 -0.03843689 C5.3060726 -0.03638553 6.70870171 -0.03339757 8.11132812 -0.02954102 C9.55334723 -0.03410322 10.99536416 -0.0394089 12.43737793 -0.04542542 C15.45687708 -0.0543531 18.47611168 -0.05193705 21.49560547 -0.04199219 C25.36290044 -0.0304954 29.22928329 -0.05072527 33.09645844 -0.07990932 C36.07336209 -0.09826387 39.05004676 -0.09798059 42.0269928 -0.0922718 C43.45273621 -0.09211853 44.87849442 -0.0981677 46.30418396 -0.11056328 C48.2977904 -0.12545643 50.29154704 -0.11217486 52.28515625 -0.09765625 C53.98581238 -0.097407 53.98581238 -0.097407 55.7208252 -0.09715271 C59.30567475 0.51780213 60.48657244 1.51770716 62.64257812 4.40405273 C63.19583464 8.27684831 63.39058214 10.40417985 61.00767517 13.58946228 C57.93849827 15.944249 56.14686051 15.91641788 52.30102539 15.9375 C51.0161171 15.95333633 49.7312088 15.96917267 48.40736389 15.98548889 C47.00790036 15.98164717 45.60843967 15.97660798 44.20898438 15.97045898 C42.76935931 15.97569561 41.32973769 15.98197223 39.89012146 15.98924255 C36.87474408 15.99964459 33.85983865 15.99508932 30.84448242 15.98046875 C26.9860458 15.96328897 23.12909949 15.98676452 19.2708292 16.02195835 C16.29813324 16.04395377 13.32579265 16.0424858 10.3530407 16.03419304 C8.93091129 16.0333745 7.50875554 16.04021937 6.08670235 16.05496407 C4.09570913 16.07244213 2.10450108 16.05452888 0.11352539 16.03515625 C-1.01802475 16.03419449 -2.14957489 16.03323273 -3.31541443 16.03224182 C-7.33541259 15.20209297 -8.86009353 13.60038835 -11.35742188 10.40405273 C-11.41992188 6.77905273 -11.41992188 6.77905273 -10.35742188 3.40405273 C-7.12583245 0.14029041 -4.48282763 0.02136292 0 0 Z " fill="#1168E0" transform="translate(57.357421875,242.595947265625)"/>
<path d="M0 0 C6.0956622 2.0702249 9.52732551 6.05465102 12.375 11.75 C13.47654776 17.47804837 12.77486801 22.76149242 10.875 28.25 C8.0864975 32.33980367 4.45598073 35.77200964 0 38 C-4.71902906 38.69911542 -9.12585949 39.02864064 -13.3984375 36.68359375 C-18.41159069 32.51839027 -21.45278909 28.22529945 -22.30859375 21.6171875 C-22.61266613 15.59102584 -21.57889079 10.91006358 -18 6 C-12.35525196 0.21125329 -7.84807517 -0.65299855 0 0 Z " fill="#1268E1" transform="translate(177,83)"/>
<path d="M0 0 C4.12689938 2.78325772 6.7793106 6.2409654 8.6875 10.8125 C9.61818924 17.67021021 9.39027637 23.54213151 5.15625 29.1875 C1.27235188 33.48457877 -1.95705931 35.08050641 -7.6875 35.5 C-13.11797841 35.3073773 -15.89037507 33.51885206 -19.75390625 29.83203125 C-24.16585133 24.11530041 -24.03939948 17.74104816 -23.3125 10.8125 C-21.83658008 5.92517235 -18.52156158 2.43327931 -14.3046875 -0.30859375 C-9.44949301 -2.45059132 -4.85998671 -1.74225939 0 0 Z " fill="#1268E1" transform="translate(485.3125,313.1875)"/>
<path d="M0 0 C1.11125244 -0.00945648 2.22250488 -0.01891296 3.36743164 -0.02865601 C5.16748657 -0.01954697 5.16748657 -0.01954697 7.00390625 -0.01025391 C8.2355249 -0.01312408 9.46714355 -0.01599426 10.73608398 -0.01895142 C14.00988582 -0.02151799 17.28326162 -0.00943251 20.55700684 0.00732422 C22.5645101 0.01317806 24.57161994 0.00734564 26.57910156 -0.00292969 C30.4292232 -0.02142621 34.27876059 -0.01922633 38.12890625 -0.01025391 C39.32894287 -0.0163266 40.52897949 -0.02239929 41.76538086 -0.02865601 C43.43225952 -0.01447128 43.43225952 -0.01447128 45.1328125 0 C46.6014978 0.00358017 46.6014978 0.00358017 48.09985352 0.00723267 C50.56640625 0.38818359 50.56640625 0.38818359 52.37866211 1.72885132 C54.25713465 4.3531624 54.01352971 6.2583194 53.56640625 9.38818359 C51.53180762 11.98270024 50.33069701 13.23315708 47.06225586 13.89611816 C46.12389893 13.89930054 45.18554199 13.90248291 44.21875 13.90576172 C42.61688843 13.92467468 42.61688843 13.92467468 40.98266602 13.94396973 C39.83467529 13.9358728 38.68668457 13.92777588 37.50390625 13.91943359 C35.72874634 13.92517395 35.72874634 13.92517395 33.91772461 13.93103027 C31.41616973 13.93375169 28.91458651 13.92637463 26.41308594 13.90966797 C22.58073576 13.88826363 18.75026051 13.90946404 14.91796875 13.93505859 C12.48827711 13.93241536 10.05858663 13.92729048 7.62890625 13.91943359 C5.90692017 13.93157898 5.90692017 13.93157898 4.15014648 13.94396973 C3.08223877 13.93136108 2.01433105 13.91875244 0.9140625 13.90576172 C-0.4934729 13.90098816 -0.4934729 13.90098816 -1.92944336 13.89611816 C-5.19788451 13.23315708 -6.39899512 11.98270024 -8.43359375 9.38818359 C-8.88071721 6.2583194 -9.12432215 4.3531624 -7.24584961 1.72885132 C-4.75767283 -0.1118481 -3.07958042 0.007507 0 0 Z " fill="#126AE4" transform="translate(68.43359375,276.61181640625)"/>
<path d="M0 0 C6.42367342 1.35201183 12.6640692 3.011319 18.9375 4.9375 C19.76701172 5.18951172 20.59652344 5.44152344 21.45117188 5.70117188 C23.11608355 6.2069842 24.78063993 6.71396757 26.44482422 7.22216797 C30.62583306 8.49492682 34.81291891 9.74738767 39 11 C38.56965617 16.04266788 38.11724562 21.07905768 37.5234375 26.10546875 C37.39461182 27.20785889 37.39461182 27.20785889 37.26318359 28.33251953 C37.09626808 29.74681111 36.92521615 31.16062563 36.74853516 32.57373047 C35.75341693 41.05276336 35.47668711 49.41963204 35 58 C18.17 58 1.34 58 -16 58 C-14.82669032 41.57366444 -14.82669032 41.57366444 -12.9375 34.375 C-12.72633545 33.54742187 -12.5151709 32.71984375 -12.29760742 31.8671875 C-9.35671219 20.90820087 -5.15174091 10.11398599 0 0 Z M2 4 C-3.6139746 16.43989905 -7.97697464 28.68470911 -11 42 C-11.20753906 42.85851562 -11.41507813 43.71703125 -11.62890625 44.6015625 C-12.10829829 47.69994895 -12 50.86474637 -12 54 C2.19 54 16.38 54 31 54 C31.94492437 44.68154314 31.94492437 44.68154314 32.88452148 35.36254883 C33.00384033 34.19747803 33.12315918 33.03240723 33.24609375 31.83203125 C33.42676392 30.04889526 33.42676392 30.04889526 33.61108398 28.22973633 C34 25 34 25 34.54321289 22.3112793 C35.15966951 19.19209446 35.06215084 16.16969288 35 13 C33.76765625 12.68546875 32.5353125 12.3709375 31.265625 12.046875 C22.78746705 9.86153527 14.40833057 7.62876246 6.15234375 4.69921875 C4.06015447 3.89701034 4.06015447 3.89701034 2 4 Z " fill="#EEEFF0" transform="translate(219,155)"/>
<path d="M0 0 C16.13774676 5.82017096 31.4822936 20.57300099 43 33 C43 33.66 43 34.32 43 35 C39.77198351 35.98298598 36.54239567 36.96070802 33.3125 37.9375 C31.94448242 38.35418945 31.94448242 38.35418945 30.54882812 38.77929688 C29.66259766 39.04677734 28.77636719 39.31425781 27.86328125 39.58984375 C26.64572144 39.95903931 26.64572144 39.95903931 25.40356445 40.33569336 C22.95103105 41.01353423 20.50013823 41.53110248 18 42 C16.00508909 37.03052265 14.01847366 32.05832885 12.0703125 27.0703125 C8.43842677 17.81379238 4.70730971 8.77271355 0 0 Z " fill="#232A30" transform="translate(383,101)"/>
<path d="M0 0 C0 4.08198683 -1.6439579 5.34650571 -4.1875 8.5 C-8.46808638 14.00349148 -11.57940695 19.4596525 -14 26 C-14.47759766 27.25490234 -14.47759766 27.25490234 -14.96484375 28.53515625 C-18.64790496 39.78801147 -18.52769239 53.03112618 -14 64 C-20.97197095 62.94252292 -26.08474395 59.28896454 -30.5625 53.9375 C-33.75041499 47.29723467 -32.93418095 38.71373129 -30.5625 31.9375 C-24.05610946 17.84795711 -12.59577036 8.41471089 0 0 Z " fill="#1169E2" transform="translate(169,209)"/>
<path d="M0 0 C0 22.11 0 44.22 0 67 C-35.44261585 65.31225639 -35.44261585 65.31225639 -41 62 C-35.57719445 45.58779684 -29.34142151 29.98491812 -19 16 C-18.53335937 15.34902344 -18.06671875 14.69804688 -17.5859375 14.02734375 C-14.48884719 10.05183894 -5.25920467 0 0 0 Z M-12 13 C-22.0162048 24.52774116 -36 45.09678756 -36 61 C-32.54239094 61.34113382 -29.08382414 61.67143391 -25.625 62 C-24.65949219 62.09539062 -23.69398438 62.19078125 -22.69921875 62.2890625 C-21.25869141 62.42441406 -21.25869141 62.42441406 -19.7890625 62.5625 C-18.91975098 62.64628906 -18.05043945 62.73007813 -17.15478516 62.81640625 C-12.77683686 63.07118238 -8.38535542 63 -4 63 C-4 44.52 -4 26.04 -4 7 C-6.84202647 7 -10.05672099 11.07491649 -12 13 Z " fill="#ECEEEE" transform="translate(322,86)"/>
<path d="M0 0 C20.8316221 12.49897326 32.168845 36.4571885 39 59 C39.36502901 60.66001287 39.71425884 62.32451772 40 64 C26.63776028 66.50238308 13.76741194 66.47048416 0 67 C0 44.89 0 22.78 0 0 Z M4 7 C4 25.48 4 43.96 4 63 C11.86183233 63 19.11546998 62.97950167 26.8125 62 C27.61236328 61.90460938 28.41222656 61.80921875 29.23632812 61.7109375 C31.15837787 61.4807519 33.0793304 61.24143097 35 61 C32.3595807 41.06028186 18.92012125 19.78867536 4 7 Z " fill="#EDEFEF" transform="translate(340,86)"/>
<path d="M0 0 C2.19262537 7.87883383 3.41955548 15.62342454 4.1875 23.75 C4.27112793 24.62422607 4.35475586 25.49845215 4.44091797 26.39916992 C4.93274242 31.99909372 5 37.3204732 5 43 C-11.5 43 -28 43 -45 43 C-45 29.8 -45 16.6 -45 3 C-38.874375 2.505 -32.74875 2.01 -26.4375 1.5 C-24.51736084 1.34337891 -22.59722168 1.18675781 -20.61889648 1.02539062 C-19.07797983 0.90212361 -17.53704664 0.77906317 -15.99609375 0.65625 C-15.21141724 0.59147461 -14.42674072 0.52669922 -13.61828613 0.45996094 C-9.06134546 0.09980756 -4.57119969 -0.06382129 0 0 Z M-17.5625 4.4375 C-18.80128906 4.51871094 -20.04007812 4.59992188 -21.31640625 4.68359375 C-22.86199219 4.78800781 -24.40757812 4.89242187 -26 5 C-30.95 5.33 -35.9 5.66 -41 6 C-41 16.89 -41 27.78 -41 39 C-27.14 39 -13.28 39 1 39 C1.02663103 30.68183737 1.02663103 30.68183737 0.34375 22.5546875 C0.14072266 20.91113281 0.14072266 20.91113281 -0.06640625 19.234375 C-0.20949219 18.12578125 -0.35257812 17.0171875 -0.5 15.875 C-0.64308594 14.72773438 -0.78617187 13.58046875 -0.93359375 12.3984375 C-1.28362028 9.59822529 -1.6391896 6.79883952 -2 4 C-7.21397682 3.95958158 -12.35654251 4.09043617 -17.5625 4.4375 Z " fill="#ECEEEF" transform="translate(385,170)"/>
<path d="M0 0 C0.80695313 0.12117187 1.61390625 0.24234375 2.4453125 0.3671875 C16.90680121 2.36293435 31.43372733 3.08960796 46 4 C46 17.2 46 30.4 46 44 C29.5 44 13 44 -4 44 C-4 34.28110993 -3.82096888 25.33589012 -2.5625 15.8125 C-2.42779297 14.72130859 -2.29308594 13.63011719 -2.15429688 12.50585938 C-1.07638711 3.96145274 -1.07638711 3.96145274 0 0 Z M3 4 C1.35261395 12.04187163 0.46033142 20.00544201 -0.125 28.1875 C-0.41375 32.085625 -0.7025 35.98375 -1 40 C13.19 40 27.38 40 42 40 C42 29.11 42 18.22 42 7 C32.53249513 6.38457217 32.53249513 6.38457217 23.06469727 5.77368164 C16.35212176 5.33178512 9.67727766 4.82079493 3 4 Z " fill="#EEEFF0" transform="translate(276,169)"/>
<path d="M0 0 C0 3.90839519 -1.69821725 6.45779951 -3.5 9.8125 C-8.7104819 19.80792535 -12.33985047 30.36085152 -16 41 C-21.81955596 39.91002519 -27.4756272 38.67799132 -33.125 36.875 C-34.24132812 36.52179688 -35.35765625 36.16859375 -36.5078125 35.8046875 C-37.33023438 35.53914063 -38.15265625 35.27359375 -39 35 C-38.41362741 31.61046907 -37.32692896 29.93436296 -34.9296875 27.49609375 C-34.28765381 26.84286133 -33.64562012 26.18962891 -32.98413086 25.51660156 C-32.28811768 24.83049805 -31.59210449 24.14439453 -30.875 23.4375 C-30.16158447 22.72948242 -29.44816895 22.02146484 -28.71313477 21.29199219 C-20.03053126 12.85128921 -10.57398994 5.87294218 0 0 Z " fill="#232A31" transform="translate(277,101)"/>
<path d="M0 0 C7.50931455 1.9172718 14.75803759 4.24049015 22 7 C20.50696234 12.06872022 17.47260888 15.06423619 13.8125 18.6875 C13.19898682 19.29891846 12.58547363 19.91033691 11.95336914 20.5402832 C5.59185864 26.69095047 -1.45912931 31.42514519 -9 36 C-9.92683594 36.60457031 -10.85367187 37.20914063 -11.80859375 37.83203125 C-12.53175781 38.21746094 -13.25492187 38.60289062 -14 39 C-14.66 38.67 -15.32 38.34 -16 38 C-15.57589844 37.19820313 -15.15179688 36.39640625 -14.71484375 35.5703125 C-8.80445191 24.11324524 -3.97854926 12.26557625 0 0 Z " fill="#232B31" transform="translate(400,308)"/>
<path d="M0 0 C20.90904439 8.16700468 44.00083542 24.34902473 57 43 C57 43.66 57 44.32 57 45 C52.64828613 46.32072743 48.29323719 47.63010839 43.9375 48.9375 C42.70837891 49.31068359 41.47925781 49.68386719 40.21289062 50.06835938 C39.01728516 50.42607422 37.82167969 50.78378906 36.58984375 51.15234375 C35.49534912 51.48226318 34.40085449 51.81218262 33.27319336 52.15209961 C29.85922589 53.03646666 26.49722283 53.5645406 23 54 C22.82049805 53.43418213 22.64099609 52.86836426 22.45605469 52.28540039 C18.58796006 40.26082852 14.18220219 28.69569694 8.6875 17.3125 C8.17219727 16.24459229 7.65689453 15.17668457 7.12597656 14.07641602 C4.56002633 8.74489899 4.56002633 8.74489899 1.33520508 3.80932617 C0 2 0 2 0 0 Z M8 8 C8.24121582 8.49701416 8.48243164 8.99402832 8.73095703 9.50610352 C15.16018573 22.79715049 20.8311347 36.17101826 26 50 C29.0425389 49.21166078 32.08386283 48.41872788 35.125 47.625 C35.9809375 47.40328125 36.836875 47.1815625 37.71875 46.953125 C42.20457819 45.7799084 46.62103788 44.53622605 51 43 C44.87987427 28.51904678 23.38953428 15.17762559 10 8 C9.34 8 8.68 8 8 8 Z " fill="#F0F2F2" transform="translate(375,93)"/>
<path d="M0 0 C-5.12634064 21.62956005 -15.38648153 45.65588045 -33 60 C-35.31 61.32 -37.62 62.64 -40 64 C-40 43.87 -40 23.74 -40 3 C-38.68 2.67 -37.36 2.34 -36 2 C-35.67 19.82 -35.34 37.64 -35 56 C-19.58354555 40.58354555 -11.36907751 22.57701965 -5 2 C-8.96 2 -12.92 2 -17 2 C-17 1.34 -17 0.68 -17 0 C-11.32917653 -1.41770587 -5.65449814 -1.58678567 0 0 Z " fill="#F1F3F3" transform="translate(380,299)"/>
<path d="M0 0 C0.66 0.33 1.32 0.66 2 1 C1.50371094 1.84820312 1.00742187 2.69640625 0.49609375 3.5703125 C-8.65294895 19.31464924 -16.79325158 35.18550668 -21 53 C-31.73947128 51.26418533 -41.7745979 48.71699243 -52 45 C-52 40.09295218 -50.2820678 38.62255861 -47.0625 35.3125 C-46.5581543 34.78213135 -46.05380859 34.2517627 -45.53417969 33.70532227 C-44.50728887 32.62961684 -43.47589031 31.55819584 -42.43994141 30.49121094 C-41.20535794 29.21266977 -39.99645281 27.90941951 -38.79296875 26.6015625 C-29.84890218 17.1273505 -19.12737004 9.87398149 -7.6875 3.75 C-6.95208984 3.35490234 -6.21667969 2.95980469 -5.45898438 2.55273438 C-3.67351614 1.63223379 -1.83982719 0.80638331 0 0 Z M-8 8 C-19.98194375 15.39906891 -30.61244009 23.48910137 -40.6875 33.375 C-41.31269531 33.98239014 -41.93789062 34.58978027 -42.58203125 35.21557617 C-43.44441406 36.07953003 -43.44441406 36.07953003 -44.32421875 36.9609375 C-44.84072998 37.47446777 -45.35724121 37.98799805 -45.8894043 38.51708984 C-47.29972583 40.09142448 -47.29972583 40.09142448 -47 43 C-43.73120384 44.00674459 -40.4596529 45.00422489 -37.1875 46 C-35.7943457 46.42925781 -35.7943457 46.42925781 -34.37304688 46.8671875 C-33.48037109 47.13789063 -32.58769531 47.40859375 -31.66796875 47.6875 C-30.84578857 47.93886719 -30.0236084 48.19023437 -29.17651367 48.44921875 C-26.88946633 49.12266178 -26.88946633 49.12266178 -24 49 C-23.79955078 48.41734375 -23.59910156 47.8346875 -23.39257812 47.234375 C-19.6542785 36.4517965 -15.84882661 25.90948655 -10.43945312 15.83789062 C-8.46038344 12.13788693 -8.46038344 12.13788693 -8 8 Z " fill="#F0F1F2" transform="translate(285,93)"/>
<path d="M0 0 C6.54886091 0.82687167 12.79269666 3.19630118 18.9375 5.5 C19.78634766 5.80808594 20.63519531 6.11617188 21.50976562 6.43359375 C27.74522954 8.74522954 27.74522954 8.74522954 30 11 C18.22169771 26.55815862 4.91291354 37.47576485 -12.1875 46.625 C-13.02603516 47.07560791 -13.86457031 47.52621582 -14.72851562 47.99047852 C-15.51291016 48.39838623 -16.29730469 48.80629395 -17.10546875 49.2265625 C-17.80824951 49.59346191 -18.51103027 49.96036133 -19.23510742 50.33837891 C-19.81752197 50.55671387 -20.39993652 50.77504883 -21 51 C-21.66 50.67 -22.32 50.34 -23 50 C-22.50371094 49.16339844 -22.00742187 48.32679688 -21.49609375 47.46484375 C-13.06479363 33.09421221 -6.86793051 18.52533558 -1.64501953 2.71142578 C-1 1 -1 1 0 0 Z M2 4 C1.764021 4.648479 1.52804199 5.29695801 1.28491211 5.96508789 C-3.32032575 18.5689555 -8.00986186 30.98120194 -14 43 C-2.9359389 39.03520512 6.69257708 31.09220471 15 23 C15.77730469 22.27296875 16.55460937 21.5459375 17.35546875 20.796875 C21.87068107 16.59912876 21.87068107 16.59912876 24 11 C20.71010914 9.82828244 17.41780898 8.66348912 14.125 7.5 C13.18785156 7.16613281 12.25070312 6.83226562 11.28515625 6.48828125 C10.38925781 6.17246094 9.49335938 5.85664063 8.5703125 5.53125 C7.74289551 5.23798828 6.91547852 4.94472656 6.06298828 4.64257812 C4.04187215 3.90087099 4.04187215 3.90087099 2 4 Z " fill="#F2F3F4" transform="translate(398,304)"/>
<path d="M0 0 C3.18459646 1.51992104 5.73579966 3.28295959 8 6 C9.20643566 9.61930698 9.32268559 12.19231005 9 16 C6.74432457 20.34426379 4.53153136 23.05791513 0 25 C-3.96461874 25.59047513 -5.6471413 25.19372634 -9.1875 23.25 C-14.75716695 18.79426644 -14.75716695 18.79426644 -15.28125 14.921875 C-15.47033508 10.16323393 -15.20050936 6.75232132 -12 3 C-8.06538376 -0.16955197 -4.97922113 -0.53348798 0 0 Z " fill="#1168E1" transform="translate(156,141)"/>
<path d="M0 0 C1.32 0 2.64 0 4 0 C4 18.48 4 36.96 4 56 C-12.72507192 49.30997123 -22.12663732 30.72685218 -29 15 C-30.04675969 12.3475591 -31.02962759 9.68191882 -32 7 C-29.73828125 6.98046875 -29.73828125 6.98046875 -27 8 C-25.30443121 10.58620294 -24.29395575 13.43507999 -23.1875 16.3125 C-18.55221724 27.48387286 -11.31080471 43.34459764 0 49 C0 32.83 0 16.66 0 0 Z " fill="#ECEDED" transform="translate(318,306)"/>
<path d="M0 0 C16.5 0 33 0 50 0 C50 8.91 50 17.82 50 27 C48.68 27 47.36 27 46 27 C46 19.41 46 11.82 46 4 C31.81 4 17.62 4 3 4 C3.98424174 12.6608725 3.98424174 12.6608725 4.97460938 21.32104492 C5.15733398 22.94683472 5.15733398 22.94683472 5.34375 24.60546875 C5.46943359 25.71043701 5.59511719 26.81540527 5.72460938 27.95385742 C5.96921276 30.65945712 6.05299995 33.28596085 6 36 C4.515 36.495 4.515 36.495 3 37 C0.49878806 24.4453731 0 12.96051113 0 0 Z " fill="#EAEBEC" transform="translate(272,232)"/>
<path d="M0 0 C17.16 0 34.32 0 52 0 C52.33 8.58 52.66 17.16 53 26 C56.63 24.68 60.26 23.36 64 22 C65.32 22 66.64 22 68 22 C68 15.07 68 8.14 68 1 C68.33 1 68.66 1 69 1 C69 7.93 69 14.86 69 22 C70.32 21.67 71.64 21.34 73 21 C73 15.72 73 10.44 73 5 C83.89 5 94.78 5 106 5 C106 5.33 106 5.66 106 6 C95.44 6 84.88 6 74 6 C74 11.28 74 16.56 74 22 C73.505 22.495 73.505 22.495 73 23 C74.89583333 22.52604167 76.79166667 22.05208333 78.6875 21.578125 C80.22916667 21.19270833 81.77083333 20.80729167 83.3125 20.421875 C84.3953125 20.15117187 84.3953125 20.15117187 85.5 19.875 C86.655 19.58625 87.81 19.2975 89 19 C87.55626898 21.88746205 85.7956435 21.98949276 82.78515625 23.05859375 C81.70556641 23.44466797 80.62597656 23.83074219 79.51367188 24.22851562 C78.37478516 24.62748047 77.23589844 25.02644531 76.0625 25.4375 C74.95841797 25.83259766 73.85433594 26.22769531 72.71679688 26.63476562 C57.28457665 32.11306707 57.28457665 32.11306707 53 33 C52.01 32.505 52.01 32.505 51 32 C51 31.34 51 30.68 51 30 C50.34 29.34 49.68 28.68 49 28 C49.66 28 50.32 28 51 28 C51 19.09 51 10.18 51 1 C34.17 1 17.34 1 0 1 C0 0.67 0 0.34 0 0 Z " fill="#11161C" transform="translate(271,231)"/>
<path d="M0 0 C0.00808685 0.66763367 0.01617371 1.33526733 0.02450562 2.02313232 C0.1105015 8.96613759 0.21000322 15.90885571 0.31738281 22.8515625 C0.3556877 25.44331036 0.39053787 28.03511166 0.421875 30.62695312 C0.46749217 34.35045483 0.5254931 38.07358815 0.5859375 41.796875 C0.59748871 42.95741394 0.60903992 44.11795288 0.62094116 45.31365967 C0.64081085 46.39447815 0.66068054 47.47529663 0.68115234 48.58886719 C0.69447601 49.53928894 0.70779968 50.48971069 0.7215271 51.46893311 C1.00938044 54.08525976 1.67219618 55.74858387 3 58 C0.69 59.32 -1.62 60.64 -4 62 C-4 41.87 -4 21.74 -4 1 C-2 0 -2 0 0 0 Z " fill="#E8E9EA" transform="translate(344,301)"/>
<path d="M0 0 C-3.50204714 2.3346981 -6.67299798 3.03629613 -10.72265625 4.0234375 C-13.55781841 5.23920172 -13.71364143 6.30075578 -15 9 C-16.91796875 9.9765625 -16.91796875 9.9765625 -19.1875 10.625 C-19.98929687 10.86089844 -20.79109375 11.09679687 -21.6171875 11.33984375 C-22.40351563 11.55769531 -23.18984375 11.77554687 -24 12 C-25.258125 12.391875 -26.51625 12.78375 -27.8125 13.1875 C-31 14 -31 14 -35 14 C-35.33 32.48 -35.66 50.96 -36 70 C-36.33 70 -36.66 70 -37 70 C-37 51.19 -37 32.38 -37 13 C-37.66 12.67 -38.32 12.34 -39 12 C-38.01 12 -37.02 12 -36 12 C-37.32 10.68 -38.64 9.36 -40 8 C-31.48157928 5.81817017 -22.94771542 3.70876682 -14.375 1.75 C-13.63008301 1.57500977 -12.88516602 1.40001953 -12.11767578 1.21972656 C-7.99594597 0.29217405 -4.25592633 -0.18795889 0 0 Z " fill="#1C232A" transform="translate(359,292)"/>
<path d="M0 0 C14.19 0 28.38 0 43 0 C37.92355482 3.80733388 34.78717746 4.14350347 28.70703125 4.09765625 C27.64798836 4.09553383 27.64798836 4.09553383 26.56755066 4.09336853 C24.31582374 4.08777764 22.06419679 4.07522688 19.8125 4.0625 C18.28450665 4.05748382 16.75651173 4.05292112 15.22851562 4.04882812 C11.48560772 4.0386627 7.74291557 4.01908569 4 4 C4 9.28 4 14.56 4 20 C2.68 20.33 1.36 20.66 0 21 C0 14.07 0 7.14 0 0 Z " fill="#E8E9E9" transform="translate(340,232)"/>
<path d="M0 0 C0.66 0.33 1.32 0.66 2 1 C2.33 1.99 2.66 2.98 3 4 C5.97 3.34 8.94 2.68 12 2 C10 4 10 4 7.6796875 4.40234375 C4.10995842 5.0834759 1.98916793 5.87813451 -1 8 C-4.2690595 13.12433168 -6.08071078 19.00788904 -8.09716797 24.70556641 C-9.40623923 28.03240571 -11.13133932 30.9567526 -13 34 C-13.66 33.34 -14.32 32.68 -15 32 C-14.34 32 -13.68 32 -13 32 C-12.73058594 31.15179688 -12.46117187 30.30359375 -12.18359375 29.4296875 C-10.96801009 25.90730317 -9.55622998 22.538154 -8.0625 19.125 C-5.89222399 14.13138619 -3.84446562 9.12351561 -2 4 C-4.9719385 5.12451727 -7.33440687 6.22293791 -10 8 C-12.32387947 8.39387788 -14.65793749 8.73486085 -17 9 C-14.31209977 5.70707425 -10.75755456 4.35108085 -6.9375 2.75 C-6.30005859 2.46898437 -5.66261719 2.18796875 -5.00585938 1.8984375 C-3.36387133 1.19942468 -1.68338487 0.59241797 0 0 Z " fill="#171D23" transform="translate(451,258)"/>
<path d="M0 0 C0 4.91075921 -3.69530187 7.60955122 -7 11 C-8.94602014 12.76450416 -10.92714711 14.3821636 -13 16 C-13.66 15.67 -14.32 15.34 -15 15 C-10.05 10.05 -5.1 5.1 0 0 Z " fill="#101D2D" transform="translate(423,321)"/>
<path d="M0 0 C2.35953094 2.35953094 2.49141413 3.77895617 3 7 C1.20906809 7.08086147 -0.58289628 7.13912702 -2.375 7.1875 C-3.87160156 7.23970703 -3.87160156 7.23970703 -5.3984375 7.29296875 C-6.25695312 7.19628906 -7.11546875 7.09960938 -8 7 C-8.66 6.01 -9.32 5.02 -10 4 C-5.545 3.505 -5.545 3.505 -1 3 C-0.67 2.01 -0.34 1.02 0 0 Z " fill="#283947" transform="translate(207,266)"/>
<path d="M0 0 C-6.6169252 3.24043814 -12.73763698 5.69039355 -20 7 C-17.0273695 3.28421188 -14.50500145 2.36787344 -10.03125 1.44140625 C-7.74410056 0.98836063 -7.74410056 0.98836063 -4.625 -0.1875 C-2 -1 -2 -1 0 0 Z " fill="#272725" transform="translate(360,251)"/>
<path d="M0 0 C0.66 0.33 1.32 0.66 2 1 C0.43902526 2.1063219 -1.12385327 3.20995785 -2.6875 4.3125 C-3.55761719 4.92738281 -4.42773438 5.54226563 -5.32421875 6.17578125 C-10.36872439 9.61488217 -10.36872439 9.61488217 -13 11 C-13.66 10.67 -14.32 10.34 -15 10 C-13.68 8.02 -12.36 6.04 -11 4 C-10.34 4.66 -9.68 5.32 -9 6 C-6.03 4.02 -3.06 2.04 0 0 Z " fill="#15191E" transform="translate(399,336)"/>
<path d="M0 0 C1.22589844 0.15275391 1.22589844 0.15275391 2.4765625 0.30859375 C3.41628906 0.43427734 3.41628906 0.43427734 4.375 0.5625 C3.385 2.0475 3.385 2.0475 2.375 3.5625 C-3.77734375 2.9765625 -3.77734375 2.9765625 -5.625 2.5625 C-5.955 1.9025 -6.285 1.2425 -6.625 0.5625 C-4.10446405 -0.69776798 -2.7707902 -0.35624445 0 0 Z " fill="#EAECED" transform="translate(411.625,283.4375)"/>
<path d="M0 0 C2.31 0.66 4.62 1.32 7 2 C7 2.66 7 3.32 7 4 C8.32 3.67 9.64 3.34 11 3 C11.66 4.65 12.32 6.3 13 8 C8.27626146 6.37621488 4.05818166 3.89006982 0 1 C0 0.67 0 0.34 0 0 Z " fill="#1A1F24" transform="translate(265,340)"/>
<path d="M0 0 C0 3 0 3 -2 6 C-5.625 6.6875 -5.625 6.6875 -9 7 C-6.24479785 4.04070881 -3.53372712 1.96318174 0 0 Z " fill="#1D2227" transform="translate(277,101)"/>
<path d="M0 0 C-4.38512875 3.31558515 -7.37458159 4.54996653 -13 5 C-9.76220634 1.00037254 -4.97776602 -1.65925534 0 0 Z " fill="#2A2927" transform="translate(447,262)"/>
<path d="M0 0 C0.99 0 1.98 0 3 0 C1.58832253 5.26170694 -0.74850232 8.72171358 -4 13 C-4 9.8058609 -3.47735026 8.6818833 -2 5.9375 C-0.41141701 3.12118632 -0.41141701 3.12118632 0 0 Z " fill="#13181D" transform="translate(361,329)"/>
<path d="M0 0 C0 3 0 3 -2.5 5.6875 C-3.325 6.450625 -4.15 7.21375 -5 8 C-5.33 6.68 -5.66 5.36 -6 4 C-4.02 2.68 -2.04 1.36 0 0 Z " fill="#126ADB" transform="translate(169,209)"/>
<path d="M0 0 C3.37503669 1.1858237 5.64722731 2.27573689 8 5 C7.01 5 6.02 5 5 5 C4.67 5.66 4.34 6.32 4 7 C2.02 3.535 2.02 3.535 0 0 Z " fill="#1C1F25" transform="translate(383,101)"/>
<path d="M0 0 C2.97 0 5.94 0 9 0 C8.67 0.66 8.34 1.32 8 2 C6.35 2 4.7 2 3 2 C2.67 2.66 2.34 3.32 2 4 C1.34 4 0.68 4 0 4 C0 2.68 0 1.36 0 0 Z " fill="#2E373D" transform="translate(407,169)"/>
</svg>
