<?xml version="1.0" encoding="UTF-8"?>
<svg version="1.1" xmlns="http://www.w3.org/2000/svg" width="499" height="500">
<path d="M0 0 C13.14664031 11.06027101 27.23792731 25.58370988 29.0625 43.5 C29.10375 44.881875 29.145 46.26375 29.1875 47.6875 C26.2175 48.6775 23.2475 49.6675 20.1875 50.6875 C19.89617187 49.80449219 19.60484375 48.92148438 19.3046875 48.01171875 C15.56987544 34.65015534 15.56987544 34.65015534 7.3515625 24.7421875 C4.29179175 24.66486477 2.34500119 25.75944838 -0.375 27.125 C-5.52094687 29.6875 -5.52094687 29.6875 -8.8125 29.6875 C-8.61914062 30.52410156 -8.42578125 31.36070312 -8.2265625 32.22265625 C-6.25815025 41.02204368 -4.8780318 49.7370329 -3.8125 58.6875 C-11.06045995 62.37737052 -18.32669685 64.12524578 -26.21484375 65.85546875 C-29.62513169 66.49624166 -29.62513169 66.49624166 -31.8125 67.6875 C-33.85305005 67.75815617 -35.89584257 67.77171976 -37.9375 67.75 C-39.03320312 67.74097656 -40.12890625 67.73195313 -41.2578125 67.72265625 C-42.52238281 67.70525391 -42.52238281 67.70525391 -43.8125 67.6875 C-43.8125 68.3475 -43.8125 69.0075 -43.8125 69.6875 C-47.64239106 71.48980168 -50.59371808 71.88372241 -54.8125 71.6875 C-54.8125 70.3675 -54.8125 69.0475 -54.8125 67.6875 C-64.0525 67.6875 -73.2925 67.6875 -82.8125 67.6875 C-82.4825 68.3475 -82.1525 69.0075 -81.8125 69.6875 C-81.77227609 72.0204866 -81.76929753 74.35456666 -81.8125 76.6875 C-85.02701269 78.29475635 -88.24862536 77.74498185 -91.8125 77.6875 C-92.8125 74.6875 -92.8125 74.6875 -92.8125 67.6875 C-101.3925 68.0175 -109.9725 68.3475 -118.8125 68.6875 C-118.4825 72.3175 -118.1525 75.9475 -117.8125 79.6875 C-121.6851592 80.6556648 -124.84861362 80.76372858 -128.8125 80.6875 C-132.73850498 60.6744502 -128.75126941 38.7590784 -117.8125 21.5390625 C-107.50012447 7.2122265 -93.82843798 -5.55119816 -76.8125 -11.3125 C-75.73613281 -11.68246094 -74.65976563 -12.05242187 -73.55078125 -12.43359375 C-48.4271463 -19.89580393 -21.12799164 -15.63922513 0 0 Z M-24.8125 -0.3125 C-24.8125 0.3475 -24.8125 1.0075 -24.8125 1.6875 C-24.1525 1.6875 -23.4925 1.6875 -22.8125 1.6875 C-22.54308594 2.40808594 -22.27367187 3.12867188 -21.99609375 3.87109375 C-20.81858206 6.6730275 -19.45163056 9.15437665 -17.875 11.75 C-17.11896484 13.00490234 -17.11896484 13.00490234 -16.34765625 14.28515625 C-14.93940043 16.48891535 -13.38167364 18.59526848 -11.8125 20.6875 C-8.1825 19.0375 -4.5525 17.3875 -0.8125 15.6875 C-1.4725 14.3675 -2.1325 13.0475 -2.8125 11.6875 C-3.4725 11.6875 -4.1325 11.6875 -4.8125 11.6875 C-4.8125 11.0275 -4.8125 10.3675 -4.8125 9.6875 C-8.03364157 7.37157978 -8.03364157 7.37157978 -11.8125 6.6875 C-11.8125 6.0275 -11.8125 5.3675 -11.8125 4.6875 C-13.60203185 3.84959211 -15.39419695 3.01730604 -17.1875 2.1875 C-18.18523437 1.7234375 -19.18296875 1.259375 -20.2109375 0.78125 C-22.64942626 -0.4416873 -22.64942626 -0.4416873 -24.8125 -0.3125 Z M-73.8125 -0.3125 C-84.83147973 4.83364443 -84.83147973 4.83364443 -94.8125 11.6875 C-94.8125 12.3475 -94.8125 13.0075 -94.8125 13.6875 C-95.4725 13.6875 -96.1325 13.6875 -96.8125 13.6875 C-96.8125 14.3475 -96.8125 15.0075 -96.8125 15.6875 C-92.8525 17.3375 -88.8925 18.9875 -84.8125 20.6875 C-84.36519531 19.81867188 -83.91789062 18.94984375 -83.45703125 18.0546875 C-80.3558164 12.14320332 -77.42469669 6.57922376 -72.8125 1.6875 C-73.1425 1.0275 -73.4725 0.3675 -73.8125 -0.3125 Z M-61.9375 5.0625 C-62.84757812 5.87460938 -63.75765625 6.68671875 -64.6953125 7.5234375 C-67.04560761 9.42118827 -67.04560761 9.42118827 -66.8125 11.6875 C-67.4725 11.6875 -68.1325 11.6875 -68.8125 11.6875 C-70.7925 15.6475 -72.7725 19.6075 -74.8125 23.6875 C-73.183125 24.0175 -71.55375 24.3475 -69.875 24.6875 C-68.95847656 24.873125 -68.04195312 25.05875 -67.09765625 25.25 C-63.03586894 25.79092768 -58.91014797 25.6875 -54.8125 25.6875 C-54.8125 17.4375 -54.8125 9.1875 -54.8125 0.6875 C-58.06250675 0.6875 -59.58898032 2.94147226 -61.9375 5.0625 Z M-43.8125 0.6875 C-43.8125 8.9375 -43.8125 17.1875 -43.8125 25.6875 C-35.18175043 25.86120327 -35.18175043 25.86120327 -27.125 24.6875 C-26.29613281 24.501875 -25.46726562 24.31625 -24.61328125 24.125 C-24.01902344 23.980625 -23.42476562 23.83625 -22.8125 23.6875 C-23.72138756 21.78792499 -24.63998031 19.89299214 -25.5625 18 C-26.07296875 16.94425781 -26.5834375 15.88851562 -27.109375 14.80078125 C-28.76883652 11.76731604 -30.48285916 9.23968783 -32.8125 6.6875 C-33.4725 6.6875 -34.1325 6.6875 -34.8125 6.6875 C-34.8125 6.0275 -34.8125 5.3675 -34.8125 4.6875 C-38.87823561 1.49189959 -38.87823561 1.49189959 -43.8125 0.6875 Z M-105.8125 23.6875 C-114.38355217 37.48338474 -114.38355217 37.48338474 -118.41015625 52.984375 C-118.48886963 53.86963867 -118.56758301 54.75490234 -118.64868164 55.66699219 C-118.7027417 56.33375977 -118.75680176 57.00052734 -118.8125 57.6875 C-114.50001391 57.71636537 -110.18755238 57.73425255 -105.875 57.75 C-104.02745117 57.76256836 -104.02745117 57.76256836 -102.14257812 57.77539062 C-100.3878418 57.78022461 -100.3878418 57.78022461 -98.59765625 57.78515625 C-97.51363525 57.79039307 -96.42961426 57.79562988 -95.31274414 57.80102539 C-92.87200052 57.97176897 -92.87200052 57.97176897 -91.8125 56.6875 C-91.59869142 55.2994146 -91.44225151 53.90235529 -91.3125 52.50390625 C-91.23 51.65892578 -91.1475 50.81394531 -91.0625 49.94335938 C-90.98 49.05455078 -90.8975 48.16574219 -90.8125 47.25 C-90.64944327 45.50096178 -90.48293929 43.75224049 -90.3125 42.00390625 C-90.2403125 41.22474854 -90.168125 40.44559082 -90.09375 39.64282227 C-89.8125 37.6875 -89.8125 37.6875 -88.8125 35.6875 C-88.772508 33.68789988 -88.76903201 31.68702758 -88.8125 29.6875 C-91.08057204 28.6807996 -93.35157754 27.68198234 -95.625 26.6875 C-96.26759766 26.40132812 -96.91019531 26.11515625 -97.57226562 25.8203125 C-100.49006469 24.55038959 -102.59515714 23.6875 -105.8125 23.6875 Z M-77.8125 33.6875 C-80.80215043 41.588719 -81.8125 49.27515151 -81.8125 57.6875 C-72.9025 57.6875 -63.9925 57.6875 -54.8125 57.6875 C-54.8125 50.7575 -54.8125 43.8275 -54.8125 36.6875 C-57.865 36.1925 -60.9175 35.6975 -64.0625 35.1875 C-65.49577637 34.95256836 -65.49577637 34.95256836 -66.95800781 34.71289062 C-67.71952148 34.59107422 -68.48103516 34.46925781 -69.265625 34.34375 C-70.42819824 34.15522461 -70.42819824 34.15522461 -71.61425781 33.96289062 C-74.10475843 33.60462934 -74.10475843 33.60462934 -77.8125 33.6875 Z M-28.67578125 34.24609375 C-29.87521362 34.4325647 -29.87521362 34.4325647 -31.09887695 34.62280273 C-32.09749756 34.78852783 -33.09611816 34.95425293 -34.125 35.125 C-37.321875 35.640625 -40.51875 36.15625 -43.8125 36.6875 C-43.8125 43.6175 -43.8125 50.5475 -43.8125 57.6875 C-34.2425 57.6875 -24.6725 57.6875 -14.8125 57.6875 C-15.43576059 48.22797896 -15.43576059 48.22797896 -17.375 39.4375 C-17.64441406 38.52484375 -17.91382813 37.6121875 -18.19140625 36.671875 C-18.39636719 36.01703125 -18.60132813 35.3621875 -18.8125 34.6875 C-22.34789425 33.82634949 -25.08941353 33.66764734 -28.67578125 34.24609375 Z " fill="#213043" transform="translate(307.8125,184.3125)"/>
<path d="M0 0 C5.13044953 1.85032606 9.95365936 3.87741413 14.8125 6.375 C22.65290416 10.36562487 30.57004272 14.19166073 38.5 18 C39.11815582 18.2970282 39.73631165 18.5940564 40.37319946 18.90008545 C43.91469218 20.60167283 47.456982 22.30159102 51 24 C50.26459235 27.33384804 49.30130525 29.42253812 47 32 C46.34 32 45.68 32 45 32 C45 32.66 45 33.32 45 34 C44.34 34 43.68 34 43 34 C42.64421875 34.81210938 42.64421875 34.81210938 42.28125 35.640625 C40.65652243 38.63250137 38.6498123 41.11159399 36.5 43.75 C35.7059375 44.73484375 34.911875 45.7196875 34.09375 46.734375 C33.4028125 47.48203125 32.711875 48.2296875 32 49 C31.34 49 30.68 49 30 49 C29.7525 49.556875 29.505 50.11375 29.25 50.6875 C27.77075182 53.42410913 26.06532561 55.67650869 24 58 C23.34 58 22.68 58 22 58 C21.7525 58.556875 21.505 59.11375 21.25 59.6875 C19.76129471 62.44160479 18.11590028 64.69174514 16 67 C15.01 67 14.02 67 13 67 C13.11517421 64.64499052 13.24187978 62.29150927 13.375 59.9375 C13.44460938 58.62652344 13.51421875 57.31554687 13.5859375 55.96484375 C13.99805436 52.01863043 14.79756567 48.75882927 16 45 C15.39414062 45.25394531 14.78828125 45.50789063 14.1640625 45.76953125 C9.04322982 47.87301175 3.95082121 49.70574011 -1.3828125 51.19140625 C-3.50614912 51.84742219 -5.59560506 52.612388 -7.67041016 53.40869141 C-11.69251189 54.92378549 -15.74466618 56.14492106 -19.890625 57.26953125 C-20.62477127 57.47115875 -21.35891754 57.67278625 -22.11531067 57.88052368 C-24.492034 58.53022146 -26.8706615 59.17244944 -29.25 59.8125 C-30.47636673 60.14340134 -30.47636673 60.14340134 -31.72750854 60.48098755 C-52.04624428 65.94508435 -72.44530831 70.64525244 -93.31640625 73.45703125 C-96.93269166 73.88061696 -96.93269166 73.88061696 -100 75 C-104.97864742 75.82630271 -109.98956226 76.40424996 -115 77 C-115.75651855 77.09458496 -116.51303711 77.18916992 -117.29248047 77.28662109 C-129.0363146 78.71784772 -140.75591379 79.22217803 -152.57727051 79.29754639 C-154.08178469 79.30733776 -155.58627775 79.32168928 -157.09069824 79.34112549 C-170.5199538 79.49307085 -184.55351373 78.45898521 -197 73 C-198.62771327 69.43089955 -197.87995347 65.55944167 -197.5625 61.75 C-197.46066406 60.48671875 -197.35882813 59.2234375 -197.25390625 57.921875 C-197.17011719 56.95765625 -197.08632812 55.9934375 -197 55 C-193.16091331 55 -192.38930388 55.07181853 -189.375 56.9375 C-184.78088019 59.74501766 -181.2212446 60.45231564 -175.9375 61.0625 C-175.21111328 61.15337891 -174.48472656 61.24425781 -173.73632812 61.33789062 C-151.15914528 63.99285554 -127.53388248 59.82302766 -105.24072266 56.48486328 C-102.33258862 56.04976051 -99.42275999 55.62993366 -96.51171875 55.21484375 C-86.48794353 53.75277528 -76.77526828 51.6566484 -67 49 C-65.23702281 48.52848264 -63.47399924 48.05713862 -61.7109375 47.5859375 C-52.9737409 45.23765421 -44.25367271 42.82604264 -35.5625 40.3125 C-34.89549072 40.12244385 -34.22848145 39.9323877 -33.54125977 39.73657227 C-29.20267905 38.46429857 -25.1429889 36.79854459 -21 35 C-19.44724773 34.50965718 -17.88503151 34.047635 -16.3125 33.625 C-11.35558965 32.19584527 -6.72064647 30.23773832 -1.984375 28.20703125 C2.25795482 26.49121984 6.58797197 25.20061825 11 24 C10.71125 23.45730469 10.4225 22.91460937 10.125 22.35546875 C9.75375 21.64003906 9.3825 20.92460937 9 20.1875 C8.62875 19.47980469 8.2575 18.77210938 7.875 18.04296875 C7 16 7 16 7 13 C6.34 13 5.68 13 5 13 C4.15930585 11.39967863 3.32768495 9.79458829 2.5 8.1875 C2.0359375 7.29417969 1.571875 6.40085938 1.09375 5.48046875 C0 3 0 3 0 0 Z " fill="#1851CC" transform="translate(341,209)"/>
<path d="M0 0 C-0.98972221 8.66860141 -3.83738683 15.38739494 -8 23 C-8.67285683 24.33022025 -9.342203 25.66226859 -10 27 C-10.66 27 -11.32 27 -12 27 C-12.433125 28.1446875 -12.433125 28.1446875 -12.875 29.3125 C-14 32 -14 32 -16 35 C-16.66 35 -17.32 35 -18 35 C-18.226875 35.55945313 -18.45375 36.11890625 -18.6875 36.6953125 C-26.64595544 50.66998128 -45.12453314 57.4786484 -59.546875 62.1484375 C-65.79368537 63.62218343 -72.24472383 63.36867663 -78.625 63.375 C-79.90246094 63.39949219 -81.17992187 63.42398438 -82.49609375 63.44921875 C-101.21692173 63.50612096 -118.87434102 56.33096905 -132.625 43.5625 C-133.800625 42.2940625 -133.800625 42.2940625 -135 41 C-136.37276988 39.64357262 -137.74796073 38.2895929 -139.125 36.9375 C-141.66828229 34.43874989 -144.05592474 32.00063791 -146 29 C-146 28.01 -146 27.02 -146 26 C-133.625 25.505 -133.625 25.505 -121 25 C-121 25.66 -121 26.32 -121 27 C-124.08809695 28.76462683 -125.23312136 29 -129 29 C-128.70103003 32.07313321 -127.9989019 33.00102539 -125.69921875 35.1484375 C-118.78013583 40.26371281 -111.87818191 44.43805605 -104 48 C-105.5356799 44.72235484 -107.42249212 41.81551175 -109.4375 38.8125 C-112.56269067 33.96845446 -114.45651651 29.53838193 -116 24 C-112.37 23.67 -108.74 23.34 -105 23 C-104.46890625 23.95261719 -103.9378125 24.90523438 -103.390625 25.88671875 C-102.67731769 27.15377779 -101.96376284 28.42069751 -101.25 29.6875 C-100.90195313 30.31333984 -100.55390625 30.93917969 -100.1953125 31.58398438 C-96.90218892 37.40793441 -93.8645786 41.57899582 -88 45 C-88 45.66 -88 46.32 -88 47 C-87.01 47 -86.02 47 -85 47 C-85 38.09 -85 29.18 -85 20 C-79.555 19.01 -79.555 19.01 -74 18 C-73.505 32.355 -73.505 32.355 -73 47 C-61.5956076 40.48320434 -56.90783766 33.02792032 -52 21 C-53.07121094 20.87882812 -54.14242187 20.75765625 -55.24609375 20.6328125 C-56.64328752 20.46402399 -58.04041991 20.29472687 -59.4375 20.125 C-60.14455078 20.04636719 -60.85160156 19.96773438 -61.58007812 19.88671875 C-63.39673432 19.66072324 -65.20062522 19.33699273 -67 19 C-67.495 18.01 -67.495 18.01 -68 17 C-58.03848241 14.45140394 -48.07226816 12.07740531 -38 10 C-38 11.65 -38 13.3 -38 15 C-37.31550781 15.10183594 -36.63101563 15.20367187 -35.92578125 15.30859375 C-32.41730374 16.13769992 -29.44244474 17.5172232 -26.1875 19.0625 C-25.02605469 19.61035156 -23.86460937 20.15820312 -22.66796875 20.72265625 C-21.34732422 21.35494141 -21.34732422 21.35494141 -20 22 C-19.73574219 21.33355469 -19.47148437 20.66710937 -19.19921875 19.98046875 C-18.80347656 18.99691406 -18.40773438 18.01335937 -18 17 C-17.51144531 15.77925781 -17.02289063 14.55851562 -16.51953125 13.30078125 C-15.95243402 11.97053693 -15.38338306 10.64112401 -14.8125 9.3125 C-14.54630859 8.63638672 -14.28011719 7.96027344 -14.00585938 7.26367188 C-12.34513841 3.47903567 -11.37707972 2.15750362 -7.51171875 0.54296875 C-4 0 -4 0 0 0 Z M-42 25 C-42.39832031 25.80824219 -42.79664063 26.61648438 -43.20703125 27.44921875 C-44.00173828 29.05216797 -44.00173828 29.05216797 -44.8125 30.6875 C-45.59560547 32.27111328 -45.59560547 32.27111328 -46.39453125 33.88671875 C-48 37 -48 37 -49.69921875 39.76953125 C-51.16792565 41.85760161 -51.16792565 41.85760161 -51 44 C-51.66 44 -52.32 44 -53 44 C-54.6446674 46.46326712 -54.6446674 46.46326712 -56 49 C-50.6233779 47.71070796 -46.58017263 45.81382421 -42 42.75 C-41.3920459 42.35176025 -40.7840918 41.95352051 -40.15771484 41.54321289 C-35.81284074 38.6545878 -31.82801503 35.55458539 -28 32 C-28.66806294 28.91719337 -28.66806294 28.91719337 -30.92578125 27.83203125 C-31.71339844 27.49558594 -32.50101563 27.15914063 -33.3125 26.8125 C-34.09238281 26.46832031 -34.87226563 26.12414062 -35.67578125 25.76953125 C-38.22482977 24.79045831 -38.22482977 24.79045831 -42 25 Z " fill="#263648" transform="translate(338,268)"/>
<path d="M0 0 C0.66 0.33 1.32 0.66 2 1 C1.0409375 1.37125 1.0409375 1.37125 0.0625 1.75 C-2.16863668 2.81751132 -2.16863668 2.81751132 -2.8125 5.0625 C-2.9053125 6.0215625 -2.9053125 6.0215625 -3 7 C-2.505 7.495 -2.505 7.495 -2 8 C-1.67 7.34 -1.34 6.68 -1 6 C-0.01 6.33 0.98 6.66 2 7 C2 7.66 2 8.32 2 9 C2.66 9.66 3.32 10.32 4 11 C2.08424874 12.12655813 0.16736281 13.25118687 -1.75 14.375 C-2.81734375 15.00148437 -3.8846875 15.62796875 -4.984375 16.2734375 C-7.29738678 17.59772663 -9.59951417 18.84636846 -12 20 C-12 20.66 -12 21.32 -12 22 C-12.66 22 -13.32 22 -14 22 C-14 22.66 -14 23.32 -14 24 C-12.37604003 24.50336767 -10.75079459 25.00258976 -9.125 25.5 C-8.22007812 25.7784375 -7.31515625 26.056875 -6.3828125 26.34375 C-4.09055353 27.08850794 -4.09055353 27.08850794 -2 27 C-1.62488281 26.27554688 -1.24976563 25.55109375 -0.86328125 24.8046875 C2.0084053 19.37958697 4.77157332 14.47005106 9 10 C9.33 10 9.66 10 10 10 C10 12.31 10 14.62 10 17 C10.66 17 11.32 17 12 17 C12.33 16.34 12.66 15.68 13 15 C13.99 15 14.98 15 16 15 C16.33 14.01 16.66 13.02 17 12 C19.0625 10.8125 19.0625 10.8125 21 10 C21.495 11.485 21.495 11.485 22 13 C20.85546875 14.82421875 20.85546875 14.82421875 19.1875 16.6875 C18.64480469 17.31011719 18.10210937 17.93273437 17.54296875 18.57421875 C16 20 16 20 14 20 C13.9175 20.515625 13.835 21.03125 13.75 21.5625 C12.67859775 25.04455732 10.86476395 27.87200885 9 31 C10.32 31.33 11.64 31.66 13 32 C12.979375 33.0725 12.95875 34.145 12.9375 35.25 C12.85984566 39.08066558 12.85984566 39.08066558 14 43 C11.03 43 8.06 43 5 43 C4.51890037 45.52047792 4.04007397 48.0413537 3.5625 50.5625 C3.42779297 51.26697266 3.29308594 51.97144531 3.15429688 52.69726562 C3.02216797 53.39658203 2.89003906 54.09589844 2.75390625 54.81640625 C2.57323608 55.76688843 2.57323608 55.76688843 2.38891602 56.73657227 C1.86016779 59.81380062 1.44156334 62.90905664 1 66 C9.91 66 18.82 66 28 66 C28 59.07 28 52.14 28 45 C28.33 45 28.66 45 29 45 C29 52.26 29 59.52 29 67 C19.43 67 9.86 67 0 67 C0 65.02 0 63.04 0 61 C-0.99 61 -1.98 61 -3 61 C-3 61.66 -3 62.32 -3 63 C-3.99 62.505 -3.99 62.505 -5 62 C-4.505 61.01 -4.505 61.01 -4 60 C-5.65 60 -7.3 60 -9 60 C-8.59722507 52.45326965 -8.17808026 45.26026753 -6 38 C-6.556875 37.81824219 -7.11375 37.63648438 -7.6875 37.44921875 C-12.84196991 35.75137815 -17.93010615 33.93577765 -23 32 C-23.2578125 32.69222656 -23.515625 33.38445312 -23.78125 34.09765625 C-25.62923596 38.49846896 -28.0224206 42.58048781 -30.34375 46.74609375 C-33.60459905 53.15243163 -34.55099278 58.75496392 -36 66 C-27.09 65.67 -18.18 65.34 -9 65 C-9 65.66 -9 66.32 -9 67 C-17.58 67 -26.16 67 -35 67 C-35 69.31 -35 71.62 -35 74 C-35.33 74.99 -35.66 75.98 -36 77 C-35.91478259 78.89952346 -35.76270916 80.79663573 -35.5625 82.6875 C-35.46066406 83.68136719 -35.35882813 84.67523438 -35.25390625 85.69921875 C-35.12822266 86.83810547 -35.12822266 86.83810547 -35 88 C-38.7264085 89.04702186 -42.13013042 89.07442057 -46 89 C-49.92600498 68.9869502 -45.93876941 47.0715784 -35 29.8515625 C-26.33709079 17.8163065 -14.55200593 4.85066864 0 0 Z " fill="#28374A" transform="translate(225,176)"/>
<path d="M0 0 C17.13102449 4.43043737 31.98465932 17.78316743 41.50390625 32.40625 C46.36150978 40.82778719 49.70763084 48.20563306 50 58 C47.03 58.99 44.06 59.98 41 61 C40.70867187 60.11699219 40.41734375 59.23398438 40.1171875 58.32421875 C36.38237544 44.96265534 36.38237544 44.96265534 28.1640625 35.0546875 C25.10429175 34.97736477 23.15750119 36.07194838 20.4375 37.4375 C15.29155313 40 15.29155313 40 12 40 C12.19335938 40.83660156 12.38671875 41.67320312 12.5859375 42.53515625 C14.55434975 51.33454368 15.9344682 60.0495329 17 69 C15.68 69 14.36 69 13 69 C13 68.34 13 67.68 13 67 C13.66 67 14.32 67 15 67 C14.67 66.34 14.34 65.68 14 65 C13.01 65.66 12.02 66.32 11 67 C11.55312735 62.97007218 12.1558062 58.97977076 13 55 C12.01 54.505 12.01 54.505 11 54 C10.67 55.65 10.34 57.3 10 59 C9.34 59 8.68 59 8 59 C7.87625 59.763125 7.7525 60.52625 7.625 61.3125 C7 64 7 64 5 67 C4.96261719 66.33355469 4.92523438 65.66710937 4.88671875 64.98046875 C4.3872554 57.97818838 3.0090214 51.72585425 1 45 C-7.415 45.495 -7.415 45.495 -16 46 C-17 40 -17 40 -16 37 C-18.64 37 -21.28 37 -24 37 C-24 28.09 -24 19.18 -24 10 C-22.68 10.33 -21.36 10.66 -20 11 C-20.99 11 -21.98 11 -23 11 C-23 19.25 -23 27.5 -23 36 C-20.4425 35.690625 -17.885 35.38125 -15.25 35.0625 C-14.45110352 34.96718994 -13.65220703 34.87187988 -12.82910156 34.77368164 C-9.48370407 34.36203764 -6.25566273 33.86458748 -3 33 C-3.93347358 31.24784894 -4.8719532 29.49836437 -5.8125 27.75 C-6.59560547 26.28820312 -6.59560547 26.28820312 -7.39453125 24.796875 C-8.78965188 22.36644588 -10.26195961 20.19212301 -12 18 C-11.34 18 -10.68 18 -10 18 C-10 17.34 -10 16.68 -10 16 C-9.01 15.34 -8.02 14.68 -7 14 C-6.67 13.01 -6.34 12.02 -6 11 C-4.25390625 11.109375 -4.25390625 11.109375 -2 12 C-0.47407596 14.07361654 0.80024056 16.02706141 2.0625 18.25 C2.40087891 18.82363281 2.73925781 19.39726562 3.08789062 19.98828125 C4.06825887 21.65320063 5.03436302 23.32649361 6 25 C6.99704626 26.66843535 7.99586288 28.3358226 9 30 C12.3 28.68 15.6 27.36 19 26 C18.505 24.515 18.505 24.515 18 23 C17.34 22.67 16.68 22.34 16 22 C16 21.34 16 20.68 16 20 C15.21625 19.690625 14.4325 19.38125 13.625 19.0625 C11 18 11 18 9 17 C9 16.34 9 15.68 9 15 C8.2265625 14.8453125 8.2265625 14.8453125 7.4375 14.6875 C4.13973565 13.75736134 1.13366668 12.38604488 -2 11 C-1.01 10.67 -0.02 10.34 1 10 C0.814375 9.401875 0.62875 8.80375 0.4375 8.1875 C0 6 0 6 1 3 C0.67 2.01 0.34 1.02 0 0 Z " fill="#2B3A4D" transform="translate(287,174)"/>
<path d="M0 0 C3.01739988 0.2646842 5.99619461 0.61762582 9 1 C10.84464844 1.17208984 10.84464844 1.17208984 12.7265625 1.34765625 C22.92113601 2.70492195 22.92113601 2.70492195 25.91015625 6.29296875 C26.82222984 8.17827537 27.68537283 10.08786404 28.50390625 12.015625 C32.91682775 20.81842403 42.99012741 27.50192735 52 31 C58.58744034 32.9770245 65.28388645 34.52946228 72 36 C72 36.66 72 37.32 72 38 C50.20361212 38.41039224 28.09398777 36.27715972 10.3125 22.25 C9.549375 21.5075 8.78625 20.765 8 20 C8 19.34 8 18.68 8 18 C7.34 18 6.68 18 6 18 C2.69800644 12.0564116 1.04481337 6.70880162 0 0 Z " fill="#185EF9" transform="translate(146,287)"/>
<path d="M0 0 C17.86280946 -0.74085385 38.17802943 2.94872165 52 15 C52.66386719 15.5671875 53.32773437 16.134375 54.01171875 16.71875 C61.16575945 23.31786511 63.52864134 30.55232862 65 40 C60.05515689 39.4191529 55.90374279 37.85545046 51.4375 35.75 C50.79103516 35.46253906 50.14457031 35.17507812 49.47851562 34.87890625 C44.25308401 32.44426975 40.62893768 29.35290998 37.3125 24.5625 C31.7245532 18.37045084 23.11053319 14.51607739 15.1953125 12.16796875 C11.62825576 10.86411793 8.78787427 9.1593685 5.625 7.0625 C4.56539063 6.37285156 3.50578125 5.68320313 2.4140625 4.97265625 C1.21910156 3.99619141 1.21910156 3.99619141 0 3 C0 2.01 0 1.02 0 0 Z " fill="#254EA3" transform="translate(306,175)"/>
<path d="M0 0 C17.49 0 34.98 0 53 0 C53 2.64 53 5.28 53 8 C35.51 8 18.02 8 0 8 C0 5.36 0 2.72 0 0 Z " fill="#2659C7" transform="translate(119,226)"/>
<path d="M0 0 C6.24796254 -0.02464455 12.49589703 -0.04283343 18.74389648 -0.05493164 C20.87118014 -0.05997298 22.99846031 -0.06680591 25.12573242 -0.07543945 C28.17627826 -0.08751379 31.22677845 -0.09323014 34.27734375 -0.09765625 C35.71327126 -0.10539818 35.71327126 -0.10539818 37.1782074 -0.11329651 C38.49946373 -0.11340981 38.49946373 -0.11340981 39.84741211 -0.11352539 C40.62684677 -0.115746 41.40628143 -0.11796661 42.20933533 -0.12025452 C44 0 44 0 45 1 C45 3.64 45 6.28 45 9 C30.15 9 15.3 9 0 9 C0 6.03 0 3.06 0 0 Z " fill="#4273DA" transform="translate(111,240)"/>
<path d="M0 0 C2.51404424 1.22157464 4.80904052 2.50763327 7.1875 4 C17.24323672 9.06567188 31.55361386 8.76093597 42.5 7.5 C49.96691264 6.6584908 57.49789369 6.92167174 65 7 C64.34 8.32 63.68 9.64 63 11 C58.32675656 11.05039582 53.65367989 11.08617623 48.98022461 11.10986328 C47.39881629 11.11976405 45.81742546 11.13328816 44.23608398 11.15087891 C31.35440065 11.29031769 18.63871623 10.71363814 6 8 C2.96928515 11.10659643 2.96928515 11.10659643 1.875 15.125 C3.69864067 18.16440111 5.69247415 18.78143785 9 20 C19.25562817 21.91506246 30.13391714 21.03876843 40.51489258 20.90405273 C42.99821692 20.87394465 45.48139588 20.85612757 47.96484375 20.83984375 C48.72731918 20.82638412 49.48979462 20.8129245 50.27537537 20.79905701 C54.07505299 20.78093076 55.75639176 20.83759451 59 23 C59 23.66 59 24.32 59 25 C54.30846478 25.07548262 49.61730078 25.12921347 44.92529297 25.16479492 C43.33701402 25.17966405 41.74877445 25.19996555 40.16064453 25.22631836 C26.25209406 25.45093396 11.9293547 24.67076961 -1 19 C-2.60607809 15.45149238 -1.91561919 11.60233139 -1.625 7.8125 C-1.53476563 6.56082031 -1.44453125 5.30914062 -1.3515625 4.01953125 C-1 1 -1 1 0 0 Z " fill="#4371DB" transform="translate(145,263)"/>
<path d="M0 0 C0.99 0 1.98 0 3 0 C1.37278635 3.71429203 -0.94670486 6.61641051 -3.5 9.75 C-4.2940625 10.73484375 -5.088125 11.7196875 -5.90625 12.734375 C-6.5971875 13.48203125 -7.288125 14.2296875 -8 15 C-8.66 15 -9.32 15 -10 15 C-10.2475 15.556875 -10.495 16.11375 -10.75 16.6875 C-12.22924818 19.42410913 -13.93467439 21.67650869 -16 24 C-16.66 24 -17.32 24 -18 24 C-18.2475 24.556875 -18.495 25.11375 -18.75 25.6875 C-20.23870529 28.44160479 -21.88409972 30.69174514 -24 33 C-24.99 33 -25.98 33 -27 33 C-26.88482579 30.64499052 -26.75812022 28.29150927 -26.625 25.9375 C-26.52058594 23.97103516 -26.52058594 23.97103516 -26.4140625 21.96484375 C-26.00194564 18.01863043 -25.20243433 14.75882927 -24 11 C-24.69867188 11.28875 -25.39734375 11.5775 -26.1171875 11.875 C-27.02726562 12.24625 -27.93734375 12.6175 -28.875 13 C-30.23238281 13.556875 -30.23238281 13.556875 -31.6171875 14.125 C-34 15 -34 15 -36 15 C-35.34 13.35 -34.68 11.7 -34 10 C-33.67 10.66 -33.34 11.32 -33 12 C-32.34 12 -31.68 12 -31 12 C-30.814375 11.1028125 -30.814375 11.1028125 -30.625 10.1875 C-30 8 -30 8 -28 5 C-27.01 5 -26.02 5 -25 5 C-25 5.66 -25 6.32 -25 7 C-23.02 7 -21.04 7 -19 7 C-18.67 7.99 -18.34 8.98 -18 10 C-18.66 10.66 -19.32 11.32 -20 12 C-19.01 12.66 -18.02 13.32 -17 14 C-14.37098712 12.47793991 -12.15634036 11.15634036 -10 9 C-9.01 9 -8.02 9 -7 9 C-6.67 8.01 -6.34 7.02 -6 6 C-5.34 6 -4.68 6 -4 6 C-4 5.01 -4 4.02 -4 3 C-3.01 2.67 -2.02 2.34 -1 2 C-0.67 1.34 -0.34 0.68 0 0 Z " fill="#2454AE" transform="translate(381,243)"/>
<path d="M0 0 C2.93872236 3.16477793 3.64280812 4.77055353 3.5625 9.1875 C2.45843994 13.38292822 0.88774431 14.97666734 -2.375 17.75 C-2.705 18.08 -3.035 18.41 -3.375 18.75 C-7.32188678 19.12950834 -9.68658266 19.13245408 -13.1875 17.1875 C-16.00069156 14.05280083 -16.80889006 11.92506077 -17.375 7.75 C-16.33234032 4.21654218 -15.52742574 1.731696 -12.6875 -0.6875 C-8.2794113 -1.75973779 -4.08782092 -2.1514847 0 0 Z " fill="#264EA5" transform="translate(339.375,306.25)"/>
<path d="M0 0 C-0.4125 1.11375 -0.825 2.2275 -1.25 3.375 C-3.83696733 11.06163497 -5.31648722 19.0780896 -7 27 C-8.41601693 26.87295797 -9.83124429 26.73710021 -11.24609375 26.59765625 C-12.42836548 26.48562866 -12.42836548 26.48562866 -13.63452148 26.37133789 C-17.10317234 25.82682164 -19.85628484 24.5384138 -23 23 C-21.74637759 16.98261245 -19.27607593 12.47361205 -15 8 C-14.34 8 -13.68 8 -13 8 C-13 7.34 -13 6.68 -13 6 C-12.34 6 -11.68 6 -11 6 C-11 5.34 -11 4.68 -11 4 C-4.5 0 -4.5 0 0 0 Z " fill="#3F73E4" transform="translate(173,240)"/>
<path d="M0 0 C1.26324097 0.00676758 1.26324097 0.00676758 2.55200195 0.01367188 C3.82974487 0.01657227 3.82974487 0.01657227 5.13330078 0.01953125 C12.41037056 0.06861313 19.6159083 0.47648387 26.86450195 1.13867188 C26.86450195 3.77867187 26.86450195 6.41867187 26.86450195 9.13867188 C22.36279993 9.35582756 17.86084038 9.55266066 13.35742188 9.73071289 C11.82560497 9.79413981 10.29400727 9.86311371 8.76269531 9.93774414 C6.56129517 10.04406784 4.35987708 10.13041014 2.1574707 10.21289062 C1.13075508 10.26892708 1.13075508 10.26892708 0.08329773 10.32609558 C-2.78941178 10.41691591 -4.67258061 10.44611784 -7.10693359 8.8293457 C-8.13549805 7.13867188 -8.13549805 7.13867188 -7.88549805 4.01367188 C-6.59541031 -0.93166447 -4.80700703 0.01186549 0 0 Z " fill="#4675DB" transform="translate(114.135498046875,254.861328125)"/>
<path d="M0 0 C2.74890261 2.01586192 4.63139654 3.54033032 5.48828125 6.93359375 C5.7480039 10.85911608 5.22152203 12.66771696 3 16 C-1.15562097 18.77041398 -3.06667872 18.70476018 -8 18 C-10.43119623 16.12984906 -11.64069173 14.71861655 -13 12 C-13.375 8.6875 -13.375 8.6875 -13 5 C-9.17451963 0.24399738 -6.01202896 -2.00400965 0 0 Z " fill="#1A5EF7" transform="translate(189,178)"/>
<path d="M0 0 C0.33 2.64 0.66 5.28 1 8 C0.195625 8.28875 -0.60875 8.5775 -1.4375 8.875 C-4.1326468 9.73262568 -4.1326468 9.73262568 -5 12 C-5.36141955 14.32914823 -5.69699525 16.66253478 -6 19 C-8.31 18.34 -10.62 17.68 -13 17 C-13 16.34 -13 15.68 -13 15 C-13.66 14.67 -14.32 14.34 -15 14 C-14.67 13.01 -14.34 12.02 -14 11 C-15.07121094 10.87882812 -16.14242188 10.75765625 -17.24609375 10.6328125 C-18.64328752 10.46402399 -20.04041991 10.29472687 -21.4375 10.125 C-22.49807617 10.00705078 -22.49807617 10.00705078 -23.58007812 9.88671875 C-25.39673432 9.66072324 -27.20062522 9.33699273 -29 9 C-29.33 8.34 -29.66 7.68 -30 7 C-28.47632813 6.61908203 -28.47632813 6.61908203 -26.921875 6.23046875 C-26.26074707 6.06514648 -25.59961914 5.89982422 -24.91845703 5.72949219 C-23.46638505 5.36655594 -22.01423588 5.00392841 -20.56201172 4.64160156 C-17.15144263 3.79027771 -13.74233097 2.93434659 -10.3359375 2.06640625 C-9.27632813 1.79699219 -8.21671875 1.52757812 -7.125 1.25 C-5.70574219 0.88648438 -5.70574219 0.88648438 -4.2578125 0.515625 C-2 0 -2 0 0 0 Z " fill="#1B2B3E" transform="translate(300,278)"/>
<path d="M0 0 C1.16781006 0.00523682 2.33562012 0.01047363 3.53881836 0.01586914 C4.79887695 0.0190918 6.05893555 0.02231445 7.35717773 0.02563477 C8.6976732 0.03399136 10.03816799 0.04245632 11.37866211 0.05102539 C12.72306153 0.05603879 14.06746271 0.06060197 15.41186523 0.06469727 C18.71334151 0.07653051 22.01473014 0.09301568 25.31616211 0.11352539 C25.31616211 2.75352539 25.31616211 5.39352539 25.31616211 8.11352539 C5.57827244 9.77067955 5.57827244 9.77067955 -1.68383789 9.11352539 C-3.68383789 7.11352539 -3.68383789 7.11352539 -3.87133789 4.05102539 C-3.62254258 0.15323227 -3.62254258 0.15323227 0 0 Z " fill="#1A55DA" transform="translate(116.683837890625,286.886474609375)"/>
<path d="M0 0 C1.31582063 2.26896632 2.62775236 4.54003187 3.9375 6.8125 C4.31068359 7.45509766 4.68386719 8.09769531 5.06835938 8.75976562 C6.63466635 11.48316424 8.00369374 14.01108122 9 17 C8.360625 17.103125 7.72125 17.20625 7.0625 17.3125 C6.381875 17.539375 5.70125 17.76625 5 18 C4.67 18.99 4.34 19.98 4 21 C3.34 21 2.68 21 2 21 C2 21.66 2 22.32 2 23 C2.66 23.33 3.32 23.66 4 24 C3.01 24 2.02 24 1 24 C-0.6643289 21.88039273 -2.08673451 19.84151048 -3.5 17.5625 C-3.9014624 16.92812012 -4.3029248 16.29374023 -4.71655273 15.64013672 C-7.62761333 10.91363397 -9.60443546 6.39618291 -11 1 C-7.26513121 0.4254048 -3.78706732 0 0 0 Z " fill="#2B3A4D" transform="translate(233,291)"/>
<path d="M0 0 C1.20970459 0.00523682 2.41940918 0.01047363 3.66577148 0.01586914 C4.97094727 0.0190918 6.27612305 0.02231445 7.62084961 0.02563477 C9.00952213 0.03399138 10.39819401 0.04245634 11.78686523 0.05102539 C13.17944179 0.05603873 14.57202005 0.06060193 15.96459961 0.06469727 C19.38456394 0.07653105 22.80444367 0.09301659 26.22436523 0.11352539 C26.22436523 2.75352539 26.22436523 5.39352539 26.22436523 8.11352539 C22.11263964 8.13818285 18.00094246 8.15636498 13.88916016 8.16845703 C12.48941295 8.17349619 11.08967103 8.18032756 9.68994141 8.18896484 C7.68190747 8.20104859 5.67383566 8.20622346 3.66577148 8.21118164 C2.45606689 8.21641846 1.2463623 8.22165527 0 8.22705078 C-2.77563477 8.11352539 -2.77563477 8.11352539 -3.77563477 7.11352539 C-3.90063477 4.11352539 -3.90063477 4.11352539 -3.77563477 1.11352539 C-2.77563477 0.11352539 -2.77563477 0.11352539 0 0 Z " fill="#3266D4" transform="translate(111.775634765625,271.886474609375)"/>
<path d="M0 0 C0.44988281 0.36351562 0.89976562 0.72703125 1.36328125 1.1015625 C13.05749806 10.24133115 24.69392601 13.86758997 39 17 C39 17.66 39 18.32 39 19 C22.36380523 19.31323379 7.68587228 17.8400861 -8 12 C-8.66 11.34 -9.32 10.68 -10 10 C-2.125 10.875 -2.125 10.875 -1 12 C0.99958364 12.04080783 3.00045254 12.04254356 5 12 C5.33 10.02 5.66 8.04 6 6 C3.03 5.505 3.03 5.505 0 5 C0 3.35 0 1.7 0 0 Z " fill="#145DF7" transform="translate(179,306)"/>
<path d="M0 0 C11.28845091 -0.1972739 11.28845091 -0.1972739 15 1 C15.33 1.66 15.66 2.32 16 3 C18.12576782 3.46651207 18.12576782 3.46651207 20.5625 3.625 C21.38878906 3.69976562 22.21507812 3.77453125 23.06640625 3.8515625 C23.70449219 3.90054688 24.34257812 3.94953125 25 4 C25 4.66 25 5.32 25 6 C26.98 6 28.96 6 31 6 C29.625 8 29.625 8 28 10 C27.34 10 26.68 10 26 10 C26.33 11.65 26.66 13.3 27 15 C16.58519744 13.91512473 8.08476405 9.68340495 0 3 C0 2.01 0 1.02 0 0 Z " fill="#17439F" transform="translate(306,175)"/>
<path d="M0 0 C2.4375 1.5625 2.4375 1.5625 4 4 C4.56921855 7.98452984 4.67149179 10.05493748 2.3125 13.375 C-0.31196417 15.21921807 -1.78929947 15.92169023 -5 16 C-7.85101994 14.740247 -9.5298028 13.64117799 -11.375 11.125 C-12.20541584 8.30158614 -11.97164852 6.77613862 -11 4 C-7.91682508 -0.38759507 -5.19877088 -0.74268155 0 0 Z " fill="#1944A1" transform="translate(352,287)"/>
<path d="M0 0 C4.14749379 4.5424932 5.86999199 10.52984787 6.1875 16.5625 C6.125625 17.366875 6.06375 18.17125 6 19 C1.545 20.485 1.545 20.485 -3 22 C-3.81487171 19.75083381 -4.62696918 17.50073022 -5.4375 15.25 C-5.66759766 14.61578125 -5.89769531 13.9815625 -6.13476562 13.328125 C-7.24244769 10.24587924 -8.29661036 7.20163562 -9 4 C-6.69 4.33 -4.38 4.66 -2 5 C-1.34 3.35 -0.68 1.7 0 0 Z " fill="#334053" transform="translate(331,213)"/>
<path d="M0 0 C2.375 1.6875 2.375 1.6875 4 4 C4.60605429 7.63632575 4.47161336 9.28314769 2.4375 12.375 C-0.95870843 14.63913895 -3.00099302 14.64269755 -7 14 C-9.5 11.9375 -9.5 11.9375 -11 9 C-11 5.16249192 -10.81388154 2.96460035 -8.3125 0 C-5.08866642 -1.3940902 -3.32817512 -1.04005473 0 0 Z " fill="#6392E7" transform="translate(175,200)"/>
<path d="M0 0 C6.97853129 2.41564545 13.43996435 5.62158164 20 9 C18 10.33333333 16 11.66666667 14 13 C11.58650346 17.31888854 11.83680131 21.18563858 12 26 C8.17010894 27.80230168 5.21878192 28.19622241 1 28 C4.28463659 25.81024227 7.20696275 25.00193437 11 24 C10.71125 23.45730469 10.4225 22.91460937 10.125 22.35546875 C9.75375 21.64003906 9.3825 20.92460937 9 20.1875 C8.443125 19.12595703 8.443125 19.12595703 7.875 18.04296875 C7 16 7 16 7 13 C6.34 13 5.68 13 5 13 C4.15930585 11.39967863 3.32768495 9.79458829 2.5 8.1875 C1.80390625 6.84751953 1.80390625 6.84751953 1.09375 5.48046875 C0 3 0 3 0 0 Z " fill="#2C55B3" transform="translate(341,209)"/>
<path d="M0 0 C2.70613186 1.03469747 5.17722863 2.1030399 7.6875 3.5625 C18.00127304 8.0382883 31.47266777 6.04734958 42.51489258 5.90405273 C44.99821692 5.87394465 47.48139588 5.85612757 49.96484375 5.83984375 C50.72731918 5.82638412 51.48979462 5.8129245 52.27537537 5.79905701 C56.07505299 5.78093076 57.75639176 5.83759451 61 8 C61 8.66 61 9.32 61 10 C56.30846478 10.07548262 51.61730078 10.12921347 46.92529297 10.16479492 C45.33701402 10.17966405 43.74877445 10.19996555 42.16064453 10.22631836 C28.25209406 10.45093396 13.9293547 9.67076961 1 4 C0.27734375 1.90234375 0.27734375 1.90234375 0 0 Z " fill="#517FDE" transform="translate(143,278)"/>
<path d="M0 0 C8.13709505 0.71378027 16.01731928 2.32773882 24 4 C24.66 5.98 25.32 7.96 26 10 C25.01 10 24.02 10 23 10 C23 9.01 23 8.02 23 7 C20.525 6.505 20.525 6.505 18 6 C18 5.67 18 5.34 18 5 C13.71 4.67 9.42 4.34 5 4 C5.33 4.99 5.66 5.98 6 7 C5.72428861 9.00875442 5.39764263 11.01178687 5 13 C5.66 13 6.32 13 7 13 C7 13.66 7 14.32 7 15 C7.99 15 8.98 15 10 15 C10.33 14.34 10.66 13.68 11 13 C10.979375 13.763125 10.95875 14.52625 10.9375 15.3125 C10.87057159 18.10185786 10.87057159 18.10185786 12 21 C13.32 20.67 14.64 20.34 16 20 C16.33 21.32 16.66 22.64 17 24 C17.66 24 18.32 24 19 24 C19.33 24.66 19.66 25.32 20 26 C20.99 26.33 21.98 26.66 23 27 C23 27.66 23 28.32 23 29 C17.010121 27.61772023 12.41642615 24.16125486 8 20 C8 19.34 8 18.68 8 18 C7.34 18 6.68 18 6 18 C2.69800644 12.0564116 1.04481337 6.70880162 0 0 Z " fill="#356EEA" transform="translate(146,287)"/>
<path d="M0 0 C0.042721 1.66611905 0.04063832 3.33382885 0 5 C-0.33 5.33 -0.66 5.66 -1 6 C-1.23363881 7.84891946 -1.41303635 9.70488031 -1.5625 11.5625 C-1.64628906 12.57441406 -1.73007813 13.58632813 -1.81640625 14.62890625 C-1.87699219 15.41136719 -1.93757812 16.19382812 -2 17 C-5.3 16.34 -8.6 15.68 -12 15 C-11.67 14.01 -11.34 13.02 -11 12 C-11.66 12 -12.32 12 -13 12 C-12.72991214 8.12874073 -12.24063252 6.29410641 -9.75 3.25 C-3.5862069 -1.79310345 -3.5862069 -1.79310345 0 0 Z " fill="#165DF9" transform="translate(167,248)"/>
<path d="M0 0 C0.33 0 0.66 0 1 0 C1 7.26 1 14.52 1 22 C-8.57 22 -18.14 22 -28 22 C-28 20.02 -28 18.04 -28 16 C-28.99 16 -29.98 16 -31 16 C-31 16.66 -31 17.32 -31 18 C-31.66 17.67 -32.32 17.34 -33 17 C-32.67 16.34 -32.34 15.68 -32 15 C-33.65 15 -35.3 15 -37 15 C-36.67 10.38 -36.34 5.76 -36 1 C-35.67 1 -35.34 1 -35 1 C-34.67 3.97 -34.34 6.94 -34 10 C-33.34 9.01 -32.68 8.02 -32 7 C-29.875 5.8125 -29.875 5.8125 -28 5 C-28 5.66 -28 6.32 -28 7 C-27.34 7 -26.68 7 -26 7 C-26.33 11.62 -26.66 16.24 -27 21 C-18.09 21 -9.18 21 0 21 C0 14.07 0 7.14 0 0 Z " fill="#485566" transform="translate(253,221)"/>
<path d="M0 0 C14.19 0 28.38 0 43 0 C43 2.31 43 4.62 43 7 C34.09 7 25.18 7 16 7 C16 6.67 16 6.34 16 6 C20.95 5.67 25.9 5.34 31 5 C31 4.34 31 3.68 31 3 C20.66849591 2.30232659 10.33533038 1.6383187 0 1 C0 0.67 0 0.34 0 0 Z " fill="#1D4EB4" transform="translate(112,241)"/>
<path d="M0 0 C3.33161397 2.98696425 5.34826557 5.82719722 7 10 C6.85067355 12.6132129 6.24840795 13.6687894 4.6875 15.75 C3 17 3 17 -1 17 C-1 16.34 -1 15.68 -1 15 C-1.99 14.67 -2.98 14.34 -4 14 C-5.09765625 12.40625 -5.09765625 12.40625 -6.0625 10.5 C-7.42445528 7.66980932 -7.42445528 7.66980932 -10 6 C-9.67 4.35 -9.34 2.7 -9 1 C-8.01 1 -7.02 1 -6 1 C-6 2.65 -6 4.3 -6 6 C-4.02 5.34 -2.04 4.68 0 4 C0 2.68 0 1.36 0 0 Z " fill="#2D3C4D" transform="translate(324,202)"/>
<path d="M0 0 C7.59 0 15.18 0 23 0 C23 2.64 23 5.28 23 8 C16.73 8 10.46 8 4 8 C4 7.67 4 7.34 4 7 C5.4540625 6.5978125 5.4540625 6.5978125 6.9375 6.1875 C8.4534375 5.5996875 8.4534375 5.5996875 10 5 C10.33 4.01 10.66 3.02 11 2 C7.37 1.67 3.74 1.34 0 1 C0 0.67 0 0.34 0 0 Z " fill="#2751AE" transform="translate(118,256)"/>
<path d="M0 0 C4.62 0 9.24 0 14 0 C14 2.31 14 4.62 14 7 C5.42 7 -3.16 7 -12 7 C-12 6.67 -12 6.34 -12 6 C-8.7 5.67 -5.4 5.34 -2 5 C-1.34 3.35 -0.68 1.7 0 0 Z " fill="#1B4DBB" transform="translate(123,273)"/>
<path d="M0 0 C0 0.66 0 1.32 0 2 C-5.98410537 4.32655091 -11.58008874 6.42934122 -18 7 C-18.33 8.32 -18.66 9.64 -19 11 C-20.00893131 9.90398831 -21.00688225 8.79786082 -22 7.6875 C-22.8353125 6.76517578 -22.8353125 6.76517578 -23.6875 5.82421875 C-25 4 -25 4 -25 1 C-22.14596025 0.83087172 -19.29179998 0.66462837 -16.4375 0.5 C-15.23770508 0.42845703 -15.23770508 0.42845703 -14.01367188 0.35546875 C-9.33281023 0.08799094 -4.68841621 -0.05034541 0 0 Z " fill="#1C293C" transform="translate(217,293)"/>
<path d="M0 0 C0.66 0 1.32 0 2 0 C2 0.66 2 1.32 2 2 C3.32 2.33 4.64 2.66 6 3 C4.35 6.63 2.7 10.26 1 14 C0.67 14 0.34 14 0 14 C0 12.35 0 10.7 0 9 C-1.65 8.67 -3.3 8.34 -5 8 C-5 8.66 -5 9.32 -5 10 C-6.62626404 11.38232443 -8.2925002 12.71937515 -10 14 C-10.33 13.34 -10.66 12.68 -11 12 C-10.00390625 9.3984375 -10.00390625 9.3984375 -8.5625 6.375 C-8.08941406 5.37210938 -7.61632812 4.36921875 -7.12890625 3.3359375 C-6.75636719 2.56507813 -6.38382813 1.79421875 -6 1 C-5.01 1.33 -4.02 1.66 -3 2 C-3 2.66 -3 3.32 -3 4 C-2.34 4 -1.68 4 -1 4 C-0.67 2.68 -0.34 1.36 0 0 Z " fill="#38465A" transform="translate(193,211)"/>
<path d="M0 0 C9.24 0 18.48 0 28 0 C28 2.64 28 5.28 28 8 C22.72 8 17.44 8 12 8 C12 7.67 12 7.34 12 7 C14.64 6.67 17.28 6.34 20 6 C20 4.68 20 3.36 20 2 C13.4 2 6.8 2 0 2 C0 1.34 0 0.68 0 0 Z " fill="#2D51A5" transform="translate(114,287)"/>
<path d="M0 0 C2.97247846 3.20113065 3.65977236 4.77637399 3.5 9.25 C2.55984821 13.01060717 1.59383153 14.35578102 -1.375 16.75 C-1.375 15.76 -1.375 14.77 -1.375 13.75 C-0.715 13.75 -0.055 13.75 0.625 13.75 C0.625 10.78 0.625 7.81 0.625 4.75 C-1.85 4.255 -1.85 4.255 -4.375 3.75 C-4.375 3.09 -4.375 2.43 -4.375 1.75 C-7.84441546 2.20822468 -11.04895049 2.64131683 -14.375 3.75 C-14.375 6.72 -14.375 9.69 -14.375 12.75 C-16.375 11.75 -16.375 11.75 -17.1875 10.125 C-17.48072928 6.41076248 -16.1096777 3.98008951 -14.375 0.75 C-10.56891328 -2.49222202 -4.25585732 -2.23992491 0 0 Z " fill="#5775AC" transform="translate(339.375,306.25)"/>
<path d="M0 0 C2 3 2 3 2 6 C2.99 5.67 3.98 5.34 5 5 C7.1875 5.4375 7.1875 5.4375 9 6 C8.39301257 10.12751449 6.96189209 13.3321148 5 17 C3.02 16.34 1.04 15.68 -1 15 C-0.67 13.02 -0.34 11.04 0 9 C-0.99 9 -1.98 9 -3 9 C-2.01 6.03 -1.02 3.06 0 0 Z " fill="#374556" transform="translate(325,274)"/>
<path d="M0 0 C-1.91722169 7.81636537 -1.91722169 7.81636537 -5 10 C-5.66 10 -6.32 10 -7 10 C-7 10.66 -7 11.32 -7 12 C-8.32 11.34 -9.64 10.68 -11 10 C-10.67 9.67 -10.34 9.34 -10 9 C-10.66 8.67 -11.32 8.34 -12 8 C-12.33 8.99 -12.66 9.98 -13 11 C-13.66 10.01 -14.32 9.02 -15 8 C-14.0007455 5.44276805 -13.33618056 4.2102751 -10.9765625 2.734375 C-9.81253906 2.24710938 -9.81253906 2.24710938 -8.625 1.75 C-7.85414063 1.41484375 -7.08328125 1.0796875 -6.2890625 0.734375 C-4 0 -4 0 0 0 Z " fill="#152539" transform="translate(236,174)"/>
<path d="M0 0 C2.125 6.625 2.125 6.625 1 10 C1.66 10.33 2.32 10.66 3 11 C0.3125 11.8125 0.3125 11.8125 -3 12 C-6.14816271 9.62138817 -7.7113957 7.9990149 -8.8125 4.1875 C-8.874375 3.465625 -8.93625 2.74375 -9 2 C-5.62902617 0.50178941 -3.79557881 0 0 0 Z " fill="#192A3E" transform="translate(207,298)"/>
<path d="M0 0 C1.33333333 0.66666667 2.66666667 1.33333333 4 2 C5.051875 2.45375 6.10375 2.9075 7.1875 3.375 C10 5 10 5 10.875 7.1875 C10.936875 8.0846875 10.936875 8.0846875 11 9 C9.35 8.67 7.7 8.34 6 8 C3.87961365 10.61514317 1.86908256 13.19637616 0 16 C-1 15 -1 15 -1.1328125 11.875 C-1.13023437 10.59625 -1.12765625 9.3175 -1.125 8 C-1.12757813 6.72125 -1.13015625 5.4425 -1.1328125 4.125 C-1 1 -1 1 0 0 Z " fill="#1A5CEE" transform="translate(145,263)"/>
<path d="M0 0 C0.78375 0.04125 1.5675 0.0825 2.375 0.125 C2.478125 0.764375 2.58125 1.40375 2.6875 2.0625 C2.914375 2.743125 3.14125 3.42375 3.375 4.125 C4.365 4.455 5.355 4.785 6.375 5.125 C6.045 6.775 5.715 8.425 5.375 10.125 C2.735 10.455 0.095 10.785 -2.625 11.125 C-4.47151134 8.00901212 -5.00579379 5.74254103 -4.625 2.125 C-2.625 0.125 -2.625 0.125 0 0 Z " fill="#175CF6" transform="translate(170.625,200.875)"/>
<path d="M0 0 C-6.222927 1.86020472 -12.50419628 3.2426211 -18.85546875 4.58789062 C-22.74497145 5.12685846 -22.74497145 5.12685846 -26 7 C-31.71658302 7.33111384 -37.39018566 7.21293283 -43 6 C-43 5.67 -43 5.34 -43 5 C-41.76866333 4.83395264 -41.76866333 4.83395264 -40.51245117 4.66455078 C-37.41273002 4.24532173 -34.3133275 3.82382369 -31.21411133 3.40087891 C-29.23476889 3.13143463 -27.25508337 2.86451448 -25.27539062 2.59765625 C-18.52369074 1.67463905 -11.83627272 0.66402531 -5.1652832 -0.73486328 C-3 -1 -3 -1 0 0 Z " fill="#5E89DA" transform="translate(253,264)"/>
<path d="M0 0 C4.6561005 1.82918234 9.06057924 4.07632759 13.5 6.375 C12.76459235 9.70884804 11.80130525 11.79753812 9.5 14.375 C8.84 14.375 8.18 14.375 7.5 14.375 C7.5 15.035 7.5 15.695 7.5 16.375 C6.84 16.375 6.18 16.375 5.5 16.375 C5.56960938 15.69953125 5.63921875 15.0240625 5.7109375 14.328125 C5.87801432 11.57533541 5.92042036 9.10344232 5.5 6.375 C2.87097738 3.73327246 2.87097738 3.73327246 -0.5 2.375 C-1.28375 1.9625 -2.0675 1.55 -2.875 1.125 C-3.41125 0.8775 -3.9475 0.63 -4.5 0.375 C-2.5 -0.625 -2.5 -0.625 0 0 Z " fill="#244A9E" transform="translate(378.5,226.625)"/>
<path d="M0 0 C0.33 0.99 0.66 1.98 1 3 C4.13349732 4.04449911 4.98968256 3.93423645 8 3 C7.67 4.65 7.34 6.3 7 8 C6.34 7.34 5.68 6.68 5 6 C4.34 6.66 3.68 7.32 3 8 C-0.47823115 9.15941038 -2.45895578 8.70820884 -6 8 C-6 7.34 -6 6.68 -6 6 C-6.99 5.67 -7.98 5.34 -9 5 C-6.41680366 1.12520549 -4.65792984 0 0 0 Z " fill="#15253A" transform="translate(212,201)"/>
<path d="M0 0 C0.99 0.33 1.98 0.66 3 1 C2.855625 1.70125 2.71125 2.4025 2.5625 3.125 C1.98521625 6.07556141 1.48304859 9.03270151 1 12 C1.99 11.34 2.98 10.68 4 10 C4 10.99 4 11.98 4 13 C3.34 13 2.68 13 2 13 C2.33 13.99 2.66 14.98 3 16 C0.69 15.67 -1.62 15.34 -4 15 C-5.15081169 10.97215907 -4.96281457 8.71901707 -3 5 C-2.34 4.67 -1.68 4.34 -1 4 C-0.34786708 1.97536745 -0.34786708 1.97536745 0 0 Z " fill="#15253A" transform="translate(298,228)"/>
<path d="M0 0 C0.66 0.99 1.32 1.98 2 3 C1.67 3.66 1.34 4.32 1 5 C0.34 5 -0.32 5 -1 5 C-1 5.66 -1 6.32 -1 7 C-3.31386295 6.71935082 -5.62609008 6.42518311 -7.9375 6.125 C-9.22527344 5.96257812 -10.51304687 5.80015625 -11.83984375 5.6328125 C-12.88269531 5.42398437 -13.92554688 5.21515625 -15 5 C-15.33 4.34 -15.66 3.68 -16 3 C-14.27318563 2.49193553 -12.54342021 1.99389533 -10.8125 1.5 C-9.84957031 1.2215625 -8.88664062 0.943125 -7.89453125 0.65625 C-5.08808054 0.01996968 -2.85664005 -0.35522985 0 0 Z " fill="#596476" transform="translate(286,282)"/>
<path d="M0 0 C6.75 0.875 6.75 0.875 9 2 C9 2.99 9 3.98 9 5 C7.35 5.33 5.7 5.66 4 6 C3.67 7.32 3.34 8.64 3 10 C2.34 10 1.68 10 1 10 C0.67 10.66 0.34 11.32 0 12 C-0.99 12.495 -0.99 12.495 -2 13 C-2.05416188 11.39620659 -2.09286638 9.79188594 -2.125 8.1875 C-2.14820313 7.29417969 -2.17140625 6.40085938 -2.1953125 5.48046875 C-2 3 -2 3 0 0 Z " fill="#165CF7" transform="translate(181,179)"/>
<path d="M0 0 C0.99 0 1.98 0 3 0 C3 0.66 3 1.32 3 2 C4.98 2 6.96 2 9 2 C9.33 2.99 9.66 3.98 10 5 C9.195625 5.12375 8.39125 5.2475 7.5625 5.375 C6.2940625 5.684375 6.2940625 5.684375 5 6 C4.67 6.66 4.34 7.32 4 8 C4 7.34 4 6.68 4 6 C3.30132812 6.28875 2.60265625 6.5775 1.8828125 6.875 C0.97273438 7.24625 0.06265625 7.6175 -0.875 8 C-2.23238281 8.556875 -2.23238281 8.556875 -3.6171875 9.125 C-6 10 -6 10 -8 10 C-7.34 8.35 -6.68 6.7 -6 5 C-5.67 5.66 -5.34 6.32 -5 7 C-4.34 7 -3.68 7 -3 7 C-2.814375 6.1028125 -2.814375 6.1028125 -2.625 5.1875 C-2 3 -2 3 0 0 Z " fill="#1C49B2" transform="translate(353,248)"/>
<path d="M0 0 C0.66 0 1.32 0 2 0 C6.89225393 5.00873617 6.89225393 5.00873617 7.3125 8.875 C7.1578125 9.926875 7.1578125 9.926875 7 11 C5.68 11 4.36 11 3 11 C2.34 11.66 1.68 12.32 1 13 C0.01 13.495 0.01 13.495 -1 14 C-2.4783226 11.04335481 -2.06032783 8.25770263 -2 5 C-1.34 4.67 -0.68 4.34 0 4 C0 2.68 0 1.36 0 0 Z " fill="#142437" transform="translate(220,217)"/>
<path d="M0 0 C0.66 0.33 1.32 0.66 2 1 C2 1.99 2 2.98 2 4 C2.99 3.67 3.98 3.34 5 3 C5 4.32 5 5.64 5 7 C4.34 7 3.68 7 3 7 C3 8.32 3 9.64 3 11 C0.36 11.66 -2.28 12.32 -5 13 C-4.64989059 4.80743982 -4.64989059 4.80743982 -1.9375 1.4375 C-1.298125 0.963125 -0.65875 0.48875 0 0 Z " fill="#16263B" transform="translate(210,186)"/>
<path d="M0 0 C0.66 0.99 1.32 1.98 2 3 C6.85359305 3.46669164 10.46542059 2.64893797 15 1 C15.99 1 16.98 1 18 1 C20 4.875 20 4.875 20 6 C9.11 6.495 9.11 6.495 -2 7 C-2 2 -2 2 0 0 Z " fill="#3C71E4" transform="translate(206,280)"/>
<path d="M0 0 C0.99 0.33 1.98 0.66 3 1 C2.67 2.98 2.34 4.96 2 7 C3.32 7.33 4.64 7.66 6 8 C4.3125 10.0625 4.3125 10.0625 2 12 C-1.52324572 11.82813436 -3.02591724 10.98272184 -6 9 C-5.38245741 7.68397477 -4.75571258 6.37226444 -4.125 5.0625 C-3.77695312 4.33160156 -3.42890625 3.60070312 -3.0703125 2.84765625 C-2 1 -2 1 0 0 Z " fill="#223244" transform="translate(323,282)"/>
<path d="M0 0 C2.0625 0.4375 2.0625 0.4375 4 1 C4 1.99 4 2.98 4 4 C5.98 4 7.96 4 10 4 C10.33 4.99 10.66 5.98 11 7 C11.99 6.34 12.98 5.68 14 5 C15.9896995 4.60986284 17.99019869 4.26797351 20 4 C20 4.66 20 5.32 20 6 C19.01 6.495 19.01 6.495 18 7 C18.66 7.66 19.32 8.32 20 9 C17.79095369 8.91224337 15.58271407 8.80405633 13.375 8.6875 C12.14523438 8.62949219 10.91546875 8.57148438 9.6484375 8.51171875 C5.82319507 7.97520188 3.28187435 7.00860581 0 5 C-0.9375 2.875 -0.9375 2.875 -1 1 C-0.67 0.67 -0.34 0.34 0 0 Z " fill="#165CF4" transform="translate(148,276)"/>
<path d="M0 0 C0.99 0 1.98 0 3 0 C1.37278635 3.71429203 -0.94670486 6.61641051 -3.5 9.75 C-4.2940625 10.73484375 -5.088125 11.7196875 -5.90625 12.734375 C-6.94265625 13.85585938 -6.94265625 13.85585938 -8 15 C-8.66 15 -9.32 15 -10 15 C-10.66 16.32 -11.32 17.64 -12 19 C-13 16 -13 16 -13 13 C-11.6875 10.8125 -11.6875 10.8125 -10 9 C-9.01 9 -8.02 9 -7 9 C-6.67 8.01 -6.34 7.02 -6 6 C-5.34 6 -4.68 6 -4 6 C-4 5.01 -4 4.02 -4 3 C-3.01 2.67 -2.02 2.34 -1 2 C-0.67 1.34 -0.34 0.68 0 0 Z " fill="#415FAC" transform="translate(381,243)"/>
<path d="M0 0 C0.8353125 0.556875 0.8353125 0.556875 1.6875 1.125 C4.00330792 2.30211012 4.00330792 2.30211012 6.28125 1.0625 C9.33402067 -0.13053681 11.55218193 -0.20356188 14.8125 -0.125 C16.27623047 -0.09792969 16.27623047 -0.09792969 17.76953125 -0.0703125 C18.50558594 -0.04710937 19.24164063 -0.02390625 20 0 C16.05978214 2.6268119 12.10886119 3.49573542 7.5625 4.6875 C6.70333984 4.92533203 5.84417969 5.16316406 4.95898438 5.40820312 C4.12818359 5.62798828 3.29738281 5.84777344 2.44140625 6.07421875 C1.68545166 6.27619873 0.92949707 6.47817871 0.15063477 6.6862793 C-2.20250616 7.02954029 -3.75475491 6.72719845 -6 6 C-5.01 5.38125 -4.02 4.7625 -3 4.125 C-2.01 3.42375 -1.02 2.7225 0 2 C0 1.34 0 0.68 0 0 Z " fill="#4269C4" transform="translate(302,265)"/>
<path d="M0 0 C10.55808656 -0.18451025 10.55808656 -0.18451025 15 1 C13.68 1.33 12.36 1.66 11 2 C10.67 3.65 10.34 5.3 10 7 C5.25852179 7 3.64977257 5.90322818 0 3 C0 2.01 0 1.02 0 0 Z " fill="#4767AE" transform="translate(306,175)"/>
<path d="M0 0 C2.4375 1.875 2.4375 1.875 4 4 C4 4.66 4 5.32 4 6 C1.45539052 5.4910781 -1.08754715 4.9812399 -3.625 4.4375 C-6.08923328 3.90941879 -6.08923328 3.90941879 -9 4 C-8.67 6.64 -8.34 9.28 -8 12 C-8.99 12.495 -8.99 12.495 -10 13 C-11.48400777 10.64304648 -12.01570001 9.31400019 -11.875 6.5 C-9.72893082 0.36837376 -6.26001786 -0.89428827 0 0 Z " fill="#405EA3" transform="translate(352,287)"/>
<path d="M0 0 C0.66 0.33 1.32 0.66 2 1 C1.360625 1.2475 0.72125 1.495 0.0625 1.75 C-2.16863668 2.81751132 -2.16863668 2.81751132 -2.8125 5.0625 C-2.874375 5.701875 -2.93625 6.34125 -3 7 C-2.67 7.33 -2.34 7.66 -2 8 C-1.67 7.34 -1.34 6.68 -1 6 C-0.01 6.33 0.98 6.66 2 7 C2 7.66 2 8.32 2 9 C2.66 9.66 3.32 10.32 4 11 C0.535 12.485 0.535 12.485 -3 14 C-3 13.01 -3 12.02 -3 11 C-3.66 11 -4.32 11 -5 11 C-5 10.34 -5 9.68 -5 9 C-5.66 9 -6.32 9 -7 9 C-7 8.34 -7 7.68 -7 7 C-7.66 6.34 -8.32 5.68 -9 5 C-7.54735962 4.1361871 -6.0876837 3.28419546 -4.625 2.4375 C-3.40683594 1.72400391 -3.40683594 1.72400391 -2.1640625 0.99609375 C-1.44992188 0.66738281 -0.73578125 0.33867187 0 0 Z " fill="#3C4A5B" transform="translate(225,176)"/>
<path d="M0 0 C0.44988281 0.36351562 0.89976562 0.72703125 1.36328125 1.1015625 C8.78000018 6.89819653 16.72793901 11.939542 26 14 C25.01 14.99 24.02 15.98 23 17 C21 16 21 16 18 14 C16.7625 13.7834375 16.7625 13.7834375 15.5 13.5625 C12.64324913 12.91973105 11.97048365 12.05615685 10 10 C7.89667109 9.28552357 7.89667109 9.28552357 6 9 C6 8.01 6 7.02 6 6 C3.03 5.505 3.03 5.505 0 5 C0 3.35 0 1.7 0 0 Z " fill="#4D7CE6" transform="translate(179,306)"/>
<path d="M0 0 C0.99 0.99 1.98 1.98 3 3 C3 2.34 3 1.68 3 1 C4.32 1.33 5.64 1.66 7 2 C5.41779413 2.96019364 3.83418669 3.91807798 2.25 4.875 C0.92742187 5.67550781 0.92742187 5.67550781 -0.421875 6.4921875 C-6.41968912 10 -6.41968912 10 -11 10 C-11 9.34 -11 8.68 -11 8 C-10.01 7.67 -9.02 7.34 -8 7 C-8 5.68 -8 4.36 -8 3 C-6.865625 2.690625 -5.73125 2.38125 -4.5625 2.0625 C-1.21224901 1.37075469 -1.21224901 1.37075469 0 0 Z " fill="#3A495A" transform="translate(300,315)"/>
<path d="M0 0 C0.33 0.66 0.66 1.32 1 2 C1.66 2.33 2.32 2.66 3 3 C3.33 3.66 3.66 4.32 4 5 C5.97888961 5.72693904 7.97954558 6.39816251 10 7 C9.01 7.33 8.02 7.66 7 8 C7 8.66 7 9.32 7 10 C3.6875 10.6875 3.6875 10.6875 0 11 C-1.9375 9.5625 -1.9375 9.5625 -3 8 C-2.505 7.4225 -2.01 6.845 -1.5 6.25 C0.36980013 3.89599371 0.36980013 3.89599371 0 0 Z " fill="#142438" transform="translate(307,186)"/>
<path d="M0 0 C0.66 0 1.32 0 2 0 C2 0.99 2 1.98 2 3 C4.31 3 6.62 3 9 3 C9 3.99 9 4.98 9 6 C7.68 6 6.36 6 5 6 C5 6.66 5 7.32 5 8 C4.34 7.67 3.68 7.34 3 7 C1.66400079 7.32248257 0.33106622 7.65772583 -1 8 C-2.66623639 8.03786901 -4.33397597 8.04627845 -6 8 C-5.34 7.01 -4.68 6.02 -4 5 C-4 4.01 -4 3.02 -4 2 C-2.68 2 -1.36 2 0 2 C0 1.34 0 0.68 0 0 Z " fill="#152438" transform="translate(298,310)"/>
<path d="M0 0 C2.64 0 5.28 0 8 0 C7.01 0.495 7.01 0.495 6 1 C6.990755 2.66641006 6.990755 2.66641006 9 4 C11.71846235 4.27345479 14.25677199 4.13491285 17 4 C16.67 4.66 16.34 5.32 16 6 C13.52076199 6.02685095 11.0418116 6.04676547 8.5625 6.0625 C7.85544922 6.07087891 7.14839844 6.07925781 6.41992188 6.08789062 C4.61306441 6.09653588 2.80612397 6.05220011 1 6 C0 5 0 5 -0.0625 2.4375 C-0.041875 1.633125 -0.02125 0.82875 0 0 Z " fill="#1759E9" transform="translate(120,227)"/>
<path d="M0 0 C2.00720923 0.28674418 4.0085944 0.61866701 6 1 C6 3.31 6 5.62 6 8 C4.68 8 3.36 8 2 8 C2 7.34 2 6.68 2 6 C1.34 6 0.68 6 0 6 C-0.33 7.32 -0.66 8.64 -1 10 C-1.66 10 -2.32 10 -3 10 C-3 9.34 -3 8.68 -3 8 C-3.66 7.67 -4.32 7.34 -5 7 C-4.34 7 -3.68 7 -3 7 C-2.690625 6.030625 -2.38125 5.06125 -2.0625 4.0625 C-1 1 -1 1 0 0 Z " fill="#15253A" transform="translate(193,205)"/>
<path d="M0 0 C0.12375 1.093125 0.2475 2.18625 0.375 3.3125 C0.75464801 7.07381802 0.75464801 7.07381802 3 10 C-0.3 9.67 -3.6 9.34 -7 9 C-7.33 7.68 -7.66 6.36 -8 5 C-5.98916938 2.38592019 -3.42371896 0 0 0 Z " fill="#1B2B3E" transform="translate(302,284)"/>
<path d="M0 0 C0.33 0 0.66 0 1 0 C1.33 1.98 1.66 3.96 2 6 C3.65 6.33 5.3 6.66 7 7 C7.103125 6.360625 7.20625 5.72125 7.3125 5.0625 C7.539375 4.381875 7.76625 3.70125 8 3 C8.99 2.67 9.98 2.34 11 2 C10.67 3.32 10.34 4.64 10 6 C9.34 6 8.68 6 8 6 C7.7525 6.556875 7.505 7.11375 7.25 7.6875 C5.76129471 10.44160479 4.11590028 12.69174514 2 15 C1.01 15 0.02 15 -1 15 C-0.67 10.05 -0.34 5.1 0 0 Z " fill="#3860AF" transform="translate(355,261)"/>
<path d="M0 0 C1.27230469 0.00902344 2.54460937 0.01804687 3.85546875 0.02734375 C5.31919922 0.04474609 5.31919922 0.04474609 6.8125 0.0625 C7.1425 1.0525 7.4725 2.0425 7.8125 3.0625 C5 4.1875 5 4.1875 1.8125 5.0625 C0.8225 4.4025 -0.1675 3.7425 -1.1875 3.0625 C-4.82689932 3.37980524 -4.82689932 3.37980524 -8.1875 4.0625 C-8.1875 3.4025 -8.1875 2.7425 -8.1875 2.0625 C-8.8475 1.7325 -9.5075 1.4025 -10.1875 1.0625 C-6.62704823 -0.12431726 -3.74941663 -0.03439832 0 0 Z " fill="#1753DD" transform="translate(243.1875,266.9375)"/>
<path d="M0 0 C4.66091941 1.65897132 8.84148523 3.27097468 13 6 C12.01 6.66 11.02 7.32 10 8 C9.34 7.67 8.68 7.34 8 7 C8 7.99 8 8.98 8 10 C7.34 10 6.68 10 6 10 C6 9.01 6 8.02 6 7 C5.01 8.485 5.01 8.485 4 10 C0 3.375 0 3.375 0 0 Z " fill="#4669B6" transform="translate(341,209)"/>
<path d="M0 0 C0 0.66 0 1.32 0 2 C-1.98 2.66 -3.96 3.32 -6 4 C-6 3.34 -6 2.68 -6 2 C-10.62 2.33 -15.24 2.66 -20 3 C-19.67 3.66 -19.34 4.32 -19 5 C-19.66 5 -20.32 5 -21 5 C-20.67 6.32 -20.34 7.64 -20 9 C-22.5 6.6875 -22.5 6.6875 -25 4 C-25 3.01 -25 2.02 -25 1 C-22.14596025 0.83087172 -19.29179998 0.66462837 -16.4375 0.5 C-15.23770508 0.42845703 -15.23770508 0.42845703 -14.01367188 0.35546875 C-9.33281023 0.08799094 -4.68841621 -0.05034541 0 0 Z " fill="#525D6E" transform="translate(217,293)"/>
<path d="M0 0 C8.91 0 17.82 0 27 0 C27 2.31 27 4.62 27 7 C24.36 7 21.72 7 19 7 C19.33 6.34 19.66 5.68 20 5 C21.32 5 22.64 5 24 5 C24 3.68 24 2.36 24 1 C16.08 1 8.16 1 0 1 C0 0.67 0 0.34 0 0 Z " fill="#1E459A" transform="translate(144,226)"/>
<path d="M0 0 C0.80050781 0.12761719 1.60101563 0.25523437 2.42578125 0.38671875 C3.23402344 0.50660156 4.04226563 0.62648438 4.875 0.75 C5.48988281 0.85699219 6.10476563 0.96398437 6.73828125 1.07421875 C5.73828125 3.07421875 5.73828125 3.07421875 2.0625 4.43359375 C0.5195186 4.90569005 -1.02621826 5.36884967 -2.57421875 5.82421875 C-3.7334082 6.19353516 -3.7334082 6.19353516 -4.91601562 6.5703125 C-6.04040039 6.90482422 -6.04040039 6.90482422 -7.1875 7.24609375 C-8.21484253 7.55691895 -8.21484253 7.55691895 -9.26293945 7.87402344 C-11.81100217 8.12923431 -13.10286236 7.37514941 -15.26171875 6.07421875 C-13.28171875 6.07421875 -11.30171875 6.07421875 -9.26171875 6.07421875 C-9.26171875 5.41421875 -9.26171875 4.75421875 -9.26171875 4.07421875 C-8.66359375 3.97109375 -8.06546875 3.86796875 -7.44921875 3.76171875 C-5.18323382 3.26098831 -5.18323382 3.26098831 -3.91796875 1.51171875 C-2.26171875 0.07421875 -2.26171875 0.07421875 0 0 Z " fill="#325EB8" transform="translate(336.26171875,256.92578125)"/>
<path d="M0 0 C7.875 0.875 7.875 0.875 9 2 C10.53851559 2.15915679 12.08137761 2.27706625 13.625 2.375 C18.34356741 2.7885526 21.78109295 3.89054647 26 6 C26 6.33 26 6.66 26 7 C20.00976398 7.25576289 15.29193528 6.51752248 9.625 4.625 C8.91472656 4.40328125 8.20445312 4.1815625 7.47265625 3.953125 C2.27715774 2.27715774 2.27715774 2.27715774 0 0 Z " fill="#5685E6" transform="translate(169,316)"/>
<path d="M0 0 C-2.69527268 1.44498979 -5.17079975 2.40241924 -8.15234375 3.0703125 C-9.31733398 3.33134766 -9.31733398 3.33134766 -10.50585938 3.59765625 C-11.70952148 3.85869141 -11.70952148 3.85869141 -12.9375 4.125 C-13.73607422 4.30675781 -14.53464844 4.48851562 -15.35742188 4.67578125 C-19.30010728 5.54467464 -22.93527308 6.24634709 -27 6 C-26.01 5.67 -25.02 5.34 -24 5 C-24 4.34 -24 3.68 -24 3 C-21.94921875 2.77213542 -19.8984375 2.54427083 -17.84765625 2.31640625 C-15.98859771 2.18113386 -15.98859771 2.18113386 -15 1 C-9.9301448 0.06880211 -5.12881696 -0.08997924 0 0 Z " fill="#5777CC" transform="translate(296,272)"/>
<path d="M0 0 C2.97 0.495 2.97 0.495 6 1 C6 1.99 6 2.98 6 4 C6.66 4.33 7.32 4.66 8 5 C7.01 5 6.02 5 5 5 C5 5.66 5 6.32 5 7 C8.3 7 11.6 7 15 7 C15 7.33 15 7.66 15 8 C12.87527424 8.05386629 10.75016348 8.09273071 8.625 8.125 C6.84996094 8.15980469 6.84996094 8.15980469 5.0390625 8.1953125 C2 8 2 8 0 6 C-0.125 2.875 -0.125 2.875 0 0 Z " fill="#3295F0" transform="translate(113,288)"/>
<path d="M0 0 C1.32 0.66 2.64 1.32 4 2 C3.67 2.99 3.34 3.98 3 5 C3.38932856 7.14255793 3.38932856 7.14255793 4 9 C3.01 9.495 3.01 9.495 2 10 C1.01 9.34 0.02 8.68 -1 8 C-3.64632287 8.3121764 -3.64632287 8.3121764 -6 9 C-6 8.34 -6 7.68 -6 7 C-5.34 7 -4.68 7 -4 7 C-3.67 6.01 -3.34 5.02 -3 4 C-2.34 4 -1.68 4 -1 4 C-0.67 2.68 -0.34 1.36 0 0 Z " fill="#3A4757" transform="translate(235,177)"/>
<path d="M0 0 C0.33 0.99 0.66 1.98 1 3 C0.34 3 -0.32 3 -1 3 C-1 2.34 -1 1.68 -1 1 C-1.66 1 -2.32 1 -3 1 C-2.67 1.99 -2.34 2.98 -2 4 C-5.875 7 -5.875 7 -7 7 C-7.33 7.99 -7.66 8.98 -8 10 C-8.99 7.03 -9.98 4.06 -11 1 C-7.26513121 0.4254048 -3.78706732 0 0 0 Z " fill="#4F5C6B" transform="translate(233,291)"/>
<path d="M0 0 C3 1 3 1 6 3 C8.64632287 2.6878236 8.64632287 2.6878236 11 2 C11 2.99 11 3.98 11 5 C6.92630576 7.03684712 4.41062136 7.0257259 0 6 C-1.125 2.25 -1.125 2.25 0 0 Z " fill="#1847AB" transform="translate(358,254)"/>
<path d="M0 0 C0.66 0.66 1.32 1.32 2 2 C1.34 3.65 0.68 5.3 0 7 C0.99 7.33 1.98 7.66 3 8 C2.34 9.65 1.68 11.3 1 13 C-0.98 13 -2.96 13 -5 13 C-3.68 12.34 -2.36 11.68 -1 11 C-1.495 10.05125 -1.99 9.1025 -2.5 8.125 C-4 5 -4 5 -4 3 C-3.34 3 -2.68 3 -2 3 C-2 2.34 -2 1.68 -2 1 C-1.34 0.67 -0.68 0.34 0 0 Z " fill="#3C4B5C" transform="translate(285,196)"/>
<path d="M0 0 C0.66 0.33 1.32 0.66 2 1 C1.505 1.433125 1.01 1.86625 0.5 2.3125 C-1.33218192 3.99740483 -1.33218192 3.99740483 -1 7 C-2.0625 9.6875 -2.0625 9.6875 -4 12 C-7.6875 12.3125 -7.6875 12.3125 -11 12 C-7.49102731 7.81576108 -3.91939465 3.80411834 0 0 Z " fill="#354253" transform="translate(208,186)"/>
<path d="M0 0 C0.99 0.66 1.98 1.32 3 2 C2.39929092 5.36397083 1.43285133 7.56714867 -1 10 C-4.10716882 10.77679221 -6.80194543 11 -10 11 C-10.33 10.01 -10.66 9.02 -11 8 C-5.555 7.01 -5.555 7.01 0 6 C0 4.02 0 2.04 0 0 Z " fill="#1A49AF" transform="translate(353,229)"/>
<path d="M0 0 C4.37934119 0.51958285 8.68803391 1.05675742 13 2 C13 2.66 13 3.32 13 4 C6.73 4 0.46 4 -6 4 C-6 3.67 -6 3.34 -6 3 C-4.02 2.67 -2.04 2.34 0 2 C0 1.34 0 0.68 0 0 Z " fill="#7E9FDA" transform="translate(205,321)"/>
<path d="M0 0 C-1 3 -1 3 -2.9375 4.0625 C-3.618125 4.371875 -4.29875 4.68125 -5 5 C-5.66 5.66 -6.32 6.32 -7 7 C-9.1640625 6.9765625 -9.1640625 6.9765625 -11.625 6.625 C-12.44226563 6.51414063 -13.25953125 6.40328125 -14.1015625 6.2890625 C-14.72804688 6.19367188 -15.35453125 6.09828125 -16 6 C-13.01559439 4.45921385 -9.98992242 3.13026724 -6.875 1.875 C-6.00617188 1.52179688 -5.13734375 1.16859375 -4.2421875 0.8046875 C-2 0 -2 0 0 0 Z " fill="#4467BB" transform="translate(342,237)"/>
<path d="M0 0 C1.65 0 3.3 0 5 0 C4.01 0.495 4.01 0.495 3 1 C3 1.66 3 2.32 3 3 C6.3 3.99 9.6 4.98 13 6 C13 6.99 13 7.98 13 9 C12.67 8.34 12.34 7.68 12 7 C10.8553125 7.556875 10.8553125 7.556875 9.6875 8.125 C8.800625 8.41375 7.91375 8.7025 7 9 C6.01 8.34 5.02 7.68 4 7 C4 6.01 4 5.02 4 4 C2.68 3.67 1.36 3.34 0 3 C0 2.01 0 1.02 0 0 Z " fill="#4E5A69" transform="translate(208,197)"/>
<path d="M0 0 C0.99 0.33 1.98 0.66 3 1 C2.67 1.66 2.34 2.32 2 3 C1.34 3 0.68 3 0 3 C0 3.66 0 4.32 0 5 C0.95712891 5.16435547 0.95712891 5.16435547 1.93359375 5.33203125 C2.75988281 5.49058594 3.58617187 5.64914063 4.4375 5.8125 C5.26121094 5.96332031 6.08492188 6.11414063 6.93359375 6.26953125 C7.95646484 6.63111328 7.95646484 6.63111328 9 7 C9.33 7.99 9.66 8.98 10 10 C8.07949388 9.60140439 6.16364288 9.18034074 4.25 8.75 C3.18265625 8.51796875 2.1153125 8.2859375 1.015625 8.046875 C-2.26814405 6.90691372 -3.77074995 5.61882772 -6 3 C-4.68 3.33 -3.36 3.66 -2 4 C-1.34 2.68 -0.68 1.36 0 0 Z " fill="#3254AA" transform="translate(321,180)"/>
<path d="M0 0 C0.66 0 1.32 0 2 0 C2.33 2.31 2.66 4.62 3 7 C-1.455 7.495 -1.455 7.495 -6 8 C-6 6.68 -6 5.36 -6 4 C-4.68 4 -3.36 4 -2 4 C-1.34 2.68 -0.68 1.36 0 0 Z " fill="#172437" transform="translate(186,256)"/>
<path d="M0 0 C0.66 1.32 1.32 2.64 2 4 C1.01 4.66 0.02 5.32 -1 6 C-1.33 6.99 -1.66 7.98 -2 9 C-4 8 -4 8 -6 6 C-6.99 5.34 -7.98 4.68 -9 4 C-6.03 2.68 -3.06 1.36 0 0 Z " fill="#3A4857" transform="translate(293,312)"/>
<path d="M0 0 C0.80566406 0.00322266 1.61132812 0.00644531 2.44140625 0.00976562 C3.70404297 0.02233398 3.70404297 0.02233398 4.9921875 0.03515625 C5.84167969 0.03966797 6.69117188 0.04417969 7.56640625 0.04882812 C9.66669659 0.06062751 11.7669508 0.07856319 13.8671875 0.09765625 C13.8671875 0.42765625 13.8671875 0.75765625 13.8671875 1.09765625 C7.0840511 2.51767733 0.80020843 3.32496841 -6.1328125 3.09765625 C-6.1328125 2.43765625 -6.1328125 1.77765625 -6.1328125 1.09765625 C-3.8362755 -0.05061225 -2.54968083 -0.0179555 0 0 Z " fill="#4D7AD4" transform="translate(250.1328125,278.90234375)"/>
<path d="M0 0 C0.33 0 0.66 0 1 0 C1.66 4.95 2.32 9.9 3 15 C1.68 15 0.36 15 -1 15 C-1 14.34 -1 13.68 -1 13 C-0.34 13 0.32 13 1 13 C0.67 12.34 0.34 11.68 0 11 C-0.99 11.66 -1.98 12.32 -3 13 C-2.45144652 8.428721 -1.58255197 4.32564205 0 0 Z " fill="#404C5D" transform="translate(301,228)"/>
<path d="M0 0 C2.64 0 5.28 0 8 0 C8 1.32 8 2.64 8 4 C5.29120665 5.35439668 2.99066732 5.06501451 0 5 C0 3.35 0 1.7 0 0 Z " fill="#124FC8" transform="translate(126,289)"/>
<path d="M0 0 C0.66 0.33 1.32 0.66 2 1 C1.67 1.66 1.34 2.32 1 3 C0.92934383 5.04055005 0.91578024 7.08334257 0.9375 9.125 C0.95103516 10.76855469 0.95103516 10.76855469 0.96484375 12.4453125 C0.97644531 13.28835937 0.98804688 14.13140625 1 15 C0.34 15 -0.32 15 -1 15 C-3.33479983 11.35187527 -3.38018947 8.25812212 -3 4 C-1.5 1.5625 -1.5 1.5625 0 0 Z " fill="#5A87E7" transform="translate(179,179)"/>
<path d="M0 0 C0.94875 0.33 1.8975 0.66 2.875 1 C5.77062452 2.10159191 5.77062452 2.10159191 8 2 C8.99 2.33 9.98 2.66 11 3 C10.67 3.66 10.34 4.32 10 5 C6.7 5 3.4 5 0 5 C0 4.34 0 3.68 0 3 C-1.32 2.67 -2.64 2.34 -4 2 C-2.68 2 -1.36 2 0 2 C0 1.34 0 0.68 0 0 Z " fill="#2963E9" transform="translate(195,319)"/>
<path d="M0 0 C5.75 1.75 5.75 1.75 8 4 C7.84971611 8.05766511 7.59155055 10.3008948 4.9375 13.4375 C3.9784375 14.2109375 3.9784375 14.2109375 3 15 C3 14.01 3 13.02 3 12 C3.66 12 4.32 12 5 12 C5 9.03 5 6.06 5 3 C3.35 2.67 1.7 2.34 0 2 C0 1.34 0 0.68 0 0 Z " fill="#4364AB" transform="translate(335,308)"/>
<path d="M0 0 C-0.33 1.65 -0.66 3.3 -1 5 C-1.7425 4.79375 -2.485 4.5875 -3.25 4.375 C-6.32330841 3.95591249 -7.42786866 4.38050989 -10 6 C-9.75 4.125 -9.75 4.125 -9 2 C-6.04454879 -0.11103658 -3.56144099 -0.19785783 0 0 Z " fill="#1642A3" transform="translate(336,307)"/>
<path d="M0 0 C0.99 0 1.98 0 3 0 C3.33 0.66 3.66 1.32 4 2 C4.66 2.33 5.32 2.66 6 3 C4.68 3 3.36 3 2 3 C2 3.66 2 4.32 2 5 C-1.13498292 6.85776765 -3.37471432 7.20140476 -7 7 C-6.34 5.35 -5.68 3.7 -5 2 C-3.35 2 -1.7 2 0 2 C0 1.34 0 0.68 0 0 Z " fill="#174BB7" transform="translate(325,258)"/>
<path d="M0 0 C4.95 0 9.9 0 15 0 C15 2.31 15 4.62 15 7 C12.03 7 9.06 7 6 7 C6 6.67 6 6.34 6 6 C8.64 6 11.28 6 14 6 C14 5.01 14 4.02 14 3 C12.68 3 11.36 3 10 3 C10 2.34 10 1.68 10 1 C6.7 1 3.4 1 0 1 C0 0.67 0 0.34 0 0 Z " fill="#214398" transform="translate(140,241)"/>
<path d="M0 0 C0.66 0 1.32 0 2 0 C1.67 0.66 1.34 1.32 1 2 C0.67 1.34 0.34 0.68 0 0 Z M-5.5 0.8125 C-4.7059375 0.79832031 -3.911875 0.78414063 -3.09375 0.76953125 C-1 1 -1 1 1 3 C0 4 0 4 -2.50390625 4.09765625 C-4.01791016 4.08025391 -4.01791016 4.08025391 -5.5625 4.0625 C-6.57441406 4.05347656 -7.58632813 4.04445313 -8.62890625 4.03515625 C-9.41136719 4.02355469 -10.19382812 4.01195312 -11 4 C-11.33 3.34 -11.66 2.68 -12 2 C-9.64653604 0.82326802 -8.1193967 0.83376134 -5.5 0.8125 Z " fill="#334055" transform="translate(282,283)"/>
<path d="M0 0 C3.33333333 1.66666667 6.66666667 3.33333333 10 5 C10 5.33 10 5.66 10 6 C3.25 5.125 3.25 5.125 1 4 C0.67 6.31 0.34 8.62 0 11 C-0.33 11 -0.66 11 -1 11 C-1.02688151 9.35425434 -1.04634123 7.70838587 -1.0625 6.0625 C-1.07410156 5.14597656 -1.08570313 4.22945313 -1.09765625 3.28515625 C-1 1 -1 1 0 0 Z " fill="#5C88E5" transform="translate(145,263)"/>
<path d="M0 0 C6.1246542 2.37083388 12.14445914 5.02575702 18 8 C12.28767891 7.48069808 6.07019338 6.8734794 1 4 C0.24609375 1.89453125 0.24609375 1.89453125 0 0 Z " fill="#6B9DE9" transform="translate(143,278)"/>
<path d="M0 0 C0.99 0.33 1.98 0.66 3 1 C1.95125002 3.62187494 1.35068687 4.79371361 -1.125 6.25 C-1.74375 6.4975 -2.3625 6.745 -3 7 C-5 5 -5 5 -6 2 C-2.25 0.875 -2.25 0.875 0 2 C0 1.34 0 0.68 0 0 Z " fill="#14253A" transform="translate(305,205)"/>
<path d="M0 0 C5.36170213 0.59574468 5.36170213 0.59574468 7.875 2.1875 C9.49664405 4.80014875 9.20031953 6.99520702 9 10 C8.67 9.01 8.34 8.02 8 7 C5.98491642 6.26676204 5.98491642 6.26676204 4 6 C4 4.68 4 3.36 4 2 C2.35 2 0.7 2 -1 2 C-0.67 1.34 -0.34 0.68 0 0 Z " fill="#4978E9" transform="translate(169,199)"/>
<path d="M0 0 C0.66 0 1.32 0 2 0 C2 0.66 2 1.32 2 2 C2.66 2 3.32 2 4 2 C4.33 3.32 4.66 4.64 5 6 C3.125 7.0625 3.125 7.0625 1 8 C0.34 7.67 -0.32 7.34 -1 7 C-1.33 7.66 -1.66 8.32 -2 9 C-2.33 8.34 -2.66 7.68 -3 7 C-2.06421005 4.64018187 -1.06652192 2.30368736 0 0 Z " fill="#142438" transform="translate(320,200)"/>
<path d="M0 0 C2.475 0.99 2.475 0.99 5 2 C5.8125 4.625 5.8125 4.625 6 7 C4.68 7 3.36 7 2 7 C1.34 8.32 0.68 9.64 0 11 C0 7.37 0 3.74 0 0 Z " fill="#1A47AB" transform="translate(356,261)"/>
<path d="M0 0 C5.61 0 11.22 0 17 0 C16.34 1.32 15.68 2.64 15 4 C12.36 3.67 9.72 3.34 7 3 C7 2.67 7 2.34 7 2 C4.69 1.67 2.38 1.34 0 1 C0 0.67 0 0.34 0 0 Z " fill="#5985EA" transform="translate(193,270)"/>
<path d="M0 0 C1.32 0 2.64 0 4 0 C4.33 1.32 4.66 2.64 5 4 C6.32 4 7.64 4 9 4 C9 4.66 9 5.32 9 6 C2.84765625 6.09765625 2.84765625 6.09765625 1 6 C0 5 0 5 -0.0625 2.4375 C-0.041875 1.633125 -0.02125 0.82875 0 0 Z " fill="#3374E8" transform="translate(180,190)"/>
<path d="M0 0 C0.33 0 0.66 0 1 0 C1.57256004 3.92612596 1.74950876 5.91988086 -0.55859375 9.24609375 C-2.31655476 11.23043203 -4.10884918 13.14261973 -6 15 C-6.66 14.67 -7.32 14.34 -8 14 C-7.59007812 13.40832031 -7.18015625 12.81664062 -6.7578125 12.20703125 C-5.94957031 11.02173828 -5.94957031 11.02173828 -5.125 9.8125 C-4.59132813 9.03519531 -4.05765625 8.25789063 -3.5078125 7.45703125 C-2.01984561 5.0323391 -0.97571922 2.6666501 0 0 Z " fill="#475464" transform="translate(284,293)"/>
<path d="M0 0 C0.66 1.32 1.32 2.64 2 4 C2.66 4 3.32 4 4 4 C4.33 4.66 4.66 5.32 5 6 C5.99 6.33 6.98 6.66 8 7 C8 7.66 8 8.32 8 9 C3.51400257 7.74809374 0.40652872 6.20614467 -3 3 C-3 2.34 -3 1.68 -3 1 C-2.01 0.67 -1.02 0.34 0 0 Z " fill="#3E71E7" transform="translate(161,307)"/>
<path d="M0 0 C1.43655854 -0.08131463 2.8744483 -0.13933559 4.3125 -0.1875 C5.51326172 -0.23970703 5.51326172 -0.23970703 6.73828125 -0.29296875 C9.47851584 0.06198392 10.29171079 0.89366282 12 3 C11.01 3.495 11.01 3.495 10 4 C10 4.66 10 5.32 10 6 C6.52674819 7.1577506 3.63932552 7.06866652 0 7 C0 6.67 0 6.34 0 6 C2.64 5.67 5.28 5.34 8 5 C8 3.68 8 2.36 8 1 C5.36 1 2.72 1 0 1 C0 0.67 0 0.34 0 0 Z " fill="#1D4BB7" transform="translate(126,288)"/>
<path d="M0 0 C1 2 1 2 0.0625 5.125 C-0.288125 6.07375 -0.63875 7.0225 -1 8 C-0.34 8 0.32 8 1 8 C1 8.66 1 9.32 1 10 C-0.875 11.0625 -0.875 11.0625 -3 12 C-3.66 11.67 -4.32 11.34 -5 11 C-3.92289822 6.69159287 -2.96052484 3.36423277 0 0 Z " fill="#4F7EE7" transform="translate(155,252)"/>
<path d="M0 0 C0.99 0 1.98 0 3 0 C3 2.64 3 5.28 3 8 C-0.82989106 9.80230168 -3.78121808 10.19622241 -8 10 C-4.71536341 7.81024227 -1.79303725 7.00193437 2 6 C1.34 4.02 0.68 2.04 0 0 Z " fill="#496DBA" transform="translate(350,227)"/>
<path d="M0 0 C2.475 0.99 2.475 0.99 5 2 C5 2.99 5 3.98 5 5 C5.66 5.33 6.32 5.66 7 6 C5.865625 6.12375 4.73125 6.2475 3.5625 6.375 C1.7990625 6.684375 1.7990625 6.684375 0 7 C-0.33 7.66 -0.66 8.32 -1 9 C-0.67 6.03 -0.34 3.06 0 0 Z " fill="#142538" transform="translate(235,186)"/>
<path d="M0 0 C-1.46436285 4.63714903 -1.46436285 4.63714903 -3.9375 6.3125 C-6 7 -6 7 -9 7 C-7.84826645 4.53199953 -6.95216435 2.95216435 -5 1 C-2 0 -2 0 0 0 Z " fill="#4A6CAC" transform="translate(356,296)"/>
<path d="M0 0 C1.41750563 0.11509661 2.83401169 0.24253658 4.25 0.375 C5.03890625 0.44460938 5.8278125 0.51421875 6.640625 0.5859375 C9.085877 1.01507113 10.84836903 1.78600638 13 3 C5.57142857 3.14285714 5.57142857 3.14285714 2 2 C2.33 4.64 2.66 7.28 3 10 C0.70366176 6.55549263 0.45983515 4.06187717 0 0 Z " fill="#6087DF" transform="translate(146,287)"/>
<path d="M0 0 C1.65 0 3.3 0 5 0 C5 4 5 4 4 6 C2.35 5.67 0.7 5.34 -1 5 C-0.67 3.35 -0.34 1.7 0 0 Z " fill="#132438" transform="translate(286,198)"/>
<path d="M0 0 C-0.33 1.32 -0.66 2.64 -1 4 C-5.05431692 5.15837626 -7.21812119 4.83691257 -11 3 C-11 2.67 -11 2.34 -11 2 C-7.12315913 0.80712589 -4.08378077 0 0 0 Z " fill="#435264" transform="translate(338,268)"/>
<path d="M0 0 C0.33 0.99 0.66 1.98 1 3 C0.01 3.33 -0.98 3.66 -2 4 C-2 3.34 -2 2.68 -2 2 C-2.7425 2.53625 -3.485 3.0725 -4.25 3.625 C-5.1575 4.07875 -6.065 4.5325 -7 5 C-9.3125 4.1875 -9.3125 4.1875 -11 3 C-7.14243493 0.84694043 -4.44870215 -0.39253254 0 0 Z " fill="#1949B3" transform="translate(331,243)"/>
<path d="M0 0 C3.82669043 3.42388092 5.72278474 6.00724943 7 11 C4 10 4 10 3 8.125 C2.505 7.073125 2.505 7.073125 2 6 C0.4587688 4.29078411 0.4587688 4.29078411 -1 3 C-0.67 2.01 -0.34 1.02 0 0 Z " fill="#4261A4" transform="translate(361,194)"/>
<path d="M0 0 C1.30913891 2.15622879 2 3.57952098 2 6.125 C1 8 1 8 -2.0625 9.25 C-3.031875 9.4975 -4.00125 9.745 -5 10 C-3.84414715 6.08788267 -2.64465038 3.1254959 0 0 Z " fill="#4A5968" transform="translate(230,191)"/>
<path d="M0 0 C3.3 0.33 6.6 0.66 10 1 C10.66 2.98 11.32 4.96 12 7 C11.01 7 10.02 7 9 7 C9 6.01 9 5.02 9 4 C7.88625 3.8453125 7.88625 3.8453125 6.75 3.6875 C4 3 4 3 0 0 Z " fill="#4E86E4" transform="translate(160,290)"/>
<path d="M0 0 C-0.56589844 0.27714844 -1.13179688 0.55429688 -1.71484375 0.83984375 C-2.44832031 1.20207031 -3.18179687 1.56429687 -3.9375 1.9375 C-5.03384766 2.47697266 -5.03384766 2.47697266 -6.15234375 3.02734375 C-7.96249027 3.86371827 -7.96249027 3.86371827 -9 5 C-11.67058851 5.14115161 -14.32432238 5.04247107 -17 5 C-3.76470588 -1.88235294 -3.76470588 -1.88235294 0 0 Z " fill="#597AC3" transform="translate(326,244)"/>
<path d="M0 0 C0 1.65 0 3.3 0 5 C-0.99 5.33 -1.98 5.66 -3 6 C-3 5.34 -3 4.68 -3 4 C-5.31 3.67 -7.62 3.34 -10 3 C-6.71687741 1.24118433 -3.76143005 0 0 0 Z " fill="#5C6578" transform="translate(300,278)"/>
<path d="M0 0 C-0.99 2.97 -1.98 5.94 -3 9 C-3.33 9 -3.66 9 -4 9 C-4 7.02 -4 5.04 -4 3 C-5.32 2.67 -6.64 2.34 -8 2 C-4.91190305 0.23537317 -3.76687864 0 0 0 Z " fill="#668AE2" transform="translate(173,240)"/>
<path d="M0 0 C2.97 0.99 5.94 1.98 9 3 C6.38058783 4.74627478 4.96175123 5.38722388 2 6 C1.34 4.02 0.68 2.04 0 0 Z M0 6 C2 7 2 7 2 7 Z " fill="#3F4B5B" transform="translate(287,174)"/>
<path d="M0 0 C0.66 0 1.32 0 2 0 C2.33 1.32 2.66 2.64 3 4 C4.32 4.33 5.64 4.66 7 5 C5.75 6.5625 5.75 6.5625 4 8 C1.8125 7.6875 1.8125 7.6875 0 7 C0 4.69 0 2.38 0 0 Z " fill="#2B50A3" transform="translate(343,294)"/>
<path d="M0 0 C0 0.66 0 1.32 0 2 C-0.99 2 -1.98 2 -3 2 C-3.66 3.32 -4.32 4.64 -5 6 C-5.66 5.34 -6.32 4.68 -7 4 C-6.75 1.9375 -6.75 1.9375 -6 0 C-3.50907189 -1.24546405 -2.58919267 -0.7767578 0 0 Z " fill="#1744A5" transform="translate(384,241)"/>
<path d="M0 0 C-0.33 0.99 -0.66 1.98 -1 3 C-2.98 3.33 -4.96 3.66 -7 4 C-7.33 3.01 -7.66 2.02 -8 1 C-4.93251126 -0.86240388 -3.40254489 -1.2151946 0 0 Z " fill="#142438" transform="translate(330,215)"/>
<path d="M0 0 C0.66 0.99 1.32 1.98 2 3 C0.02 5.31 -1.96 7.62 -4 10 C-5 6 -5 6 -4.25 3.875 C-3 2 -3 2 0 0 Z " fill="#53606E" transform="translate(245,186)"/>
<path d="M0 0 C0.66 0 1.32 0 2 0 C2.33 1.65 2.66 3.3 3 5 C2.34 5 1.68 5 1 5 C0.34 6.32 -0.32 7.64 -1 9 C-2 6 -2 6 -2 3 C-1.34 2.01 -0.68 1.02 0 0 Z " fill="#4567B2" transform="translate(370,253)"/>
<path d="M0 0 C0.99 0.33 1.98 0.66 3 1 C2.45773019 4.79588866 0.79872437 6.47211993 -2 9 C-2 6.69 -2 4.38 -2 2 C-1.34 2 -0.68 2 0 2 C0 1.34 0 0.68 0 0 Z " fill="#4463A1" transform="translate(389,232)"/>
<path d="M0 0 C4.23429756 1.31061591 8.07407404 2.94356259 12 5 C8.30962722 6.37095624 6.29116165 5.60010967 2.75 4.0625 C1.85796875 3.68222656 0.9659375 3.30195313 0.046875 2.91015625 C-0.62859375 2.60980469 -1.3040625 2.30945313 -2 2 C-1.34 1.34 -0.68 0.68 0 0 Z " fill="#4F69AF" transform="translate(376,226)"/>
<path d="M0 0 C2.97 0.99 5.94 1.98 9 3 C9 3.33 9 3.66 9 4 C8.05125 4.103125 7.1025 4.20625 6.125 4.3125 C2.70892499 4.68539295 2.70892499 4.68539295 1 8 C0.67 5.36 0.34 2.72 0 0 Z " fill="#4164B2" transform="translate(367,222)"/>
<path d="M0 0 C2.71329897 0.86031431 4.40863329 1.97772465 6.5625 3.8125 C6.2325 4.4725 5.9025 5.1325 5.5625 5.8125 C4.2425 5.4825 2.9225 5.1525 1.5625 4.8125 C1.5625 4.1525 1.5625 3.4925 1.5625 2.8125 C-0.7475 2.4825 -3.0575 2.1525 -5.4375 1.8125 C-2.4375 -0.1875 -2.4375 -0.1875 0 0 Z " fill="#618AEB" transform="translate(186.4375,177.1875)"/>
<path d="M0 0 C0.33 0 0.66 0 1 0 C1 3.63 1 7.26 1 11 C1.66 11 2.32 11 3 11 C2.67 12.32 2.34 13.64 2 15 C1.01 15 0.02 15 -1 15 C-0.67 10.05 -0.34 5.1 0 0 Z " fill="#818FC1" transform="translate(355,261)"/>
<path d="M0 0 C0.66 0 1.32 0 2 0 C2 2.31 2 4.62 2 7 C0.35 7 -1.3 7 -3 7 C-3.33 6.34 -3.66 5.68 -4 5 C-3.01 4.34 -2.02 3.68 -1 3 C-0.67 2.01 -0.34 1.02 0 0 Z " fill="#1D4394" transform="translate(135,273)"/>
<path d="M0 0 C2.97 0 5.94 0 9 0 C5.91058647 1.54470677 3.6516635 2.48288814 0.375 3.25 C-0.40101563 3.44078125 -1.17703125 3.6315625 -1.9765625 3.828125 C-2.64429688 3.88484375 -3.31203125 3.9415625 -4 4 C-4.66 3.34 -5.32 2.68 -6 2 C-4.02 2 -2.04 2 0 2 C0 1.34 0 0.68 0 0 Z " fill="#597CC2" transform="translate(327,261)"/>
<path d="M0 0 C3.63 0.33 7.26 0.66 11 1 C6.78370866 3.10814567 4.60209225 3.17700355 0 3 C0 2.01 0 1.02 0 0 Z " fill="#374453" transform="translate(290,243)"/>
<path d="M0 0 C1.98 0.66 3.96 1.32 6 2 C4.1875 4 4.1875 4 2 6 C1.01 6 0.02 6 -1 6 C-1.042721 4.33388095 -1.04063832 2.66617115 -1 1 C-0.67 0.67 -0.34 0.34 0 0 Z " fill="#152436" transform="translate(238,209)"/>
<path d="M0 0 C0.33 0 0.66 0 1 0 C1.125 2.875 1.125 2.875 1 6 C0.34 6.66 -0.32 7.32 -1 8 C-1.99 7.67 -2.98 7.34 -4 7 C-2.92598892 4.08482708 -2.22189824 2.22189824 0 0 Z " fill="#353F51" transform="translate(234,186)"/>
<path d="M0 0 C3.3 0 6.6 0 10 0 C10 0.66 10 1.32 10 2 C6.7 2.33 3.4 2.66 0 3 C0 2.01 0 1.02 0 0 Z " fill="#6A7FAE" transform="translate(306,175)"/>
<path d="M0 0 C1.32 0 2.64 0 4 0 C4.80967438 2.91482778 5.21845993 4.46113217 4.0625 7.3125 C3.5365625 8.1478125 3.5365625 8.1478125 3 9 C1.9375 7.1875 1.9375 7.1875 1 5 C1.33 4.01 1.66 3.02 2 2 C1.34 2 0.68 2 0 2 C0 1.34 0 0.68 0 0 Z " fill="#1644A2" transform="translate(336,311)"/>
<path d="M0 0 C0.66 0 1.32 0 2 0 C1.814375 0.721875 1.62875 1.44375 1.4375 2.1875 C0.98004693 5.12826973 1.26483643 7.14103058 2 10 C1.01 10.495 1.01 10.495 0 11 C-1.56633048 8.51229865 -2.04100928 7.34447796 -1.6875 4.375 C-1 2 -1 2 0 0 Z " fill="#5B77B0" transform="translate(342,289)"/>
<path d="M0 0 C3.63 0 7.26 0 11 0 C7.3750203 1.81248985 5.62740416 2.31888915 1.75 2.625 C0.85796875 2.69976562 -0.0340625 2.77453125 -0.953125 2.8515625 C-1.62859375 2.90054687 -2.3040625 2.94953125 -3 3 C-2.01 2.67 -1.02 2.34 0 2 C0 1.34 0 0.68 0 0 Z " fill="#678ADC" transform="translate(272,275)"/>
<path d="M0 0 C0.33 0.66 0.66 1.32 1 2 C-0.43775696 5.21783702 -2.04417512 8.06626269 -4 11 C-4.66 11 -5.32 11 -6 11 C-5.39305845 7.84669446 -4.3583335 5.81111133 -2.4375 3.25 C-1.98246094 2.63640625 -1.52742187 2.0228125 -1.05859375 1.390625 C-0.70925781 0.93171875 -0.35992187 0.4728125 0 0 Z " fill="#626F7C" transform="translate(194,201)"/>
<path d="M0 0 C0.33 0.99 0.66 1.98 1 3 C0.01 4.485 0.01 4.485 -1 6 C-1.66 6 -2.32 6 -3 6 C-3.33 6.66 -3.66 7.32 -4 8 C-4 5.69 -4 3.38 -4 1 C-2.68 0.67 -1.36 0.34 0 0 Z " fill="#485261" transform="translate(288,306)"/>
<path d="M0 0 C2.97 0.33 5.94 0.66 9 1 C7.68 1.33 6.36 1.66 5 2 C3.71563266 3.9837767 3.71563266 3.9837767 3 6 C2.34 6 1.68 6 1 6 C1.33 4.35 1.66 2.7 2 1 C1.34 0.67 0.68 0.34 0 0 Z " fill="#165DED" transform="translate(157,271)"/>
<path d="M0 0 C1.32 0.33 2.64 0.66 4 1 C4.33 2.65 4.66 4.3 5 6 C3.35 6 1.7 6 0 6 C0 4.02 0 2.04 0 0 Z " fill="#1A5AEE" transform="translate(108,257)"/>
<path d="M0 0 C1.88391785 3.26545761 2.49287967 6.28111761 3 10 C0.03 9.505 0.03 9.505 -3 9 C-2.01 8.34 -1.02 7.68 0 7 C0.25015873 3.41642759 0.25015873 3.41642759 0 0 Z " fill="#536CA5" transform="translate(368,205)"/>
<path d="M0 0 C1.98 0.66 3.96 1.32 6 2 C5.67 2.66 5.34 3.32 5 4 C4.01 3.67 3.02 3.34 2 3 C1.34 4.65 0.68 6.3 0 8 C-0.33 8 -0.66 8 -1 8 C-1.04241723 5.66705225 -1.04092937 3.33297433 -1 1 C-0.67 0.67 -0.34 0.34 0 0 Z " fill="#5F6A79" transform="translate(200,205)"/>
<path d="M0 0 C0.66 0.33 1.32 0.66 2 1 C1.2575 1.6496875 1.2575 1.6496875 0.5 2.3125 C-1.33218192 3.99740483 -1.33218192 3.99740483 -1 7 C-2.32 7.33 -3.64 7.66 -5 8 C-4.45773019 4.20411134 -2.79872437 2.52788007 0 0 Z " fill="#505A6C" transform="translate(208,186)"/>
<path d="M0 0 C0.33 0 0.66 0 1 0 C1.36923077 7.50769231 1.36923077 7.50769231 -0.5 10 C-0.995 10.33 -1.49 10.66 -2 11 C-2.28571429 3.57142857 -2.28571429 3.57142857 0 0 Z " fill="#5786E5" transform="translate(193,183)"/>
<path d="M0 0 C3.7952131 1.49097658 5.61042731 3.75700849 8 7 C5.6875 6.875 5.6875 6.875 3 6 C1.1875 2.9375 1.1875 2.9375 0 0 Z " fill="#47516A" transform="translate(307,185)"/>
<path d="M0 0 C0.99 0 1.98 0 3 0 C2.979375 0.7425 2.95875 1.485 2.9375 2.25 C2.99328688 4.70462279 3.3069904 6.66109261 4 9 C2.35 7.68 0.7 6.36 -1 5 C-0.67 3.35 -0.34 1.7 0 0 Z " fill="#384558" transform="translate(315,203)"/>
<path d="M0 0 C1.32 0.66 2.64 1.32 4 2 C-0.75 6 -0.75 6 -3 6 C-3 5.01 -3 4.02 -3 3 C-2.34 3 -1.68 3 -1 3 C-0.67 2.01 -0.34 1.02 0 0 Z " fill="#4D5A67" transform="translate(216,190)"/>
<path d="M0 0 C0 1.32 0 2.64 0 4 C-2.375 4.625 -2.375 4.625 -5 5 C-5.66 4.34 -6.32 3.68 -7 3 C-2.25 0 -2.25 0 0 0 Z " fill="#1543A2" transform="translate(351,187)"/>
<path d="M0 0 C1.258125 -0.020625 2.51625 -0.04125 3.8125 -0.0625 C4.52019531 -0.07410156 5.22789062 -0.08570313 5.95703125 -0.09765625 C8 0 8 0 11 1 C11.33 1.99 11.66 2.98 12 4 C6.06 2.515 6.06 2.515 0 1 C0 0.67 0 0.34 0 0 Z " fill="#6C88BD" transform="translate(319,186)"/>
<path d="M0 0 C2.31 1.65 4.62 3.3 7 5 C5.68 5.33 4.36 5.66 3 6 C2.01 5.34 1.02 4.68 0 4 C0 2.68 0 1.36 0 0 Z " fill="#618EED" transform="translate(179,306)"/>
<path d="M0 0 C1.32 0.33 2.64 0.66 4 1 C3.67 1.66 3.34 2.32 3 3 C2.34 3 1.68 3 1 3 C0.34 4.32 -0.32 5.64 -1 7 C-1.33 6.34 -1.66 5.68 -2 5 C-1.0625 2.375 -1.0625 2.375 0 0 Z " fill="#546371" transform="translate(319,300)"/>
<path d="M0 0 C2.31 0 4.62 0 7 0 C7 0.66 7 1.32 7 2 C5.02 2.66 3.04 3.32 1 4 C0.67 2.68 0.34 1.36 0 0 Z " fill="#797F8C" transform="translate(210,293)"/>
<path d="M0 0 C1.65 0 3.3 0 5 0 C2.25 4.875 2.25 4.875 0 6 C0 4.02 0 2.04 0 0 Z " fill="#293A4C" transform="translate(326,271)"/>
<path d="M0 0 C0.33 0.66 0.66 1.32 1 2 C2.98 1.67 4.96 1.34 7 1 C6 3 6 3 4.15234375 3.6328125 C3.42144531 3.79523438 2.69054687 3.95765625 1.9375 4.125 C1.20402344 4.29257812 0.47054688 4.46015625 -0.28515625 4.6328125 C-0.85105469 4.75398438 -1.41695313 4.87515625 -2 5 C-1.34 3.35 -0.68 1.7 0 0 Z " fill="#4D72BA" transform="translate(347,253)"/>
<path d="M0 0 C4.75 0.875 4.75 0.875 7 2 C6.67 2.99 6.34 3.98 6 5 C4.68 5 3.36 5 2 5 C1.34 3.35 0.68 1.7 0 0 Z " fill="#1942AC" transform="translate(368,248)"/>
<path d="M0 0 C2.92879371 0.62759865 5.36095629 1.58622659 8 3 C7.01 3.66 6.02 4.32 5 5 C2.5 3.625 2.5 3.625 0 2 C0 1.34 0 0.68 0 0 Z " fill="#5274BA" transform="translate(346,212)"/>
<path d="M0 0 C-0.33 1.65 -0.66 3.3 -1 5 C-1.99 4.34 -2.98 3.68 -4 3 C-6.11280345 2.36707617 -6.11280345 2.36707617 -8 2 C-4.77208445 -0.1519437 -3.71599191 -0.20086443 0 0 Z " fill="#152336" transform="translate(271,211)"/>
<path d="M0 0 C1.65 0 3.3 0 5 0 C4.67 0.66 4.34 1.32 4 2 C3.64830932 3.32860925 3.31229724 4.66158328 3 6 C2.01 6 1.02 6 0 6 C0 4.02 0 2.04 0 0 Z " fill="#1C58EB" transform="translate(110,273)"/>
<path d="M0 0 C-1.1875 1.5625 -1.1875 1.5625 -3 3 C-5.6875 2.6875 -5.6875 2.6875 -8 2 C-8 1.34 -8 0.68 -8 0 C-4.71303767 -0.79953138 -3.28976808 -1.09658936 0 0 Z " fill="#154CBD" transform="translate(308,252)"/>
<path d="M0 0 C1.2065625 0.0309375 1.2065625 0.0309375 2.4375 0.0625 C2.7675 0.7225 3.0975 1.3825 3.4375 2.0625 C2.4475 2.0625 1.4575 2.0625 0.4375 2.0625 C0.4375 2.7225 0.4375 3.3825 0.4375 4.0625 C-0.5525 4.0625 -1.5425 4.0625 -2.5625 4.0625 C-2.8925 3.0725 -3.2225 2.0825 -3.5625 1.0625 C-2.5625 0.0625 -2.5625 0.0625 0 0 Z " fill="#1F2E41" transform="translate(313.5625,191.9375)"/>
<path d="M0 0 C0.33 0 0.66 0 1 0 C1 2.97 1 5.94 1 9 C-1 8 -1 8 -1.75 6.1875 C-2.05694702 3.50171361 -1.38111722 2.2747813 0 0 Z " fill="#4E67A3" transform="translate(324,310)"/>
<path d="M0 0 C2.78489278 1.39244639 4.12301529 3.55991988 6 6 C5.01 6 4.02 6 3 6 C2.67 6.66 2.34 7.32 2 8 C0.74335022 5.09399739 0 3.20395416 0 0 Z " fill="#596372" transform="translate(207,298)"/>
<path d="M0 0 C2.4375 0.8125 2.4375 0.8125 5 2 C5.33 2.99 5.66 3.98 6 5 C4.35 4.67 2.7 4.34 1 4 C0.67 2.68 0.34 1.36 0 0 Z " fill="#5A88E6" transform="translate(143,278)"/>
<path d="M0 0 C0.33 0.99 0.66 1.98 1 3 C1.99 3.33 2.98 3.66 4 4 C4.33 4.66 4.66 5.32 5 6 C3.02 6 1.04 6 -1 6 C-0.67 4.02 -0.34 2.04 0 0 Z " fill="#5A6E7A" transform="translate(254,250)"/>
<path d="M0 0 C1.65 0 3.3 0 5 0 C5 0.99 5 1.98 5 3 C3.02 3 1.04 3 -1 3 C-0.67 2.01 -0.34 1.02 0 0 Z " fill="#1446A9" transform="translate(149,244)"/>
</svg>
