<?xml version="1.0" encoding="UTF-8"?>
<svg version="1.1" xmlns="http://www.w3.org/2000/svg" width="474" height="474">
<path d="M0 0 C156.42 0 312.84 0 474 0 C474 156.42 474 312.84 474 474 C317.58 474 161.16 474 0 474 C0 317.58 0 161.16 0 0 Z " fill="#FDFDFD" transform="translate(0,0)"/>
<path d="M0 0 C2.9720298 2.9720298 2.2923532 5.68658254 2.32226562 9.75195312 C2.31904297 10.76193359 2.31582031 11.77191406 2.3125 12.8125 C2.32861328 13.81087891 2.34472656 14.80925781 2.36132812 15.83789062 C2.3675309 25.14824898 2.3675309 25.14824898 -1 29 C-4.49666359 32.18584905 -8.30638593 34.40941744 -12.4375 36.6875 C-17.44622126 39.48672568 -22.32063006 42.42569062 -27.125 45.5625 C-44.68602989 57 -44.68602989 57 -48 57 C-48.29121422 52.62641047 -48.46824053 48.25530741 -48.625 43.875 C-48.70878906 42.6375 -48.79257813 41.4 -48.87890625 40.125 C-48.97634733 36.50019189 -48.9392261 33.50651963 -48 30 C-44.09950792 26.02439528 -39.37688798 24.1650708 -34 23 C-34 22.34 -34 21.68 -34 21 C-31 19 -31 19 -28 19 C-28 18.34 -28 17.68 -28 17 C-26.02 16.01 -24.04 15.02 -22 14 C-22 13.34 -22 12.68 -22 12 C-20.14375 11.319375 -20.14375 11.319375 -18.25 10.625 C-12.39185504 8.42078093 -12.39185504 8.42078093 -7.5625 4.5 C-5.04936462 2.0481606 -3.30399584 1.03839869 0 0 Z " fill="#04A0E6" transform="translate(228,224)"/>
<path d="M0 0 C3.50625 -0.04125 7.0125 -0.0825 10.625 -0.125 C12.265896 -0.15231201 12.265896 -0.15231201 13.93994141 -0.18017578 C25.50450688 -0.24594381 25.50450688 -0.24594381 29.875 3.6875 C31.47727287 6.98106089 31.38105644 9.37996386 31 13 C29.5 15.9375 29.5 15.9375 28 18 C28.66 18.474375 29.32 18.94875 30 19.4375 C32.54338888 22.69621701 32.63430949 24.7610245 32.4609375 28.80859375 C31.71966572 32.3327757 29.8129646 33.90663099 27 36 C23.8815675 37.0394775 21.72524414 37.11494838 18.45703125 37.09765625 C17.00647339 37.09390991 17.00647339 37.09390991 15.52661133 37.09008789 C14.30095459 37.08098389 13.07529785 37.07187988 11.8125 37.0625 C5.9653125 37.0315625 5.9653125 37.0315625 0 37 C0 24.79 0 12.58 0 0 Z " fill="#121212" transform="translate(246,219)"/>
<path d="M0 0 C1.89957501 0.90888756 3.79450786 1.82748031 5.6875 2.75 C7.27111328 3.51570312 7.27111328 3.51570312 8.88671875 4.296875 C11.90438796 5.94769529 14.35064369 7.82244687 17 10 C19.6794645 11.24016669 19.6794645 11.24016669 22 12 C22 12.66 22 13.32 22 14 C22.81210938 14.21914062 23.62421875 14.43828125 24.4609375 14.6640625 C28.93874916 16.35436227 32.64379739 18.74851217 36.625 21.375 C37.37523437 21.85710937 38.12546875 22.33921875 38.8984375 22.8359375 C42.64013929 25.27733158 45.99630117 27.64666427 49 31 C46.12086007 33.87913993 42.81657802 34.72780733 39 36 C38.67 36.99 38.34 37.98 38 39 C36.3984375 40.203125 36.3984375 40.203125 34.375 41.25 C33.72273438 41.60578125 33.07046875 41.9615625 32.3984375 42.328125 C28.21044592 43.50130831 24.7287711 42.84238159 20.83251953 40.94384766 C18.46852476 39.58727445 16.16960129 38.15825191 13.875 36.6875 C13.08996094 36.20087891 12.30492187 35.71425781 11.49609375 35.21289062 C9.30413689 33.83968325 7.13240509 32.46414617 5 31 C4.09886475 30.4129126 3.19772949 29.8258252 2.26928711 29.22094727 C0 27 0 27 -0.56762695 24.06738281 C-0.54144287 22.95717773 -0.51525879 21.84697266 -0.48828125 20.703125 C-0.47216797 19.49785156 -0.45605469 18.29257813 -0.43945312 17.05078125 C-0.39755859 15.79652344 -0.35566406 14.54226562 -0.3125 13.25 C-0.28994141 11.98027344 -0.26738281 10.71054688 -0.24414062 9.40234375 C-0.18520639 6.26704227 -0.10297079 3.13411405 0 0 Z " fill="#EB4F04" transform="translate(180,193)"/>
<path d="M0 0 C1.51400391 0.01740234 1.51400391 0.01740234 3.05859375 0.03515625 C4.07050781 0.04417969 5.08242188 0.05320313 6.125 0.0625 C7.29869141 0.07990234 7.29869141 0.07990234 8.49609375 0.09765625 C9.11097656 1.19464844 9.72585938 2.29164063 10.359375 3.421875 C11.17574292 4.8763236 11.99215131 6.33074948 12.80859375 7.78515625 C13.21271484 8.50638672 13.61683594 9.22761719 14.03320312 9.97070312 C14.42958984 10.67646484 14.82597656 11.38222656 15.234375 12.109375 C15.59571533 12.75350342 15.95705566 13.39763184 16.3293457 14.0612793 C17.68446359 16.42642645 19.0936548 18.76025801 20.49609375 21.09765625 C20.82609375 14.16765625 21.15609375 7.23765625 21.49609375 0.09765625 C24.79609375 0.09765625 28.09609375 0.09765625 31.49609375 0.09765625 C31.49609375 11.97765625 31.49609375 23.85765625 31.49609375 36.09765625 C27.20609375 36.09765625 22.91609375 36.09765625 18.49609375 36.09765625 C14.53609375 28.83765625 10.57609375 21.57765625 6.49609375 14.09765625 C6.16609375 21.68765625 5.83609375 29.27765625 5.49609375 37.09765625 C2.52609375 37.09765625 -0.44390625 37.09765625 -3.50390625 37.09765625 C-3.52855635 31.98901729 -3.54674232 26.88041266 -3.55883789 21.77172852 C-3.56387829 20.03246457 -3.57071055 18.29320489 -3.5793457 16.55395508 C-3.59142417 14.05939688 -3.59713733 11.56489452 -3.6015625 9.0703125 C-3.60672379 8.28801773 -3.61188507 7.50572296 -3.61720276 6.69972229 C-3.61739851 4.83198511 -3.56590319 2.96436421 -3.50390625 1.09765625 C-2.50390625 0.09765625 -2.50390625 0.09765625 0 0 Z " fill="#0B0B0B" transform="translate(324.50390625,218.90234375)"/>
<path d="M0 0 C3.3 0 6.6 0 10 0 C10 4.29 10 8.58 10 13 C14.29 13 18.58 13 23 13 C23 8.71 23 4.42 23 0 C26.3 0 29.6 0 33 0 C33 11.88 33 23.76 33 36 C30.03 36 27.06 36 24 36 C24 31.05 24 26.1 24 21 C19.38 21 14.76 21 10 21 C10 26.28 10 31.56 10 37 C6.7 37 3.4 37 0 37 C0 24.79 0 12.58 0 0 Z " fill="#0D0D0D" transform="translate(130,219)"/>
<path d="M0 0 C1.93559313 -0.13504138 3.873872 -0.23201129 5.8125 -0.3125 C6.89144531 -0.37050781 7.97039062 -0.42851562 9.08203125 -0.48828125 C12 0 12 0 13.77734375 2.265625 C14.38255859 3.61914062 14.38255859 3.61914062 15 5 C15.45632813 5.97646484 15.45632813 5.97646484 15.921875 6.97265625 C19.04630212 14.85741337 21.82105573 22.87047019 24.609375 30.87890625 C24.87717773 31.6479126 25.14498047 32.41691895 25.42089844 33.20922852 C26 35 26 35 26 36 C22.7 36 19.4 36 16 36 C15.01 33.03 14.02 30.06 13 27 C8.38 27 3.76 27 -1 27 C-1.66 29.97 -2.32 32.94 -3 36 C-6.3 36 -9.6 36 -13 36 C-10.69604866 29.04481146 -8.33433846 22.1112059 -5.9375 15.1875 C-5.58623047 14.16462891 -5.23496094 13.14175781 -4.87304688 12.08789062 C-4.53208984 11.10369141 -4.19113281 10.11949219 -3.83984375 9.10546875 C-3.38146118 7.77745239 -3.38146118 7.77745239 -2.91381836 6.42260742 C-2.07176672 4.19025946 -1.1106119 2.10939666 0 0 Z " fill="#0C0C0C" transform="translate(292,219)"/>
<path d="M0 0 C2.97 0 5.94 0 9 0 C9 4.62 9 9.24 9 14 C10.32 13.67 11.64 13.34 13 13 C13.70105843 11.34750513 14.35800351 9.67632417 15 8 C16.60466286 4.82594159 18.2109502 2.24324749 21 0 C24.75899946 -0.67734378 28.22458383 -0.48368321 32 0 C30.25477062 4.05214179 27.5771843 7.30603961 24.875 10.75 C24.40707031 11.35199219 23.93914062 11.95398438 23.45703125 12.57421875 C22.30774993 14.05186616 21.15428765 15.52626005 20 17 C22.00770557 21.68464634 25.3884412 25.45310552 28.54296875 29.3984375 C32 33.79279792 32 33.79279792 32 36 C28.36156146 36.97541118 25.61123303 37.16127846 22 36 C18.75229194 32.86502044 16.4944659 28.97138988 14.12890625 25.16015625 C12.30800159 21.76371274 12.30800159 21.76371274 9 21 C9 25.95 9 30.9 9 36 C6.03 36 3.06 36 0 36 C0 24.12 0 12.24 0 0 Z " fill="#070707" transform="translate(363,219)"/>
<path d="M0 0 C1.21429688 -0.00257813 2.42859375 -0.00515625 3.6796875 -0.0078125 C6.63619095 0.10615702 9.25691815 0.43796899 12.125 1.125 C12.125 3.435 12.125 5.745 12.125 8.125 C10.92101562 8.17398438 9.71703125 8.22296875 8.4765625 8.2734375 C6.90101802 8.34846343 5.32549834 8.42401133 3.75 8.5 C2.9559375 8.5309375 2.161875 8.561875 1.34375 8.59375 C-3.24167375 8.64316421 -3.24167375 8.64316421 -6.875 11.125 C-7.0473963 13.64666109 -7.10750592 16.04453713 -7.0625 18.5625 C-7.06185547 19.24376953 -7.06121094 19.92503906 -7.06054688 20.62695312 C-7.03327338 23.72097947 -6.85989776 26.17030673 -5.875 29.125 C-3.94333984 29.21587891 -3.94333984 29.21587891 -1.97265625 29.30859375 C-0.29425841 29.39298247 1.38412636 29.4776313 3.0625 29.5625 C3.91263672 29.60181641 4.76277344 29.64113281 5.63867188 29.68164062 C6.44755859 29.72353516 7.25644531 29.76542969 8.08984375 29.80859375 C9.21314087 29.86358032 9.21314087 29.86358032 10.35913086 29.91967773 C12.125 30.125 12.125 30.125 13.125 31.125 C13.16580783 33.12458364 13.16754356 35.12545254 13.125 37.125 C9.00714667 38.26751255 4.99901508 38.34579715 0.75 38.375 C0.0075 38.395625 -0.735 38.41625 -1.5 38.4375 C-6.38004054 38.47198792 -9.62037916 37.76312356 -13.875 35.125 C-18.1574017 30.8425983 -18.98772582 25.09793515 -19.1875 19.25 C-19.05695212 14.21238784 -18.32996637 9.58030933 -15.875 5.125 C-10.67514557 0.79178798 -6.62982115 -0.01401654 0 0 Z " fill="#121212" transform="translate(96.875,217.875)"/>
<path d="M0 0 C1.89957501 0.90888756 3.79450786 1.82748031 5.6875 2.75 C7.27111328 3.51570312 7.27111328 3.51570312 8.88671875 4.296875 C11.90438796 5.94769529 14.35064369 7.82244687 17 10 C19.6794645 11.24016669 19.6794645 11.24016669 22 12 C22 12.66 22 13.32 22 14 C22.81210938 14.21914062 23.62421875 14.43828125 24.4609375 14.6640625 C28.93874916 16.35436227 32.64379739 18.74851217 36.625 21.375 C37.37523437 21.85710937 38.12546875 22.33921875 38.8984375 22.8359375 C42.64013929 25.27733158 45.99630117 27.64666427 49 31 C46.12086007 33.87913993 42.81657802 34.72780733 39 36 C38.67 36.99 38.34 37.98 38 39 C36.3984375 40.203125 36.3984375 40.203125 34.375 41.25 C33.72273438 41.60578125 33.07046875 41.9615625 32.3984375 42.328125 C28.21044592 43.50130831 24.7287711 42.84238159 20.83251953 40.94384766 C18.46852476 39.58727445 16.16960129 38.15825191 13.875 36.6875 C13.08996094 36.20087891 12.30492187 35.71425781 11.49609375 35.21289062 C9.30413689 33.83968325 7.13240509 32.46414617 5 31 C4.09886475 30.4129126 3.19772949 29.8258252 2.26928711 29.22094727 C0 27 0 27 -0.56762695 24.06738281 C-0.54144287 22.95717773 -0.51525879 21.84697266 -0.48828125 20.703125 C-0.47216797 19.49785156 -0.45605469 18.29257813 -0.43945312 17.05078125 C-0.39755859 15.79652344 -0.35566406 14.54226562 -0.3125 13.25 C-0.28994141 11.98027344 -0.26738281 10.71054688 -0.24414062 9.40234375 C-0.18520639 6.26704227 -0.10297079 3.13411405 0 0 Z M9 9 C9.33 10.32 9.66 11.64 10 13 C7.3534665 13 5.4191837 12.01860366 3 11 C1.05843168 12.94156832 1.6503255 16.22830114 1.5625 18.8125 C1.42567793 23.58778308 1.42567793 23.58778308 3.234375 27.81640625 C5.84080001 29.5647755 7.88735268 30 11 30 C10.67 30.99 10.34 31.98 10 33 C12.31 33 14.62 33 17 33 C17.33 33.99 17.66 34.98 18 36 C18.99 36 19.98 36 21 36 C21 35.01 21 34.02 21 33 C21.99 33.33 22.98 33.66 24 34 C24.33 34.99 24.66 35.98 25 37 C24.01 37.33 23.02 37.66 22 38 C24.72658883 40.72658883 26.14439537 40.92859991 30 41 C32.95321792 39.70929505 35.62689839 38.19240859 38 36 C38 35.01 38 34.02 38 33 C37.13375 33.2475 37.13375 33.2475 36.25 33.5 C34 34 34 34 30 34 C30.33 32.35 30.66 30.7 31 29 C30.01 28.67 29.02 28.34 28 28 C28 26.68 28 25.36 28 24 C28.99 24 29.98 24 31 24 C30.67 22.35 30.34 20.7 30 19 C28.68 19.33 27.36 19.66 26 20 C26.33 19.01 26.66 18.02 27 17 C26.484375 16.7525 25.96875 16.505 25.4375 16.25 C23.36554929 15.18746118 21.38020179 14.05551546 19.375 12.875 C16.35209113 10.83811902 16.35209113 10.83811902 14 11 C14 10.34 14 9.68 14 9 C12.35 9 10.7 9 9 9 Z " fill="#E2510A" transform="translate(180,193)"/>
<path d="M0 0 C3.3 0 6.6 0 10 0 C10 11.88 10 23.76 10 36 C5.71 36 1.42 36 -3 36 C-8.35714286 27.02678571 -8.35714286 27.02678571 -8 22 C-7.01 22 -6.02 22 -5 22 C-5 21.34 -5 20.68 -5 20 C-3.68 20.33 -2.36 20.66 -1 21 C-0.67 14.07 -0.34 7.14 0 0 Z " fill="#131313" transform="translate(346,219)"/>
<path d="M0 0 C3.3 0 6.6 0 10 0 C10 12.21 10 24.42 10 37 C6.7 37 3.4 37 0 37 C0 24.79 0 12.58 0 0 Z " fill="#0F0F0F" transform="translate(114,219)"/>
<path d="M0 0 C2.79147343 0 5.52210468 0.11629563 8.30078125 0.375 C6.621551 4.17633442 4.18615291 7.34582702 1.67578125 10.625 C1.25554687 11.17929688 0.8353125 11.73359375 0.40234375 12.3046875 C-0.62860594 13.66366663 -1.66351786 15.01963835 -2.69921875 16.375 C-3.68921875 16.045 -4.67921875 15.715 -5.69921875 15.375 C-6.68921875 16.035 -7.67921875 16.695 -8.69921875 17.375 C-6.82421875 12.625 -6.82421875 12.625 -5.69921875 10.375 C-7.34921875 11.035 -8.99921875 11.695 -10.69921875 12.375 C-9.74687209 10.94648001 -8.79028214 9.52060695 -7.8125 8.109375 C-6.50869043 6.16506546 -6.50869043 6.16506546 -5.13671875 3 C-2.69921875 0.375 -2.69921875 0.375 0 0 Z " fill="#141414" transform="translate(386.69921875,218.625)"/>
<path d="M0 0 C7.91040462 0 7.91040462 0 10.9375 2.375 C11.52402344 2.81585938 12.11054688 3.25671875 12.71484375 3.7109375 C14 5 14 5 14 7 C10.20774749 5.5500211 6.62189716 3.83101449 3 2 C2.73778186 6.20714438 2.57852396 10.41218891 2.4375 14.625 C2.32438477 16.40970703 2.32438477 16.40970703 2.20898438 18.23046875 C1.87331147 24.77878188 1.87331147 24.77878188 5.04345703 30.17480469 C7.30904919 31.68519946 9.5031958 32.92096023 12 34 C11.67 34.66 11.34 35.32 11 36 C9.0625 35.625 9.0625 35.625 7 35 C6.67 34.34 6.34 33.68 6 33 C3.68191636 31.96514123 1.34824702 30.9644586 -1 30 C-2 29 -2 29 -2.09765625 25.62109375 C-2.09098369 24.22652923 -2.07902532 22.83198257 -2.0625 21.4375 C-2.05798828 20.72658203 -2.05347656 20.01566406 -2.04882812 19.28320312 C-2.03700864 17.52209987 -2.01907263 15.76103964 -2 14 C-1.34 14 -0.68 14 0 14 C0 9.38 0 4.76 0 0 Z " fill="#FBF4E0" transform="translate(178,192)"/>
<path d="M0 0 C2.9720298 2.9720298 2.2923532 5.68658254 2.32226562 9.75195312 C2.31904297 10.76193359 2.31582031 11.77191406 2.3125 12.8125 C2.32861328 13.81087891 2.34472656 14.80925781 2.36132812 15.83789062 C2.36750674 25.11198871 2.36750674 25.11198871 -1 29 C-1.99 29.66 -2.98 30.32 -4 31 C-4 30.34 -4 29.68 -4 29 C-4.66 28.67 -5.32 28.34 -6 28 C-4.35 27.67 -2.7 27.34 -1 27 C-1.020625 25.9275 -1.04125 24.855 -1.0625 23.75 C-1 20 -1 20 -0.5 18.125 C0.12844483 15.45410947 0.09512562 12.99055237 0.0625 10.25 C0.05347656 9.26515625 0.04445312 8.2803125 0.03515625 7.265625 C0.02355469 6.51796875 0.01195312 5.7703125 0 5 C-0.56847656 5.4640625 -1.13695312 5.928125 -1.72265625 6.40625 C-3.99647416 7.99753251 -5.79196978 8.7297243 -8.4375 9.5 C-11.27324957 10.37396872 -13.26143959 11.16267352 -15.8125 12.75 C-18 14 -18 14 -20.3125 13.6875 C-20.869375 13.460625 -21.42625 13.23375 -22 13 C-20.02502211 12.00151452 -18.04945301 11.02251439 -16.03515625 10.10546875 C-11.4742551 7.98306921 -8.5392373 5.63489237 -5 2 C-2.1875 0.6875 -2.1875 0.6875 0 0 Z " fill="#239DD1" transform="translate(228,224)"/>
<path d="M0 0 C-0.33 1.32 -0.66 2.64 -1 4 C-2.65 4 -4.3 4 -6 4 C-6.25136719 4.61746094 -6.50273437 5.23492187 -6.76171875 5.87109375 C-8.21234621 8.36507471 -9.20943378 8.91277094 -11.8125 10.0625 C-13.21468201 10.69443116 -14.61015103 11.34138689 -16 12 C-17.34384766 12.51046875 -17.34384766 12.51046875 -18.71484375 13.03125 C-21.39975423 15.34440365 -21.38582528 15.91091558 -21.671875 19.30859375 C-21.72233761 21.01768267 -21.74744611 22.72766817 -21.75 24.4375 C-21.78329669 26.14459585 -21.8196475 27.85163545 -21.859375 29.55859375 C-21.86420898 30.31454834 -21.86904297 31.07050293 -21.87402344 31.84936523 C-22.00090301 34.01541585 -22.40615993 35.91772282 -23 38 C-21.68 38.33 -20.36 38.66 -19 39 C-20.65 39.66 -22.3 40.32 -24 41 C-24.29121422 36.62641047 -24.46824053 32.25530741 -24.625 27.875 C-24.75068359 26.01875 -24.75068359 26.01875 -24.87890625 24.125 C-24.97634733 20.50019189 -24.9392261 17.50651963 -24 14 C-20.09950792 10.02439528 -15.37688798 8.1650708 -10 7 C-10 6.34 -10 5.68 -10 5 C-7 3 -7 3 -4 3 C-4 2.34 -4 1.68 -4 1 C-2 0 -2 0 0 0 Z " fill="#1F94C9" transform="translate(204,240)"/>
<path d="M0 0 C1.81242052 -0.02687279 3.62495233 -0.04633715 5.4375 -0.0625 C6.44683594 -0.07410156 7.45617187 -0.08570313 8.49609375 -0.09765625 C11 0 11 0 12 1 C12.04092937 3.33297433 12.04241723 5.66705225 12 8 C9.47524538 9.26237731 7.68799534 9.09856404 4.875 9.0625 C3.96492188 9.05347656 3.05484375 9.04445312 2.1171875 9.03515625 C1.41851562 9.02355469 0.71984375 9.01195312 0 9 C0 6.03 0 3.06 0 0 Z " fill="#F3F3F3" transform="translate(256,240)"/>
<path d="M0 0 C-0.1875 1.875 -0.1875 1.875 -1 4 C-3.5625 5.25 -3.5625 5.25 -6 6 C-6 6.99 -6 7.98 -6 9 C-4.02 9 -2.04 9 0 9 C-2.75170751 11.9555377 -5.41970299 14.11563315 -9 16 C-9.66 16 -10.32 16 -11 16 C-11 15.34 -11 14.68 -11 14 C-10.34 14 -9.68 14 -9 14 C-9.5259375 12.9171875 -9.5259375 12.9171875 -10.0625 11.8125 C-11.13984602 8.58046193 -11.14377206 7.18622217 -10 4 C-7.03848143 -0.0583773 -4.91114158 -0.44646742 0 0 Z " fill="#049FDF" transform="translate(203,258)"/>
<path d="M0 0 C0 0.66 0 1.32 0 2 C0.99 2.33 1.98 2.66 3 3 C3 2.01 3 1.02 3 0 C4.32 0.33 5.64 0.66 7 1 C7 1.99 7 2.98 7 4 C6.01 4.495 6.01 4.495 5 5 C7.17556199 6.32087692 8.43100487 7.07112439 11 6.75 C13.04781728 6.04024621 13.04781728 6.04024621 15 4.875 C17.46792868 3.7952812 18.48225115 4.25516597 21 5 C19.6608781 5.87756515 18.30269009 6.72606467 16.9375 7.5625 C15.80634766 8.27599609 15.80634766 8.27599609 14.65234375 9.00390625 C10.98881311 10.37975355 8.78182885 9.94138197 5 9 C2.54375601 7.73787684 0.35038231 6.50248987 -1.9375 5 C-2.52595703 4.63132813 -3.11441406 4.26265625 -3.72070312 3.8828125 C-5.17166036 2.95932288 -6.58949708 1.98417046 -8 1 C-8 0.67 -8 0.34 -8 0 C-2.25 -1.125 -2.25 -1.125 0 0 Z " fill="#C96027" transform="translate(198,226)"/>
<path d="M0 0 C0 0.99 0 1.98 0 3 C-0.969375 3.45375 -1.93875 3.9075 -2.9375 4.375 C-6.07079582 5.65786221 -6.07079582 5.65786221 -7 8 C-10.0625 8.625 -10.0625 8.625 -13 9 C-13 9.66 -13 10.32 -13 11 C-12.34 11.33 -11.68 11.66 -11 12 C-11.33 12.99 -11.66 13.98 -12 15 C-16.34263862 15.16702456 -19.20960634 15.12999997 -23 13 C-19.87596516 11.01930668 -16.75061036 9.04070598 -13.625 7.0625 C-12.73554688 6.49853516 -11.84609375 5.93457031 -10.9296875 5.35351562 C-9.65351563 4.54624023 -9.65351563 4.54624023 -8.3515625 3.72265625 C-7.17327881 2.97640991 -7.17327881 2.97640991 -5.97119141 2.21508789 C-2.37773759 0 -2.37773759 0 0 0 Z " fill="#C9F4FB" transform="translate(222,257)"/>
<path d="M0 0 C3.63 0 7.26 0 11 0 C11.04254356 1.99954746 11.04080783 4.00041636 11 6 C10 7 10 7 7.71484375 7.09765625 C6.34005859 7.08025391 6.34005859 7.08025391 4.9375 7.0625 C4.01839844 7.05347656 3.09929687 7.04445312 2.15234375 7.03515625 C1.44207031 7.02355469 0.73179687 7.01195312 0 7 C0 4.69 0 2.38 0 0 Z " fill="#F8F8F8" transform="translate(256,226)"/>
<path d="M0 0 C3.39417765 3.12621626 5.6062718 5.56541027 7 10 C3.7 10 0.4 10 -3 10 C-5 6 -5 6 -4.3125 3.875 C-3 2 -3 2 0 0 Z " fill="#0E0E0E" transform="translate(388,245)"/>
<path d="M0 0 C2.31 0 4.62 0 7 0 C4.42961093 2.05631125 2.57901861 3.14642831 -0.59375 4.25 C-2.55530389 5.23172351 -2.55530389 5.23172351 -4 7 C-5.0590974 11.56767495 -4.97831065 16.07838116 -4.9375 20.75 C-4.95361328 22.01972656 -4.96972656 23.28945313 -4.98632812 24.59765625 C-5.02168758 27.73286122 -5.02503858 30.86479003 -5 34 C-4.34 34.33 -3.68 34.66 -3 35 C-3.99 35 -4.98 35 -6 35 C-5.99476318 34.0713916 -5.98952637 33.1427832 -5.98413086 32.18603516 C-5.96710407 28.74576195 -5.95455727 25.30553341 -5.94506836 21.86523438 C-5.94003486 20.37531834 -5.93320758 18.88540726 -5.92456055 17.39550781 C-5.91245195 15.25584696 -5.90676193 13.11625132 -5.90234375 10.9765625 C-5.89710693 9.68830566 -5.89187012 8.40004883 -5.88647461 7.07275391 C-5.78457369 4.08594772 -5.78457369 4.08594772 -7 2 C-2.25 0.875 -2.25 0.875 0 2 C0 1.34 0 0.68 0 0 Z " fill="#AEDEEE" transform="translate(185,247)"/>
<path d="M0 0 C3.05936637 3.75467691 5 7.08113061 5 12 C2.03 12 -0.94 12 -4 12 C-3.52494322 10.18641846 -3.04483958 8.37415821 -2.5625 6.5625 C-2.29566406 5.55316406 -2.02882813 4.54382813 -1.75390625 3.50390625 C-1 1 -1 1 0 0 Z " fill="#CBCBCB" transform="translate(298,227)"/>
<path d="M0 0 C3.465 1.485 3.465 1.485 7 3 C4 4 4 4 1 3 C1 10.59 1 18.18 1 26 C2.32 26.33 3.64 26.66 5 27 C7.01526169 27.96887581 9.01833966 28.9641321 11 30 C10.67 30.99 10.34 31.98 10 33 C8.70590711 32.38003922 7.41480327 31.75383647 6.125 31.125 C5.40570313 30.77695313 4.68640625 30.42890625 3.9453125 30.0703125 C2 29 2 29 0 27 C-0.22705078 24.29443359 -0.22705078 24.29443359 -0.1953125 20.8984375 C-0.18886719 19.68671875 -0.18242187 18.475 -0.17578125 17.2265625 C-0.15902344 15.95554688 -0.14226562 14.68453125 -0.125 13.375 C-0.11146484 11.456875 -0.11146484 11.456875 -0.09765625 9.5 C-0.07402303 6.33314833 -0.04107629 3.16666576 0 0 Z " fill="#C65B2B" transform="translate(180,193)"/>
<path d="M0 0 C7.91040462 0 7.91040462 0 10.9375 2.375 C11.52402344 2.81585938 12.11054688 3.25671875 12.71484375 3.7109375 C14 5 14 5 14 7 C10.1670768 5.53447054 6.70751245 3.85375622 3 2 C2.67 10.58 2.34 19.16 2 28 C1.67 28 1.34 28 1 28 C0.67 18.76 0.34 9.52 0 0 Z " fill="#F3C7A9" transform="translate(178,192)"/>
<path d="M0 0 C4.44597193 2.17334112 8.78543161 4.39688423 13 7 C13.66 7.33 14.32 7.66 15 8 C15 8.66 15 9.32 15 10 C15.886875 10.2475 16.77375 10.495 17.6875 10.75 C21.10427135 12.03934768 23.2797748 13.59980129 26 16 C23.69 16 21.38 16 19 16 C18.67 15.34 18.34 14.68 18 14 C16.55377019 12.93301637 15.06854945 11.9182394 13.5625 10.9375 C12.75941406 10.41027344 11.95632812 9.88304687 11.12890625 9.33984375 C9.05956819 7.98898322 9.05956819 7.98898322 7 7 C7 6.34 7 5.68 7 5 C4.69 4.67 2.38 4.34 0 4 C0 2.68 0 1.36 0 0 Z " fill="#D0622C" transform="translate(187,197)"/>
<path d="M0 0 C0.33 0 0.66 0 1 0 C1 8.91 1 17.82 1 27 C0.01 27.33 -0.98 27.66 -2 28 C-1.86189095 23.52055965 -1.71322584 19.04153217 -1.5625 14.5625 C-1.52318359 13.28310547 -1.48386719 12.00371094 -1.44335938 10.68554688 C-1.40146484 9.47060547 -1.35957031 8.25566406 -1.31640625 7.00390625 C-1.27974854 5.87799072 -1.24309082 4.7520752 -1.20532227 3.59204102 C-1 1 -1 1 0 0 Z " fill="#E1FDFD" transform="translate(178,255)"/>
<path d="M0 0 C0.99 0.66 1.98 1.32 3 2 C3.67376937 6.25268569 3.46279208 10.57534677 3.4375 14.875 C3.45748047 16.07253906 3.47746094 17.27007812 3.49804688 18.50390625 C3.49740234 19.65503906 3.49675781 20.80617187 3.49609375 21.9921875 C3.49794678 23.04776855 3.4997998 24.10334961 3.50170898 25.19091797 C2.88116609 28.66535424 1.77586868 29.8830026 -1 32 C-3.25 31.75 -3.25 31.75 -5 31 C-4.360625 30.401875 -3.72125 29.80375 -3.0625 29.1875 C0.15812794 25.77168248 0.12147897 22.95952575 0.09765625 18.45703125 C0.09443359 17.38388672 0.09121094 16.31074219 0.08789062 15.20507812 C0.07951172 14.08552734 0.07113281 12.96597656 0.0625 11.8125 C0.05573242 10.11577148 0.05573242 10.11577148 0.04882812 8.38476562 C0.03703498 5.58979073 0.0205765 2.7949218 0 0 Z " fill="#C7F3FB" transform="translate(229,224)"/>
<path d="M0 0 C0.33 1.32 0.66 2.64 1 4 C0.45730469 4.18175781 -0.08539063 4.36351562 -0.64453125 4.55078125 C-1.35996094 4.80214844 -2.07539063 5.05351562 -2.8125 5.3125 C-3.52019531 5.55613281 -4.22789062 5.79976562 -4.95703125 6.05078125 C-7.17591595 7.08173533 -8.31259424 8.2548672 -10 10 C-11.90234375 11.203125 -11.90234375 11.203125 -13.9375 12.25 C-14.60652344 12.60578125 -15.27554688 12.9615625 -15.96484375 13.328125 C-18.38269269 14.12634 -19.63011757 13.82707306 -22 13 C-20.02502211 12.00151452 -18.04945301 11.02251439 -16.03515625 10.10546875 C-11.4742551 7.98306921 -8.5392373 5.63489237 -5 2 C-2.1875 0.6875 -2.1875 0.6875 0 0 Z " fill="#508DA1" transform="translate(228,224)"/>
<path d="M0 0 C-0.33 1.32 -0.66 2.64 -1 4 C-2.65 4 -4.3 4 -6 4 C-6.24878906 4.61617187 -6.49757812 5.23234375 -6.75390625 5.8671875 C-8.22818315 8.39055799 -9.29978517 8.95595693 -11.9375 10.125 C-14.51741203 11.29198825 -16.61630909 12.41087273 -19 14 C-21.1875 13.625 -21.1875 13.625 -23 13 C-21.21118264 11.99491199 -19.41885304 10.99607264 -17.625 10 C-16.62726563 9.443125 -15.62953125 8.88625 -14.6015625 8.3125 C-12 7 -12 7 -10 7 C-10 6.34 -10 5.68 -10 5 C-7 3 -7 3 -4 3 C-4 2.34 -4 1.68 -4 1 C-2 0 -2 0 0 0 Z " fill="#319ECB" transform="translate(204,240)"/>
<path d="M0 0 C2.63564456 2.63564456 4.31830856 4.72070169 6 8 C5.67 8.66 5.34 9.32 5 10 C4.01 9.67 3.02 9.34 2 9 C1.67 13.62 1.34 18.24 1 23 C0.67 23 0.34 23 0 23 C0 15.41 0 7.82 0 0 Z " fill="#DADADA" transform="translate(330,232)"/>
<path d="M0 0 C1.2065625 0.0309375 1.2065625 0.0309375 2.4375 0.0625 C-1.25590696 3.00389884 -5.25985009 5.34828782 -9.3125 7.75 C-10.00988281 8.16572266 -10.70726562 8.58144531 -11.42578125 9.00976562 C-13.13682195 10.02935837 -14.8494988 11.04620451 -16.5625 12.0625 C-16.8925 11.0725 -17.2225 10.0825 -17.5625 9.0625 C-16.06396484 8.21365234 -16.06396484 8.21365234 -14.53515625 7.34765625 C-13.23172254 6.6068558 -11.92833975 5.86596575 -10.625 5.125 C-9.96564453 4.75181641 -9.30628906 4.37863281 -8.62695312 3.99414062 C-1.68230243 0.04103177 -1.68230243 0.04103177 0 0 Z " fill="#2F9DCE" transform="translate(221.5625,254.9375)"/>
<path d="M0 0 C4.2225435 -0.3619323 6.66954606 0.33563684 10 3 C10 4.32 10 5.64 10 7 C7.03 6.505 7.03 6.505 4 6 C3.67 5.01 3.34 4.02 3 3 C2.01 2.67 1.02 2.34 0 2 C0 1.34 0 0.68 0 0 Z " fill="#ED5008" transform="translate(214,218)"/>
<path d="M0 0 C1.32 0.33 2.64 0.66 4 1 C4.33 2.65 4.66 4.3 5 6 C1.47320901 8.35119399 -0.02879485 8.21443452 -4.1875 8.125 C-5.27417969 8.10695313 -6.36085938 8.08890625 -7.48046875 8.0703125 C-8.72763672 8.03550781 -8.72763672 8.03550781 -10 8 C-10 7.67 -10 7.34 -10 7 C-6.7 7 -3.4 7 0 7 C-0.33 5.68 -0.66 4.36 -1 3 C-0.67 2.01 -0.34 1.02 0 0 Z " fill="#D1D1D1" transform="translate(395,248)"/>
<path d="M0 0 C2.875 0.75 2.875 0.75 4.875 1.75 C4.545 2.74 4.215 3.73 3.875 4.75 C-3.55357143 5.03571429 -3.55357143 5.03571429 -7.125 2.75 C-4.56024472 0.28388916 -3.63199048 -0.29055924 0 0 Z " fill="#E1F8F9" transform="translate(206.125,267.25)"/>
<path d="M0 0 C1.32 0 2.64 0 4 0 C4 2.31 4 4.62 4 7 C-0.95 7 -5.9 7 -11 7 C-11 6.67 -11 6.34 -11 6 C-5.555 5.505 -5.555 5.505 0 5 C0 3.35 0 1.7 0 0 Z " fill="#242424" transform="translate(105,219)"/>
<path d="M0 0 C0 0.66 0 1.32 0 2 C-1.65 2.33 -3.3 2.66 -5 3 C-5 5.83967231 -4.59732819 8.23735711 -4 11 C-5.9375 10.1875 -5.9375 10.1875 -8 9 C-9 6 -9 6 -7.8125 3.375 C-6 1 -6 1 -3.9375 0.1875 C-2 0 -2 0 0 0 Z " fill="#0E9AD6" transform="translate(212,237)"/>
<path d="M0 0 C-1.45449401 1.0055761 -2.91372443 2.00430435 -4.375 3 C-5.59316406 3.8353125 -5.59316406 3.8353125 -6.8359375 4.6875 C-9 6 -9 6 -11 6 C-11 5.34 -11 4.68 -11 4 C-10.34 4 -9.68 4 -9 4 C-9.33 3.01 -9.66 2.02 -10 1 C-8.71073008 0.63720544 -7.41846728 0.28503302 -6.125 -0.0625 C-5.40570313 -0.25972656 -4.68640625 -0.45695312 -3.9453125 -0.66015625 C-2 -1 -2 -1 0 0 Z " fill="#279ED2" transform="translate(203,268)"/>
<path d="M0 0 C0.78375 0.495 1.5675 0.99 2.375 1.5 C4.78552327 3.16537965 4.78552327 3.16537965 7 3 C7 3.66 7 4.32 7 5 C4.5 6.625 4.5 6.625 2 8 C1.67 7.01 1.34 6.02 1 5 C0.01 4.67 -0.98 4.34 -2 4 C-1.34 2.68 -0.68 1.36 0 0 Z " fill="#E0E0E0" transform="translate(275,233)"/>
<path d="M0 0 C2.97 1.65 5.94 3.3 9 5 C9 5.99 9 6.98 9 8 C7.68 8.33 6.36 8.66 5 9 C5 7.35 5 5.7 5 4 C2.525 3.01 2.525 3.01 0 2 C0 1.34 0 0.68 0 0 Z " fill="#B6653F" transform="translate(219,217)"/>
<path d="M0 0 C0.66 0.33 1.32 0.66 2 1 C1.67 1.66 1.34 2.32 1 3 C0.34 3 -0.32 3 -1 3 C-0.67 3.99 -0.34 4.98 0 6 C-3.28976808 7.09658936 -4.71303767 6.79953138 -8 6 C-5.38485683 3.87961365 -2.80362384 1.86908256 0 0 Z " fill="#D1F4FC" transform="translate(197,271)"/>
<path d="M0 0 C1.98 0 3.96 0 6 0 C5.67 1.65 5.34 3.3 5 5 C3.35 4.67 1.7 4.34 0 4 C0 2.68 0 1.36 0 0 Z " fill="#01A4F3" transform="translate(196,263)"/>
<path d="M0 0 C3.0831351 1.19899698 6.06279492 2.47700477 9 4 C8.67 4.99 8.34 5.98 8 7 C5.36 5.68 2.72 4.36 0 3 C0 2.01 0 1.02 0 0 Z " fill="#D46531" transform="translate(182,219)"/>
<path d="M0 0 C0.33 0 0.66 0 1 0 C1 2.31 1 4.62 1 7 C1.66 7 2.32 7 3 7 C2.67 8.65 2.34 10.3 2 12 C1.01 12 0.02 12 -1 12 C-1.33 12.66 -1.66 13.32 -2 14 C-2 11 -2 11 -1 9 C-0.77532169 7.46331135 -0.59203195 5.92031946 -0.4375 4.375 C-0.35371094 3.55773437 -0.26992188 2.74046875 -0.18359375 1.8984375 C-0.12300781 1.27195313 -0.06242187 0.64546875 0 0 Z " fill="#E6E6E6" transform="translate(278,241)"/>
<path d="M0 0 C3.3 1.98 6.6 3.96 10 6 C9.67 6.66 9.34 7.32 9 8 C7.0625 7.625 7.0625 7.625 5 7 C4.67 6.34 4.34 5.68 4 5 C2.35636866 4.27840576 0.68949614 3.60648579 -1 3 C-0.67 2.01 -0.34 1.02 0 0 Z " fill="#FAE8CC" transform="translate(180,220)"/>
<path d="M0 0 C0.33 1.32 0.66 2.64 1 4 C-2.50776784 5.60355101 -5.14354879 6.22036864 -9 6 C-6.22719294 2.91910327 -3.93673644 1.31224548 0 0 Z " fill="#578291" transform="translate(228,224)"/>
<path d="M0 0 C2.64 0.33 5.28 0.66 8 1 C6.35 2.65 4.7 4.3 3 6 C2.34 5.67 1.68 5.34 1 5 C1.33 3.68 1.66 2.36 2 1 C1.34 0.67 0.68 0.34 0 0 Z " fill="#D45719" transform="translate(216,224)"/>
<path d="M0 0 C3.63 0 7.26 0 11 0 C8 3 8 3 5.73828125 3.29296875 C4.93777344 3.25816406 4.13726562 3.22335938 3.3125 3.1875 C2.10013672 3.14689453 2.10013672 3.14689453 0.86328125 3.10546875 C-0.05904297 3.05326172 -0.05904297 3.05326172 -1 3 C-0.67 2.01 -0.34 1.02 0 0 Z " fill="#323232" transform="translate(322,219)"/>
<path d="M0 0 C1.32 0.66 2.64 1.32 4 2 C3.67 3.98 3.34 5.96 3 8 C1.68 7.34 0.36 6.68 -1 6 C-0.67 4.02 -0.34 2.04 0 0 Z " fill="#F0FAFC" transform="translate(229,217)"/>
<path d="M0 0 C3.07885481 1.65206844 4.02149296 3.29298591 5.5625 6.375 C1.56749382 5.0052836 -1.23759492 3.11777578 -4.4375 0.375 C-2.4375 -0.625 -2.4375 -0.625 0 0 Z " fill="#FBE2D0" transform="translate(213.4375,209.625)"/>
<path d="M0 0 C-0.33 1.32 -0.66 2.64 -1 4 C-2.65 4 -4.3 4 -6 4 C-6.33 4.99 -6.66 5.98 -7 7 C-7.99 6.34 -8.98 5.68 -10 5 C-7 3 -7 3 -4 3 C-4 2.34 -4 1.68 -4 1 C-2 0 -2 0 0 0 Z " fill="#3BA1D2" transform="translate(204,240)"/>
<path d="M0 0 C0 1.65 0 3.3 0 5 C-2.95409701 3.62845496 -5.44008376 2.01136276 -8 0 C-2.25 -1.125 -2.25 -1.125 0 0 Z " fill="#D76629" transform="translate(198,226)"/>
<path d="M0 0 C2.64 0 5.28 0 8 0 C8 0.66 8 1.32 8 2 C6.68 2 5.36 2 4 2 C3.67 2.66 3.34 3.32 3 4 C2.01 3.34 1.02 2.68 0 2 C0 1.34 0 0.68 0 0 Z " fill="#FAF4F6" transform="translate(189,277)"/>
<path d="M0 0 C2.475 0.495 2.475 0.495 5 1 C5 2.32 5 3.64 5 5 C4.01 5 3.02 5 2 5 C1.34 3.35 0.68 1.7 0 0 Z " fill="#D95704" transform="translate(184,212)"/>
<path d="M0 0 C2.31 0 4.62 0 7 0 C4.61426621 1.89213369 2.92824652 3.02391783 0 4 C-0.66 3.34 -1.32 2.68 -2 2 C-1.34 2 -0.68 2 0 2 C0 1.34 0 0.68 0 0 Z " fill="#C7F3FA" transform="translate(185,247)"/>
<path d="M0 0 C3.96 1.98 3.96 1.98 8 4 C4.71023192 5.09658936 3.28696233 4.79953138 0 4 C0 2.68 0 1.36 0 0 Z " fill="#D56535" transform="translate(187,197)"/>
<path d="M0 0 C0.33 0.99 0.66 1.98 1 3 C0 4 0 4 -2.5625 4.0625 C-3.7690625 4.0315625 -3.7690625 4.0315625 -5 4 C-4.67 3.01 -4.34 2.02 -4 1 C-1.9375 0.3125 -1.9375 0.3125 0 0 Z " fill="#0B9ED6" transform="translate(202,258)"/>
<path d="M0 0 C1.32 1.32 2.64 2.64 4 4 C3.34 5.32 2.68 6.64 2 8 C0.74335022 5.09399739 0 3.20395416 0 0 Z " fill="#D1D1D1" transform="translate(380,248)"/>
<path d="M0 0 C1.32 0.33 2.64 0.66 4 1 C3.67 2.65 3.34 4.3 3 6 C2.01 5.34 1.02 4.68 0 4 C0 2.68 0 1.36 0 0 Z " fill="#EFEFEF" transform="translate(378,219)"/>
</svg>
