<?xml version="1.0" encoding="UTF-8"?>
<svg version="1.1" xmlns="http://www.w3.org/2000/svg" width="474" height="169">
<path d="M0 0 C156.42 0 312.84 0 474 0 C474 55.77 474 111.54 474 169 C317.58 169 161.16 169 0 169 C0 113.23 0 57.46 0 0 Z " fill="#FDFDFD" transform="translate(0,0)"/>
<path d="M0 0 C0.66 0.33 1.32 0.66 2 1 C2 1.66 2 2.32 2 3 C2.88171875 3.40412109 2.88171875 3.40412109 3.78125 3.81640625 C10.37416935 7.33340372 14.11354078 12.82752247 16.33984375 19.84375 C18.49959071 30.16964077 17.4319429 39.48319405 13 49 C12.34 49 11.68 49 11 49 C10.61328125 49.88171875 10.61328125 49.88171875 10.21875 50.78125 C6.80182109 57.0018129 0.3073827 61.00328171 -6.22265625 63.34765625 C-15.91660082 65.62457431 -26.08168495 64.62027721 -34.5625 59.375 C-42.68937004 53.56008437 -47.92171012 46.90529972 -50 37 C-51.27034335 26.14132602 -50.00792225 18.44102068 -44 9 C-43.34 9 -42.68 9 -42 9 C-41.67 8.01 -41.34 7.02 -41 6 C-39.3984375 4.5 -39.3984375 4.5 -37.375 3 C-36.72273438 2.505 -36.07046875 2.01 -35.3984375 1.5 C-24.71723233 -5.18010226 -11.46243835 -4.74731889 0 0 Z " fill="#FBFCFB" transform="translate(66,53)"/>
<path d="M0 0 C0.78705322 0.00016113 1.57410645 0.00032227 2.38500977 0.00048828 C10.61364773 0.15926163 18.48962443 1.74308295 25.4375 6.375 C25.4375 7.035 25.4375 7.695 25.4375 8.375 C26.015 8.6225 26.5925 8.87 27.1875 9.125 C29.76689979 10.55799988 31.49871592 12.15924676 33.4375 14.375 C33.4375 15.035 33.4375 15.695 33.4375 16.375 C34.03175781 16.58382812 34.62601562 16.79265625 35.23828125 17.0078125 C38.2762888 18.89644952 39.09999408 21.04317521 40.625 24.25 C41.13417969 25.29929687 41.64335938 26.34859375 42.16796875 27.4296875 C46.59030035 37.68949681 45.74246081 51.52039641 41.6953125 61.765625 C35.75468561 74.08965842 27.04064055 81.19467464 14.4375 86.375 C2.77362735 89.584522 -10.10408612 88.22490955 -20.5625 82.375 C-21.614375 81.7975 -22.66625 81.22 -23.75 80.625 C-33.38297843 72.91861725 -40.75987287 64.01277301 -42.5625 51.375 C-43.49281031 38.44216159 -42.20591331 26.54645904 -33.40625 16.3671875 C-32.7978125 15.70976563 -32.189375 15.05234375 -31.5625 14.375 C-31.0159375 13.73820312 -30.469375 13.10140625 -29.90625 12.4453125 C-22.1545668 3.92577389 -11.33576253 -0.02172296 0 0 Z M-24.5625 20.375 C-24.5625 21.035 -24.5625 21.695 -24.5625 22.375 C-25.2225 22.375 -25.8825 22.375 -26.5625 22.375 C-33.11148476 32.66626177 -34.37347109 41.74376352 -31.89453125 53.55859375 C-28.69565613 63.63016126 -21.78708904 70.4809772 -12.5625 75.375 C-3.7348183 78.61181662 5.93319805 78.68548063 14.75 75.375 C20.32822622 72.78960697 24.73591019 69.30682407 28.4375 64.375 C28.4375 63.715 28.4375 63.055 28.4375 62.375 C29.0975 62.375 29.7575 62.375 30.4375 62.375 C35.213632 52.11910942 36.322501 41.43210005 33 30.5 C30.56379839 24.63376725 26.40682722 20.2602848 21.4375 16.375 C20.7775 16.375 20.1175 16.375 19.4375 16.375 C19.4375 15.715 19.4375 15.055 19.4375 14.375 C18.385625 13.900625 17.33375 13.42625 16.25 12.9375 C15.65832031 12.67066406 15.06664062 12.40382813 14.45703125 12.12890625 C0.4395287 6.89606681 -14.02148301 10.11137819 -24.5625 20.375 Z " fill="#F74507" transform="translate(48.5625,39.625)"/>
<path d="M0 0 C31.52631579 0 31.52631579 0 37.75 5.375 C42.34490563 10.73572324 43.56676289 14.13674666 43.34765625 21.21484375 C42.62298065 27.02039098 40.29096383 30.67969608 36.25 34.8125 C27.52130748 40.6875815 20.22095455 40.27377557 10 40 C10 46.6 10 53.2 10 60 C6.7 60 3.4 60 0 60 C0 40.2 0 20.4 0 0 Z " fill="#1F1F21" transform="translate(113,55)"/>
<path d="M0 0 C1.91015625 1.1015625 1.91015625 1.1015625 4.66015625 3.1015625 C4.99015625 1.7815625 5.32015625 0.4615625 5.66015625 -0.8984375 C8.63015625 -0.8984375 11.60015625 -0.8984375 14.66015625 -0.8984375 C14.66015625 13.2915625 14.66015625 27.4815625 14.66015625 42.1015625 C11.69015625 42.1015625 8.72015625 42.1015625 5.66015625 42.1015625 C5.33015625 40.4515625 5.00015625 38.8015625 4.66015625 37.1015625 C4.26828125 37.5553125 3.87640625 38.0090625 3.47265625 38.4765625 C-1.10241854 42.57835369 -6.46541501 42.58533188 -12.328125 42.484375 C-18.17943256 41.74062903 -21.75350905 38.7713885 -25.71484375 34.6015625 C-29.7971381 28.32110965 -30.09305047 22.43341017 -29.33984375 15.1015625 C-27.39517998 8.10310188 -22.5250922 3.67438891 -16.484375 -0.0390625 C-11.51314655 -2.0311759 -4.97456678 -1.91010077 0 0 Z " fill="#252526" transform="translate(187.33984375,72.8984375)"/>
<path d="M0 0 C5.99207921 3.50201214 10.27274649 8.47634387 12.49609375 15.078125 C13.40302081 22.1331739 12.83486235 28.29731669 8.49609375 34.078125 C4.39116985 38.35448424 0.33653548 41.74580731 -5.67578125 42.44921875 C-13.29390057 42.59060306 -18.76002428 42.38686439 -24.50390625 37.078125 C-30.355485 30.76457951 -31.21273578 25.33451662 -30.94140625 16.85546875 C-30.18578158 10.33145929 -27.37254766 6.88700305 -22.81640625 2.42578125 C-16.51512208 -2.47672647 -7.33067702 -2.69897001 0 0 Z " fill="#242424" transform="translate(282.50390625,72.921875)"/>
<path d="M0 0 C5.23166852 2.90317969 8.03912944 6.7613769 10.5 12.14453125 C10.5 15.77453125 10.5 19.40453125 10.5 23.14453125 C-0.06 23.14453125 -10.62 23.14453125 -21.5 23.14453125 C-18.5387909 30.72074591 -18.5387909 30.72074591 -15.25 32.64453125 C-9.65098296 33.66253435 -6.1132831 34.24156376 -1.375 31.01953125 C1.5 29.14453125 1.5 29.14453125 4.8125 29.70703125 C7.5 31.14453125 7.5 31.14453125 8.5 34.14453125 C4.23247618 38.78860129 0.49595161 41.72746142 -5.8671875 42.61328125 C-13.43960446 42.68074153 -18.79251255 42.38215291 -24.5 37.14453125 C-25.25216797 36.45810547 -25.25216797 36.45810547 -26.01953125 35.7578125 C-30.18251313 31.37888343 -31.40845674 26.52624688 -31.56640625 20.69140625 C-31.19445795 13.34260955 -28.84947817 8.47267516 -23.66015625 3.31640625 C-16.82312868 -2.13284477 -8.21789519 -2.81206101 0 0 Z " fill="#272729" transform="translate(426.5,72.85546875)"/>
<path d="M0 0 C5.05094939 3.10570772 8.14929679 6.3502749 10.23828125 11.890625 C10.23828125 15.520625 10.23828125 19.150625 10.23828125 22.890625 C-0.32171875 22.890625 -10.88171875 22.890625 -21.76171875 22.890625 C-17.77301574 30.81951818 -17.77301574 30.81951818 -12.76171875 32.890625 C-6.80047008 33.49179237 -6.80047008 33.49179237 -1.63671875 30.765625 C1.23828125 28.890625 1.23828125 28.890625 4.55078125 29.453125 C7.23828125 30.890625 7.23828125 30.890625 8.23828125 33.890625 C3.97075743 38.53469504 0.23423286 41.47355517 -6.12890625 42.359375 C-13.66037345 42.42647048 -19.08672647 42.13569362 -24.76171875 36.890625 C-30.6132975 30.57707951 -31.47054828 25.14701662 -31.19921875 16.66796875 C-30.44359408 10.14395929 -27.63036016 6.69950305 -23.07421875 2.23828125 C-16.65203178 -2.75829094 -7.38336739 -2.96587884 0 0 Z " fill="#252527" transform="translate(378.76171875,73.109375)"/>
<path d="M0 0 C3.3 0 6.6 0 10 0 C10.33 1.32 10.66 2.64 11 4 C11.7425 3.34 12.485 2.68 13.25 2 C18.01518397 -1.18813499 23.51110855 -0.61071457 29 0 C34.26986555 1.69388535 36.31451842 4.22581052 39 9 C40.17942085 12.53826255 40.11289189 15.34148726 40.09765625 19.07421875 C40.0962413 19.7580513 40.09482635 20.44188385 40.09336853 21.1464386 C40.08777876 23.32683722 40.07522822 25.50713251 40.0625 27.6875 C40.05748367 29.16731622 40.052921 30.64713406 40.04882812 32.12695312 C40.03781271 35.75133557 40.02055512 39.3756577 40 43 C36.7 43 33.4 43 30 43 C29.98541748 42.10692139 29.97083496 41.21384277 29.95581055 40.29370117 C29.89472923 36.97782722 29.82057522 33.66278101 29.73754883 30.34741211 C29.70430999 28.91295372 29.67627465 27.47836487 29.65356445 26.04370117 C29.61999729 23.98039193 29.56768587 21.91827697 29.51171875 19.85546875 C29.48553467 18.61434326 29.45935059 17.37321777 29.43237305 16.09448242 C29.24772984 13.0463948 29.24772984 13.0463948 27.67504883 11.1262207 C24.84494471 9.22339746 22.36387641 9.11402971 19 9 C15.85951416 10.12583455 13.73184137 10.89801399 11.85791016 13.71972656 C10.75654143 16.64709819 10.67440122 19.17115697 10.5859375 22.296875 C10.52792969 24.10478516 10.52792969 24.10478516 10.46875 25.94921875 C10.4378125 27.20347656 10.406875 28.45773438 10.375 29.75 C10.31699219 31.65458984 10.31699219 31.65458984 10.2578125 33.59765625 C10.16355778 36.7316257 10.07794834 39.86558949 10 43 C6.7 43 3.4 43 0 43 C0 28.81 0 14.62 0 0 Z " fill="#252526" transform="translate(301,72)"/>
<path d="M0 0 C3.63 0 7.26 0 11 0 C12.29266638 3.54130464 13.58416745 7.08302695 14.875 10.625 C15.23980469 11.62402344 15.60460937 12.62304688 15.98046875 13.65234375 C17.71555369 18.41594057 19.43611629 23.17665339 21 28 C23.25192728 22.64918164 25.4937629 17.2955413 27.6328125 11.8984375 C27.90206543 11.21918213 28.17131836 10.53992676 28.44873047 9.84008789 C28.9786936 8.49903249 29.50640124 7.15708333 30.03173828 5.81420898 C31.89109874 1.10890126 31.89109874 1.10890126 33 0 C34.68608966 -0.07205511 36.37500659 -0.08386068 38.0625 -0.0625 C38.98160156 -0.05347656 39.90070313 -0.04445313 40.84765625 -0.03515625 C41.55792969 -0.02355469 42.26820313 -0.01195313 43 0 C41.11216774 5.89388121 39.00818344 11.63143717 36.6015625 17.33203125 C36.28472504 18.08989426 35.96788757 18.84775726 35.64144897 19.62858582 C34.63900034 22.02450859 33.63211734 24.41853652 32.625 26.8125 C31.95803263 28.4041709 31.29136386 29.99596696 30.625 31.58789062 C29.34173534 34.65251516 28.05687592 37.71646205 26.77050781 40.77978516 C24.50272123 46.18196692 22.24958727 51.59021488 20 57 C16.7 57 13.4 57 10 57 C10.47555843 53.86131439 11.18986361 51.62027277 12.625 48.75 C15.53788158 40.8057775 12.38325075 33.62142324 9.1875 26.1875 C8.45838886 24.43204597 7.73181418 22.67553624 7.0078125 20.91796875 C6.48622559 19.65605713 6.48622559 19.65605713 5.95410156 18.36865234 C3.54190686 12.38013827 1.56557886 6.26231544 0 0 Z " fill="#232324" transform="translate(208,72)"/>
<path d="M0 0 C28 0 28 0 35 3 C35.495 3.99 35.495 3.99 36 5 C34.68 5.33 33.36 5.66 32 6 C32.66 6.99 33.32 7.98 34 9 C33.34 9.33 32.68 9.66 32 10 C32 9.34 32 8.68 32 8 C30.205625 8.2784375 30.205625 8.2784375 28.375 8.5625 C21.86732348 9.31218433 15.50559646 8.56845018 9 8 C9 15.26 9 22.52 9 30 C8.01 30 7.02 30 6 30 C6.33 39.24 6.66 48.48 7 58 C4.69 58 2.38 58 0 58 C0 38.86 0 19.72 0 0 Z " fill="#1D1D1F" transform="translate(113,55)"/>
<path d="M0 0 C5.72205457 4.95016451 7.90104144 13.11140235 8.4609375 20.4375 C8.95847373 33.35425313 6.46727867 44.86639189 -2 55 C-6.04226981 59.21698481 -9.07502442 62.17851292 -15 63 C-17.0625 60.1875 -17.0625 60.1875 -19 57 C-17.85799436 53.57398307 -16.79691945 52.75478349 -14.0625 50.5 C-11.49024808 48.37123979 -9.87739237 46.81608855 -8 44 C-7.34 44 -6.68 44 -6 44 C-5.87625 43.29875 -5.7525 42.5975 -5.625 41.875 C-5 39 -5 39 -3.984375 36.265625 C-0.89031479 26.00120303 -2.96983051 15.66161168 -7 6 C-4.69 6 -2.38 6 0 6 C0 4.02 0 2.04 0 0 Z " fill="#2BB8AC" transform="translate(85,58)"/>
<path d="M0 0 C3.3 0 6.6 0 10 0 C10 1.32 10 2.64 10 4 C11.5159375 3.01 11.5159375 3.01 13.0625 2 C16.78062891 -0.15499716 19.68915491 -0.35190572 24 0 C24 2.97 24 5.94 24 9 C22.07942708 9.13020833 20.15885417 9.26041667 18.23828125 9.390625 C15.03582412 10.26249815 13.3601478 11.67439446 11 14 C10.23958277 17.06166601 10.23958277 17.06166601 10.328125 20.48046875 C10.30363281 21.72634766 10.27914063 22.97222656 10.25390625 24.25585938 C10.25261719 25.55330078 10.25132812 26.85074219 10.25 28.1875 C10.21701201 30.76436968 10.18074075 33.34120018 10.140625 35.91796875 C10.13579102 37.06031982 10.13095703 38.2026709 10.12597656 39.37963867 C10 42 10 42 9 43 C6.03 43 3.06 43 0 43 C0 28.81 0 14.62 0 0 Z " fill="#2D2D2D" transform="translate(444,72)"/>
<path d="M0 0 C3.09772378 2.44018807 4.75183779 5.25551337 6 9 C6.37275294 14.0321647 6.1569119 17.00124492 3 21 C-0.12375845 24.26904954 -2.45306153 26.31906926 -7 26.5625 C-11.18396454 26.28196598 -13.80623004 24.73751711 -17 22 C-19.92039294 17.36349987 -19.75064066 12.29278262 -19 7 C-17.3610686 3.56637098 -14.95074054 1.60741757 -11.75 -0.4375 C-7.65722208 -1.27465912 -4.00689654 -1.26304347 0 0 Z " fill="#F7F7F7" transform="translate(187,81)"/>
<path d="M0 0 C4.07406178 3.12782808 6.27244394 6.33159786 8.4375 11 C8.4375 14.3 8.4375 17.6 8.4375 21 C-2.4525 21 -13.3425 21 -24.5625 21 C-23.5725 20.67 -22.5825 20.34 -21.5625 20 C-21.748125 19.360625 -21.93375 18.72125 -22.125 18.0625 C-22.269375 17.381875 -22.41375 16.70125 -22.5625 16 C-21.5625 15 -21.5625 15 -19.61303711 14.88647461 C-18.7803833 14.89171143 -17.94772949 14.89694824 -17.08984375 14.90234375 C-16.19072266 14.90556641 -15.29160156 14.90878906 -14.36523438 14.91210938 C-13.41970703 14.92048828 -12.47417969 14.92886719 -11.5 14.9375 C-10.55060547 14.94201172 -9.60121094 14.94652344 -8.62304688 14.95117188 C-6.26946935 14.9629989 -3.91601523 14.97947975 -1.5625 15 C-3.3782331 10.00393877 -3.3782331 10.00393877 -7.5625 7 C-10.6695204 6.47052649 -13.46360962 6.38910763 -16.5625 7 C-19.41734511 9.27110728 -19.41734511 9.27110728 -21.5625 12 C-23.69921875 13.1640625 -23.69921875 13.1640625 -25.5625 14 C-25.52858335 3.21450478 -25.52858335 3.21450478 -22.375 -0.75 C-15.88124629 -3.81605805 -6.20940538 -3.48909445 0 0 Z " fill="#232324" transform="translate(428.5625,74)"/>
<path d="M0 0 C3.07061968 1.71368609 5.40450726 3.80901452 7 7 C7.55601425 12.06793316 7.55831633 15.92187191 5.1875 20.5 C2.20083586 23.91333044 0.76275558 24.93747905 -3.8125 25.3125 C-7.84385771 25.19393066 -10.60934966 24.28671767 -14 22 C-17.20258815 18.3704001 -17.51906333 14.89288094 -17.35546875 10.21875 C-16.79697545 6.73276986 -15.29872629 4.61799384 -13 2 C-8.81393699 -0.53966166 -4.7785824 -0.8350118 0 0 Z " fill="#F8F8F8" transform="translate(278,81)"/>
<path d="M0 0 C14.05599104 -0.58566629 14.05599104 -0.58566629 21 4 C23.47241989 7.70862983 23.66668695 10.69905615 23 15 C20.91823629 19.01483002 19.2671491 21.46382632 15 23 C12.36675429 23.14006626 9.8742956 23.1889934 7.25 23.125 C4.8575 23.08375 2.465 23.0425 0 23 C0 15.41 0 7.82 0 0 Z " fill="#F7F7F7" transform="translate(123,63)"/>
<path d="M0 0 C0.80058838 0.00016113 1.60117676 0.00032227 2.42602539 0.00048828 C10.71392656 0.15772255 18.62169272 1.70612848 25.625 6.375 C25.625 7.035 25.625 7.695 25.625 8.375 C26.2025 8.6225 26.78 8.87 27.375 9.125 C29.95439979 10.55799988 31.68621592 12.15924676 33.625 14.375 C33.625 15.035 33.625 15.695 33.625 16.375 C34.615 16.705 35.605 17.035 36.625 17.375 C37.12 20.84 37.12 20.84 37.625 24.375 C35.08443431 25.35214065 33.57687239 25.36624953 30.875 24.875 C26.45751007 22.83615849 22.93589865 19.93799753 19.625 16.375 C19.625 15.715 19.625 15.055 19.625 14.375 C11.89513426 12.12399514 4.60901673 10.97976316 -3.44140625 10.68359375 C-6.375 10.375 -6.375 10.375 -9.375 8.375 C-6.405 7.385 -3.435 6.395 -0.375 5.375 C-0.375 4.715 -0.375 4.055 -0.375 3.375 C-4.005 3.045 -7.635 2.715 -11.375 2.375 C-7.56665733 -0.16389511 -4.42032964 -0.00819845 0 0 Z " fill="#DFAC1C" transform="translate(48.375,39.625)"/>
<path d="M0 0 C0.76183594 0.41572266 0.76183594 0.41572266 1.5390625 0.83984375 C2.57160156 1.38318359 2.57160156 1.38318359 3.625 1.9375 C4.29789063 2.29714844 4.97078125 2.65679687 5.6640625 3.02734375 C15.23307472 7.01176522 26.65212447 5.80252564 36 2 C38.475 6.455 38.475 6.455 41 11 C30.27508375 16.63512549 18.09024522 18.24217758 6.22265625 14.953125 C-1.03994845 11.96005155 -1.03994845 11.96005155 -4 9 C-2.35 8.34 -0.7 7.68 1 7 C1 4.37886292 0.68707555 2.49064888 0 0 Z " fill="#E04F7A" transform="translate(30,111)"/>
<path d="M0 0 C3.4097246 1.59242858 6.19235026 3.50431135 9 6 C8.67 6.639375 8.34 7.27875 8 7.9375 C6.92728775 9.76794567 6.92728775 9.76794567 7 11 C6.67 11.99 6.34 12.98 6 14 C6 13.34 6 12.68 6 12 C5.01 12.495 5.01 12.495 4 13 C4 14.32 4 15.64 4 17 C-3.26 17 -10.52 17 -18 17 C-18 15.02 -18 13.04 -18 11 C-19.03898745 8.32831798 -19.95674479 7.04325521 -22 5 C-15.43101095 -0.71216439 -8.45000691 -1.41314109 0 0 Z " fill="#272728" transform="translate(376,72)"/>
<path d="M0 0 C2.25 0 2.25 0 5 1 C6.046875 2.77734375 6.046875 2.77734375 7 4.9375 C8.46155308 8.24423669 8.46155308 8.24423669 11.25 10.5 C16.84901704 11.5180031 20.3867169 12.09703251 25.125 8.875 C28 7 28 7 31.3125 7.5625 C34 9 34 9 35 12 C30.73247618 16.64407004 26.99595161 19.58293017 20.6328125 20.46875 C13.11728834 20.53570344 7.65437309 20.256578 2 15 C-0.5 12.1875 -0.5 12.1875 -2 10 C-1.67 9.278125 -1.34 8.55625 -1 7.8125 C0.00603529 4.98302573 0.16977402 2.97104534 0 0 Z " fill="#202021" transform="translate(400,95)"/>
<path d="M0 0 C2.64 0 5.28 0 8 0 C8 1.65 8 3.3 8 5 C7.34 4.34 6.68 3.68 6 3 C6 5.64 6 8.28 6 11 C5.34 11 4.68 11 4 11 C4 11.99 4 12.98 4 14 C4.66 14 5.32 14 6 14 C6 13.34 6 12.68 6 12 C6.66 12 7.32 12 8 12 C9.07917226 15.23751678 9.11425601 17.57751771 9.09765625 20.98046875 C9.09443359 22.14384766 9.09121094 23.30722656 9.08789062 24.50585938 C9.07951172 25.72080078 9.07113281 26.93574219 9.0625 28.1875 C9.05798828 29.41404297 9.05347656 30.64058594 9.04882812 31.90429688 C9.03703065 34.93624668 9.02056921 37.96809906 9 41 C6.03 41 3.06 41 0 41 C0 27.47 0 13.94 0 0 Z " fill="#212122" transform="translate(302,73)"/>
<path d="M0 0 C0 1.32 0 2.64 0 4 C-0.763125 4.268125 -1.52625 4.53625 -2.3125 4.8125 C-4.96139115 5.77921706 -4.96139115 5.77921706 -6.36328125 7.421875 C-8.36060807 9.34769848 -10.36183683 10.27258394 -12.875 11.4375 C-17.58951009 13.71915795 -21.29133174 16.29133174 -25 20 C-25 18.35 -25 16.7 -25 15 C-24.01 15 -23.02 15 -22 15 C-21.67 13.35 -21.34 11.7 -21 10 C-24.48809191 10.77030122 -24.48809191 10.77030122 -28 12 C-28.33 12.99 -28.66 13.98 -29 15 C-29.66 15 -30.32 15 -31 15 C-31.33 15.99 -31.66 16.98 -32 18 C-32.66 18 -33.32 18 -34 18 C-34 19.32 -34 20.64 -34 22 C-34.99 22.66 -35.98 23.32 -37 24 C-41.38400553 35.07728147 -40.81319411 46.64675233 -38 58 C-43.27148121 51.81173945 -42.55251719 43.72022903 -42.17480469 35.96777344 C-41.32251738 26.3735895 -37.43773932 18.95603189 -31 12 C-30.4534375 11.36320312 -29.906875 10.72640625 -29.34375 10.0703125 C-20.88898259 0.77804454 -12.24781197 -0.79416648 0 0 Z " fill="#F27008" transform="translate(48,42)"/>
<path d="M0 0 C0.99 0.66 1.98 1.32 3 2 C0.47645602 12.57211985 -2.53834246 20.7627062 -12 27 C-14.75390625 27.6953125 -14.75390625 27.6953125 -17 28 C-19.0625 25.1875 -19.0625 25.1875 -21 22 C-19.85799436 18.57398307 -18.79691945 17.75478349 -16.0625 15.5 C-13.49024808 13.37123979 -11.87739237 11.81608855 -10 9 C-9.34 9 -8.68 9 -8 9 C-7.87625 8.236875 -7.7525 7.47375 -7.625 6.6875 C-7 4 -7 4 -5 1 C-3.68 1.33 -2.36 1.66 -1 2 C-0.67 1.34 -0.34 0.68 0 0 Z " fill="#098BE5" transform="translate(87,93)"/>
<path d="M0 0 C2.2477975 2.05233685 3.0022242 3.00667261 4 6 C4.08358958 8.21089945 4.10731764 10.42426078 4.09765625 12.63671875 C4.09443359 13.93544922 4.09121094 15.23417969 4.08789062 16.57226562 C4.07953531 17.94401108 4.07107037 19.31575587 4.0625 20.6875 C4.05748335 22.07096195 4.05292073 23.45442563 4.04882812 24.83789062 C4.03702529 28.22530395 4.02056019 31.61263033 4 35 C1.36 35 -1.28 35 -4 35 C-4 26.09 -4 17.18 -4 8 C-3.34 7.67 -2.68 7.34 -2 7 C-2 7.99 -2 8.98 -2 10 C-1.855625 9.195625 -1.71125 8.39125 -1.5625 7.5625 C-1 5 -1 5 0 4 C0 2.68 0 1.36 0 0 Z " fill="#222222" transform="translate(337,78)"/>
<path d="M0 0 C8.58 0 17.16 0 26 0 C26 3 26 3 25 6 C21.46876595 9.12615483 17.64352593 11.32542969 12.875 11.5 C8.796201 10.97370336 6.36943197 10.35076649 3 8 C0 3.1 0 3.1 0 0 Z " fill="#F1F1F3" transform="translate(405,96)"/>
<path d="M0 0 C8.58 0 17.16 0 26 0 C25.01 0.99 24.02 1.98 23 3 C23 3.66 23 4.32 23 5 C23.66 5.33 24.32 5.66 25 6 C19.53959281 10.06626068 15.86009943 11.99582089 9 11 C4.59011499 8.75345481 2.12169201 6.47912757 0 2 C0 1.34 0 0.68 0 0 Z " fill="#F3F3F4" transform="translate(357,96)"/>
<path d="M0 0 C0.7425 0.0825 1.485 0.165 2.25 0.25 C1.92 1.9 1.59 3.55 1.25 5.25 C0.26 5.25 -0.73 5.25 -1.75 5.25 C-1.75 6.9 -1.75 8.55 -1.75 10.25 C-2.74 10.25 -3.73 10.25 -4.75 10.25 C-5.74 11.735 -5.74 11.735 -6.75 13.25 C-7.74 13.25 -8.73 13.25 -9.75 13.25 C-9.71519531 13.83007812 -9.68039062 14.41015625 -9.64453125 15.0078125 C-9.45522986 20.47050984 -10.29030224 23.33060448 -12.75 28.25 C-13.60269181 32.55996949 -14.20039494 36.89195514 -14.75 41.25 C-15.41 41.25 -16.07 41.25 -16.75 41.25 C-19.50518855 32.98443435 -18.20240836 22.15962213 -14.75 14.25 C-12.640625 12.9140625 -12.640625 12.9140625 -10.75 12.25 C-10.75 10.93 -10.75 9.61 -10.75 8.25 C-9 6.25 -9 6.25 -6.75 4.25 C-6.110625 3.5075 -5.47125 2.765 -4.8125 2 C-2.75 0.25 -2.75 0.25 0 0 Z " fill="#FB4206" transform="translate(24.75,51.75)"/>
<path d="M0 0 C3.3 0 6.6 0 10 0 C10.33 1.32 10.66 2.64 11 4 C12.36125 3.01 12.36125 3.01 13.75 2 C17 0 17 0 21 0 C21 0.99 21 1.98 21 3 C19.68 3.33 18.36 3.66 17 4 C17.66 4.66 18.32 5.32 19 6 C19 6.99 19 7.98 19 9 C17.576875 9.61875 17.576875 9.61875 16.125 10.25 C12.99283376 12.0040131 12.13499394 12.70851757 11 16 C10.34 16 9.68 16 9 16 C9 15.01 9 14.02 9 13 C8.34 13 7.68 13 7 13 C7 13.66 7 14.32 7 15 C6.01 15.33 5.02 15.66 4 16 C4 11 4 11 6 9 C6.144375 7.845 6.28875 6.69 6.4375 5.5 C6.623125 4.345 6.80875 3.19 7 2 C7.66 1.67 8.32 1.34 9 1 C6.36 1 3.72 1 1 1 C1 14.53 1 28.06 1 42 C3.97 42 6.94 42 10 42 C10 42.33 10 42.66 10 43 C6.7 43 3.4 43 0 43 C0 28.81 0 14.62 0 0 Z " fill="#565656" transform="translate(301,72)"/>
<path d="M0 0 C0.33 0 0.66 0 1 0 C1.08636719 0.89460938 1.17273438 1.78921875 1.26171875 2.7109375 C2.54923231 13.79064138 4.95393319 21.9949248 13.546875 29.4296875 C15.23995227 31.25930326 15.46009813 32.61043431 16 35 C16.66 35.33 17.32 35.66 18 36 C16 39 16 39 12.734375 40 C9 40 9 40 6.015625 37.9375 C5.07262996 36.9786563 4.15093261 35.99846948 3.25 35 C2.78207031 34.52949219 2.31414063 34.05898437 1.83203125 33.57421875 C-1.58310886 29.98493552 -3.29092833 26.55752445 -5 22 C-3.68 22 -2.36 22 -1 22 C-1 23.98 -1 25.96 -1 28 C0.32 28.33 1.64 28.66 3 29 C3.33 30.32 3.66 31.64 4 33 C5.98491642 32.73323796 5.98491642 32.73323796 8 32 C8.33 31.01 8.66 30.02 9 29 C7.8194428 27.29960019 7.8194428 27.29960019 6.125 25.6875 C3.24565795 22.55488249 2.21243799 20.35497885 2 16 C1.34 16 0.68 16 0 16 C0 10.72 0 5.44 0 0 Z " fill="#E44C45" transform="translate(15,80)"/>
<path d="M0 0 C0.99 0.99 1.98 1.98 3 3 C2.01 3 1.02 3 0 3 C0 2.01 0 1.02 0 0 Z M-3 1 C-1.35 2.65 0.3 4.3 2 6 C0.86500606 9.29148243 0.00716624 9.9959869 -3.125 11.75 C-4.548125 12.36875 -4.548125 12.36875 -6 13 C-5.01 14.485 -5.01 14.485 -4 16 C-12.25 16 -20.5 16 -29 16 C-28 13 -28 13 -25 11 C-24.67 10.67 -24.34 10.34 -24 10 C-22.5112814 9.91330568 -21.018555 9.89296506 -19.52734375 9.90234375 C-18.62822266 9.90556641 -17.72910156 9.90878906 -16.80273438 9.91210938 C-15.85720703 9.92048828 -14.91167969 9.92886719 -13.9375 9.9375 C-12.98810547 9.94201172 -12.03871094 9.94652344 -11.06054688 9.95117188 C-8.70696935 9.9629989 -6.35351523 9.97947975 -4 10 C-4.33 8.68 -4.66 7.36 -5 6 C-4.01 5.34 -3.02 4.68 -2 4 C-2.66 3.34 -3.32 2.68 -4 2 C-3.67 1.67 -3.34 1.34 -3 1 Z " fill="#1B1B1D" transform="translate(384,79)"/>
<path d="M0 0 C2.00401011 0.30830925 4.00291344 0.64963394 6 1 C9.66819871 1.09586764 13.33129574 1.05875149 17 1 C17.33 2.32 17.66 3.64 18 5 C17.34 5 16.68 5 16 5 C16.33 5.99 16.66 6.98 17 8 C13.57670149 10.28219901 12.15862332 10.29741163 8.125 10.3125 C7.09632813 10.32925781 6.06765625 10.34601563 5.0078125 10.36328125 C1.6446338 9.95707915 -0.2479883 8.92437719 -3 7 C-2.25 2.25 -2.25 2.25 0 0 Z " fill="#1A1A1B" transform="translate(170,105)"/>
<path d="M0 0 C1.31484375 -0.00193359 1.31484375 -0.00193359 2.65625 -0.00390625 C3.57921875 -0.00003906 4.5021875 0.00382812 5.453125 0.0078125 C6.360625 0.00394531 7.268125 0.00007813 8.203125 -0.00390625 C9.52570313 -0.00197266 9.52570313 -0.00197266 10.875 0 C12.0830127 0.00169189 12.0830127 0.00169189 13.31542969 0.00341797 C15.85659618 0.14112945 18.22235886 0.57791878 20.703125 1.1328125 C20.373125 2.1228125 20.043125 3.1128125 19.703125 4.1328125 C20.363125 4.4628125 21.023125 4.7928125 21.703125 5.1328125 C22.033125 4.1428125 22.363125 3.1528125 22.703125 2.1328125 C22.703125 3.1228125 22.703125 4.1128125 22.703125 5.1328125 C23.363125 5.1328125 24.023125 5.1328125 24.703125 5.1328125 C25.033125 4.1428125 25.363125 3.1528125 25.703125 2.1328125 C25.703125 3.4528125 25.703125 4.7728125 25.703125 6.1328125 C14.813125 6.1328125 3.923125 6.1328125 -7.296875 6.1328125 C-6.306875 5.8028125 -5.316875 5.4728125 -4.296875 5.1328125 C-4.5753125 4.17375 -4.5753125 4.17375 -4.859375 3.1953125 C-5.00375 2.5146875 -5.148125 1.8340625 -5.296875 1.1328125 C-3.72854508 -0.43551742 -2.17454222 0.00306274 0 0 Z " fill="#1B1B1D" transform="translate(411.296875,88.8671875)"/>
<path d="M0 0 C3.06090589 0.49996648 4.84908314 1.25768921 7.15234375 3.3515625 C7.81234375 5.3315625 8.47234375 7.3115625 9.15234375 9.3515625 C1.89234375 9.3515625 -5.36765625 9.3515625 -12.84765625 9.3515625 C-11.01548134 2.02286285 -7.27403252 -0.45992219 0 0 Z " fill="#E8E8E9" transform="translate(370.84765625,79.6484375)"/>
<path d="M0 0 C4.35338248 3.75973941 5.34746356 8.45344029 6 14 C6.07251081 16.6732319 6.04612508 19.32474561 6 22 C3.36 22 0.72 22 -2 22 C-2.19335938 21.34773438 -2.38671875 20.69546875 -2.5859375 20.0234375 C-3.98640448 15.3228602 -5.41208726 10.64159109 -7 6 C-4.69 6 -2.38 6 0 6 C0 4.02 0 2.04 0 0 Z " fill="#24D784" transform="translate(85,58)"/>
<path d="M0 0 C2.7007102 1.39444833 3.92174574 2.65530289 6 5 C6 6.32 6 7.64 6 9 C-0.93 9 -7.86 9 -15 9 C-14 4 -14 4 -12 1.6875 C-7.91082651 -0.61266009 -4.59009294 -0.94217697 0 0 Z " fill="#FAFAFB" transform="translate(421,80)"/>
<path d="M0 0 C2.41396234 2.89675481 4.38617243 5.59787701 6 9 C0.02667877 12.4753869 -4.11509775 13.57374185 -11 13 C-11.144375 12.38125 -11.28875 11.7625 -11.4375 11.125 C-11.93152225 8.96741678 -11.93152225 8.96741678 -13 7 C-12.67 6.01 -12.34 5.02 -12 4 C-9.27734375 2.83203125 -9.27734375 2.83203125 -5.9375 1.8125 C-4.83277344 1.46832031 -3.72804688 1.12414062 -2.58984375 0.76953125 C-1.73519531 0.51558594 -0.88054687 0.26164062 0 0 Z " fill="#A362D9" transform="translate(65,113)"/>
<path d="M0 0 C2.97 0.495 2.97 0.495 6 1 C6 2.32 6 3.64 6 5 C6.66 5 7.32 5 8 5 C8 5.66 8 6.32 8 7 C8.90878906 7.33837891 8.90878906 7.33837891 9.8359375 7.68359375 C14.92308329 10.77812106 16.84881229 18.74957567 18.25 24.3125 C19.42207144 30.44075924 19.88871557 36.76807196 20 43 C19.67 43.33 19.34 43.66 19 44 C18.86898863 45.43530239 18.76992531 46.87358964 18.6875 48.3125 C18.25127458 52.64067408 17.34601232 54.13198944 14 57 C13.27817396 58.20932796 12.59240508 59.44066149 11.9375 60.6875 C10 64 10 64 7 65 C8.08097604 62.0273159 9.3113059 59.47780945 10.9375 56.75 C16.97786554 46.09452371 17.89295747 34.12709741 15.12109375 22.2265625 C12.90766496 15.95883344 10.06915598 11.18186746 5.35546875 6.48828125 C4 5 4 5 4 3 C2.68 2.34 1.36 1.68 0 1 C0 0.67 0 0.34 0 0 Z " fill="#CCF9F4" transform="translate(76,48)"/>
<path d="M0 0 C0.66 0 1.32 0 2 0 C2.33 0.66 2.66 1.32 3 2 C3.99 1.34 4.98 0.68 6 0 C5.814375 1.0725 5.62875 2.145 5.4375 3.25 C5.06151957 6.47268936 5.08506734 8.02646885 6 11 C5.67 11.33 5.34 11.66 5 12 C5 13.32 5 14.64 5 16 C5.66 16.33 6.32 16.66 7 17 C6.195625 17.144375 5.39125 17.28875 4.5625 17.4375 C2.07896294 17.74135249 2.07896294 17.74135249 1 19 C3.64 19 6.28 19 9 19 C9 19.33 9 19.66 9 20 C6.03 20 3.06 20 0 20 C-0.33 18.35 -0.66 16.7 -1 15 C-1.99 15.99 -2.98 16.98 -4 18 C-4.99 17.67 -5.98 17.34 -7 17 C-7 16.34 -7 15.68 -7 15 C-6.34 15 -5.68 15 -5 15 C-5.34786708 13.02463255 -5.34786708 13.02463255 -6 11 C-6.66 10.67 -7.32 10.34 -8 10 C-7.05125 9.278125 -6.1025 8.55625 -5.125 7.8125 C-2.32587438 5.50190102 -1.01482442 3.55188548 0 0 Z " fill="#232325" transform="translate(193,95)"/>
<path d="M0 0 C1.32 0 2.64 0 4 0 C4 13.53 4 27.06 4 41 C1.36 41 -1.28 41 -4 41 C-4 39.35 -4 37.7 -4 36 C-2.68 36.66 -1.36 37.32 0 38 C-0.165 37.071875 -0.33 36.14375 -0.5 35.1875 C-1.18008742 30.85194271 -0.76336272 27.29391529 0 23 C-0.99 23.66 -1.98 24.32 -3 25 C-1.25 20.125 -1.25 20.125 1 19 C1.69227032 16.19019327 1.69227032 16.19019327 2.125 12.9375 C2.29257813 11.83277344 2.46015625 10.72804688 2.6328125 9.58984375 C2.75398437 8.73519531 2.87515625 7.88054687 3 7 C2.34 7 1.68 7 1 7 C0.67 4.69 0.34 2.38 0 0 Z " fill="#1A1A1B" transform="translate(198,73)"/>
<path d="M0 0 C1.34620929 4.36054749 0.81962145 7.83960337 -1 12 C-3.45048481 13.96038785 -4.84839329 15 -8 15 C-8 16.32 -8 17.64 -8 19 C-6.02 19.33 -4.04 19.66 -2 20 C-2 19.01 -2 18.02 -2 17 C-1.01 17 -0.02 17 1 17 C1 16.01 1 15.02 1 14 C1.99 14 2.98 14 4 14 C2.67105527 19.48189702 -1.46116062 22.9577509 -6 26 C-8.76171875 26.703125 -8.76171875 26.703125 -11 27 C-13.0625 24.1875 -13.0625 24.1875 -15 21 C-13.85799436 17.57398307 -12.79691945 16.75478349 -10.0625 14.5 C-7.49024808 12.37123979 -5.87739237 10.81608855 -4 8 C-3.34 8 -2.68 8 -2 8 C-1.855625 7.236875 -1.71125 6.47375 -1.5625 5.6875 C-1 3 -1 3 0 0 Z " fill="#5379E5" transform="translate(81,94)"/>
<path d="M0 0 C4.08048943 0.83464557 5.72251625 1.65679642 8.375 4.9375 C10.8206497 9.70752752 10.33966782 14.78232483 10 20 C9.67 20 9.34 20 9 20 C8.67 17.69 8.34 15.38 8 13 C7.34 13 6.68 13 6 13 C5.67 13.66 5.34 14.32 5 15 C4.01 14.67 3.02 14.34 2 14 C1.34 15.32 0.68 16.64 0 18 C-0.12375 16.39125 -0.12375 16.39125 -0.25 14.75 C-1.0671179 10.66441052 -1.85744022 9.57118528 -5 7 C-5.66 6.34 -6.32 5.68 -7 5 C-5.02 4.67 -3.04 4.34 -1 4 C-1 3.01 -1 2.02 -1 1 C-0.67 0.67 -0.34 0.34 0 0 Z " fill="#29292A" transform="translate(146,59)"/>
<path d="M0 0 C0.99 0 1.98 0 3 0 C2.71253906 0.5465625 2.42507813 1.093125 2.12890625 1.65625 C0.89139156 4.22548466 -0.09364074 6.81813862 -1.0625 9.5 C-1.57490234 10.90765625 -1.57490234 10.90765625 -2.09765625 12.34375 C-5.51915969 22.41570819 -5.08640853 33.22575257 -1 43 C-0.42587572 44.68358065 0.13681416 46.37110779 0.6875 48.0625 C0.93886719 48.81660156 1.19023437 49.57070312 1.44921875 50.34765625 C1.63097656 50.89292969 1.81273437 51.43820313 2 52 C0.68 52 -0.64 52 -2 52 C-2.19335938 51.19175781 -2.38671875 50.38351563 -2.5859375 49.55078125 C-2.84632812 48.48214844 -3.10671875 47.41351563 -3.375 46.3125 C-3.63023438 45.25675781 -3.88546875 44.20101562 -4.1484375 43.11328125 C-4.87844647 40.08078372 -4.87844647 40.08078372 -6.0859375 37.73046875 C-7.49337583 33.52619784 -7.28827535 29.40166566 -7.25 25 C-7.25773438 24.11054687 -7.26546875 23.22109375 -7.2734375 22.3046875 C-7.25984399 17.75086212 -7.14263537 14.11764961 -5 10 C-4.57460937 9.11699219 -4.14921875 8.23398438 -3.7109375 7.32421875 C-3.27007812 6.45410156 -2.82921875 5.58398438 -2.375 4.6875 C-1.70597656 3.36298828 -1.70597656 3.36298828 -1.0234375 2.01171875 C-0.68570312 1.34785156 -0.34796875 0.68398438 0 0 Z " fill="#FEF6DE" transform="translate(11,57)"/>
<path d="M0 0 C1.32 1.65 2.64 3.3 4 5 C2.66666667 8.33333333 1.33333333 11.66666667 0 15 C0.99 14.34 1.98 13.68 3 13 C3.66 14.65 4.32 16.3 5 18 C-1.84592145 23.91238671 -1.84592145 23.91238671 -5 25 C-5.99 24.67 -6.98 24.34 -8 24 C-7.34 23.67 -6.68 23.34 -6 23 C-6.33 21.68 -6.66 20.36 -7 19 C-6.01 19 -5.02 19 -4 19 C-4.99 18.67 -5.98 18.34 -7 18 C-6.60483617 15.23385319 -6.24624267 14.20652611 -4.0625 12.375 C-0.92766235 8.76518695 -0.67236634 4.63578901 0 0 Z " fill="#232325" transform="translate(285,90)"/>
<path d="M0 0 C0.99 0.33 1.98 0.66 3 1 C4 3.5 4 3.5 5 6 C5.99 6.33 6.98 6.66 8 7 C8.33 9.31 8.66 11.62 9 14 C6.45943431 14.97714065 4.95187239 14.99124953 2.25 14.5 C-2.21906632 12.43735401 -5.4533238 9.36664187 -9 6 C-6.92446352 5.4465236 -5.15634036 5 -3 5 C-1.65117592 4.36525925 -0.3153341 3.70151152 1 3 C0.67 2.01 0.34 1.02 0 0 Z " fill="#ADD841" transform="translate(77,50)"/>
<path d="M0 0 C2.64 0 5.28 0 8 0 C8 1.65 8 3.3 8 5 C7.34 4.34 6.68 3.68 6 3 C6 5.64 6 8.28 6 11 C5.34 11 4.68 11 4 11 C4 11.99 4 12.98 4 14 C4.66 14.33 5.32 14.66 6 15 C4.625 17 4.625 17 3 19 C2.34 19 1.68 19 1 19 C1.33 26.26 1.66 33.52 2 41 C1.34 41 0.68 41 0 41 C0 27.47 0 13.94 0 0 Z " fill="#171717" transform="translate(302,73)"/>
<path d="M0 0 C6.75 1.875 6.75 1.875 9 3 C9 3.66 9 4.32 9 5 C9.99 5.33 10.98 5.66 12 6 C12 6.99 12 7.98 12 9 C12.66 9.33 13.32 9.66 14 10 C12.68 11.32 11.36 12.64 10 14 C4.76727367 12.36041242 -0.15196636 10.61047965 -5 8 C-1.25 6.875 -1.25 6.875 1 8 C1 7.01 1 6.02 1 5 C1.66 5 2.32 5 3 5 C3 4.01 3 3.02 3 2 C2.01 2 1.02 2 0 2 C0 1.34 0 0.68 0 0 Z " fill="#C3D620" transform="translate(65,43)"/>
<path d="M0 0 C4.29 0.33 8.58 0.66 13 1 C13.33 2.65 13.66 4.3 14 6 C14.75150023 9.27773504 14.75150023 9.27773504 18 11 C15.06225537 11.05390357 12.12549768 11.0936255 9.1875 11.125 C8.35412109 11.14175781 7.52074219 11.15851563 6.66210938 11.17578125 C5.85966797 11.18222656 5.05722656 11.18867187 4.23046875 11.1953125 C3.12288208 11.21102295 3.12288208 11.21102295 1.99291992 11.22705078 C0 11 0 11 -3 9 C-0.36 9 2.28 9 5 9 C3.12297673 4.10437307 3.12297673 4.10437307 0 0 Z " fill="#D45FC0" transform="translate(40,116)"/>
<path d="M0 0 C0.33 0 0.66 0 1 0 C1.19491452 1.45736087 1.38069358 2.91594593 1.5625 4.375 C1.66691406 5.18710938 1.77132813 5.99921875 1.87890625 6.8359375 C2 9 2 9 1 11 C0 11 -1 11 -2 11 C-2.33 19.25 -2.66 27.5 -3 36 C-0.36 36 2.28 36 5 36 C5 36.66 5 37.32 5 38 C1.7 38 -1.6 38 -5 38 C-5 28.1 -5 18.2 -5 8 C-4.01 7.67 -3.02 7.34 -2 7 C-1.855625 6.21625 -1.71125 5.4325 -1.5625 4.625 C-1 2 -1 2 0 0 Z " fill="#393939" transform="translate(336,77)"/>
<path d="M0 0 C0.74975098 0.00789551 1.49950195 0.01579102 2.27197266 0.02392578 C18.50060878 0.27123919 18.50060878 0.27123919 22.875 3.1875 C22.875 3.8475 22.875 4.5075 22.875 5.1875 C24.855 5.8475 26.835 6.5075 28.875 7.1875 C28.875 8.1775 28.875 9.1675 28.875 10.1875 C28.215 10.1875 27.555 10.1875 26.875 10.1875 C26.875 9.5275 26.875 8.8675 26.875 8.1875 C25.89660156 7.89746094 25.89660156 7.89746094 24.8984375 7.6015625 C24.02445313 7.34117188 23.15046875 7.08078125 22.25 6.8125 C21.39148438 6.55726562 20.53296875 6.30203125 19.6484375 6.0390625 C16.875 5.1875 16.875 5.1875 14.09375 4.1015625 C9.98588292 2.93500801 6.24633882 2.89496572 2 2.9375 C1.23558594 2.92976563 0.47117187 2.92203125 -0.31640625 2.9140625 C-5.56092831 2.93187072 -10.08400128 3.74065299 -15.125 5.1875 C-11.371574 -0.442639 -6.30886403 -0.11353432 0 0 Z " fill="#FBFDCF" transform="translate(47.125,37.8125)"/>
<path d="M0 0 C0 0.66 0 1.32 0 2 C0.99 2 1.98 2 3 2 C3 2.99 3 3.98 3 5 C2.34 5 1.68 5 1 5 C1 5.99 1 6.98 1 8 C-6.3905476 8.14715692 -13.64424835 7.70776992 -21 7 C-21 6.67 -21 6.34 -21 6 C-17.7 5.67 -14.4 5.34 -11 5 C-11.33 4.34 -11.66 3.68 -12 3 C-11.01 3 -10.02 3 -9 3 C-9 2.01 -9 1.02 -9 0 C-3.375 -1.125 -3.375 -1.125 0 0 Z " fill="#E6C320" transform="translate(65,43)"/>
<path d="M0 0 C1.37478516 0.01740234 1.37478516 0.01740234 2.77734375 0.03515625 C3.69644531 0.04417969 4.61554688 0.05320312 5.5625 0.0625 C6.27277344 0.07410156 6.98304688 0.08570312 7.71484375 0.09765625 C6.38151042 4.09765625 5.04817708 8.09765625 3.71484375 12.09765625 C2.39484375 11.43765625 1.07484375 10.77765625 -0.28515625 10.09765625 C-0.28515625 9.43765625 -0.28515625 8.77765625 -0.28515625 8.09765625 C-0.94515625 8.75765625 -1.60515625 9.41765625 -2.28515625 10.09765625 C-3.27515625 9.43765625 -4.26515625 8.77765625 -5.28515625 8.09765625 C-3.11298644 0.13303361 -3.11298644 0.13303361 0 0 Z " fill="#202021" transform="translate(243.28515625,71.90234375)"/>
<path d="M0 0 C0 0.66 0 1.32 0 2 C0.99 2.33 1.98 2.66 3 3 C-1.01822258 4.33940753 -3.61206522 2.96934922 -7.4375 1.625 C-14.29836977 -0.67264087 -20.72855027 -1.84851146 -28 -2 C-28 -1.34 -28 -0.68 -28 0 C-30.64 0.33 -33.28 0.66 -36 1 C-34.64154404 -1.71691191 -32.73992793 -2.2724173 -30.01025391 -3.37597656 C-20.58575845 -6.30153041 -8.67745985 -4.33872993 0 0 Z " fill="#FBFCE2" transform="translate(68,54)"/>
<path d="M0 0 C2.90413646 2.90413646 2.96053231 5.07018756 3.1328125 9.12890625 C3.13023438 10.26199219 3.12765625 11.39507812 3.125 12.5625 C3.12757812 13.69816406 3.13015625 14.83382812 3.1328125 16.00390625 C3 19 3 19 2 22 C1.21625 21.814375 0.4325 21.62875 -0.375 21.4375 C-2.97089775 20.74037734 -2.97089775 20.74037734 -5 22 C-5 18.7 -5 15.4 -5 12 C-3.02 12 -1.04 12 1 12 C0.67 8.04 0.34 4.08 0 0 Z " fill="#14D393" transform="translate(90,68)"/>
<path d="M0 0 C0.928125 0.45375 1.85625 0.9075 2.8125 1.375 C3.1425 2.365 3.4725 3.355 3.8125 4.375 C0.45121906 8.03286455 -2.53247737 10.5534694 -7.1875 12.375 C-8.1775 12.045 -9.1675 11.715 -10.1875 11.375 C-9.5275 11.045 -8.8675 10.715 -8.1875 10.375 C-8.06375 9.09625 -7.94 7.8175 -7.8125 6.5 C-7.50379094 3.59080953 -7.3669638 2.60099145 -5.5 0.25 C-3.1875 -0.625 -3.1875 -0.625 0 0 Z " fill="#2A2A2B" transform="translate(431.1875,102.625)"/>
<path d="M0 0 C0 2.97 0 5.94 0 9 C-2.64 9 -5.28 9 -8 9 C-7.67 8.01 -7.34 7.02 -7 6 C-8.65 6.33 -10.3 6.66 -12 7 C-12 5.68 -12 4.36 -12 3 C-8.1554435 -0.26204794 -4.9053984 -0.28855285 0 0 Z " fill="#212121" transform="translate(468,72)"/>
<path d="M0 0 C0.57234375 0.21527344 1.1446875 0.43054688 1.734375 0.65234375 C0.744375 1.14734375 0.744375 1.14734375 -0.265625 1.65234375 C1.054375 1.98234375 2.374375 2.31234375 3.734375 2.65234375 C3.734375 3.64234375 3.734375 4.63234375 3.734375 5.65234375 C4.724375 6.31234375 5.714375 6.97234375 6.734375 7.65234375 C5.6825 7.73484375 4.630625 7.81734375 3.546875 7.90234375 C-0.53609709 8.70555137 -2.2778977 9.84569084 -5.265625 12.65234375 C-5.719375 11.70359375 -6.173125 10.75484375 -6.640625 9.77734375 C-8.06800754 6.64920696 -8.06800754 6.64920696 -10.265625 4.65234375 C-9.02618224 3.78292881 -7.77355441 2.93228918 -6.515625 2.08984375 C-5.81953125 1.61417969 -5.1234375 1.13851562 -4.40625 0.6484375 C-2.265625 -0.34765625 -2.265625 -0.34765625 0 0 Z " fill="#282828" transform="translate(364.265625,72.34765625)"/>
<path d="M0 0 C-0.99 1.485 -0.99 1.485 -2 3 C-0.68 3.33 0.64 3.66 2 4 C2 4.66 2 5.32 2 6 C-1.68115537 8.45410358 -3.65293598 8.23287843 -8 8 C-8.99 7.67 -9.98 7.34 -11 7 C-11 5.68 -11 4.36 -11 3 C-12.32 2.67 -13.64 2.34 -15 2 C-9.75614911 0.2520497 -5.52677733 -0.19392201 0 0 Z " fill="#19191B" transform="translate(374,107)"/>
<path d="M0 0 C0.99 0 1.98 0 3 0 C3.33 1.32 3.66 2.64 4 4 C3.34 4 2.68 4 2 4 C2.33 4.99 2.66 5.98 3 7 C-0.52679099 9.35119399 -2.02879485 9.21443452 -6.1875 9.125 C-7.27417969 9.10695313 -8.36085937 9.08890625 -9.48046875 9.0703125 C-10.72763672 9.03550781 -10.72763672 9.03550781 -12 9 C-11.34 8.566875 -10.68 8.13375 -10 7.6875 C-9.01 6.8521875 -9.01 6.8521875 -8 6 C-8 5.01 -8 4.02 -8 3 C-5.36 2.34 -2.72 1.68 0 1 C0 0.67 0 0.34 0 0 Z " fill="#222222" transform="translate(184,106)"/>
<path d="M0 0 C3.63 0 7.26 0 11 0 C11.8394882 2.10171867 12.67139656 4.20646625 13.5 6.3125 C13.9640625 7.48425781 14.428125 8.65601562 14.90625 9.86328125 C16 13 16 13 16 16 C13.00470711 15.00156904 11.84159673 14.48615558 10 12 C10.3125 9.8125 10.3125 9.8125 11 8 C9.02 8 7.04 8 5 8 C5.33 7.01 5.66 6.02 6 5 C6.99 5.33 7.98 5.66 9 6 C8.67 4.68 8.34 3.36 8 2 C5.36 2 2.72 2 0 2 C0 1.34 0 0.68 0 0 Z " fill="#28282A" transform="translate(208,72)"/>
<path d="M0 0 C-1 2 -2 4 -3 6 C-3.66 6 -4.32 6 -5 6 C-5.66 7.98 -6.32 9.96 -7 12 C-7.33 11.01 -7.66 10.02 -8 9 C-8.66 10.32 -9.32 11.64 -10 13 C-10 12.34 -10 11.68 -10 11 C-10.66 11 -11.32 11 -12 11 C-12.73980543 8.33670046 -13.16398398 6.55754554 -12.375 3.875 C-8.88261532 -0.88734275 -5.53326432 -1.41548622 0 0 Z " fill="#1D1D1E" transform="translate(270,74)"/>
<path d="M0 0 C2.72957339 2.35735884 3.88893396 4.58133526 5 8 C5 8.99 5 9.98 5 11 C2.69 11.33 0.38 11.66 -2 12 C-2 13.98 -2 15.96 -2 18 C-4.08379509 14.15299368 -5.49686624 10.09945571 -7 6 C-4.69 6 -2.38 6 0 6 C0 4.02 0 2.04 0 0 Z " fill="#47D75B" transform="translate(85,58)"/>
<path d="M0 0 C0 0.66 0 1.32 0 2 C0.99 1.67 1.98 1.34 3 1 C2.40138258 3.35171131 1.73075648 5.6859378 1 8 C-2.01868434 9.50934217 -4.67297229 9.17510672 -8 9 C-8.99 8.34 -9.98 7.68 -11 7 C-9.02 5.68 -7.04 4.36 -5 3 C-6.32 2.34 -7.64 1.68 -9 1 C-5.94152152 0.45627049 -3.11227195 0 0 0 Z " fill="#19191B" transform="translate(278,106)"/>
<path d="M0 0 C0.80824219 0.10183594 1.61648438 0.20367187 2.44921875 0.30859375 C3.06410156 0.39238281 3.67898438 0.47617188 4.3125 0.5625 C3.6525 1.2225 2.9925 1.8825 2.3125 2.5625 C2.6425 3.2225 2.9725 3.8825 3.3125 4.5625 C2.6525 4.5625 1.9925 4.5625 1.3125 4.5625 C0.19464887 6.68035113 0.19464887 6.68035113 -0.6875 9.5625 C-3.6575 9.0675 -3.6575 9.0675 -6.6875 8.5625 C-7.35416667 6.5625 -8.02083333 4.5625 -8.6875 2.5625 C-6.80760684 -1.19728632 -3.63897564 -0.474649 0 0 Z " fill="#2D2D2F" transform="translate(270.6875,105.4375)"/>
<path d="M0 0 C1 2 1 2 0.25 5 C-1 8 -1 8 -4 10 C-8.38400553 21.07728147 -7.81319411 32.64675233 -5 44 C-10.26628323 37.81784143 -9.55748838 29.7236592 -9.18359375 21.9765625 C-8.40931392 13.64069877 -5.32889579 6.36506998 0 0 Z " fill="#CE562F" transform="translate(15,56)"/>
<path d="M0 0 C0.99 0.66 1.98 1.32 3 2 C2.52343588 3.79236067 2.04366502 5.58386897 1.5625 7.375 C1.29566406 8.37273437 1.02882813 9.37046875 0.75390625 10.3984375 C0 13 0 13 -1 15 C-2.32 14.67 -3.64 14.34 -5 14 C-4.34 14 -3.68 14 -3 14 C-2.34 12.02 -1.68 10.04 -1 8 C-2.32 8 -3.64 8 -5 8 C-5.33 9.32 -5.66 10.64 -6 12 C-6.6875 10.375 -6.6875 10.375 -7 8 C-5.5625 4.75 -5.5625 4.75 -4 2 C-3.01 2 -2.02 2 -1 2 C-0.67 1.34 -0.34 0.68 0 0 Z " fill="#0D9CD3" transform="translate(87,93)"/>
<path d="M0 0 C2.40072955 2.88087546 4.47291037 5.56404834 6 9 C3.64561267 10.42944945 2.51967567 11.08661261 -0.25 10.625 C-0.8275 10.41875 -1.405 10.2125 -2 10 C-2 8.35 -2 6.7 -2 5 C-3.32 4.67 -4.64 4.34 -6 4 C-3.94766315 1.7522025 -2.99332739 0.9977758 0 0 Z " fill="#7D75D5" transform="translate(65,113)"/>
<path d="M0 0 C0.66 1.32 1.32 2.64 2 4 C1.01 4 0.02 4 -1 4 C-4.05076843 7.03655958 -4.05076843 7.03655958 -5 11 C-5.99 11.33 -6.98 11.66 -8 12 C-8.66 12.66 -9.32 13.32 -10 14 C-13.125 13.625 -13.125 13.625 -16 13 C-16 12.34 -16 11.68 -16 11 C-15.26394531 10.62488281 -14.52789062 10.24976562 -13.76953125 9.86328125 C-8.43798228 7.06721132 -3.924431 4.60105704 0 0 Z " fill="#DCEEF7" transform="translate(81,113)"/>
<path d="M0 0 C3.9795702 0.35373957 7.35688886 1.39274509 11 3 C11 3.66 11 4.32 11 5 C9.4221875 4.690625 9.4221875 4.690625 7.8125 4.375 C4.00375113 4.00036896 2.33164248 4.28369933 -1 6 C-0.34 6.66 0.32 7.32 1 8 C1.33 8.66 1.66 9.32 2 10 C0.68 11.32 -0.64 12.64 -2 14 C-3.00685307 10.9794408 -3.02876261 9.52923734 -2.6875 6.4375 C-2.60886719 5.65246094 -2.53023438 4.86742188 -2.44921875 4.05859375 C-2 2 -2 2 0 0 Z " fill="#1D1D1E" transform="translate(406,74)"/>
<path d="M0 0 C0.86625 0.3403125 0.86625 0.3403125 1.75 0.6875 C0.76 2.1725 0.76 2.1725 -0.25 3.6875 C1.07 4.0175 2.39 4.3475 3.75 4.6875 C3.75 5.6775 3.75 6.6675 3.75 7.6875 C0.12 7.6875 -3.51 7.6875 -7.25 7.6875 C-6.25 2.6875 -6.25 2.6875 -4.4375 0.8125 C-2.25 -0.3125 -2.25 -0.3125 0 0 Z " fill="#EAEAEB" transform="translate(366.25,80.3125)"/>
<path d="M0 0 C0.66 0 1.32 0 2 0 C2 6.93 2 13.86 2 21 C-1.3 21 -4.6 21 -8 21 C-7.505 19.515 -7.505 19.515 -7 18 C-4.69 18.33 -2.38 18.66 0 19 C0 12.73 0 6.46 0 0 Z " fill="#383839" transform="translate(121,94)"/>
<path d="M0 0 C0 0.99 0 1.98 0 3 C-1.32 3.33 -2.64 3.66 -4 4 C-3.34 4.66 -2.68 5.32 -2 6 C-2 6.99 -2 7.98 -2 9 C-3.98 9.33 -5.96 9.66 -8 10 C-8 8.68 -8 7.36 -8 6 C-9.32 6 -10.64 6 -12 6 C-12 4.35 -12 2.7 -12 1 C-11.01 2.485 -11.01 2.485 -10 4 C-9.0925 3.34 -8.185 2.68 -7.25 2 C-4 0 -4 0 0 0 Z " fill="#2C2C2D" transform="translate(322,72)"/>
<path d="M0 0 C0.99 0.33 1.98 0.66 3 1 C2.01870212 4.17034699 0.9734496 7.05097677 -0.5625 10 C-2.02905471 13.06063592 -2.60083318 15.64699875 -3 19 C-3.33 19 -3.66 19 -4 19 C-4.33 14.05 -4.66 9.1 -5 4 C-3.68 3.67 -2.36 3.34 -1 3 C-0.67 2.01 -0.34 1.02 0 0 Z " fill="#EA4A11" transform="translate(19,61)"/>
<path d="M0 0 C0.33 0 0.66 0 1 0 C1.08636719 1.02738281 1.17273438 2.05476563 1.26171875 3.11328125 C2.03715209 11.10933326 3.19878455 17.7329346 6.9765625 24.9609375 C8 27 8 27 8 29 C6.68 29 5.36 29 4 29 C3.79503906 28.14535156 3.59007812 27.29070312 3.37890625 26.41015625 C2.97478516 24.75306641 2.97478516 24.75306641 2.5625 23.0625 C2.29566406 21.96035156 2.02882813 20.85820313 1.75390625 19.72265625 C1.27004275 17.10578746 1.27004275 17.10578746 0 16 C-0.07319621 13.30345146 -0.09242537 10.63308542 -0.0625 7.9375 C-0.05798828 7.17888672 -0.05347656 6.42027344 -0.04882812 5.63867188 C-0.0370068 3.75908129 -0.01907078 1.87953101 0 0 Z " fill="#FCDCC4" transform="translate(5,80)"/>
<path d="M0 0 C0.33 0 0.66 0 1 0 C1 7.59 1 15.18 1 23 C4.63 23 8.26 23 12 23 C12 23.33 12 23.66 12 24 C8.37 24.33 4.74 24.66 1 25 C2.32 25.33 3.64 25.66 5 26 C5 26.66 5 27.32 5 28 C2.36 27.34 -0.28 26.68 -3 26 C-3 24.68 -3 23.36 -3 22 C-2.01 22 -1.02 22 0 22 C0 14.74 0 7.48 0 0 Z " fill="#3B3B3D" transform="translate(122,63)"/>
<path d="M0 0 C0.33 0 0.66 0 1 0 C1.08636719 0.89460938 1.17273438 1.78921875 1.26171875 2.7109375 C2.54442464 13.74926888 5.45357007 21.80673322 13 30 C8.64582558 29.27273009 6.97575805 27.23067858 4.26171875 23.921875 C2.57404735 21.35118049 2.14854507 19.04517398 2 16 C1.34 16 0.68 16 0 16 C0 10.72 0 5.44 0 0 Z " fill="#D4603A" transform="translate(15,80)"/>
<path d="M0 0 C0.99 0.33 1.98 0.66 3 1 C3.3721042 2.32303717 3.70630173 3.65737935 4 5 C4.66 5.33 5.32 5.66 6 6 C5.01 7.485 5.01 7.485 4 9 C0.375 9.6875 0.375 9.6875 -3 10 C-3.66 9.01 -4.32 8.02 -5 7 C-2.69 6.34 -0.38 5.68 2 5 C2 4.34 2 3.68 2 3 C1.01 2.67 0.02 2.34 -1 2 C-0.67 1.34 -0.34 0.68 0 0 Z " fill="#E65257" transform="translate(27,110)"/>
<path d="M0 0 C2.97 0.495 2.97 0.495 6 1 C6 2.32 6 3.64 6 5 C6.66 5 7.32 5 8 5 C8 5.66 8 6.32 8 7 C8.598125 7.185625 9.19625 7.37125 9.8125 7.5625 C13.10991441 9.72937233 13.79681041 12.32710545 15 16 C14.57421875 18.2265625 14.57421875 18.2265625 14 20 C13.69707031 19.33613281 13.39414063 18.67226562 13.08203125 17.98828125 C10.58274978 12.72056492 8.28869248 8.92109027 4 5 C4 4.34 4 3.68 4 3 C2.68 2.34 1.36 1.68 0 1 C0 0.67 0 0.34 0 0 Z " fill="#DDF9BE" transform="translate(76,48)"/>
<path d="M0 0 C1.18239258 0.01353516 1.18239258 0.01353516 2.38867188 0.02734375 C4.32174666 0.05077496 6.2546638 0.08664162 8.1875 0.125 C8.1875 0.785 8.1875 1.445 8.1875 2.125 C7.1253125 2.17398438 6.063125 2.22296875 4.96875 2.2734375 C-5.55751287 2.80860215 -5.55751287 2.80860215 -15.8125 5.125 C-11.89751247 -0.7474813 -6.44011213 -0.1403545 0 0 Z " fill="#FDEEC1" transform="translate(47.8125,37.875)"/>
<path d="M0 0 C4.875 4.75 4.875 4.75 6 7 C5.01 8.32 4.02 9.64 3 11 C2.01 10.67 1.02 10.34 0 10 C-0.6875 7.9375 -0.6875 7.9375 -1 6 C-2.32 5.67 -3.64 5.34 -5 5 C-4.67 4.01 -4.34 3.02 -4 2 C-3.67 2.66 -3.34 3.32 -3 4 C-0.97536745 4.65213292 -0.97536745 4.65213292 1 5 C0.67 3.35 0.34 1.7 0 0 Z " fill="#F04924" transform="translate(19,103)"/>
<path d="M0 0 C0.66 0.66 1.32 1.32 2 2 C4.10820797 1.6814823 4.10820797 1.6814823 6 1 C7.125 3.8125 7.125 3.8125 8 7 C7.01 8.485 7.01 8.485 6 10 C5.34 8.68 4.68 7.36 4 6 C1.69 7.32 -0.62 8.64 -3 10 C-2.01 6.7 -1.02 3.4 0 0 Z " fill="#2E2E2F" transform="translate(235,86)"/>
<path d="M0 0 C0 0.66 0 1.32 0 2 C1.65 1.67 3.3 1.34 5 1 C5 2.32 5 3.64 5 5 C3.68 5.33 2.36 5.66 1 6 C1 5.01 1 4.02 1 3 C-2.48809191 3.77030122 -2.48809191 3.77030122 -6 5 C-6.33 5.99 -6.66 6.98 -7 8 C-7.66 8 -8.32 8 -9 8 C-9.33 8.99 -9.66 9.98 -10 11 C-10.33 10.34 -10.66 9.68 -11 9 C-8.37081504 3.74163008 -6.11985002 0 0 0 Z " fill="#F24D07" transform="translate(26,49)"/>
<path d="M0 0 C0.66 0.33 1.32 0.66 2 1 C0.02 1.99 0.02 1.99 -2 3 C-2 3.99 -2 4.98 -2 6 C1.04213267 7.52106634 4.28047572 7.37429338 7.625 7.5625 C8.33140625 7.60568359 9.0378125 7.64886719 9.765625 7.69335938 C11.51018537 7.79944751 13.25506697 7.90022889 15 8 C15 8.33 15 8.66 15 9 C8.07 9 1.14 9 -6 9 C-4.90810185 3.54050926 -4.31208438 2.98528919 0 0 Z " fill="#D8D8D9" transform="translate(412,80)"/>
<path d="M0 0 C3.32310483 1.16757737 5.83361132 2.14948857 8 5 C8 5.99 8 6.98 8 8 C5.36 8 2.72 8 0 8 C0 5.36 0 2.72 0 0 Z " fill="#F2F2F4" transform="translate(419,80)"/>
<path d="M0 0 C2 1.5 2 1.5 3 3 C0.03 2.505 0.03 2.505 -3 2 C-3.33 2.99 -3.66 3.98 -4 5 C-3.01 5.33 -2.02 5.66 -1 6 C-1 6.66 -1 7.32 -1 8 C-3.97 7.505 -3.97 7.505 -7 7 C-6.67 5.68 -6.34 4.36 -6 3 C-7.98 3 -9.96 3 -12 3 C-8.22561516 -0.77438484 -5.06382535 -0.48226908 0 0 Z " fill="#1A1A1A" transform="translate(374,72)"/>
<path d="M0 0 C2.97 0 5.94 0 9 0 C7.3125 1.625 7.3125 1.625 5 3 C2.25 2.1875 2.25 2.1875 0 1 C0 0.67 0 0.34 0 0 Z M4 3 C4.36585366 7.51219512 4.36585366 7.51219512 2.6875 9.75 C1 11 1 11 -2 12 C-2 10.35 -2 8.7 -2 7 C-1.01 7 -0.02 7 1 7 C-0.32 6.34 -1.64 5.68 -3 5 C0 3 0 3 4 3 Z " fill="#2A2A2B" transform="translate(266,72)"/>
<path d="M0 0 C-2.49439364 2.07866137 -5.02578914 3.54494263 -7.9375 4.9375 C-12.23144986 7.02450357 -15.62310017 9.62310017 -19 13 C-19 11.35 -19 9.7 -19 8 C-18.01 8 -17.02 8 -16 8 C-16 7.34 -16 6.68 -16 6 C-14.35 5.67 -12.7 5.34 -11 5 C-11 4.34 -11 3.68 -11 3 C-7.14243493 0.84694043 -4.44870215 -0.39253254 0 0 Z " fill="#DB572D" transform="translate(42,49)"/>
<path d="M0 0 C1.65 0.33 3.3 0.66 5 1 C5 2.32 5 3.64 5 5 C4.34 5 3.68 5 3 5 C3 5.99 3 6.98 3 8 C2.34 8 1.68 8 1 8 C1.99 9.32 2.98 10.64 4 12 C3.01 12.66 2.02 13.32 1 14 C-0.625 12.3125 -0.625 12.3125 -2 10 C-1.1875 7.5625 -1.1875 7.5625 0 5 C0.16798262 2.29113059 0.16798262 2.29113059 0 0 Z " fill="#1C1C1D" transform="translate(400,95)"/>
<path d="M0 0 C-1.98 0.99 -1.98 0.99 -4 2 C-4 2.66 -4 3.32 -4 4 C-1.36 4.33 1.28 4.66 4 5 C3.67 5.66 3.34 6.32 3 7 C-1.97306516 6.50269348 -5.63799813 5.44697666 -10 3 C-9 1 -9 1 -6.6875 -0.1875 C-3.88010429 -1.03624754 -2.698065 -0.99928333 0 0 Z " fill="#D05974" transform="translate(36,118)"/>
<path d="M0 0 C3.59822158 3.59822158 3.15955372 7.64954402 3.1875 12.5625 C3.20167969 13.69816406 3.21585937 14.83382812 3.23046875 16.00390625 C3 19 3 19 1 22 C0.00137301 14.63512596 -0.10331031 7.42686315 0 0 Z " fill="#37CB91" transform="translate(90,68)"/>
<path d="M0 0 C1.32 0 2.64 0 4 0 C4 1.32 4 2.64 4 4 C6.65228812 5.07525194 9.28368454 6.09456151 12 7 C9.59454362 8.20272819 8.05003047 8.10071472 5.375 8.0625 C4.14910156 8.04896484 4.14910156 8.04896484 2.8984375 8.03515625 C1.95871094 8.01775391 1.95871094 8.01775391 1 8 C0.855625 7.38125 0.71125 6.7625 0.5625 6.125 C0.06847775 3.96741678 0.06847775 3.96741678 -1 2 C-0.67 1.34 -0.34 0.68 0 0 Z " fill="#C263DD" transform="translate(53,118)"/>
<path d="M0 0 C1.98 0.495 1.98 0.495 4 1 C4 1.66 4 2.32 4 3 C4.226875 3.804375 4.45375 4.60875 4.6875 5.4375 C4.790625 6.283125 4.89375 7.12875 5 8 C3.5625 9.8125 3.5625 9.8125 2 11 C1.01 10.67 0.02 10.34 -1 10 C-1.08004482 6.4780279 -1.04005702 3.38018531 0 0 Z " fill="#1B1B1D" transform="translate(354,78)"/>
<path d="M0 0 C0.33 0 0.66 0 1 0 C1.35791556 3.75811341 1.42239736 5.45497115 -0.9375 8.5 C-4.62009834 13.31470454 -3.84137144 20.21005765 -4 26 C-4.33 26 -4.66 26 -5 26 C-5.54992842 16.15017092 -5.73261543 8.51702863 0 0 Z " fill="#FDDABF" transform="translate(21,64)"/>
<path d="M0 0 C0.33 0 0.66 0 1 0 C0.97679688 0.97839844 0.95359375 1.95679687 0.9296875 2.96484375 C0.82907769 10.27342753 1.01044085 16.91219551 3 24 C2.34 24.33 1.68 24.66 1 25 C-1.41535553 20.29339811 -1.26565846 15.96684472 -1.1875 10.8125 C-1.18685547 9.99330078 -1.18621094 9.17410156 -1.18554688 8.33007812 C-1.14074248 2.28148496 -1.14074248 2.28148496 0 0 Z " fill="#FEF8EA" transform="translate(18,74)"/>
<path d="M0 0 C0.66 0 1.32 0 2 0 C2.66 2.31 3.32 4.62 4 7 C3.01 7 2.02 7 1 7 C0.34 7.66 -0.32 8.32 -1 9 C-1 8.34 -1 7.68 -1 7 C-2.65 7.66 -4.3 8.32 -6 9 C-5.05016642 7.49460339 -4.08988109 5.99579653 -3.125 4.5 C-2.59132812 3.6646875 -2.05765625 2.829375 -1.5078125 1.96875 C-0.76144531 0.99421875 -0.76144531 0.99421875 0 0 Z " fill="#EEEEF0" transform="translate(155,81)"/>
<path d="M0 0 C3 0 3 0 5 1 C4.67 1.99 4.34 2.98 4 4 C3.34 4 2.68 4 2 4 C1.67 4.99 1.34 5.98 1 7 C-0.32 6.67 -1.64 6.34 -3 6 C-2.01 4.02 -1.02 2.04 0 0 Z M-5 6 C-4.34 6.33 -3.68 6.66 -3 7 C-3.99 8.32 -4.98 9.64 -6 11 C-8 10 -8 10 -9 8 C-7.125 6.9375 -7.125 6.9375 -5 6 Z " fill="#E9E9EA" transform="translate(435,105)"/>
<path d="M0 0 C3.60001861 1.86207859 4.53489703 3.98986608 5.75 7.6875 C6.17985483 9.12111159 6.60082968 10.55754362 7 12 C5 12 5 12 2.4375 9.8125 C-0.01965361 6.97732276 -0.80106273 5.68033952 -1 2 C-0.67 1.34 -0.34 0.68 0 0 Z " fill="#E3FCD8" transform="translate(75,62)"/>
<path d="M0 0 C1.34620929 4.36054749 0.81962145 7.83960337 -1 12 C-3.45048481 13.96038785 -4.84839329 15 -8 15 C-8.33 15.66 -8.66 16.32 -9 17 C-9 12.68381834 -6.86729652 11.07210341 -4 8 C-3.34 8 -2.68 8 -2 8 C-1.855625 7.236875 -1.71125 6.47375 -1.5625 5.6875 C-1 3 -1 3 0 0 Z " fill="#3293D1" transform="translate(81,94)"/>
<path d="M0 0 C1.32 1.65 2.64 3.3 4 5 C2.66666667 8.33333333 1.33333333 11.66666667 0 15 C-0.66 15 -1.32 15 -2 15 C-2.625 13.1875 -2.625 13.1875 -3 11 C-2.34 10.01 -1.68 9.02 -1 8 C-0.54860541 5.9507906 -0.54860541 5.9507906 -0.375 3.8125 C-0.25125 2.554375 -0.1275 1.29625 0 0 Z " fill="#303032" transform="translate(285,90)"/>
<path d="M0 0 C3.63 0 7.26 0 11 0 C10.67 2.64 10.34 5.28 10 8 C8.35 8 6.7 8 5 8 C5.33 7.01 5.66 6.02 6 5 C6.99 5.33 7.98 5.66 9 6 C8.67 4.68 8.34 3.36 8 2 C5.36 2 2.72 2 0 2 C0 1.34 0 0.68 0 0 Z " fill="#373737" transform="translate(208,72)"/>
<path d="M0 0 C0.66 0 1.32 0 2 0 C1.5020163 3.73487777 1.12508244 5.81237635 -1 9 C-3.625 9.6875 -3.625 9.6875 -6 10 C-4.63312778 6.01328937 -2.84804907 3.11505367 0 0 Z " fill="#FDF9EB" transform="translate(74,96)"/>
<path d="M0 0 C0.33 0.66 0.66 1.32 1 2 C3.02463255 2.65213292 3.02463255 2.65213292 5 3 C5 3.66 5 4.32 5 5 C3.35 4.67 1.7 4.34 0 4 C0 2.68 0 1.36 0 0 Z M-3 1 C-1.484375 2.3828125 -1.484375 2.3828125 0 4 C-0.25 5.875 -0.25 5.875 -1 8 C-1.34060811 9.66519519 -1.67558396 11.33157466 -2 13 C-2.66 12.34 -3.32 11.68 -4 11 C-3.9765625 8.6171875 -3.9765625 8.6171875 -3.625 5.875 C-3.51414062 4.96492188 -3.40328125 4.05484375 -3.2890625 3.1171875 C-3.19367188 2.41851562 -3.09828125 1.71984375 -3 1 Z " fill="#333335" transform="translate(399,85)"/>
<path d="M0 0 C1.98 0.66 3.96 1.32 6 2 C4.68 2.99 3.36 3.98 2 5 C2.33 5.66 2.66 6.32 3 7 C2.34 7 1.68 7 1 7 C1 7.66 1 8.32 1 9 C0.34 9 -0.32 9 -1 9 C-1 8.01 -1 7.02 -1 6 C-2.32 5.67 -3.64 5.34 -5 5 C-4.34 4.67 -3.68 4.34 -3 4 C-3 3.34 -3 2.68 -3 2 C-1.68 2 -0.36 2 1 2 C0.67 1.34 0.34 0.68 0 0 Z " fill="#2C2C2C" transform="translate(374,72)"/>
<path d="M0 0 C0 3.3 0 6.6 0 10 C-0.33 8.68 -0.66 7.36 -1 6 C-3.97 5.505 -3.97 5.505 -7 5 C-7 3.68 -7 2.36 -7 1 C-2.25 0 -2.25 0 0 0 Z " fill="#24DB72" transform="translate(90,69)"/>
<path d="M0 0 C1.65 0 3.3 0 5 0 C5.33 1.32 5.66 2.64 6 4 C8.97 4.495 8.97 4.495 12 5 C10.4375 6.5625 10.4375 6.5625 8 8 C4.25 7.6875 4.25 7.6875 1 7 C1.20625 6.21625 1.4125 5.4325 1.625 4.625 C1.74875 3.75875 1.8725 2.8925 2 2 C1.34 1.34 0.68 0.68 0 0 Z " fill="#E1509E" transform="translate(38,118)"/>
<path d="M0 0 C0.66 0.33 1.32 0.66 2 1 C2 2.32 2 3.64 2 5 C2.66 5.66 3.32 6.32 4 7 C2.56344146 7.08131463 1.1255517 7.13933559 -0.3125 7.1875 C-1.51326172 7.23970703 -1.51326172 7.23970703 -2.73828125 7.29296875 C-5.47851584 6.93801608 -6.29171079 6.10633718 -8 4 C-7.34 3.67 -6.68 3.34 -6 3 C-6 3.66 -6 4.32 -6 5 C-5.34 5 -4.68 5 -4 5 C-4 4.34 -4 3.68 -4 3 C-2 1.375 -2 1.375 0 0 Z " fill="#242424" transform="translate(415,108)"/>
<path d="M0 0 C0.33 0 0.66 0 1 0 C1.4375 2.0625 1.4375 2.0625 1 5 C-2.01633332 8.94699264 -4.97072104 12.15436902 -10 13 C-10 12.34 -10 11.68 -10 11 C-9.34 11 -8.68 11 -8 11 C-8 10.01 -8 9.02 -8 8 C-6.68 8 -5.36 8 -4 8 C-3.566875 6.8553125 -3.566875 6.8553125 -3.125 5.6875 C-2 3 -2 3 0 0 Z " fill="#DFF4FC" transform="translate(75,100)"/>
<path d="M0 0 C0.66 0 1.32 0 2 0 C1.67 0.66 1.34 1.32 1 2 C0.67 1.34 0.34 0.68 0 0 Z M-1 2 C-0.34 2 0.32 2 1 2 C1 3.65 1 5.3 1 7 C1.33 7 1.66 7 2 7 C2 9.31 2 11.62 2 14 C2.66 14 3.32 14 4 14 C4 14.66 4 15.32 4 16 C1.525 15.01 1.525 15.01 -1 14 C-1 10.04 -1 6.08 -1 2 Z " fill="#19191A" transform="translate(253,87)"/>
<path d="M0 0 C0.66 0 1.32 0 2 0 C2 2.64 2 5.28 2 8 C-0.31 8 -2.62 8 -5 8 C-4.67 6.35 -4.34 4.7 -4 3 C-3.01 3.33 -2.02 3.66 -1 4 C-0.67 2.68 -0.34 1.36 0 0 Z " fill="#1A1A1C" transform="translate(387,87)"/>
<path d="M0 0 C0.99 0 1.98 0 3 0 C1.66216131 5.51858459 -2.5122365 8.85009807 -7 12 C-9.2578125 12.703125 -9.2578125 12.703125 -11 13 C-11 12.34 -11 11.68 -11 11 C-10.01 11 -9.02 11 -8 11 C-8 10.34 -8 9.68 -8 9 C-6.625 7.375 -6.625 7.375 -5 6 C-4.34 6 -3.68 6 -3 6 C-3 5.01 -3 4.02 -3 3 C-2.01 3 -1.02 3 0 3 C0 2.01 0 1.02 0 0 Z " fill="#4185C6" transform="translate(82,108)"/>
<path d="M0 0 C0.66 0.33 1.32 0.66 2 1 C2 2.98 2 4.96 2 7 C-0.64 7 -3.28 7 -6 7 C-5.34 5.35 -4.68 3.7 -4 2 C-2.68 2 -1.36 2 0 2 C0 1.34 0 0.68 0 0 Z " fill="#1A1A1A" transform="translate(466,74)"/>
<path d="M0 0 C3.3 0 6.6 0 10 0 C9.01 2.97 8.02 5.94 7 9 C6.01 9 5.02 9 4 9 C4 7.68 4 6.36 4 5 C4.66 5 5.32 5 6 5 C6 4.01 6 3.02 6 2 C3.03 1.505 3.03 1.505 0 1 C0 0.67 0 0.34 0 0 Z " fill="#3D3D3D" transform="translate(241,72)"/>
<path d="M0 0 C2 2 2 2 2.125 5.125 C2.08375 6.07375 2.0425 7.0225 2 8 C-0.97 7.505 -0.97 7.505 -4 7 C-4 5.68 -4 4.36 -4 3 C-2 1.25 -2 1.25 0 0 Z " fill="#2286F1" transform="translate(77,106)"/>
<path d="M0 0 C1.32 0.66 2.64 1.32 4 2 C3.67 4.31 3.34 6.62 3 9 C2.34 8.67 1.68 8.34 1 8 C0.67 9.32 0.34 10.64 0 12 C0 11.01 0 10.02 0 9 C-0.99 9.33 -1.98 9.66 -3 10 C-2.01 6.7 -1.02 3.4 0 0 Z " fill="#1B1B1D" transform="translate(220,86)"/>
<path d="M0 0 C2.64 0 5.28 0 8 0 C8 1.65 8 3.3 8 5 C8.66 5 9.32 5 10 5 C10.33 6.65 10.66 8.3 11 10 C9.68 9.67 8.36 9.34 7 9 C6 4.25 6 4.25 6 2 C4.02 2 2.04 2 0 2 C0 1.34 0 0.68 0 0 Z " fill="#171717" transform="translate(445,73)"/>
<path d="M0 0 C0.33 0 0.66 0 1 0 C1.625 3.375 1.625 3.375 2 7 C1.34 7.66 0.68 8.32 0 9 C-0.4657363 11.55867474 -0.83484248 14.04687908 -1.125 16.625 C-1.21136719 17.33140625 -1.29773438 18.0378125 -1.38671875 18.765625 C-1.59881183 20.50950141 -1.80040991 22.2546484 -2 24 C-2.33 24 -2.66 24 -3 24 C-3.40735653 15.49077472 -2.43092956 8.1609778 0 0 Z " fill="#F34518" transform="translate(10,66)"/>
<path d="M0 0 C0.99 0 1.98 0 3 0 C2.71125 0.5465625 2.4225 1.093125 2.125 1.65625 C0.89263134 4.22368471 -0.05538966 6.81376435 -1 9.5 C-2.15720252 12.79079467 -3.369645 15.9139709 -5 19 C-4.70245971 11.87391001 -3.28874656 6.3327492 0 0 Z " fill="#FDDCC3" transform="translate(11,57)"/>
<path d="M0 0 C0.99 0 1.98 0 3 0 C3.33 1.98 3.66 3.96 4 6 C0.99727245 6.96516243 -1.04215769 7.22393475 -4 6 C-4.33 5.01 -4.66 4.02 -5 3 C-4.01 3 -3.02 3 -2 3 C-1.34 2.01 -0.68 1.02 0 0 Z " fill="#74D83C" transform="translate(82,58)"/>
<path d="M0 0 C-0.33 0.99 -0.66 1.98 -1 3 C-4.5625 4.1875 -4.5625 4.1875 -8 5 C-8.33 4.01 -8.66 3.02 -9 2 C-6.98558063 -2.02883874 -3.72407517 -0.90585612 0 0 Z " fill="#F78C02" transform="translate(49,43)"/>
<path d="M0 0 C0.73154297 0.01353516 1.46308594 0.02707031 2.21679688 0.04101562 C3.99902422 0.07596126 5.78086573 0.12975195 7.5625 0.1875 C7.5625 0.5175 7.5625 0.8475 7.5625 1.1875 C-0.3575 1.6825 -0.3575 1.6825 -8.4375 2.1875 C-8.4375 2.8475 -8.4375 3.5075 -8.4375 4.1875 C-11.0775 4.5175 -13.7175 4.8475 -16.4375 5.1875 C-15.08558734 2.48367469 -13.20995848 1.90217679 -10.49169922 0.79833984 C-6.99732306 -0.24075323 -3.61479959 -0.12898187 0 0 Z " fill="#FCE4AE" transform="translate(48.4375,49.8125)"/>
<path d="M0 0 C-3.06158322 2.04105548 -5.80759151 3.05603816 -9.2578125 4.21875 C-11.19773892 4.86786272 -11.19773892 4.86786272 -12 7 C-14.5625 7.625 -14.5625 7.625 -17 8 C-16 5 -16 5 -13.92578125 3.61328125 C-5.27282955 -0.69379336 -5.27282955 -0.69379336 0 0 Z " fill="#D26E2F" transform="translate(40,42)"/>
<path d="M0 0 C0 0.66 0 1.32 0 2 C-3.02614682 3.55630408 -4.36126336 4.19310643 -7.6875 3.1875 C-8.450625 2.795625 -9.21375 2.40375 -10 2 C-10.66 1.67 -11.32 1.34 -12 1 C-9.19301445 -1.80698555 -3.49996404 -1.25998705 0 0 Z " fill="#1F1F20" transform="translate(376,111)"/>
<path d="M0 0 C2.9375 0.8125 2.9375 0.8125 6 2 C6.33 2.99 6.66 3.98 7 5 C5.02 5.33 3.04 5.66 1 6 C1 5.34 1 4.68 1 4 C0.01 3.67 -0.98 3.34 -2 3 C-1.34 2.01 -0.68 1.02 0 0 Z " fill="#1C1C1E" transform="translate(428,102)"/>
<path d="M0 0 C0.66 0.66 1.32 1.32 2 2 C1.8125 5.5 1.8125 5.5 1 9 C0.01 9.66 -0.98 10.32 -2 11 C-3.22718053 5.60040568 -3.22718053 5.60040568 -2.125 2.6875 C-1 1 -1 1 0 0 Z " fill="#252526" transform="translate(399,93)"/>
<path d="M0 0 C0.33 0 0.66 0 1 0 C1.04898437 0.73605469 1.09796875 1.47210938 1.1484375 2.23046875 C1.22320312 3.20628906 1.29796875 4.18210937 1.375 5.1875 C1.44460938 6.15042969 1.51421875 7.11335938 1.5859375 8.10546875 C2.00215853 11.01508938 2.79874096 13.32890774 4 16 C1.03 15.505 1.03 15.505 -2 15 C-1.34 10.05 -0.68 5.1 0 0 Z " fill="#DCDCDC" transform="translate(347,90)"/>
<path d="M0 0 C6.75 1.875 6.75 1.875 9 3 C9 3.66 9 4.32 9 5 C9.99 5.33 10.98 5.66 12 6 C9.04335481 7.4783226 6.25770263 7.06032783 3 7 C3.66 5.68 4.32 4.36 5 3 C3.35 2.67 1.7 2.34 0 2 C0 1.34 0 0.68 0 0 Z " fill="#CCD73C" transform="translate(65,43)"/>
<path d="M0 0 C0.99 0.66 1.98 1.32 3 2 C2.34 3.98 1.68 5.96 1 8 C-0.9375 7.25 -0.9375 7.25 -3 6 C-3.75 3.875 -3.75 3.875 -4 2 C-3.01 2 -2.02 2 -1 2 C-0.67 1.34 -0.34 0.68 0 0 Z " fill="#0BABBF" transform="translate(87,93)"/>
<path d="M0 0 C0.33 0 0.66 0 1 0 C1 5.61 1 11.22 1 17 C0.67 17 0.34 17 0 17 C-0.22786458 14.94921875 -0.45572917 12.8984375 -0.68359375 10.84765625 C-0.81886614 8.98859771 -0.81886614 8.98859771 -2 8 C-2.29386153 4.27775401 -2.14809171 3.22213757 0 0 Z " fill="#EF470C" transform="translate(14,74)"/>
<path d="M0 0 C0.66 0.66 1.32 1.32 2 2 C4.06874034 2.6425235 4.06874034 2.6425235 6 3 C5.01 4.485 5.01 4.485 4 6 C3.67 5.67 3.34 5.34 3 5 C2.01 6.32 1.02 7.64 0 9 C-0.66 7.02 -1.32 5.04 -2 3 C-1.34 3 -0.68 3 0 3 C0 2.01 0 1.02 0 0 Z " fill="#94D936" transform="translate(79,54)"/>
<path d="M0 0 C2.86724686 0.57344937 3.8614515 0.8614515 6 3 C5.01 4.485 5.01 4.485 4 6 C3.34 6 2.68 6 2 6 C2 5.34 2 4.68 2 4 C0.35 4.33 -1.3 4.66 -3 5 C-3 4.34 -3 3.68 -3 3 C-2.34 3 -1.68 3 -1 3 C-0.67 2.01 -0.34 1.02 0 0 Z " fill="#F85B03" transform="translate(29,46)"/>
<path d="M0 0 C0.99 0.495 0.99 0.495 2 1 C2 1.66 2 2.32 2 3 C3.32 3.66 4.64 4.32 6 5 C5.67 4.01 5.34 3.02 5 2 C6.32 1.67 7.64 1.34 9 1 C9 1.66 9 2.32 9 3 C9.66 3.66 10.32 4.32 11 5 C8.22899606 6.38550197 6.0665294 6.1877467 3 6 C2.01 5.34 1.02 4.68 0 4 C0 2.68 0 1.36 0 0 Z " fill="#171718" transform="translate(167,108)"/>
<path d="M0 0 C0 3.11227195 -0.45627049 5.94152152 -1 9 C-0.34 9.33 0.32 9.66 1 10 C-0.98 10.99 -0.98 10.99 -3 12 C-3.33 11.01 -3.66 10.02 -4 9 C-3.34 9 -2.68 9 -2 9 C-2.34786708 7.02463255 -2.34786708 7.02463255 -3 5 C-3.66 4.67 -4.32 4.34 -5 4 C-3.35 2.68 -1.7 1.36 0 0 Z " fill="#363636" transform="translate(190,101)"/>
<path d="M0 0 C1.32 0 2.64 0 4 0 C4 1.98 4 3.96 4 6 C4.639375 6.103125 5.27875 6.20625 5.9375 6.3125 C6.618125 6.539375 7.29875 6.76625 8 7 C8.33 7.99 8.66 8.98 9 10 C6.32175942 9.63374488 5.2588219 9.31603516 3.515625 7.1875 C2.88914062 6.1046875 2.88914062 6.1046875 2.25 5 C1.82203125 4.278125 1.3940625 3.55625 0.953125 2.8125 C0 1 0 1 0 0 Z " fill="#DB5731" transform="translate(10,102)"/>
<path d="M0 0 C2.3431213 0.25561323 4.67843403 0.59270772 7 1 C7.33 1.66 7.66 2.32 8 3 C7.34 3 6.68 3 6 3 C5.67 3.66 5.34 4.32 5 5 C2.9375 5.625 2.9375 5.625 1 6 C0.67 4.02 0.34 2.04 0 0 Z " fill="#232325" transform="translate(266,107)"/>
<path d="M0 0 C0.99 0.33 1.98 0.66 3 1 C3 1.99 3 2.98 3 4 C-0.63 4 -4.26 4 -8 4 C-8 3.34 -8 2.68 -8 2 C-7.01 1.67 -6.02 1.34 -5 1 C-5 1.66 -5 2.32 -5 3 C-4.236875 2.484375 -3.47375 1.96875 -2.6875 1.4375 C-1.800625 0.963125 -0.91375 0.48875 0 0 Z " fill="#FBFBFC" transform="translate(367,84)"/>
<path d="M0 0 C1.65 0.33 3.3 0.66 5 1 C3.02 1.99 3.02 1.99 1 3 C1.99 4.485 1.99 4.485 3 6 C2.01 6.495 2.01 6.495 1 7 C1 6.34 1 5.68 1 5 C-1.31 5.33 -3.62 5.66 -6 6 C-6 5.34 -6 4.68 -6 4 C-4.02 3.34 -2.04 2.68 0 2 C0 1.34 0 0.68 0 0 Z " fill="#1A1A1B" transform="translate(144,58)"/>
<path d="M0 0 C1.98 0 3.96 0 6 0 C5.67 1.98 5.34 3.96 5 6 C4.34 6 3.68 6 3 6 C2.67 6.66 2.34 7.32 2 8 C1.34 5.36 0.68 2.72 0 0 Z " fill="#28282A" transform="translate(214,88)"/>
<path d="M0 0 C1.75 2.1875 1.75 2.1875 3 5 C2.6875 7.8125 2.6875 7.8125 2 10 C1.6596875 9.1646875 1.6596875 9.1646875 1.3125 8.3125 C-0.35896766 5.36753316 -2.55276352 3.31843456 -5 1 C-3 0 -3 0 0 0 Z " fill="#2C2C2E" transform="translate(426,79)"/>
<path d="M0 0 C6.75 1.875 6.75 1.875 9 3 C9 3.66 9 4.32 9 5 C6.03 5 3.06 5 0 5 C0.66 4.34 1.32 3.68 2 3 C1.34 2.01 0.68 1.02 0 0 Z " fill="#1A1A1B" transform="translate(317,75)"/>
<path d="M0 0 C0 0.66 0 1.32 0 2 C-0.66 2 -1.32 2 -2 2 C-2 2.99 -2 3.98 -2 5 C-4.31 4.34 -6.62 3.68 -9 3 C-6.38997624 -0.48003168 -4.1689578 -0.27793052 0 0 Z " fill="#E3D603" transform="translate(68,46)"/>
<path d="M0 0 C1.1055189 0.93590504 2.20935453 1.87379858 3.3125 2.8125 C3.92738281 3.33457031 4.54226562 3.85664062 5.17578125 4.39453125 C6.85424679 5.87172469 8.43882034 7.40039131 10 9 C5.28571429 9 5.28571429 9 3 8 C0 2.96428571 0 2.96428571 0 0 Z " fill="#FCDFD6" transform="translate(16,112)"/>
<path d="M0 0 C0.33 0.66 0.66 1.32 1 2 C1.66 2 2.32 2 3 2 C3.33 1.34 3.66 0.68 4 0 C5.125 4.75 5.125 4.75 4 7 C3.34 6.34 2.68 5.68 2 5 C-0.10820797 5.3185177 -0.10820797 5.3185177 -2 6 C-1.49396008 3.83125748 -1.00016187 2.00032373 0 0 Z " fill="#1A1A1B" transform="translate(286,100)"/>
<path d="M0 0 C1.64767247 0.28109113 3.29313145 0.57518526 4.9375 0.875 C5.85402344 1.03742188 6.77054688 1.19984375 7.71484375 1.3671875 C8.46894531 1.57601562 9.22304687 1.78484375 10 2 C10.33 2.66 10.66 3.32 11 4 C7.7 4 4.4 4 1 4 C0.67 2.68 0.34 1.36 0 0 Z " fill="#262628" transform="translate(127,91)"/>
<path d="M0 0 C2.12508244 3.18762365 2.5020163 5.26512223 3 9 C1.35 8.67 -0.3 8.34 -2 8 C-1.34 5.36 -0.68 2.72 0 0 Z " fill="#313131" transform="translate(224,88)"/>
<path d="M0 0 C0.99 0.33 1.98 0.66 3 1 C3.33 1.99 3.66 2.98 4 4 C2.35 5.32 0.7 6.64 -1 8 C-1 7.01 -1 6.02 -1 5 C-1.66 5 -2.32 5 -3 5 C-1.125 1.125 -1.125 1.125 0 0 Z M-1 3 C0 5 0 5 0 5 Z " fill="#28282A" transform="translate(148,83)"/>
<path d="M0 0 C3.0916909 2.52956528 3.90931332 5.22454612 5 9 C3.68 9 2.36 9 1 9 C0.34 8.34 -0.32 7.68 -1 7 C-0.67 6.01 -0.34 5.02 0 4 C0 2.68 0 1.36 0 0 Z " fill="#6DD262" transform="translate(85,58)"/>
<path d="M0 0 C2.1875 0.3125 2.1875 0.3125 4 1 C4 1.99 4 2.98 4 4 C2.02 4.33 0.04 4.66 -2 5 C-2.33 4.34 -2.66 3.68 -3 3 C-1.75 1.4375 -1.75 1.4375 0 0 Z " fill="#BEDE04" transform="translate(72,49)"/>
<path d="M0 0 C1.0326802 2.78823655 1.04509293 3.8677274 0.0625 6.75 C-0.288125 7.4925 -0.63875 8.235 -1 9 C-2.32 8.67 -3.64 8.34 -5 8 C-4.34 5.69 -3.68 3.38 -3 1 C-2.34 1.66 -1.68 2.32 -1 3 C-0.67 2.01 -0.34 1.02 0 0 Z " fill="#1D1D1D" transform="translate(229,120)"/>
<path d="M0 0 C0.33 0.99 0.66 1.98 1 3 C1.66 3 2.32 3 3 3 C2.34 4.32 1.68 5.64 1 7 C0.01 6.34 -0.98 5.68 -2 5 C-2 3.68 -2 2.36 -2 1 C-1.34 0.67 -0.68 0.34 0 0 Z M-4 3 C-3.34 3.66 -2.68 4.32 -2 5 C-2.33 5.99 -2.66 6.98 -3 8 C-3.33 6.35 -3.66 4.7 -4 3 Z " fill="#1B1B1D" transform="translate(401,88)"/>
<path d="M0 0 C2.00720923 0.28674418 4.0085944 0.61866701 6 1 C6 2.32 6 3.64 6 5 C3.625 4.6875 3.625 4.6875 1 4 C0.34 3.01 -0.32 2.02 -1 1 C-0.67 0.67 -0.34 0.34 0 0 Z " fill="#191919" transform="translate(183,73)"/>
<path d="M0 0 C0.66 0 1.32 0 2 0 C2.33 0.99 2.66 1.98 3 3 C2.01 3 1.02 3 0 3 C0.350625 3.61875 0.70125 4.2375 1.0625 4.875 C1.371875 5.57625 1.68125 6.2775 2 7 C1.67 7.66 1.34 8.32 1 9 C0.01 9 -0.98 9 -2 9 C-2.6875 7.3125 -2.6875 7.3125 -3 5 C-1.6875 2.25 -1.6875 2.25 0 0 Z " fill="#1B1B1B" transform="translate(191,101)"/>
<path d="M0 0 C1.32 0 2.64 0 4 0 C4.33 3.96 4.66 7.92 5 12 C3.0188638 8.0377276 1.52259159 4.15252251 0 0 Z " fill="#6CD06C" transform="translate(78,64)"/>
<path d="M0 0 C-0.33 1.65 -0.66 3.3 -1 5 C-2.1446875 5.1546875 -2.1446875 5.1546875 -3.3125 5.3125 C-6.17059424 6.04364039 -7.15742885 6.76951913 -9 9 C-9.33 8.34 -9.66 7.68 -10 7 C-9.34 7 -8.68 7 -8 7 C-7.67 6.01 -7.34 5.02 -7 4 C-2.54285714 0 -2.54285714 0 0 0 Z " fill="#F9DABC" transform="translate(32,55)"/>
<path d="M0 0 C-0.33 0.99 -0.66 1.98 -1 3 C-1.66 3 -2.32 3 -3 3 C-3 3.66 -3 4.32 -3 5 C-3.99 5 -4.98 5 -6 5 C-6 3.35 -6 1.7 -6 0 C-3 -1 -3 -1 0 0 Z " fill="#4D81F2" transform="translate(77,114)"/>
<path d="M0 0 C2.97 0.495 2.97 0.495 6 1 C6 2.32 6 3.64 6 5 C5.38125 4.814375 4.7625 4.62875 4.125 4.4375 C1.95839822 3.76313824 1.95839822 3.76313824 0 5 C0 3.35 0 1.7 0 0 Z " fill="#11C79A" transform="translate(85,85)"/>
<path d="M0 0 C0 2.66666667 0 5.33333333 0 8 C-1.65 8.33 -3.3 8.66 -5 9 C-3.7508258 5.54074837 -2.32472205 2.85306797 0 0 Z " fill="#2D2D2E" transform="translate(258,77)"/>
<path d="M0 0 C1 2 1 2 0.375 4.9375 C-1.21652215 8.48225388 -2.55084038 9.36618755 -6 11 C-4.74194623 6.49197399 -3.09592835 3.5087188 0 0 Z " fill="#D5603A" transform="translate(15,56)"/>
<path d="M0 0 C1.98 0.66 3.96 1.32 6 2 C6 3.32 6 4.64 6 6 C5.67 5.34 5.34 4.68 5 4 C4.34 4 3.68 4 3 4 C3 4.66 3 5.32 3 6 C2.01 5.67 1.02 5.34 0 5 C0 3.33333333 0 1.66666667 0 0 Z " fill="#171719" transform="translate(380,102)"/>
<path d="M0 0 C0.33 0.99 0.66 1.98 1 3 C-2.75 6.875 -2.75 6.875 -5 8 C-5.33 8.99 -5.66 9.98 -6 11 C-6.33 10.34 -6.66 9.68 -7 9 C-5.19168608 5.38337216 -2.94721162 2.74395564 0 0 Z " fill="#D84E1D" transform="translate(22,49)"/>
<path d="M0 0 C-0.99 1.32 -1.98 2.64 -3 4 C-4.65 3.67 -6.3 3.34 -8 3 C-8 2.34 -8 1.68 -8 1 C-4.93251126 -0.86240388 -3.40254489 -1.2151946 0 0 Z " fill="#F0EEFC" transform="translate(73,123)"/>
<path d="M0 0 C1.9375 0.8125 1.9375 0.8125 4 2 C4.33 2.99 4.66 3.98 5 5 C4.67 5.66 4.34 6.32 4 7 C2.68 6.67 1.36 6.34 0 6 C0 4.02 0 2.04 0 0 Z " fill="#8B6DE4" transform="translate(63,117)"/>
<path d="M0 0 C0.12375 0.639375 0.2475 1.27875 0.375 1.9375 C0.684375 2.9584375 0.684375 2.9584375 1 4 C1.66 4.33 2.32 4.66 3 5 C1.1875 6.0625 1.1875 6.0625 -1 7 C-1.99 6.67 -2.98 6.34 -4 6 C-3.34 5.67 -2.68 5.34 -2 5 C-2.33 3.68 -2.66 2.36 -3 1 C-2.01 0.67 -1.02 0.34 0 0 Z " fill="#333334" transform="translate(281,108)"/>
<path d="M0 0 C0.66 0 1.32 0 2 0 C2 0.66 2 1.32 2 2 C2.99 2.33 3.98 2.66 5 3 C4.67 3.99 4.34 4.98 4 6 C1.525 5.01 1.525 5.01 -1 4 C-0.67 2.68 -0.34 1.36 0 0 Z " fill="#222224" transform="translate(169,107)"/>
<path d="M0 0 C2.475 0.99 2.475 0.99 5 2 C4.67 2.66 4.34 3.32 4 4 C0.9375 4.625 0.9375 4.625 -2 5 C-2 4.34 -2 3.68 -2 3 C-2.99 2.34 -3.98 1.68 -5 1 C-2.525 1.495 -2.525 1.495 0 2 C0 1.34 0 0.68 0 0 Z " fill="#1C1C1E" transform="translate(262,102)"/>
<path d="M0 0 C1.98 0.66 3.96 1.32 6 2 C6 3.32 6 4.64 6 6 C3.5625 5.25 3.5625 5.25 1 4 C0.1875 1.875 0.1875 1.875 0 0 Z " fill="#1B1B1D" transform="translate(222,96)"/>
<path d="M0 0 C1.32 0 2.64 0 4 0 C4.33 1.65 4.66 3.3 5 5 C3.68 5.99 2.36 6.98 1 8 C0.4375 6.0625 0.4375 6.0625 0 4 C0.33 3.67 0.66 3.34 1 3 C0.67 2.01 0.34 1.02 0 0 Z " fill="#1C1C1D" transform="translate(310,78)"/>
<path d="M0 0 C3.96 1.98 3.96 1.98 8 4 C7.01 5.485 7.01 5.485 6 7 C3.56070254 5.07423885 1.19909405 3.19909405 -1 1 C-0.67 0.67 -0.34 0.34 0 0 Z M6 1 C6.99 1.495 6.99 1.495 8 2 C7.01 2.495 7.01 2.495 6 3 C6 2.34 6 1.68 6 1 Z " fill="#E8E8E8" transform="translate(283,72)"/>
<path d="M0 0 C8.57142857 0.71428571 8.57142857 0.71428571 12 4 C7.6822542 3.49202991 3.96697886 2.80317221 0 1 C0 0.67 0 0.34 0 0 Z " fill="#F3F8B4" transform="translate(56,51)"/>
<path d="M0 0 C0.99 0.33 1.98 0.66 3 1 C0.69 3.31 -1.62 5.62 -4 8 C-4.33 7.34 -4.66 6.68 -5 6 C-3.86525052 2.59575156 -3.03188696 1.78346291 0 0 Z " fill="#FCD9BC" transform="translate(19,49)"/>
<path d="M0 0 C-3.41016497 2.86453858 -6.90694544 4.34703566 -11 6 C-11 5.01 -11 4.02 -11 3 C-7.14243493 0.84694043 -4.44870215 -0.39253254 0 0 Z " fill="#D57422" transform="translate(42,49)"/>
<path d="M0 0 C-0.33 2.31 -0.66 4.62 -1 7 C1.64 7 4.28 7 7 7 C7 7.33 7 7.66 7 8 C4.03 8 1.06 8 -2 8 C-2 6.02 -2 4.04 -2 2 C-2.66 1.67 -3.32 1.34 -4 1 C-2 0 -2 0 0 0 Z " fill="#5A5A5B" transform="translate(195,107)"/>
<path d="M0 0 C4.75 1.875 4.75 1.875 7 3 C6.67 3.99 6.34 4.98 6 6 C4.02 5.01 2.04 4.02 0 3 C0 2.01 0 1.02 0 0 Z " fill="#E9E9EA" transform="translate(371,80)"/>
<path d="M0 0 C0 0.99 0 1.98 0 3 C-5.75 2.25 -5.75 2.25 -8 0 C-4.94736336 -0.98120464 -3.05263664 -0.98120464 0 0 Z " fill="#1A1A1A" transform="translate(382,76)"/>
<path d="M0 0 C1.6396875 0.0928125 1.6396875 0.0928125 3.3125 0.1875 C2.9825 1.1775 2.6525 2.1675 2.3125 3.1875 C-0.6575 3.1875 -3.6275 3.1875 -6.6875 3.1875 C-3.6875 0.1875 -3.6875 0.1875 0 0 Z " fill="#2A2A2A" transform="translate(464.6875,71.8125)"/>
<path d="M0 0 C0.66 0.66 1.32 1.32 2 2 C0.56465159 2.2226746 -0.87345525 2.42761906 -2.3125 2.625 C-3.11300781 2.74101563 -3.91351563 2.85703125 -4.73828125 2.9765625 C-7 3 -7 3 -10 1 C-6.61401171 -0.04184255 -3.53318313 -0.23042499 0 0 Z " fill="#DB981A" transform="translate(49,47)"/>
<path d="M0 0 C0.66 0.33 1.32 0.66 2 1 C1.67 1.598125 1.34 2.19625 1 2.8125 C-0.20787988 5.05386471 -0.20787988 5.05386471 0 8 C-0.99 7.67 -1.98 7.34 -3 7 C-3.6875 4.9375 -3.6875 4.9375 -4 3 C-2.68 2.01 -1.36 1.02 0 0 Z " fill="#5D70C8" transform="translate(70,110)"/>
<path d="M0 0 C2.31 0 4.62 0 7 0 C7.33 1.32 7.66 2.64 8 4 C2.25 2.25 2.25 2.25 0 0 Z " fill="#FCE1E9" transform="translate(32,112)"/>
<path d="M0 0 C1.32 0 2.64 0 4 0 C3.49396008 2.16874252 3.00016187 3.99967627 2 6 C1.34 6 0.68 6 0 6 C0 4.02 0 2.04 0 0 Z " fill="#039EED" transform="translate(82,101)"/>
<path d="M0 0 C1.32 1.32 2.64 2.64 4 4 C3.34 5.32 2.68 6.64 2 8 C1.67 6.35 1.34 4.7 1 3 C0.01 3.33 -0.98 3.66 -2 4 C-1.34 2.68 -0.68 1.36 0 0 Z " fill="#2F2F2F" transform="translate(289,98)"/>
<path d="M0 0 C2.0625 2.3125 2.0625 2.3125 4 5 C3.67 5.99 3.34 6.98 3 8 C2.01 8 1.02 8 0 8 C0 5.36 0 2.72 0 0 Z " fill="#39393A" transform="translate(285,90)"/>
<path d="M0 0 C0 1.32 0 2.64 0 4 C-1.65 4 -3.3 4 -5 4 C-5 3.01 -5 2.02 -5 1 C-3 0 -3 0 0 0 Z " fill="#D054AF" transform="translate(48,118)"/>
<path d="M0 0 C0.66 0 1.32 0 2 0 C2.33 0.99 2.66 1.98 3 3 C2.67 3.66 2.34 4.32 2 5 C0.02 5 -1.96 5 -4 5 C-3.34 4.01 -2.68 3.02 -2 2 C-1.34 2 -0.68 2 0 2 C0 1.34 0 0.68 0 0 Z " fill="#212123" transform="translate(422,106)"/>
<path d="M0 0 C0.66 0 1.32 0 2 0 C2.33 0.99 2.66 1.98 3 3 C1.02 3.99 1.02 3.99 -1 5 C-1.99 4.34 -2.98 3.68 -4 3 C-2.68 2.67 -1.36 2.34 0 2 C0 1.34 0 0.68 0 0 Z " fill="#2C2C2D" transform="translate(383,106)"/>
<path d="M0 0 C1.98 0.66 3.96 1.32 6 2 C5.01 3.485 5.01 3.485 4 5 C4 4.34 4 3.68 4 3 C3.34 3 2.68 3 2 3 C1.67 3.99 1.34 4.98 1 6 C0.4465236 3.92446352 0 2.15634036 0 0 Z " fill="#F3F3F3" transform="translate(346,105)"/>
<path d="M0 0 C0.33 0 0.66 0 1 0 C1.33 2.97 1.66 5.94 2 9 C0.68 8.34 -0.64 7.68 -2 7 C-1.34 4.69 -0.68 2.38 0 0 Z " fill="#323232" transform="translate(240,73)"/>
<path d="M0 0 C0.99 0.33 1.98 0.66 3 1 C1.25 6.75 1.25 6.75 -1 9 C-0.67 6.03 -0.34 3.06 0 0 Z " fill="#D85620" transform="translate(19,61)"/>
<path d="M0 0 C2.64 0 5.28 0 8 0 C8 0.66 8 1.32 8 2 C8.66 2 9.32 2 10 2 C10 2.66 10 3.32 10 4 C6.7 3.01 3.4 2.02 0 1 C0 0.67 0 0.34 0 0 Z " fill="#F8F494" transform="translate(58,40)"/>
<path d="M0 0 C4.29 0.33 8.58 0.66 13 1 C13 1.33 13 1.66 13 2 C11.39884424 2.2493357 9.79379841 2.47378648 8.1875 2.6875 C6.84751953 2.87892578 6.84751953 2.87892578 5.48046875 3.07421875 C3 3 3 3 0 0 Z " fill="#D975B6" transform="translate(40,116)"/>
<path d="M0 0 C0.99 0 1.98 0 3 0 C3.33 1.32 3.66 2.64 4 4 C3.34 4 2.68 4 2 4 C1.67 4.99 1.34 5.98 1 7 C0.34 6.67 -0.32 6.34 -1 6 C-0.67 4.02 -0.34 2.04 0 0 Z " fill="#343434" transform="translate(223,113)"/>
<path d="M0 0 C1.41377341 2.63904371 2.37240135 5.07120629 3 8 C2.01 8.495 2.01 8.495 1 9 C-1.09230769 4.56923077 -1.09230769 4.56923077 -0.625 1.6875 C-0.41875 1.130625 -0.2125 0.57375 0 0 Z " fill="#FEE0CA" transform="translate(18,90)"/>
<path d="M0 0 C0.33 0.66 0.66 1.32 1 2 C1.66 2.33 2.32 2.66 3 3 C1.35 3.66 -0.3 4.32 -2 5 C-2.66 4.34 -3.32 3.68 -4 3 C-2.68 2.01 -1.36 1.02 0 0 Z " fill="#ECECEC" transform="translate(459,82)"/>
<path d="M0 0 C0.66 0.99 1.32 1.98 2 3 C1.34 4.32 0.68 5.64 0 7 C-0.99 6.67 -1.98 6.34 -3 6 C-1.125 1.125 -1.125 1.125 0 0 Z " fill="#2C2C2D" transform="translate(353,78)"/>
<path d="M0 0 C0.33 0 0.66 0 1 0 C1 1.65 1 3.3 1 5 C-0.65 5.33 -2.3 5.66 -4 6 C-2.84826645 3.53199953 -1.95216435 1.95216435 0 0 Z " fill="#2E2E2F" transform="translate(403,76)"/>
<path d="M0 0 C0.99 0.33 1.98 0.66 3 1 C3 1.66 3 2.32 3 3 C3.99 3.33 4.98 3.66 6 4 C3.125 4.1875 3.125 4.1875 0 4 C-0.66 3.01 -1.32 2.02 -2 1 C-1.34 0.67 -0.68 0.34 0 0 Z " fill="#E0CE1E" transform="translate(62,42)"/>
</svg>
