<?xml version="1.0" encoding="UTF-8"?>
<svg version="1.1" xmlns="http://www.w3.org/2000/svg" width="474" height="474">
<path d="M0 0 C156.42 0 312.84 0 474 0 C474 156.42 474 312.84 474 474 C317.58 474 161.16 474 0 474 C0 317.58 0 161.16 0 0 Z " fill="#FDFDFD" transform="translate(0,0)"/>
<path d="M0 0 C12.189375 -0.020625 24.37875 -0.04125 36.9375 -0.0625 C42.71882446 -0.07615601 42.71882446 -0.07615601 48.61694336 -0.09008789 C53.30969238 -0.09460449 53.30969238 -0.09460449 55.50392151 -0.09544373 C57.04221383 -0.09698313 58.58050492 -0.10050799 60.11878967 -0.10557556 C62.44371652 -0.11285418 64.76856939 -0.11390738 67.09350586 -0.11352539 C69.06207802 -0.11685631 69.06207802 -0.11685631 71.07041931 -0.12025452 C74 0 74 0 75 1 C75.09443335 3.30053835 75.11742128 5.60402173 75.11352539 7.90649414 C75.11364593 8.64011642 75.11376646 9.37373869 75.11389065 10.12959194 C75.11314161 12.51481042 75.10551382 14.89995167 75.09765625 17.28515625 C75.0961868 18.75353966 75.09516611 20.22192358 75.09460449 21.69030762 C75.08935194 27.14771304 75.07539085 32.60510727 75.0625 38.0625 C75.041875 50.251875 75.02125 62.44125 75 75 C50.25 75 25.5 75 0 75 C0 50.25 0 25.5 0 0 Z " fill="#E5011E" transform="translate(52,193)"/>
<path d="M0 0 C3.96 0 7.92 0 12 0 C12 0.99 12 1.98 12 3 C28.17 3 44.34 3 61 3 C61 2.01 61 1.02 61 0 C64.96 0 68.92 0 73 0 C73 12.21 73 24.42 73 37 C48.91 37 24.82 37 0 37 C0 24.79 0 12.58 0 0 Z " fill="#020202" transform="translate(53,230)"/>
<path d="M0 0 C3.46837046 1.10692674 5.42553201 0.75944996 8.9375 -0.0625 C9.88625 -0.248125 10.835 -0.43375 11.8125 -0.625 C12.51375 -0.769375 13.215 -0.91375 13.9375 -1.0625 C13.9375 -0.4025 13.9375 0.2575 13.9375 0.9375 C15.9175 0.9375 17.8975 0.9375 19.9375 0.9375 C19.9375 11.1675 19.9375 21.3975 19.9375 31.9375 C17.9575 31.9375 15.9775 31.9375 13.9375 31.9375 C13.2775 30.9475 12.6175 29.9575 11.9375 28.9375 C10.47846742 29.24671884 9.02029278 29.55998799 7.5625 29.875 C6.75039063 30.04902344 5.93828125 30.22304687 5.1015625 30.40234375 C2.908037 30.86080693 2.908037 30.86080693 0.9375 31.9375 C-1.47499692 32.11353147 -3.89400895 32.20494968 -6.3125 32.25 C-7.61703125 32.28738281 -8.9215625 32.32476562 -10.265625 32.36328125 C-15.75151294 31.74809423 -18.70889234 29.36235017 -22.4375 25.4375 C-24.79448334 20.3609205 -24.72321926 15.45373758 -24.0625 9.9375 C-22.051772 4.86196191 -18.4401191 2.65182102 -13.6875 0.1875 C-8.71336115 -1.52772029 -4.98933544 -1.73099393 0 0 Z " fill="#F7F7F7" transform="translate(251.0625,194.0625)"/>
<path d="M0 0 C3.49010734 2.39990609 5.96431345 5.4833144 7.86328125 9.28125 C8.568336 14.04036957 8.91264637 18.43968811 6.4765625 22.71484375 C2.46232347 27.46052764 -0.95363247 29.93863996 -7.2578125 30.6171875 C-18.55016969 30.75019524 -18.55016969 30.75019524 -23.13671875 26.28125 C-27.08160298 21.69665481 -28.55192312 17.26626906 -28.13671875 11.28125 C-26.83024526 6.68019118 -24.91581677 3.91115904 -21.19921875 0.90625 C-13.62038014 -3.11517457 -7.78318604 -4.23163513 0 0 Z " fill="#0D0D0D" transform="translate(213.13671875,195.71875)"/>
<path d="M0 0 C12.189375 -0.020625 24.37875 -0.04125 36.9375 -0.0625 C42.71882446 -0.07615601 42.71882446 -0.07615601 48.61694336 -0.09008789 C53.30969238 -0.09460449 53.30969238 -0.09460449 55.50392151 -0.09544373 C57.04221383 -0.09698313 58.58050492 -0.10050799 60.11878967 -0.10557556 C62.44371652 -0.11285418 64.76856939 -0.11390738 67.09350586 -0.11352539 C69.06207802 -0.11685631 69.06207802 -0.11685631 71.07041931 -0.12025452 C74 0 74 0 75 1 C75.09443335 3.30053835 75.11742128 5.60402173 75.11352539 7.90649414 C75.11364593 8.64011642 75.11376646 9.37373869 75.11389065 10.12959194 C75.11314161 12.51481042 75.10551382 14.89995167 75.09765625 17.28515625 C75.0961868 18.75353966 75.09516611 20.22192358 75.09460449 21.69030762 C75.08935194 27.14771304 75.07539085 32.60510727 75.0625 38.0625 C75.041875 50.251875 75.02125 62.44125 75 75 C50.25 75 25.5 75 0 75 C0 50.25 0 25.5 0 0 Z M2 2 C2 12.89 2 23.78 2 35 C4.87744268 36.43872134 7.34565922 36.11937153 10.56103516 36.11352539 C11.23432358 36.11367142 11.907612 36.11381744 12.6013031 36.1139679 C14.83058881 36.11327027 17.05979135 36.10548489 19.2890625 36.09765625 C20.83320063 36.09579154 22.37733934 36.09436789 23.92147827 36.09336853 C27.98870472 36.08954754 32.05589555 36.07972082 36.12310791 36.06866455 C41.00145736 36.05664451 45.8798187 36.05204619 50.75817871 36.04621124 C58.17214393 36.03650885 65.58603096 36.01734938 73 36 C73 24.78 73 13.56 73 2 C49.57 2 26.14 2 2 2 Z M1 37 C1 49.21 1 61.42 1 74 C25.09 74 49.18 74 74 74 C74 61.79 74 49.58 74 37 C70.04 37 66.08 37 62 37 C62 37.99 62 38.98 62 40 C45.83 40 29.66 40 13 40 C13 39.01 13 38.02 13 37 C9.04 37 5.08 37 1 37 Z " fill="#AC4E5C" transform="translate(52,193)"/>
<path d="M0 0 C3.83625 -0.103125 7.6725 -0.20625 11.625 -0.3125 C13.42251709 -0.38078003 13.42251709 -0.38078003 15.25634766 -0.45043945 C24.07878998 -0.56525713 24.07878998 -0.56525713 27.734375 2.26953125 C30.52872739 5.63720766 30.78709744 6.90459412 30.46484375 11.0703125 C29.41308733 15.4364274 26.58664091 17.60890606 23 20 C23.5053125 20.62648438 24.010625 21.25296875 24.53125 21.8984375 C25.1809375 22.71570313 25.830625 23.53296875 26.5 24.375 C27.47453125 25.59316406 27.47453125 25.59316406 28.46875 26.8359375 C30 29 30 29 30 31 C27.07717226 31.60892245 25.7908384 31.87637542 23 31 C19.86720515 27.99251694 17.31631243 24.67000151 15 21 C15 20.34 15 19.68 15 19 C11.7 19 8.4 19 5 19 C5 22.63 5 26.26 5 30 C3.35 30 1.7 30 0 30 C0 20.1 0 10.2 0 0 Z " fill="#111111" transform="translate(298,236)"/>
<path d="M0 0 C9.57 0 19.14 0 29 0 C29 1.98 29 3.96 29 6 C21.74 6 14.48 6 7 6 C7 8.31 7 10.62 7 13 C12.61 13 18.22 13 24 13 C24 14.98 24 16.96 24 19 C18.39 19 12.78 19 7 19 C7 21.31 7 23.62 7 26 C14.59 26 22.18 26 30 26 C30 27.98 30 29.96 30 32 C20.1 32 10.2 32 0 32 C0 21.44 0 10.88 0 0 Z " fill="#292929" transform="translate(279,194)"/>
<path d="M0 0 C9.57 0 19.14 0 29 0 C29 1.65 29 3.3 29 5 C21.74 5 14.48 5 7 5 C7 7.31 7 9.62 7 12 C12.61 12 18.22 12 24 12 C24 13.98 24 15.96 24 18 C18.39 18 12.78 18 7 18 C7 20.31 7 22.62 7 25 C7.6612085 24.99476318 8.32241699 24.98952637 9.00366211 24.98413086 C11.98159851 24.96342344 14.95951982 24.95035988 17.9375 24.9375 C18.97841797 24.92912109 20.01933594 24.92074219 21.09179688 24.91210938 C22.08115234 24.90888672 23.07050781 24.90566406 24.08984375 24.90234375 C25.46450806 24.89448853 25.46450806 24.89448853 26.86694336 24.88647461 C29 25 29 25 30 26 C30 27.65 30 29.3 30 31 C20.1 31 10.2 31 0 31 C0 20.77 0 10.54 0 0 Z " fill="#252525" transform="translate(262,236)"/>
<path d="M0 0 C9.24 0 18.48 0 28 0 C28 1.65 28 3.3 28 5 C20.74 5 13.48 5 6 5 C6 7.31 6 9.62 6 12 C11.94 12 17.88 12 24 12 C24 13.65 24 15.3 24 17 C23 18 23 18 19.40234375 18.09765625 C17.91403133 18.0909822 16.42573568 18.07902183 14.9375 18.0625 C14.17888672 18.05798828 13.42027344 18.05347656 12.63867188 18.04882812 C10.75908129 18.0370068 8.87953101 18.01907078 7 18 C7 20.31 7 22.62 7 25 C14.59 25 22.18 25 30 25 C30 26.98 30 28.96 30 31 C20.1 31 10.2 31 0 31 C0 20.77 0 10.54 0 0 Z " fill="#212121" transform="translate(188,236)"/>
<path d="M0 0 C9.57 0 19.14 0 29 0 C29 1.65 29 3.3 29 5 C21.41 5 13.82 5 6 5 C6 7.31 6 9.62 6 12 C11.94 12 17.88 12 24 12 C24 13.65 24 15.3 24 17 C23 18 23 18 19.18359375 18.09765625 C17.60153318 18.09098089 16.01948841 18.07901875 14.4375 18.0625 C13.63119141 18.05798828 12.82488281 18.05347656 11.99414062 18.04882812 C9.99606244 18.03700518 7.99802217 18.01906914 6 18 C6 20.31 6 22.62 6 25 C13.92 25 21.84 25 30 25 C30 26.98 30 28.96 30 31 C20.1 31 10.2 31 0 31 C0 20.77 0 10.54 0 0 Z " fill="#1F1F1F" transform="translate(347,195)"/>
<path d="M0 0 C6 0 6 0 8.5625 2.15625 C9.366875 3.0946875 10.17125 4.033125 11 5 C11.825 5.8971875 12.65 6.794375 13.5 7.71875 C15.16666667 9.57291667 16.83333333 11.42708333 18.5 13.28125 C20.9282585 15.92198112 23.46327966 18.46327966 26 21 C26 14.07 26 7.14 26 0 C27.98 0 29.96 0 32 0 C32 10.23 32 20.46 32 31 C29.69 31 27.38 31 25 31 C22.875 28.3125 22.875 28.3125 21 25 C20.2575 24.2575 19.515 23.515 18.75 22.75 C15.43166892 19.43166892 12.638379 15.81748414 9.76953125 12.109375 C8.1709214 9.91970191 8.1709214 9.91970191 6 9 C6 16.26 6 23.52 6 31 C4.02 31 2.04 31 0 31 C0 20.77 0 10.54 0 0 Z " fill="#1F1F1F" transform="translate(223,236)"/>
<path d="M0 0 C2.31 0 4.62 0 7 0 C21 25.69035533 21 25.69035533 21 31 C19.02 31 17.04 31 15 31 C13.515 27.535 13.515 27.535 12 24 C6.39 24 0.78 24 -5 24 C-5.99 26.31 -6.98 28.62 -8 31 C-9.98 31 -11.96 31 -14 31 C-13.3749298 26.24762802 -11.42567519 22.50901218 -9.25 18.3125 C-8.89164062 17.60931641 -8.53328125 16.90613281 -8.1640625 16.18164062 C-7.44690308 14.77440875 -6.72754307 13.36829593 -6.00585938 11.96337891 C-4.65094113 9.31865742 -3.32435736 6.66013159 -2 4 C-1.33333333 2.66666667 -0.66666667 1.33333333 0 0 Z " fill="#171717" transform="translate(345,236)"/>
<path d="M0 0 C0.9075 0.495 1.815 0.99 2.75 1.5 C2.42 3.15 2.09 4.8 1.75 6.5 C0.63625 6.17 -0.4775 5.84 -1.625 5.5 C-6.51454223 4.25570789 -11.23577615 4.31504912 -16.25 4.5 C-16.58 5.82 -16.91 7.14 -17.25 8.5 C-13.55020177 10.13146084 -10.11891293 10.96691649 -6.125 11.5625 C1.97779003 12.78499076 1.97779003 12.78499076 4.4375 15.0625 C6.30644271 18.5333936 6.74524443 21.65330129 5.75 25.5 C-1.3094005 31.6181471 -9.4209125 31.05939308 -18.25 30.5 C-20.9775008 29.77936999 -22.80523007 28.93108483 -25.25 27.5 C-24.92 25.52 -24.59 23.54 -24.25 21.5 C-23.486875 21.809375 -22.72375 22.11875 -21.9375 22.4375 C-17.97087413 24.00570092 -15.00192879 24.63642992 -10.75 24.625 C-9.7909375 24.62757813 -8.831875 24.63015625 -7.84375 24.6328125 C-5.13428848 24.60992972 -5.13428848 24.60992972 -2.25 23.5 C-2.25 22.18 -2.25 20.86 -2.25 19.5 C-5.9013146 18.15477883 -9.42675908 17.2718323 -13.25 16.625 C-17.68920529 15.74654699 -20.92282927 14.7396136 -24.25 11.5 C-24.9375 8.0625 -24.9375 8.0625 -24.25 4.5 C-18.40295531 -2.7692988 -8.45549488 -3.67328876 0 0 Z " fill="#1D1D1D" transform="translate(174.25,195.5)"/>
<path d="M0 0 C0.9075 0.495 1.815 0.99 2.75 1.5 C2.75 2.82 2.75 4.14 2.75 5.5 C0.16777082 6.45638118 -0.91129178 6.64112843 -3.5 5.5625 C-8.21824604 3.7395413 -12.48179057 3.73121329 -17.125 5.75 C-19.41006242 7.63181611 -20.17880387 8.77554225 -21.25 11.5 C-21.38971133 13.7676653 -21.38971133 13.7676653 -21.0625 16.0625 C-20.98644531 16.82691406 -20.91039062 17.59132812 -20.83203125 18.37890625 C-20.13619346 20.91474463 -19.30370586 21.88742428 -17.25 23.5 C-14.43772378 24.43742541 -12.66253156 24.63470844 -9.75 24.625 C-8.9765625 24.62757813 -8.203125 24.63015625 -7.40625 24.6328125 C-5.06552983 24.58145813 -5.06552983 24.58145813 -2.25 23.5 C-1.92 20.53 -1.59 17.56 -1.25 14.5 C0.73 14.5 2.71 14.5 4.75 14.5 C4.75 18.79 4.75 23.08 4.75 27.5 C-0.25 29.5 -0.25 29.5 -3.25 29.5 C-3.25 30.16 -3.25 30.82 -3.25 31.5 C-10.47074347 31.97784332 -16.27394705 31.9176718 -22.25 27.5 C-26.89188892 23.17065722 -28.06577629 19.784374 -28.5625 13.625 C-28.47248401 9.21421638 -27.22338616 6.84505943 -24.25 3.5 C-17.45092539 -2.69434923 -8.43878166 -3.56037847 0 0 Z " fill="#111111" transform="translate(176.25,236.5)"/>
<path d="M0 0 C7.26 0 14.52 0 22 0 C22 1.65 22 3.3 22 5 C16.72 5 11.44 5 6 5 C6 7.31 6 9.62 6 12 C11.28 12 16.56 12 22 12 C22 13.98 22 15.96 22 18 C16.72 18 11.44 18 6 18 C6 20.64 6 23.28 6 26 C11.28 26 16.56 26 22 26 C22 27.65 22 29.3 22 31 C14.74 31 7.48 31 0 31 C0 20.77 0 10.54 0 0 Z " fill="#1E1E1E" transform="translate(401,236)"/>
<path d="M0 0 C0.99 0.33 1.98 0.66 3 1 C2.34 2.65 1.68 4.3 1 6 C0.34 6 -0.32 6 -1 6 C-1.2773501 9.18490007 -1.2773501 9.18490007 1 12 C-0.98 12 -2.96 12 -5 12 C-5 14.97 -5 17.94 -5 21 C-9.68117885 23.34058942 -12.87372344 23.58690823 -18 23 C-22.18587144 21.2710531 -24.17315321 19.13444274 -26 15 C-26.43597191 11.51222468 -26.2345205 9.53075692 -24.8125 6.3125 C-22.33554445 3.15224637 -20.16399479 1.28092427 -16.07421875 0.75 C-11.84535394 0.62257658 -8.91658298 1.36809042 -5 3 C-2.78141747 2.86358623 -2.78141747 2.86358623 -1 2 C-0.67 1.34 -0.34 0.68 0 0 Z " fill="#F0F0F0" transform="translate(180,239)"/>
<path d="M0 0 C3.01665131 1.75917031 5.41424743 3.82849486 7 7 C7.68128376 13.81283762 7.68128376 13.81283762 5.953125 16.82421875 C3.61212301 19.66784764 1.76508419 21.81967706 -1.98828125 22.203125 C-8.02938514 22.32496239 -11.29522754 21.51823643 -15.8125 17.3125 C-17.60407602 13.82364143 -17.19461943 10.89238853 -17 7 C-16.34 7 -15.68 7 -15 7 C-14.95875 6.401875 -14.9175 5.80375 -14.875 5.1875 C-14 3 -14 3 -11.4375 1.25 C-7.43158714 -0.20669558 -4.20318555 -0.91918571 0 0 Z " fill="#F3F3F3" transform="translate(208,199)"/>
<path d="M0 0 C2.875 1.5 2.875 1.5 5 3 C5 3.66 5 4.32 5 5 C4.34 5 3.68 5 3 5 C3 5.99 3 6.98 3 8 C0.83125748 7.49396008 -0.99967627 7.00016187 -3 6 C-5.1192635 5.80006948 -7.24723446 5.68715944 -9.375 5.625 C-11.08816406 5.55152344 -11.08816406 5.55152344 -12.8359375 5.4765625 C-16.15996988 5.71621993 -16.15996988 5.71621993 -18.359375 8.3046875 C-20.89292517 12.46694849 -21.43095755 16.06069103 -20.375 20.8125 C-18.53384604 23.74160858 -17.3583802 24.19690908 -14 25 C-8.56861053 25.36209263 -4.1116654 24.71792647 1.1171875 23.2421875 C1.73851562 23.16226563 2.35984375 23.08234375 3 23 C5 25 5 25 5 28 C-1.74387291 31.94763292 -9.36783534 32.04561479 -17 31 C-21.72712079 28.33299075 -24.6914606 25.9722387 -27 21 C-27.59663266 15.43640042 -28.0856197 9.88285785 -25 5 C-17.60072651 -1.97645787 -9.42858706 -3.89441639 0 0 Z " fill="#161616" transform="translate(254,195)"/>
<path d="M0 0 C1.98 0 3.96 0 6 0 C6 8.25 6 16.5 6 25 C12.6 25 19.2 25 26 25 C26 26.65 26 28.3 26 30 C17.42 30 8.84 30 0 30 C0 20.1 0 10.2 0 0 Z " fill="#171717" transform="translate(371,236)"/>
<path d="M0 0 C10.23 0 20.46 0 31 0 C31 1.65 31 3.3 31 5 C26.71 5 22.42 5 18 5 C18 13.25 18 21.5 18 30 C16.35 30 14.7 30 13 30 C13 21.75 13 13.5 13 5 C8.71 5 4.42 5 0 5 C0 3.35 0 1.7 0 0 Z " fill="#0D0D0D" transform="translate(312,195)"/>
<path d="M0 0 C15.84 0 31.68 0 48 0 C48 1.65 48 3.3 48 5 C32.16 5 16.32 5 0 5 C0 3.35 0 1.7 0 0 Z " fill="#F2D8DB" transform="translate(66,228)"/>
<path d="M0 0 C0.9075 0.495 1.815 0.99 2.75 1.5 C2.42 3.15 2.09 4.8 1.75 6.5 C0.63625 6.17 -0.4775 5.84 -1.625 5.5 C-6.51454223 4.25570789 -11.23577615 4.31504912 -16.25 4.5 C-16.58 5.82 -16.91 7.14 -17.25 8.5 C-13.785 9.985 -13.785 9.985 -10.25 11.5 C-10.25 12.83333333 -10.25 14.16666667 -10.25 15.5 C-14.88649105 15.819758 -17.46455925 15.85064319 -21.75 13.9375 C-24.25 11.5 -24.25 11.5 -24.9375 8.0625 C-24.09233779 3.68302309 -22.70843393 2.23457566 -19.25 -0.5 C-13.23718663 -2.50427112 -5.86285405 -2.54697758 0 0 Z " fill="#181818" transform="translate(174.25,195.5)"/>
<path d="M0 0 C0.99 0.66 1.98 1.32 3 2 C1.906875 1.95875 0.81375 1.9175 -0.3125 1.875 C-4.08892229 1.67925334 -4.08892229 1.67925334 -7 4 C-4.525 4.495 -4.525 4.495 -2 5 C-2 5.33 -2 5.66 -2 6 C-2.69867188 6.17015625 -3.39734375 6.3403125 -4.1171875 6.515625 C-5.02726562 6.75796875 -5.93734375 7.0003125 -6.875 7.25 C-7.77992188 7.48203125 -8.68484375 7.7140625 -9.6171875 7.953125 C-12.14957604 8.79914179 -12.14957604 8.79914179 -13.3203125 11.109375 C-13.65675781 12.04523438 -13.65675781 12.04523438 -14 13 C-14.66 13 -15.32 13 -16 13 C-15.74379316 14.6065676 -15.46944129 16.2102483 -15.1875 17.8125 C-15.03667969 18.70582031 -14.88585937 19.59914062 -14.73046875 20.51953125 C-13.55658841 24.50570245 -11.39709222 25.73527185 -8 28 C-11.08809695 29.76462683 -12.23312136 30 -16 30 C-19.68835123 26.31164877 -21.93947182 22.35595114 -22.03515625 17.05078125 C-21.64894424 12.1053836 -20.40630736 8.73863003 -17 5 C-11.59786411 1.43308449 -6.59696943 -0.9424242 0 0 Z " fill="#131313" transform="translate(207,193)"/>
<path d="M0 0 C1.98 0 3.96 0 6 0 C6 4.29 6 8.58 6 13 C1 15 1 15 -2 15 C-2 15.66 -2 16.32 -2 17 C-9.57771707 17.50146657 -14.45783241 16.94998798 -21 13 C-20.01 11.35 -19.02 9.7 -18 8 C-17.360625 8.33 -16.72125 8.66 -16.0625 9 C-11.05772683 10.63421165 -5.99652074 10.66550691 -1 9 C-0.67 6.03 -0.34 3.06 0 0 Z " fill="#1B1B1B" transform="translate(175,251)"/>
<path d="M0 0 C1.98 0 3.96 0 6 0 C6 10.23 6 20.46 6 31 C4.02 31 2.04 31 0 31 C0 20.77 0 10.54 0 0 Z " fill="#191919" transform="translate(265,195)"/>
<path d="M0 0 C2.31 0 4.62 0 7 0 C7.86916887 1.40751221 8.71985149 2.8264521 9.5625 4.25 C10.03816406 5.03890625 10.51382812 5.8278125 11.00390625 6.640625 C12.13022151 9.30844625 12.0169313 10.34501768 11 13 C11 12.01 11 11.02 11 10 C10.01 10 9.02 10 8 10 C8.165 10.94875 8.33 11.8975 8.5 12.875 C9 16 9 16 9 18 C5.37 18 1.74 18 -2 18 C-0.21965318 12.40462428 -0.21965318 12.40462428 1.1875 9.8125 C2.3202776 7.83312397 2.3202776 7.83312397 1 5 C-0.1490712 6.9254644 -0.1490712 6.9254644 0 9 C-2.5 10.625 -2.5 10.625 -5 12 C-3.68938409 7.76570244 -2.05643741 3.92592596 0 0 Z " fill="#191919" transform="translate(345,236)"/>
<path d="M0 0 C2.62527189 -0.05382106 5.24944713 -0.09358313 7.875 -0.125 C8.62136719 -0.14175781 9.36773437 -0.15851563 10.13671875 -0.17578125 C12.09194461 -0.1933959 14.04742021 -0.10320189 16 0 C16.66 0.66 17.32 1.32 18 2 C17.67 4.31 17.34 6.62 17 9 C11.39 9 5.78 9 0 9 C0 6.03 0 3.06 0 0 Z " fill="#F3F3F3" transform="translate(304,241)"/>
<path d="M0 0 C1.32 0 2.64 0 4 0 C4 9.57 4 19.14 4 29 C2.02 29 0.04 29 -2 29 C-4.375 26.5 -4.375 26.5 -6 24 C-4 22 -4 22 -1 21 C-0.67 14.07 -0.34 7.14 0 0 Z " fill="#030303" transform="translate(250,237)"/>
<path d="M0 0 C0.763125 0.309375 1.52625 0.61875 2.3125 0.9375 C7.67075411 3.05587953 12.60230854 3.33566373 18.28320312 3.60546875 C23.79841662 3.89920831 23.79841662 3.89920831 26 5 C26 5.66 26 6.32 26 7 C19.31277471 10.21550488 10.58300222 10.22166315 3.46484375 8.32421875 C1.5625 7.5 1.5625 7.5 -1 6 C-0.67 4.02 -0.34 2.04 0 0 Z " fill="#131313" transform="translate(150,217)"/>
<path d="M0 0 C0.33 1.32 0.66 2.64 1 4 C-3.80518731 6.81279257 -8.23077905 7.37842252 -13.75 7.5 C-15.04421875 7.5309375 -16.3384375 7.561875 -17.671875 7.59375 C-21 7 -21 7 -22.953125 4.46875 C-23.29859375 3.6540625 -23.6440625 2.839375 -24 2 C-22.125 0.9375 -22.125 0.9375 -20 0 C-19.34 0.33 -18.68 0.66 -18 1 C-12.06989563 1.29650522 -5.28630732 -2.03319512 0 0 Z " fill="#0D0D0D" transform="translate(258,219)"/>
<path d="M0 0 C7.92 0 15.84 0 24 0 C24 1.65 24 3.3 24 5 C17.73 4.67 11.46 4.34 5 4 C4.67 4.99 4.34 5.98 4 7 C2 5.75 2 5.75 0 4 C0 2.68 0 1.36 0 0 Z " fill="#080808" transform="translate(298,236)"/>
<path d="M0 0 C1.98 0 3.96 0 6 0 C6 10.23 6 20.46 6 31 C3.69 31 1.38 31 -1 31 C-1 30.67 -1 30.34 -1 30 C0.98 30 2.96 30 5 30 C5 20.43 5 10.86 5 1 C3.68 1 2.36 1 1 1 C1 7.93 1 14.86 1 22 C0.01 22.33 -0.98 22.66 -2 23 C-2.33 23.66 -2.66 24.32 -3 25 C-4.9375 24.6875 -4.9375 24.6875 -7 24 C-7.33 23.01 -7.66 22.02 -8 21 C-7.34 21 -6.68 21 -6 21 C-6.33 19.02 -6.66 17.04 -7 15 C-4.69 16.98 -2.38 18.96 0 21 C0 14.07 0 7.14 0 0 Z " fill="#4D4D4D" transform="translate(249,236)"/>
<path d="M0 0 C0.33 0 0.66 0 1 0 C1 2.64 1 5.28 1 8 C6.28 8 11.56 8 17 8 C17 9.32 17 10.64 17 12 C10.4 12 3.8 12 -3 12 C-3 10.02 -3 8.04 -3 6 C-2.01 6.33 -1.02 6.66 0 7 C0 4.69 0 2.38 0 0 Z " fill="#0B0B0B" transform="translate(406,254)"/>
<path d="M0 0 C2.08304538 -0.05418326 4.16649768 -0.09287551 6.25 -0.125 C7.99023438 -0.15980469 7.99023438 -0.15980469 9.765625 -0.1953125 C12.82786046 -0.0103949 14.44202751 0.39176977 17 2 C16.67 3.65 16.34 5.3 16 7 C14.88625 6.690625 13.7725 6.38125 12.625 6.0625 C7.79490988 4.84199336 2.95709931 4.38600363 -2 4 C-1.34 2.68 -0.68 1.36 0 0 Z " fill="#080808" transform="translate(160,195)"/>
<path d="M0 0 C0.66 0 1.32 0 2 0 C2 6.27 2 12.54 2 19 C0.68 19 -0.64 19 -2 19 C-2.05380578 16.20807795 -2.09357669 13.4171859 -2.125 10.625 C-2.14175781 9.8309375 -2.15851563 9.036875 -2.17578125 8.21875 C-2.19335473 6.14507985 -2.10335168 4.07116759 -2 2 C-1.34 1.34 -0.68 0.68 0 0 Z " fill="#010101" transform="translate(226,247)"/>
<path d="M0 0 C3.8665284 3.222107 4.88059018 6.14922412 6 11 C2.37 11 -1.26 11 -5 11 C-3.77472971 6.94718288 -2.30119506 3.55639236 0 0 Z " fill="#E2E2E2" transform="translate(348,243)"/>
<path d="M0 0 C0.33 0 0.66 0 1 0 C1.33 2.31 1.66 4.62 2 7 C2.99 7.33 3.98 7.66 5 8 C2.90336901 11.97256398 0.69924405 14.43898489 -3 17 C-3.66 17 -4.32 17 -5 17 C-5.66 15.35 -6.32 13.7 -7 12 C-6.21625 11.505 -5.4325 11.01 -4.625 10.5 C-1.09968551 7.14255763 -0.86663179 4.72708251 0 0 Z " fill="#181818" transform="translate(215,208)"/>
<path d="M0 0 C2.0234375 0.75 2.0234375 0.75 3.359375 2.6875 C4.0234375 4.75 4.0234375 4.75 3.0234375 6.75 C-1.66394915 5.84276387 -6.31849994 4.7952733 -10.9765625 3.75 C-7.78739657 -0.82575982 -5.10049703 -0.54224553 0 0 Z " fill="#0B0B0B" transform="translate(209.9765625,194.25)"/>
<path d="M0 0 C2.6664882 -0.21620175 4.44004321 -0.30894168 6.8125 1 C8.73618446 4.23988962 8.18282384 7.2825819 8 11 C6.1875 10.875 6.1875 10.875 4 10 C2.06934367 6.78223945 0.70933531 3.68854359 0 0 Z " fill="#101010" transform="translate(172,210)"/>
<path d="M0 0 C3.94120709 0.56302958 6.7508723 1.6791945 10 4 C10 4.66 10 5.32 10 6 C9.34 6 8.68 6 8 6 C8 6.99 8 7.98 8 9 C5.83125748 8.49396008 4.00032373 8.00016187 2 7 C0.12943209 6.7724985 -1.74685958 6.59037189 -3.625 6.4375 C-5.12933594 6.31181641 -5.12933594 6.31181641 -6.6640625 6.18359375 C-7.43492187 6.12300781 -8.20578125 6.06242188 -9 6 C-9 5.67 -9 5.34 -9 5 C-5.7 4.67 -2.4 4.34 1 4 C1.33 3.01 1.66 2.02 2 1 C1.34 0.67 0.68 0.34 0 0 Z " fill="#3D3D3D" transform="translate(249,194)"/>
<path d="M0 0 C2.46800047 1.15173355 4.04783565 2.04783565 6 4 C6.26991906 6.68839385 6.08737357 9.29141936 6 12 C4.35 10.68 2.7 9.36 1 8 C1 9.32 1 10.64 1 12 C0.34 11.67 -0.32 11.34 -1 11 C-0.979375 10.21625 -0.95875 9.4325 -0.9375 8.625 C-0.81315937 6.01885039 -0.81315937 6.01885039 -2 4 C-1.34 4 -0.68 4 0 4 C-0.33 3.01 -0.66 2.02 -1 1 C-0.67 0.67 -0.34 0.34 0 0 Z " fill="#1C1C1C" transform="translate(322,237)"/>
<path d="M0 0 C3.96 0 7.92 0 12 0 C12 1.65 12 3.3 12 5 C11.01 5.495 11.01 5.495 10 6 C10 5.01 10 4.02 10 3 C6.7 3 3.4 3 0 3 C0 2.01 0 1.02 0 0 Z M9 6 C9.33 7.32 9.66 8.64 10 10 C8.68 10 7.36 10 6 10 C6 9.01 6 8.02 6 7 C6.99 6.67 7.98 6.34 9 6 Z " fill="#2F0308" transform="translate(114,230)"/>
<path d="M0 0 C3.3 0 6.6 0 10 0 C10.66 1.32 11.32 2.64 12 4 C8.04 4 4.08 4 0 4 C0 2.68 0 1.36 0 0 Z " fill="#131313" transform="translate(312,196)"/>
<path d="M0 0 C0.66 0 1.32 0 2 0 C2.33 2.64 2.66 5.28 3 8 C1.68 8 0.36 8 -1 8 C-1.66 8.66 -2.32 9.32 -3 10 C-3.66 7.69 -4.32 5.38 -5 3 C-4.01 2.67 -3.02 2.34 -2 2 C-1.34 2.33 -0.68 2.66 0 3 C0 2.01 0 1.02 0 0 Z " fill="#E6E6E6" transform="translate(183,208)"/>
<path d="M0 0 C1.9375 1.5 1.9375 1.5 3 3 C1 5 1 5 -0.875 5.08203125 C-1.926875 4.94861328 -1.926875 4.94861328 -3 4.8125 C-3.70125 4.73644531 -4.4025 4.66039062 -5.125 4.58203125 C-7 4 -7 4 -9 1 C-5.95016004 -0.52491998 -3.3576631 -0.23562548 0 0 Z " fill="#050505" transform="translate(249,194)"/>
<path d="M0 0 C0.66 0 1.32 0 2 0 C2 10.89 2 21.78 2 33 C1.01 33 0.02 33 -1 33 C-1 32.01 -1 31.02 -1 30 C-0.34 30 0.32 30 1 30 C0.67 20.1 0.34 10.2 0 0 Z " fill="#EE0524" transform="translate(122,195)"/>
<path d="M0 0 C0.33 1.32 0.66 2.64 1 4 C-1.49064888 4.68707555 -3.37886292 5 -6 5 C-6.33 4.34 -6.66 3.68 -7 3 C-7.99 2.67 -8.98 2.34 -10 2 C-3.75 -1.125 -3.75 -1.125 0 0 Z " fill="#242424" transform="translate(258,219)"/>
<path d="M0 0 C1.32 0.66 2.64 1.32 4 2 C3.875 4.25 3.875 4.25 3 7 C-0.0625 9.3125 -0.0625 9.3125 -3 11 C-3.33 10.34 -3.66 9.68 -4 9 C-3.34 9 -2.68 9 -2 9 C-2 7.68 -2 6.36 -2 5 C-1.34 4.67 -0.68 4.34 0 4 C0 2.68 0 1.36 0 0 Z " fill="#121212" transform="translate(323,245)"/>
<path d="M0 0 C0.33 0.66 0.66 1.32 1 2 C0.34 2.66 -0.32 3.32 -1 4 C-1.99 3.34 -2.98 2.68 -4 2 C-6.61289494 1.63250611 -6.61289494 1.63250611 -9.54296875 1.5859375 C-10.61611328 1.54726562 -11.68925781 1.50859375 -12.79492188 1.46875 C-13.91447266 1.4378125 -15.03402344 1.406875 -16.1875 1.375 C-17.31865234 1.33632812 -18.44980469 1.29765625 -19.61523438 1.2578125 C-22.4099925 1.16347467 -25.20474278 1.07788348 -28 1 C-28 0.67 -28 0.34 -28 0 C-23.89621612 -0.19660714 -19.79196562 -0.3807276 -15.6875 -0.5625 C-14.52025391 -0.61857422 -13.35300781 -0.67464844 -12.15039062 -0.73242188 C-11.03212891 -0.78076172 -9.91386719 -0.82910156 -8.76171875 -0.87890625 C-7.2142395 -0.94960327 -7.2142395 -0.94960327 -5.63549805 -1.02172852 C-3 -1 -3 -1 0 0 Z " fill="#DADADA" transform="translate(326,235)"/>
<path d="M0 0 C0.928125 0.20625 1.85625 0.4125 2.8125 0.625 C2.8125 1.95833333 2.8125 3.29166667 2.8125 4.625 C0.1725 4.625 -2.4675 4.625 -5.1875 4.625 C-5.5175 3.635 -5.8475 2.645 -6.1875 1.625 C-3.1875 -0.375 -3.1875 -0.375 0 0 Z " fill="#090909" transform="translate(161.1875,206.375)"/>
<path d="M0 0 C1.7074998 1.28062485 3.37373596 2.61767557 5 4 C5 4.66 5 5.32 5 6 C4.34 6 3.68 6 3 6 C2.67 6.66 2.34 7.32 2 8 C1.01 8.495 1.01 8.495 0 9 C-0.99 7.35 -1.98 5.7 -3 4 C-2.34 4 -1.68 4 -1 4 C-0.67 2.68 -0.34 1.36 0 0 Z " fill="#181818" transform="translate(214,197)"/>
<path d="M0 0 C2 1.1875 2 1.1875 4 3 C4.25 5.6875 4.25 5.6875 4 8 C2.68 8 1.36 8 0 8 C-0.66 6.68 -1.32 5.36 -2 4 C-1.34 4 -0.68 4 0 4 C0 2.68 0 1.36 0 0 Z " fill="#171717" transform="translate(234,242)"/>
<path d="M0 0 C2.3125 0.125 2.3125 0.125 5 1 C6.6875 3.9375 6.6875 3.9375 8 7 C8.66 7.66 9.32 8.32 10 9 C6.06329512 10.31223496 3.87511856 9.24296256 0 8 C0.99 7.34 1.98 6.68 3 6 C3 4.68 3 3.36 3 2 C2.01 1.34 1.02 0.68 0 0 Z " fill="#3F3F3F" transform="translate(169,213)"/>
<path d="M0 0 C0.66 0.33 1.32 0.66 2 1 C2 1.99 2 2.98 2 4 C0.02 4.33 -1.96 4.66 -4 5 C-4 4.34 -4 3.68 -4 3 C-7.96 3 -11.92 3 -16 3 C-16 2.67 -16 2.34 -16 2 C-14.64455078 1.90912109 -14.64455078 1.90912109 -13.26171875 1.81640625 C-11.49248047 1.69072266 -11.49248047 1.69072266 -9.6875 1.5625 C-7.92986328 1.44068359 -7.92986328 1.44068359 -6.13671875 1.31640625 C-2.97409042 1.1132629 -2.97409042 1.1132629 0 0 Z " fill="#C5C5C5" transform="translate(174,224)"/>
<path d="M0 0 C-0.33 1.65 -0.66 3.3 -1 5 C-2.65 4.67 -4.3 4.34 -6 4 C-6 2.68 -6 1.36 -6 0 C-3.50907189 -1.24546405 -2.58919267 -0.7767578 0 0 Z " fill="#171717" transform="translate(177,197)"/>
<path d="M0 0 C1.70884005 1.62339805 3.37446717 3.29319053 5 5 C5 5.66 5 6.32 5 7 C2.69 7 0.38 7 -2 7 C-2 6.34 -2 5.68 -2 5 C-1.34 5 -0.68 5 0 5 C0 3.35 0 1.7 0 0 Z " fill="#323232" transform="translate(323,260)"/>
<path d="M0 0 C3.63 0 7.26 0 11 0 C11.33 0.99 11.66 1.98 12 3 C8.04 2.67 4.08 2.34 0 2 C0 1.34 0 0.68 0 0 Z " fill="#210001" transform="translate(54,231)"/>
<path d="M0 0 C0.99 0.66 1.98 1.32 3 2 C1.39125 1.938125 1.39125 1.938125 -0.25 1.875 C-3.65747485 1.9885825 -5.20739631 2.21273364 -8 4 C-8.66 3.34 -9.32 2.68 -10 2 C-6.31282562 -0.45811625 -4.35654296 -0.31118164 0 0 Z " fill="#4A4A4A" transform="translate(207,193)"/>
<path d="M0 0 C2 3 2 3 2 5 C1.01 5.495 1.01 5.495 0 6 C-0.65772428 9.02934491 -0.65772428 9.02934491 -1 12 C-1.33 12 -1.66 12 -2 12 C-2.28571429 3.42857143 -2.28571429 3.42857143 0 0 Z " fill="#464646" transform="translate(150,242)"/>
<path d="M0 0 C1.32 0 2.64 0 4 0 C4 1.65 4 3.3 4 5 C2.68 5 1.36 5 0 5 C0 3.35 0 1.7 0 0 Z " fill="#D8061B" transform="translate(117,224)"/>
<path d="M0 0 C0.99 0.33 1.98 0.66 3 1 C3 1.66 3 2.32 3 3 C5.64 3 8.28 3 11 3 C11 3.33 11 3.66 11 4 C9.58376784 4.05447047 8.16691809 4.09300508 6.75 4.125 C5.96109375 4.14820313 5.1721875 4.17140625 4.359375 4.1953125 C1.79268059 3.9828378 0.2083933 3.28654105 -2 2 C-1.34 1.34 -0.68 0.68 0 0 Z " fill="#DADADA" transform="translate(197,217)"/>
<path d="M0 0 C1.5625 1.8125 1.5625 1.8125 3 4 C2.67 4.99 2.34 5.98 2 7 C1.34 7 0.68 7 0 7 C0 4.69 0 2.38 0 0 Z M-3 7 C-2.01 7 -1.02 7 0 7 C-0.33 7.66 -0.66 8.32 -1 9 C-1.66 8.34 -2.32 7.68 -3 7 Z " fill="#212121" transform="translate(155,201)"/>
<path d="M0 0 C2.475 0.495 2.475 0.495 5 1 C5 1.99 5 2.98 5 4 C3.35 4 1.7 4 0 4 C0 2.68 0 1.36 0 0 Z " fill="#F40025" transform="translate(55,200)"/>
</svg>
