<?xml version="1.0" encoding="UTF-8"?>
<svg version="1.1" xmlns="http://www.w3.org/2000/svg" width="474" height="474">
<path d="M0 0 C156.42 0 312.84 0 474 0 C474 156.42 474 312.84 474 474 C317.58 474 161.16 474 0 474 C0 317.58 0 161.16 0 0 Z " fill="#FDFDFD" transform="translate(0,0)"/>
<path d="M0 0 C6.93 0 13.86 0 21 0 C21.176521 1.66498535 21.35304199 3.3299707 21.53491211 5.04541016 C22.1201647 10.56163326 22.70707252 16.07767858 23.2950964 21.59360695 C23.65136816 24.93616602 24.00698614 28.2787919 24.36108398 31.62158203 C24.7689974 35.46925566 25.17919907 39.31667953 25.58984375 43.1640625 C25.71592514 44.35802643 25.84200653 45.55199036 25.97190857 46.78213501 C26.09195755 47.90284393 26.21200653 49.02355286 26.33569336 50.17822266 C26.4400621 51.15973297 26.54443085 52.14124329 26.65196228 53.15249634 C27.01463974 56.1197764 27.48782882 59.05515634 28 62 C28.67482422 60.39511719 28.67482422 60.39511719 29.36328125 58.7578125 C30.01295922 57.21351575 30.66270509 55.66924756 31.3125 54.125 C31.66497803 53.28727051 32.01745605 52.44954102 32.38061523 51.58642578 C34.49240847 46.57063295 36.61006427 41.55738005 38.734375 36.546875 C43.88797511 24.39030529 49.00056442 12.22084254 54 0 C61.26 0 68.52 0 76 0 C76.67790738 5.33011148 77.35409697 10.66039214 78.02636719 15.99121094 C78.25427891 17.79471405 78.48308259 19.59810473 78.71289062 21.40136719 C80.08651383 32.18551424 81.36059147 42.96500231 82.33456421 53.79364014 C82.63852274 58.03066927 82.63852274 58.03066927 84 62 C84.30292969 61.20078125 84.60585937 60.4015625 84.91796875 59.578125 C85.33691406 58.47984375 85.75585938 57.3815625 86.1875 56.25 C86.79658203 54.64898437 86.79658203 54.64898437 87.41796875 53.015625 C89.50926255 47.63519392 91.77155036 42.32462107 94 37 C95.78302703 32.71602358 97.56231325 28.43050441 99.33935547 24.14404297 C99.86617866 22.87397015 100.39352851 21.60411566 100.92138672 20.33447266 C101.70149464 18.45789306 102.47982226 16.58058337 103.2578125 14.703125 C103.7130127 13.60645508 104.16821289 12.50978516 104.63720703 11.37988281 C106.15639574 7.61212064 107.57355843 3.80384419 109 0 C115.93 0 122.86 0 130 0 C128.11443138 9.42784312 124.04325339 18.03333056 119.92358398 26.67773438 C116.79464411 33.31125095 114.00616445 40.0770334 111.20678711 46.85473633 C107.31949463 56.26079839 103.35520424 65.63298772 99.375 75 C99.05723602 75.74811951 98.73947205 76.49623901 98.41207886 77.26702881 C96.60909534 81.5117972 94.80474834 85.75598086 93 90 C84.75 90 76.5 90 68 90 C67.50628906 85.98070312 67.01257813 81.96140625 66.50390625 77.8203125 C66.10866718 74.61982596 65.71268571 71.41943323 65.31620026 68.21910095 C64.89759158 64.83852124 64.48029903 61.45779085 64.06616211 58.07666016 C63.5911516 54.19903661 63.11019497 50.32216202 62.62890625 46.4453125 C62.48095108 45.23070343 62.33299591 44.01609436 62.18055725 42.76467896 C62.04048752 41.64366791 61.90041779 40.52265686 61.75610352 39.36767578 C61.57290306 37.88208664 61.57290306 37.88208664 61.38600159 36.3664856 C61.11872316 33.98961976 61.11872316 33.98961976 60 32 C52.78546146 48.05057357 45.7461904 64.14781477 39.06811523 80.43066406 C37.73760939 83.63117686 36.36534543 86.814194 35 90 C27.08 90 19.16 90 11 90 C10.22059941 84.17787759 9.44156428 78.35570915 8.66366577 72.53338623 C8.3885823 70.47465383 8.11337541 68.41593792 7.83804321 66.35723877 C6.45062257 55.97941848 5.06614201 45.60148072 3.74609375 35.21484375 C3.60740372 34.12583015 3.60740372 34.12583015 3.46591187 33.01481628 C3.04165967 29.67892633 2.62126262 26.34264897 2.20605469 23.00561523 C2.05942383 21.84618408 1.91279297 20.68675293 1.76171875 19.4921875 C1.63756592 18.49558105 1.51341309 17.49897461 1.38549805 16.47216797 C1.05066555 13.87485482 1.05066555 13.87485482 0 11 C-0.13281695 7.32893957 -0.04323297 3.67480286 0 0 Z " fill="#304468" transform="translate(133,192)"/>
<path d="M0 0 C7.51508265 6.41232595 13.33198325 13.95367005 15.1875 23.8125 C15.76946943 31.73573747 16.12087061 40.07901755 14.1875 47.8125 C-8.2525 47.8125 -30.6925 47.8125 -53.8125 47.8125 C-49.49390506 60.00054345 -49.49390506 60.00054345 -39.8125 66.8125 C-33.16073538 67.59555584 -26.01652013 67.47136577 -19.8125 64.8125 C-18.61560547 63.5440625 -18.61560547 63.5440625 -17.39453125 62.25 C-12.8133897 58.33394292 -7.13423892 59.28192696 -1.4375 59.5 C-0.31988281 59.52255859 0.79773438 59.54511719 1.94921875 59.56835938 C4.6966989 59.62706622 7.44139761 59.70913154 10.1875 59.8125 C7.14362795 70.01239815 0.36390248 76.6774492 -8.8125 81.8125 C-21.08699285 87.29933172 -36.84173337 89.56980792 -49.875 85.25 C-59.28732946 81.12760149 -67.38861722 73.93719727 -71.875 64.6015625 C-76.64647367 52.25996232 -77.12113565 35.61561515 -72.06640625 23.33984375 C-71.65261719 22.50582031 -71.23882812 21.67179687 -70.8125 20.8125 C-70.38839844 19.94753906 -69.96429688 19.08257812 -69.52734375 18.19140625 C-63.3038702 6.80192959 -53.50935647 -1.51211633 -41.375 -6.0625 C-27.64518498 -9.68474188 -11.62846954 -8.37561458 0 0 Z " fill="#31456A" transform="translate(429.8125,197.1875)"/>
<path d="M0 0 C24.09 0 48.18 0 73 0 C69.62719127 10.11842618 69.62719127 10.11842618 68.125 13.55859375 C67.61525635 14.73578979 67.61525635 14.73578979 67.09521484 15.93676758 C66.5530835 17.17463013 66.5530835 17.17463013 66 18.4375 C65.19983577 20.28355738 64.4003908 22.12992664 63.6015625 23.9765625 C63.18036133 24.94883789 62.75916016 25.92111328 62.32519531 26.92285156 C59.97798355 32.37315684 57.67976235 37.8441439 55.375 43.3125 C52.33372853 50.51885416 49.27624006 57.71598367 46.125 64.875 C42.47624709 73.16567649 38.86595453 81.40213642 36 90 C31.71 90 27.42 90 23 90 C25.42066006 82.38060693 28.34179117 75.01947125 31.375 67.625 C31.84421875 66.47 32.3134375 65.315 32.796875 64.125 C35.31802571 57.95444881 37.94487568 51.85493603 40.73193359 45.80029297 C43.13420361 40.49531856 45.36860649 35.11823291 47.625 29.75 C48.5753949 27.49473859 49.5259122 25.23952876 50.4765625 22.984375 C51.096521 21.51049316 51.096521 21.51049316 51.72900391 20.00683594 C53.14105892 16.66629242 54.57136324 13.33348577 56 10 C44.12 10 32.24 10 20 10 C22.31 13.96 24.62 17.92 27 22 C25.98379263 26.06482947 25.41840592 26.97128073 22.5625 29.75 C21.94503906 30.36359375 21.32757813 30.9771875 20.69140625 31.609375 C19 33 19 33 17 33 C16.01 35.475 16.01 35.475 15 38 C21.6 38 28.2 38 35 38 C32 47 32 47 31 48 C27.89748799 48.08874135 24.8173188 48.11518455 21.71484375 48.09765625 C20.78402481 48.0962413 19.85320587 48.09482635 18.8941803 48.09336853 C15.90858809 48.08775172 12.92306971 48.0751964 9.9375 48.0625 C7.91862087 48.05748716 5.89974057 48.05292388 3.88085938 48.04882812 C-1.07945572 48.03777683 -6.03971532 48.02050095 -11 48 C-10.05586427 46.88344929 -9.10955778 45.76873392 -8.16235352 44.65478516 C-7.37224632 43.7233519 -7.37224632 43.7233519 -6.56617737 42.77310181 C-4.51223949 40.44779623 -2.27488419 38.41233963 0.0625 36.375 C7.0687614 30.19228337 7.0687614 30.19228337 13 23 C12.2575 22.01 11.515 21.02 10.75 20 C8.02620477 16.18668668 6.01140416 12.21746034 4 8 C2.68 5.36 1.36 2.72 0 0 Z " fill="#0DB6F3" transform="translate(40,192)"/>
<path d="M0 0 C1.09731445 0.01353516 1.09731445 0.01353516 2.21679688 0.02734375 C3.99884298 0.05063847 5.78071759 0.0864981 7.5625 0.125 C7.69992756 5.53247573 7.32002417 10.25064615 6.125 15.5625 C5.85816406 16.77808594 5.59132813 17.99367187 5.31640625 19.24609375 C4.5625 22.125 4.5625 22.125 3.5625 23.125 C2.14806465 23.36755813 0.73086778 23.59410894 -0.6875 23.8125 C-4.61560272 24.68541172 -7.04009404 25.76589197 -9.4621582 29.18579102 C-13.70813775 37.62779742 -14.72718264 48.13603684 -16.45507812 57.33984375 C-18.93795401 69.85868074 -23.70800703 80.59448549 -34.4375 88.125 C-41.95563573 91.21280575 -50.4314376 90.29988971 -58.4375 90.125 C-58.58710073 84.53990595 -58.13921911 79.57062805 -56.9375 74.125 C-56.79441406 73.44566406 -56.65132813 72.76632812 -56.50390625 72.06640625 C-56.15559691 70.41774203 -55.79759117 68.77113106 -55.4375 67.125 C-54.84582031 67.07601562 -54.25414062 67.02703125 -53.64453125 66.9765625 C-52.45923828 66.86441406 -52.45923828 66.86441406 -51.25 66.75 C-50.08404297 66.64558594 -50.08404297 66.64558594 -48.89453125 66.5390625 C-46.01930394 66.05452499 -43.96450097 65.61996528 -41.4375 64.125 C-40.11105335 61.18284433 -40.11105335 61.18284433 -39.4375 57.5 C-39.27999268 56.80922363 -39.12248535 56.11844727 -38.96020508 55.40673828 C-37.98155748 51.02965263 -37.15104955 46.62661843 -36.32421875 42.21875 C-30.80182098 13.21642705 -30.80182098 13.21642705 -18.0625 3.578125 C-12.15500095 0.30790231 -6.57354557 -0.15636979 0 0 Z " fill="#2F4469" transform="translate(348.4375,191.875)"/>
<path d="M0 0 C7.26 0 14.52 0 22 0 C18.66946309 20.53575294 15.0250226 40.99962697 11.21664429 61.45166016 C9.44628238 70.96207464 7.7244273 80.48116132 6 90 C-1.26 90 -8.52 90 -16 90 C-15.34090782 83.40907818 -14.57965176 77.07095953 -13.36328125 70.59375 C-13.20321594 69.72233368 -13.04315063 68.85091736 -12.87823486 67.95309448 C-12.35992506 65.13471862 -11.83624166 62.31737099 -11.3125 59.5 C-10.5867118 55.56544015 -9.86361189 51.63038794 -9.140625 47.6953125 C-8.86908348 46.22041855 -8.86908348 46.22041855 -8.59205627 44.71572876 C-7.42340061 38.35441571 -6.28357847 31.98869261 -5.171875 25.6171875 C-5.03295334 24.8218158 -4.89403168 24.02644409 -4.75090027 23.20697021 C-4.22567609 20.19515895 -3.70151173 17.18318536 -3.18325806 14.17016602 C-2.83432699 12.14164387 -2.48187154 10.11376083 -2.12890625 8.0859375 C-1.93369385 6.9520459 -1.73848145 5.8181543 -1.53735352 4.64990234 C-1 2 -1 2 0 0 Z " fill="#2F4469" transform="translate(273,192)"/>
<path d="M0 0 C11.88 0 23.76 0 36 0 C35.30302652 2.7878939 34.59968896 5.47131722 33.6875 8.1875 C33.35298828 9.22970703 33.35298828 9.22970703 33.01171875 10.29296875 C32 12 32 12 29.89453125 12.73828125 C29.26933594 12.82464844 28.64414063 12.91101563 28 13 C28 13.99 28 14.98 28 16 C27.34 16 26.68 16 26 16 C25.814375 17.918125 25.814375 17.918125 25.625 19.875 C25.25 23.75 25.25 23.75 23 26 C22.28591666 27.98356483 21.61382258 29.98315437 21 32 C20.34 32 19.68 32 19 32 C18.34 31.34 17.68 30.68 17 30 C17 30.66 17 31.32 17 32 C16.34 32 15.68 32 15 32 C14.855625 32.969375 14.71125 33.93875 14.5625 34.9375 C14 38 14 38 13 39 C9.97022196 39.08871273 6.96332978 39.1151935 3.93359375 39.09765625 C3.02497086 39.0962413 2.11634796 39.09482635 1.18019104 39.09336853 C-1.73407221 39.08775193 -4.64825981 39.07519665 -7.5625 39.0625 C-9.53320202 39.05748714 -11.50390524 39.05292386 -13.47460938 39.04882812 C-18.31643559 39.03777711 -23.15820495 39.02050138 -28 39 C-28 38.67 -28 38.34 -28 38 C-15.13 37.67 -2.26 37.34 11 37 C12.98 32.545 12.98 32.545 15 28 C8.4 28 1.8 28 -5 28 C-3.11025655 23.27564137 -2.62417711 22.32127103 1.0625 19.4375 C3.21597616 17.75132427 4.72151327 16.56750446 5.9296875 14.10546875 C6.03256912 11.02473593 4.73788249 9.4203657 3.0625 6.875 C0 2.17312073 0 2.17312073 0 0 Z " fill="#F9FBFA" transform="translate(60,202)"/>
<path d="M0 0 C4.78307367 2.66227685 7.77022824 5.84566009 9.6875 11 C10.1825 14.465 10.1825 14.465 10.6875 18 C-4.4925 18 -19.6725 18 -35.3125 18 C-32.88318654 9.49740288 -30.27772181 5.46237327 -22.625 1.125 C-15.06668081 -2.81733574 -7.91204066 -3.52962293 0 0 Z " fill="#F8FAF9" transform="translate(413.3125,210)"/>
<path d="M0 0 C-1.06978076 7.72102633 -3.38343722 16.5561216 -8.75 22.4375 C-11.31148112 25.35474238 -11.72734611 27.18284556 -12 31 C-12.99 31.33 -13.98 31.66 -15 32 C-15.66 32.99 -16.32 33.98 -17 35 C-17.66 34.67 -18.32 34.34 -19 34 C-17.68 27.73 -16.36 21.46 -15 15 C-14.34 15 -13.68 15 -13 15 C-13.495 12.03 -13.495 12.03 -14 9 C-19.28 8.67 -24.56 8.34 -30 8 C-30 6.68 -30 5.36 -30 4 C-35.28 3.67 -40.56 3.34 -46 3 C-46 2.34 -46 1.68 -46 1 C-30.65984609 0.35315713 -15.35477092 -0.1683227 0 0 Z " fill="#05B9F9" transform="translate(110,193)"/>
<path d="M0 0 C3 0 3 0 4.5625 1.0625 C6.63990483 3.86248042 7.27510968 6.6171785 8 10 C7.67 10.99 7.34 11.98 7 13 C6.01 13 5.02 13 4 13 C4 13.66 4 14.32 4 15 C3.34 15 2.68 15 2 15 C2 15.66 2 16.32 2 17 C0.6875 18.625 0.6875 18.625 -1 20 C-1.99 20 -2.98 20 -4 20 C-3.67 22.31 -3.34 24.62 -3 27 C-1.02 27 0.96 27 3 27 C3 26.34 3 25.68 3 25 C6.63 25 10.26 25 14 25 C14 26.65 14 28.3 14 30 C12.02 30.66 10.04 31.32 8 32 C7.67 30.68 7.34 29.36 7 28 C6.34 28 5.68 28 5 28 C5 28.99 5 29.98 5 31 C2.11584117 32.44207941 -0.41721528 32.09394887 -3.625 32.0625 C-4.81351563 32.05347656 -6.00203125 32.04445312 -7.2265625 32.03515625 C-8.14179687 32.02355469 -9.05703125 32.01195312 -10 32 C-10.66 30.35 -11.32 28.7 -12 27 C-13.98 27 -15.96 27 -18 27 C-11.02325581 18.51162791 -11.02325581 18.51162791 -6 16 C-4.99083967 14.23408113 -4.99083967 14.23408113 -4 12 C-3.2265625 10.5459375 -3.2265625 10.5459375 -2.4375 9.0625 C-1.04573341 6.09743205 0 3.31544821 0 0 Z " fill="#06B9F7" transform="translate(57,206)"/>
<path d="M0 0 C24.09 0 48.18 0 73 0 C69.62678899 10.11963303 69.62678899 10.11963303 68.01953125 13.8046875 C67.66366943 14.62686768 67.30780762 15.44904785 66.94116211 16.29614258 C66.56870361 17.14716553 66.19624512 17.99818848 65.8125 18.875 C65.01766805 20.70939239 64.22341086 22.54403391 63.4296875 24.37890625 C63.0284668 25.30461426 62.62724609 26.23032227 62.21386719 27.18408203 C60.26062298 31.71520004 58.34775149 36.26312523 56.4375 40.8125 C56.09114502 41.63669434 55.74479004 42.46088867 55.38793945 43.31005859 C54.59135624 45.20645239 53.7955786 47.10318453 53 49 C52.67 49 52.34 49 52 49 C52 47.02 52 45.04 52 43 C52.66 43 53.32 43 54 43 C53.505 40.03 53.505 40.03 53 37 C53.99 36.67 54.98 36.34 56 36 C56.08636719 35.34773438 56.17273438 34.69546875 56.26171875 34.0234375 C57.09879219 28.81668712 57.87335689 25.70602351 61.6328125 21.82421875 C65.96095915 16.0492345 67.74906322 7.75281033 70 1 C47.89 1 25.78 1 3 1 C3.33 2.65 3.66 4.3 4 6 C4.66 6 5.32 6 6 6 C6.86916887 7.40751221 7.71985149 8.8264521 8.5625 10.25 C9.03816406 11.03890625 9.51382813 11.8278125 10.00390625 12.640625 C11.13022151 15.30844625 11.0169313 16.34501768 10 19 C9.08145334 17.33436871 8.16527485 15.66743141 7.25 14 C6.73953125 13.071875 6.2290625 12.14375 5.703125 11.1875 C3.73053508 7.49568033 1.87193181 3.74386361 0 0 Z " fill="#38B1DC" transform="translate(40,192)"/>
<path d="M0 0 C11.88 0 23.76 0 36 0 C35.27467453 2.90130187 34.49882535 5.48132518 33.4375 8.25 C33.16808594 8.95640625 32.89867187 9.6628125 32.62109375 10.390625 C32.41613281 10.92171875 32.21117187 11.4528125 32 12 C31.67 12 31.34 12 31 12 C30.875 4.25 30.875 4.25 32 2 C18.635 2.495 18.635 2.495 5 3 C5.66 4.98 6.32 6.96 7 9 C7.66 9 8.32 9 9 9 C9.33 8.34 9.66 7.68 10 7 C10.10824843 8.6026782 10.18570645 10.20745748 10.25 11.8125 C10.29640625 12.70582031 10.3428125 13.59914062 10.390625 14.51953125 C10 17 10 17 8.125 18.84375 C6 20 6 20 3.75 19.6875 C3.1725 19.460625 2.595 19.23375 2 19 C2.680625 18.443125 3.36125 17.88625 4.0625 17.3125 C6.22696369 15.21506334 6.22696369 15.21506334 6.0625 12.75 C4.78661114 9.44769941 3.03463646 6.69720926 1.05859375 3.76953125 C0 2 0 2 0 0 Z " fill="#BCEEFD" transform="translate(60,202)"/>
<path d="M0 0 C0.99 0.33 1.98 0.66 3 1 C1.37660195 2.70884005 -0.29319053 4.37446717 -2 6 C-2.66 6 -3.32 6 -4 6 C-4.66 7.65 -5.32 9.3 -6 11 C0.6 11 7.2 11 14 11 C11 20 11 20 10 21 C6.89748799 21.08874135 3.8173188 21.11518455 0.71484375 21.09765625 C-0.21597519 21.0962413 -1.14679413 21.09482635 -2.1058197 21.09336853 C-5.09141191 21.08775172 -8.07693029 21.0751964 -11.0625 21.0625 C-13.08137913 21.05748716 -15.10025943 21.05292388 -17.11914062 21.04882812 C-22.07945572 21.03777683 -27.03971532 21.02050095 -32 21 C-31.04578192 19.85073734 -30.08647955 18.70569459 -29.125 17.5625 C-28.59132812 16.92441406 -28.05765625 16.28632813 -27.5078125 15.62890625 C-26 14 -26 14 -24 13 C-24.33 14.98 -24.66 16.96 -25 19 C-13.78 19.33 -2.56 19.66 9 20 C9.33 17.36 9.66 14.72 10 12 C6.37 12 2.74 12 -1 12 C-1 12.66 -1 13.32 -1 14 C-2.98 14 -4.96 14 -7 14 C-8.0625 11.625 -8.0625 11.625 -9 9 C-8.67 8.34 -8.34 7.68 -8 7 C-7.01 7 -6.02 7 -5 7 C-4.67 6.01 -4.34 5.02 -4 4 C-3.34 4 -2.68 4 -2 4 C-2 3.34 -2 2.68 -2 2 C-1.34 2 -0.68 2 0 2 C0 1.34 0 0.68 0 0 Z " fill="#2BABD5" transform="translate(61,219)"/>
<path d="M0 0 C1.32 0.66 2.64 1.32 4 2 C3.54943898 6.95617127 1.24216036 10.36841814 -2 14 C-3.63495707 15.05104383 -5.29883624 16.05988318 -7 17 C-8.78344178 19.06954847 -8.78344178 19.06954847 -10 21 C-9.071875 21.0928125 -9.071875 21.0928125 -8.125 21.1875 C-7.42375 21.455625 -6.7225 21.72375 -6 22 C-5.34 23.65 -4.68 25.3 -4 27 C0.95 26.67 5.9 26.34 11 26 C11 25.01 11 24.02 11 23 C11.66 23 12.32 23 13 23 C13.33 24.32 13.66 25.64 14 27 C15.65 26.67 17.3 26.34 19 26 C19 26.66 19 27.32 19 28 C14.64005933 28.024727 10.28015586 28.04287281 5.92016602 28.05493164 C4.43708587 28.05995903 2.95401067 28.06678185 1.47094727 28.07543945 C-0.66130801 28.08757482 -2.79349773 28.09324425 -4.92578125 28.09765625 C-6.20880127 28.10289307 -7.49182129 28.10812988 -8.8137207 28.11352539 C-12 28 -12 28 -15 27 C-15 23.19840576 -14.92947785 21.02720333 -12.328125 18.15234375 C-10.25728674 16.38123208 -8.13981152 14.68677014 -6 13 C-3.0262756 10.15844112 -0.36776297 7.3647158 2 4 C1.34 2.68 0.68 1.36 0 0 Z " fill="#11B3F4" transform="translate(51,211)"/>
<path d="M0 0 C3 1 3 1 4.1875 3.125 C5.48361582 7.71125599 5.54056439 11.41209209 4 15.9375 C2 18 2 18 0.01953125 18.3046875 C-1.9895353 18.31179924 -3.99763616 18.16412818 -6 18 C-7.23268696 14.30193912 -6.59433466 13.15226321 -5.25 9.5625 C-4.90453125 8.61503906 -4.5590625 7.66757812 -4.203125 6.69140625 C-3.05649881 4.12638856 -1.77835571 2.16162202 0 0 Z " fill="#09B9F5" transform="translate(73,263)"/>
<path d="M0 0 C0.99 0 1.98 0 3 0 C4.36457178 4.09371535 2.76371995 6.47423987 1.0625 10.1875 C-0.4534375 13.5596875 -0.4534375 13.5596875 -2 17 C-10.25 17 -18.5 17 -27 17 C-27 12.38 -27 7.76 -27 3 C-26.01 4.32 -25.02 5.64 -24 7 C-23.01 7 -22.02 7 -21 7 C-21.33 9.64 -21.66 12.28 -22 15 C-15.73 15 -9.46 15 -3 15 C-3 12.03 -3 9.06 -3 6 C-2 4 -1 2 0 0 Z " fill="#32425C" transform="translate(228,265)"/>
<path d="M0 0 C0.33 0 0.66 0 1 0 C0.38487182 5.00890086 -0.2717552 10.00632136 -1 15 C-0.34 15 0.32 15 1 15 C1 15.66 1 16.32 1 17 C-0.65 16.67 -2.3 16.34 -4 16 C-3.87625 17.11375 -3.87625 17.11375 -3.75 18.25 C-4 21 -4 21 -5.875 22.8125 C-8.14855996 25.15292937 -8.44532649 26.10704425 -9.125 29.1875 C-9.41375 30.445625 -9.7025 31.70375 -10 33 C-10.99 33.495 -10.99 33.495 -12 34 C-12.46651207 36.12576782 -12.46651207 36.12576782 -12.625 38.5625 C-12.73714844 39.80193359 -12.73714844 39.80193359 -12.8515625 41.06640625 C-12.90054688 41.70449219 -12.94953125 42.34257812 -13 43 C-14.32 43 -15.64 43 -17 43 C-16.39401633 37.46594323 -14.44746763 32.86362003 -12.25 27.8125 C-11.88946533 26.97041992 -11.52893066 26.12833984 -11.1574707 25.26074219 C-8.84947075 19.8917631 -6.48134267 14.55186876 -4.03125 9.24609375 C-2.62740721 6.18848161 -1.3086283 3.09938283 0 0 Z " fill="#BCF5FB" transform="translate(93,239)"/>
<path d="M0 0 C2.875 0.3125 2.875 0.3125 6 1 C8 4 8 4 7.6875 6.5625 C7 9 7 9 6 11 C5.34 11 4.68 11 4 11 C3.95101562 11.63808594 3.90203125 12.27617187 3.8515625 12.93359375 C3.77679688 13.75988281 3.70203125 14.58617187 3.625 15.4375 C3.55539063 16.26121094 3.48578125 17.08492188 3.4140625 17.93359375 C3.27742188 18.61550781 3.14078125 19.29742187 3 20 C2.34 20.33 1.68 20.66 1 21 C1 18.69 1 16.38 1 14 C-0.32 13.67 -1.64 13.34 -3 13 C-3.20086443 9.28400809 -3.1519437 8.22791555 -1 5 C-0.61500109 3.34450469 -0.27206865 1.6777567 0 0 Z " fill="#06B7F9" transform="translate(81,239)"/>
<path d="M0 0 C0.33 0.99 0.66 1.98 1 3 C-0.32 3.33 -1.64 3.66 -3 4 C-3 4.66 -3 5.32 -3 6 C-1.30230469 5.98259766 -1.30230469 5.98259766 0.4296875 5.96484375 C1.91145669 5.95546546 3.39322765 5.9463653 4.875 5.9375 C5.62136719 5.92912109 6.36773437 5.92074219 7.13671875 5.91210938 C12.7734375 5.88671875 12.7734375 5.88671875 15 7 C15.625 9.5625 15.625 9.5625 16 12 C15.34 12 14.68 12 14 12 C13.855625 12.969375 13.71125 13.93875 13.5625 14.9375 C13 18 13 18 12 19 C8.97022196 19.08871273 5.96332978 19.1151935 2.93359375 19.09765625 C2.02497086 19.0962413 1.11634796 19.09482635 0.18019104 19.09336853 C-2.73407221 19.08775193 -5.64825981 19.07519665 -8.5625 19.0625 C-10.53320202 19.05748714 -12.50390524 19.05292386 -14.47460938 19.04882812 C-19.31643559 19.03777711 -24.15820495 19.02050138 -29 19 C-29 18.67 -29 18.34 -29 18 C-16.13 17.67 -3.26 17.34 10 17 C11.32 14.03 12.64 11.06 14 8 C7.4 8 0.8 8 -6 8 C-3.75 2.375 -3.75 2.375 0 0 Z " fill="#D5FFFF" transform="translate(61,222)"/>
<path d="M0 0 C3.08994688 5.87843553 3.11222297 11.49106779 3 18 C2.67 16.68 2.34 15.36 2 14 C1.34 14 0.68 14 0 14 C0 15.32 0 16.64 0 18 C-1.65 17.67 -3.3 17.34 -5 17 C-5.33 18.65 -5.66 20.3 -6 22 C-6.99 22 -7.98 22 -9 22 C-6.66062389 14.33204498 -3.45231194 7.22862726 0 0 Z " fill="#EEF3F4" transform="translate(193,222)"/>
<path d="M0 0 C0.81178711 -0.00193359 1.62357422 -0.00386719 2.45996094 -0.00585938 C3.75788574 0.0009082 3.75788574 0.0009082 5.08203125 0.0078125 C5.96665039 0.00974609 6.85126953 0.01167969 7.76269531 0.01367188 C15.8339301 0.06580041 23.84867838 0.50352792 31.89453125 1.1328125 C31.89453125 1.4628125 31.89453125 1.7928125 31.89453125 2.1328125 C20.01453125 2.1328125 8.13453125 2.1328125 -4.10546875 2.1328125 C-1.79546875 6.0928125 0.51453125 10.0528125 2.89453125 14.1328125 C2.56453125 15.4528125 2.23453125 16.7728125 1.89453125 18.1328125 C1.23453125 18.4628125 0.57453125 18.7928125 -0.10546875 19.1328125 C-0.43546875 15.8328125 -0.76546875 12.5328125 -1.10546875 9.1328125 C-2.09546875 8.8028125 -3.08546875 8.4728125 -4.10546875 8.1328125 C-6.42812487 5.55208347 -7.10546875 4.68105182 -7.10546875 1.1328125 C-4.385638 0.22620225 -2.79555743 0.00437734 0 0 Z " fill="#15B2DD" transform="translate(64.10546875,199.8671875)"/>
<path d="M0 0 C0.99 0 1.98 0 3 0 C3 0.99 3 1.98 3 3 C3.66 3 4.32 3 5 3 C3.06375702 9.20477864 0.74390859 15.10825719 -2 21 C-2.33 21 -2.66 21 -3 21 C-4.45934066 10.96043956 -4.45934066 10.96043956 -2.625 7.125 C-2.08875 6.42375 -1.5525 5.7225 -1 5 C-0.29329272 2.30745009 -0.29329272 2.30745009 0 0 Z " fill="#EEF4F6" transform="translate(163,235)"/>
<path d="M0 0 C0.33 0 0.66 0 1 0 C1 2.64 1 5.28 1 8 C-21.44 8 -43.88 8 -67 8 C-67 7.67 -67 7.34 -67 7 C-45.55 7 -24.1 7 -2 7 C-1.34 4.69 -0.68 2.38 0 0 Z " fill="#26374F" transform="translate(443,236)"/>
<path d="M0 0 C5.28 0 10.56 0 16 0 C16 0.99 16 1.98 16 3 C13.03 2.505 13.03 2.505 10 2 C10.33 2.99 10.66 3.98 11 5 C10 6 10 6 7.93359375 6.09765625 C7.10988281 6.08605469 6.28617187 6.07445312 5.4375 6.0625 C4.61121094 6.05347656 3.78492188 6.04445312 2.93359375 6.03515625 C2.29550781 6.02355469 1.65742188 6.01195312 1 6 C0.67 4.02 0.34 2.04 0 0 Z " fill="#2A4061" transform="translate(278,193)"/>
<path d="M0 0 C0.474375 0.639375 0.94875 1.27875 1.4375 1.9375 C2.83738726 3.88293306 2.83738726 3.88293306 4 5 C4.66 4.01 5.32 3.02 6 2 C7.75729391 5.2217055 8.13833214 6.52064907 7.1015625 10.11328125 C6.61429688 11.16902344 6.12703125 12.22476563 5.625 13.3125 C5.14289063 14.38113281 4.66078125 15.44976562 4.1640625 16.55078125 C3.58785156 17.76314453 3.58785156 17.76314453 3 19 C0.64891442 15.29178372 0.56844942 11.51394762 0.375 7.25 C0.33632812 6.55261719 0.29765625 5.85523438 0.2578125 5.13671875 C0.16401376 3.42489182 0.08093826 1.71248318 0 0 Z " fill="#EAF0F6" transform="translate(214,237)"/>
<path d="M0 0 C1 2 1 2 0 6 C11.55 6.33 23.1 6.66 35 7 C35 7.33 35 7.66 35 8 C21.14 8 7.28 8 -7 8 C-1 1 -1 1 0 0 Z " fill="#4CB6DE" transform="translate(36,232)"/>
<path d="M0 0 C2.39235465 3.68974699 2.09857285 6.63996372 1.75 10.9375 C1.66234375 12.14277344 1.5746875 13.34804687 1.484375 14.58984375 C1.03590479 17.74721872 0.26919168 20.10184577 -1 23 C-1.37593066 24.9924325 -1.71979545 26.9918674 -2 29 C-4 27 -4 27 -4.03149414 25.17211914 C-3.92957764 24.44629639 -3.82766113 23.72047363 -3.72265625 22.97265625 C-3.61324707 22.16844238 -3.50383789 21.36422852 -3.39111328 20.53564453 C-3.2620459 19.69888184 -3.13297852 18.86211914 -3 18 C-2.81606689 16.80093018 -2.81606689 16.80093018 -2.62841797 15.57763672 C-2.24783849 13.194519 -1.84661935 10.81587325 -1.4375 8.4375 C-1.29892578 7.61958984 -1.16035156 6.80167969 -1.01757812 5.95898438 C-0.6806501 3.97227085 -0.34065416 1.98607801 0 0 Z " fill="#34435D" transform="translate(268,216)"/>
<path d="M0 0 C0.33 0 0.66 0 1 0 C1 1.98 1 3.96 1 6 C0.34 6 -0.32 6 -1 6 C-1.33 8.31 -1.66 10.62 -2 13 C-2.66 13 -3.32 13 -4 13 C-4.12246094 13.70511719 -4.24492188 14.41023437 -4.37109375 15.13671875 C-5.03405201 18.15503183 -5.98175575 20.91889442 -7.0625 23.8125 C-7.42472656 24.78832031 -7.78695312 25.76414063 -8.16015625 26.76953125 C-8.43730469 27.50558594 -8.71445313 28.24164063 -9 29 C-9.66 29 -10.32 29 -11 29 C-11.1546875 30.1446875 -11.1546875 30.1446875 -11.3125 31.3125 C-12.05790616 34.22636046 -12.84458939 35.02950397 -15 37 C-12.89867848 30.26959076 -10.31985325 23.83367377 -7.5 17.375 C-7.10941406 16.47265625 -6.71882813 15.5703125 -6.31640625 14.640625 C-5.56003331 12.89358178 -4.80228671 11.14713243 -4.04296875 9.40136719 C-2.68397656 6.27237674 -1.34068961 3.13686991 0 0 Z " fill="#34B1DC" transform="translate(96,202)"/>
<path d="M0 0 C3 1 3 1 4.1875 3.25 C5.03731121 6.12628408 5.45647104 8.03293822 5 11 C3 13.3125 3 13.3125 1 15 C0.34 12.69 -0.32 10.38 -1 8 C-1.66 8 -2.32 8 -3 8 C-2.45276317 4.62537285 -1.9451 2.91765 0 0 Z " fill="#05B9F9" transform="translate(73,263)"/>
<path d="M0 0 C0.33 0 0.66 0 1 0 C0.38487182 5.00890086 -0.2717552 10.00632136 -1 15 C-0.34 15 0.32 15 1 15 C1 15.66 1 16.32 1 17 C-0.65 16.67 -2.3 16.34 -4 16 C-3.87625 17.1446875 -3.87625 17.1446875 -3.75 18.3125 C-4 21 -4 21 -6 22.8125 C-6.66 23.204375 -7.32 23.59625 -8 24 C-7.71125 23.195625 -7.4225 22.39125 -7.125 21.5625 C-6.28070713 18.88890592 -5.66178 16.41932679 -5.125 13.6875 C-4.09385805 8.79789138 -2.18039283 4.47721441 0 0 Z " fill="#EFFDFB" transform="translate(93,239)"/>
<path d="M0 0 C0.33 0 0.66 0 1 0 C1.8723255 3.77542477 2.16344601 7.31480698 2.1875 11.1875 C2.20167969 12.23292969 2.21585938 13.27835938 2.23046875 14.35546875 C2 17 2 17 0 19 C-0.99 18.34 -1.98 17.68 -3 17 C-2.48517081 11.147205 -1.54642808 5.6702363 0 0 Z " fill="#29425F" transform="translate(213,239)"/>
<path d="M0 0 C1 2 1 2 0.3190918 4.07543945 C-0.05046631 4.91292725 -0.42002441 5.75041504 -0.80078125 6.61328125 C-1.20103516 7.53173828 -1.60128906 8.45019531 -2.01367188 9.39648438 C-2.6565918 10.83991211 -2.6565918 10.83991211 -3.3125 12.3125 C-4.14230911 14.20425956 -4.97174804 16.09618154 -5.80078125 17.98828125 C-6.17372314 18.82915283 -6.54666504 19.67002441 -6.9309082 20.53637695 C-8.00280798 23.00647073 -9.01204333 25.49529356 -10 28 C-10.33 28 -10.66 28 -11 28 C-11.33 24.7 -11.66 21.4 -12 18 C-10.68 17.67 -9.36 17.34 -8 17 C-6.63605465 14.46327619 -6.63605465 14.46327619 -5.75 11.4375 C-5.41484375 10.42558594 -5.0796875 9.41367188 -4.734375 8.37109375 C-4.49203125 7.58863281 -4.2496875 6.80617187 -4 6 C-3.34 6 -2.68 6 -2 6 C-1.855625 5.195625 -1.71125 4.39125 -1.5625 3.5625 C-1 1 -1 1 0 0 Z " fill="#BEFAFD" transform="translate(80,238)"/>
<path d="M0 0 C7.26 0 14.52 0 22 0 C21.67 0.66 21.34 1.32 21 2 C15.06 1.67 9.12 1.34 3 1 C2.67 3.31 2.34 5.62 2 8 C0.9375 10.4375 0.9375 10.4375 0 12 C-0.66 12 -1.32 12 -2 12 C-1.85904936 10.3745692 -1.71207913 8.74965949 -1.5625 7.125 C-1.48128906 6.22007812 -1.40007812 5.31515625 -1.31640625 4.3828125 C-1 2 -1 2 0 0 Z " fill="#40516D" transform="translate(273,192)"/>
<path d="M0 0 C1.32 0.66 2.64 1.32 4 2 C3.54943898 6.95617127 1.24216036 10.36841814 -2 14 C-3.63495707 15.05104383 -5.29883624 16.05988318 -7 17 C-8.78344178 19.06954847 -8.78344178 19.06954847 -10 21 C-11.32 20.67 -12.64 20.34 -14 20 C-13.48050781 19.55269531 -12.96101563 19.10539062 -12.42578125 18.64453125 C-4.60198392 11.90293585 -4.60198392 11.90293585 2 4 C1.34 2.68 0.68 1.36 0 0 Z " fill="#2DB1DA" transform="translate(51,211)"/>
<path d="M0 0 C1.65 0 3.3 0 5 0 C5 0.66 5 1.32 5 2 C5.66 2.33 6.32 2.66 7 3 C0.92560175 7.90153173 0.92560175 7.90153173 -2.9375 8.3125 C-3.9584375 8.1578125 -3.9584375 8.1578125 -5 8 C-4.75 6.125 -4.75 6.125 -4 4 C-1.9375 2.75 -1.9375 2.75 0 2 C0 1.34 0 0.68 0 0 Z " fill="#ECF1F3" transform="translate(408,256)"/>
<path d="M0 0 C1.09678558 3.29035674 0.98553531 3.77719098 -0.125 6.875 C-0.40472656 7.65746094 -0.68445313 8.43992188 -0.97265625 9.24609375 C-1.31167969 10.15488281 -1.65070313 11.06367188 -2 12 C-2.41121094 13.12535156 -2.82242188 14.25070313 -3.24609375 15.41015625 C-6.72084806 24.72084806 -6.72084806 24.72084806 -9 27 C-9 25.02 -9 23.04 -9 21 C-8.34 21 -7.68 21 -7 21 C-7.33 19.02 -7.66 17.04 -8 15 C-7.01 14.67 -6.02 14.34 -5 14 C-4.89042969 13.32453125 -4.78085938 12.6490625 -4.66796875 11.953125 C-4.50941406 11.06109375 -4.35085937 10.1690625 -4.1875 9.25 C-4.03667969 8.36828125 -3.88585937 7.4865625 -3.73046875 6.578125 C-2.94585752 3.8089089 -1.85404641 2.1740599 0 0 Z " fill="#1DB0E5" transform="translate(101,214)"/>
<path d="M0 0 C0.33 0.99 0.66 1.98 1 3 C-0.32 3.33 -1.64 3.66 -3 4 C-3 4.66 -3 5.32 -3 6 C2.28 6 7.56 6 13 6 C13.33 6.66 13.66 7.32 14 8 C7.4 8 0.8 8 -6 8 C-3.75 2.375 -3.75 2.375 0 0 Z " fill="#9DE9F8" transform="translate(61,222)"/>
<path d="M0 0 C3 1 3 1 4.1875 3.125 C5.14531259 6.51418301 5.13746202 9.49471861 5 13 C4.34 13 3.68 13 3 13 C2.67 14.65 2.34 16.3 2 18 C1.67 18 1.34 18 1 18 C0.67 12.06 0.34 6.12 0 0 Z " fill="#F2F7F7" transform="translate(155,202)"/>
<path d="M0 0 C1 2 1 2 0.37915039 3.97119141 C0.03875732 4.75671387 -0.30163574 5.54223633 -0.65234375 6.3515625 C-1.01650391 7.20234375 -1.38066406 8.053125 -1.75585938 8.9296875 C-2.34077148 10.26386719 -2.34077148 10.26386719 -2.9375 11.625 C-3.32357422 12.5221875 -3.70964844 13.419375 -4.10742188 14.34375 C-5.06470725 16.56559754 -6.02914277 18.78405708 -7 21 C-7.33 21 -7.66 21 -8 21 C-8.125 17.625 -8.125 17.625 -8 14 C-7.34 13.34 -6.68 12.68 -6 12 C-5.61781233 10.34385343 -5.28604898 8.67542976 -5 7 C-4.67 6.01 -4.34 5.02 -4 4 C-3.34 4 -2.68 4 -2 4 C-2 3.01 -2 2.02 -2 1 C-1.34 0.67 -0.68 0.34 0 0 Z " fill="#C9FAFE" transform="translate(90,214)"/>
<path d="M0 0 C4 4.625 4 4.625 4 8 C1.625 10.6875 1.625 10.6875 -1 13 C-1.66 13 -2.32 13 -3 13 C-3.2475 13.61875 -3.495 14.2375 -3.75 14.875 C-5.20628639 17.35068687 -6.37812506 17.95125002 -9 19 C-9 18.34 -9 17.68 -9 17 C-8.34 17 -7.68 17 -7 17 C-6.67 15.35 -6.34 13.7 -6 12 C-4.68 12 -3.36 12 -2 12 C-1.34 10.68 -0.68 9.36 0 8 C0.66 8 1.32 8 2 8 C1.67 7.4225 1.34 6.845 1 6.25 C0 4 0 4 0 0 Z " fill="#BBF8FD" transform="translate(49,209)"/>
<path d="M0 0 C-0.93274109 1.12894876 -1.87140122 2.25300876 -2.8125 3.375 C-3.33457031 4.00148437 -3.85664062 4.62796875 -4.39453125 5.2734375 C-6 7 -6 7 -9 9 C-9.12375 8.360625 -9.2475 7.72125 -9.375 7.0625 C-9.684375 6.0415625 -9.684375 6.0415625 -10 5 C-10.66 4.67 -11.32 4.34 -12 4 C-4.71428571 -0.57142857 -4.71428571 -0.57142857 0 0 Z " fill="#E5FCFA" transform="translate(37,231)"/>
<path d="M0 0 C1.2546152 3.7638456 0.49664142 4.936102 -0.9375 8.5625 C-2.47441265 12.18335653 -2.47441265 12.18335653 -3 16 C-0.03 16 2.94 16 6 16 C6 16.66 6 17.32 6 18 C1.71 18 -2.58 18 -7 18 C-5.02989474 11.79416842 -2.74844552 5.90148454 0 0 Z " fill="#3DA7D0" transform="translate(70,264)"/>
<path d="M0 0 C2 2 2 2 2.125 4.625 C2.08375 5.40875 2.0425 6.1925 2 7 C0.02 7.99 0.02 7.99 -2 9 C-1.896875 9.9075 -1.79375 10.815 -1.6875 11.75 C-2 15 -2 15 -4.5 17.375 C-5.325 17.91125 -6.15 18.4475 -7 19 C-6.33392561 14.59041892 -4.73375271 10.73427814 -2.9375 6.6875 C-2.65583984 6.04232422 -2.37417969 5.39714844 -2.08398438 4.73242188 C-1.3937257 3.15301642 -0.69746802 1.57623507 0 0 Z " fill="#E2E9F1" transform="translate(253,216)"/>
<path d="M0 0 C1.19334591 3.58003773 1.33543224 6.24315896 1 10 C-0.75 12 -0.75 12 -3 13 C-5.25 12.6875 -5.25 12.6875 -7 12 C-6.319375 11.443125 -5.63875 10.88625 -4.9375 10.3125 C-2.682489 8.16532835 -2.682489 8.16532835 -3.1875 5.375 C-3.93353681 3.02157444 -3.93353681 3.02157444 -5 1 C-3.35 1.33 -1.7 1.66 0 2 C0 1.34 0 0.68 0 0 Z " fill="#D7F6FD" transform="translate(69,209)"/>
<path d="M0 0 C1.32 0.33 2.64 0.66 4 1 C3.42655063 3.86724686 3.1385485 4.8614515 1 7 C0.28591666 8.98356483 -0.38617742 10.98315437 -1 13 C-1.99 12.67 -2.98 12.34 -4 12 C-3.25 7.25 -3.25 7.25 -1 5 C-0.35232207 2.42938689 -0.35232207 2.42938689 0 0 Z " fill="#FEFAF0" transform="translate(89,255)"/>
<path d="M0 0 C2.56616632 3.84924948 2.55097676 6.4349304 3 11 C2.38125 11.12375 1.7625 11.2475 1.125 11.375 C-1.19120832 11.87197356 -1.19120832 11.87197356 -3 14 C-4.23096447 9.56852792 -4.23096447 9.56852792 -3.1875 7 C-2.795625 6.34 -2.40375 5.68 -2 5 C-1.32033324 3.33859237 -0.65061095 1.67299959 0 0 Z " fill="#293E62" transform="translate(268,234)"/>
<path d="M0 0 C0.99 0.66 1.98 1.32 3 2 C2.85892253 3.45880109 2.71197585 4.91703551 2.5625 6.375 C2.48128906 7.18710938 2.40007812 7.99921875 2.31640625 8.8359375 C2 11 2 11 1 13 C0.01 13 -0.98 13 -2 13 C-1.85851011 11.3954444 -1.71164314 9.79136233 -1.5625 8.1875 C-1.48128906 7.29417969 -1.40007812 6.40085938 -1.31640625 5.48046875 C-1 3 -1 3 0 0 Z " fill="#3D496A" transform="translate(315,221)"/>
<path d="M0 0 C10.89 0 21.78 0 33 0 C33 0.33 33 0.66 33 1 C32.21351074 1.02505615 31.42702148 1.0501123 30.61669922 1.07592773 C27.03598506 1.19232866 23.4555055 1.31485487 19.875 1.4375 C18.6375 1.47681641 17.4 1.51613281 16.125 1.55664062 C14.32675781 1.61948242 14.32675781 1.61948242 12.4921875 1.68359375 C11.39245605 1.72025146 10.29272461 1.75690918 9.15966797 1.79467773 C6.04870884 1.99683479 3.06355662 2.43289894 0 3 C0 2.01 0 1.02 0 0 Z " fill="#14B0F2" transform="translate(58,193)"/>
<path d="M0 0 C0.99 0.33 1.98 0.66 3 1 C1.37660195 2.70884005 -0.29319053 4.37446717 -2 6 C-2.66 6 -3.32 6 -4 6 C-4.33 7.65 -4.66 9.3 -5 11 C-3.68 11.99 -2.36 12.98 -1 14 C-2.98 14 -4.96 14 -7 14 C-8.0625 11.625 -8.0625 11.625 -9 9 C-8.67 8.34 -8.34 7.68 -8 7 C-7.01 7 -6.02 7 -5 7 C-4.67 6.01 -4.34 5.02 -4 4 C-3.34 4 -2.68 4 -2 4 C-2 3.34 -2 2.68 -2 2 C-1.34 2 -0.68 2 0 2 C0 1.34 0 0.68 0 0 Z " fill="#1DB2DE" transform="translate(61,219)"/>
<path d="M0 0 C0.33 0 0.66 0 1 0 C2.54656904 5.96533774 3.83445193 11.9490696 5 18 C4.01 18.66 3.02 19.32 2 20 C0.57997892 13.2168636 -0.22731216 6.93302093 0 0 Z " fill="#30415B" transform="translate(135,205)"/>
<path d="M0 0 C2.64 0 5.28 0 8 0 C7.01 0.33 6.02 0.66 5 1 C4.67 4.3 4.34 7.6 4 11 C0.88776687 6.85035583 0.47996422 4.99162787 0 0 Z " fill="#E8F1F6" transform="translate(376,245)"/>
<path d="M0 0 C1.32 0.66 2.64 1.32 4 2 C4 3.32 4 4.64 4 6 C3.34 6 2.68 6 2 6 C2 7.98 2 9.96 2 12 C0.68 12.33 -0.64 12.66 -2 13 C-1.34 8.71 -0.68 4.42 0 0 Z " fill="#424F70" transform="translate(312,234)"/>
<path d="M0 0 C0.33 0.66 0.66 1.32 1 2 C5.62 2 10.24 2 15 2 C15 3.65 15 5.3 15 7 C13.35 6.67 11.7 6.34 10 6 C10 5.34 10 4.68 10 4 C6.7 3.67 3.4 3.34 0 3 C0 2.01 0 1.02 0 0 Z " fill="#CED8DE" transform="translate(289,280)"/>
<path d="M0 0 C0.66 0 1.32 0 2 0 C1.88557539 1.60495567 1.75805306 3.20898119 1.625 4.8125 C1.55539062 5.70582031 1.48578125 6.59914062 1.4140625 7.51953125 C1 10 1 10 -1 13 C-1.66 13 -2.32 13 -3 13 C-3 12.01 -3 11.02 -3 10 C-2.34 10 -1.68 10 -1 10 C-1 9.34 -1 8.68 -1 8 C-1.66 8 -2.32 8 -3 8 C-1.125 1.125 -1.125 1.125 0 0 Z " fill="#2F3E5A" transform="translate(285,232)"/>
<path d="M0 0 C1.485 0.99 1.485 0.99 3 2 C2.88557539 3.60495567 2.75805306 5.20898119 2.625 6.8125 C2.55539063 7.70582031 2.48578125 8.59914062 2.4140625 9.51953125 C2 12 2 12 0 15 C-1.23615622 9.90085558 -1.67479795 5.02439385 0 0 Z " fill="#3F4D66" transform="translate(138,222)"/>
<path d="M0 0 C0.33 0 0.66 0 1 0 C1.06058594 1.08539063 1.12117188 2.17078125 1.18359375 3.2890625 C1.26806064 4.73438486 1.35270551 6.17969682 1.4375 7.625 C1.47681641 8.33785156 1.51613281 9.05070313 1.55664062 9.78515625 C1.80309681 13.91803682 2.23470053 17.92269024 3 22 C0.525 21.01 0.525 21.01 -2 20 C-1.34 13.4 -0.68 6.8 0 0 Z " fill="#CFD8DF" transform="translate(354,236)"/>
<path d="M0 0 C-0.33 3.96 -0.66 7.92 -1 12 C-1.99 11.67 -2.98 11.34 -4 11 C-4.125 4.375 -4.125 4.375 -3 1 C-1 0 -1 0 0 0 Z " fill="#384460" transform="translate(335,228)"/>
<path d="M0 0 C0.66 0.33 1.32 0.66 2 1 C2 1.66 2 2.32 2 3 C2.66 3.33 3.32 3.66 4 4 C3.42647107 7.87132028 1.51295648 10.08172796 -1 13 C-2.04549908 9.86350275 -2.00170317 9.0051095 -1 6 C-0.67 5.67 -0.34 5.34 0 5 C-0.33 4.34 -0.66 3.68 -1 3 C-0.67 2.01 -0.34 1.02 0 0 Z " fill="#ECF2F7" transform="translate(362,201)"/>
<path d="M0 0 C2.05411219 2.59466802 3.92577727 5.30329961 5.75 8.0625 C6.19859375 8.73410156 6.6471875 9.40570313 7.109375 10.09765625 C8 12 8 12 7 15 C4 14 4 14 3.0859375 12.1875 C2.73402344 11.1046875 2.73402344 11.1046875 2.375 10 C1.58884867 7.25730729 1.58884867 7.25730729 0 5 C-0.04063832 3.33382885 -0.042721 1.66611905 0 0 Z " fill="#CFF7FD" transform="translate(40,193)"/>
<path d="M0 0 C0.66 0.33 1.32 0.66 2 1 C-0.475 6.94 -0.475 6.94 -3 13 C-3.66 12.67 -4.32 12.34 -5 12 C-5.3125 8.8125 -5.3125 8.8125 -5 5 C-2.5 2.0625 -2.5 2.0625 0 0 Z " fill="#E7EFF5" transform="translate(238,199)"/>
<path d="M0 0 C0.99 0 1.98 0 3 0 C3 6.6 3 13.2 3 20 C2.67 20 2.34 20 2 20 C1.34 13.4 0.68 6.8 0 0 Z " fill="#394966" transform="translate(140,248)"/>
<path d="M0 0 C0.33 0 0.66 0 1 0 C1.66 6.27 2.32 12.54 3 19 C2.34 19 1.68 19 1 19 C1 17.02 1 15.04 1 13 C0.34 13 -0.32 13 -1 13 C-0.67 8.71 -0.34 4.42 0 0 Z " fill="#D8E3E8" transform="translate(138,237)"/>
<path d="M0 0 C1.37338972 3.71519526 0.6060584 5.97936474 -0.75 9.625 C-1.09546875 10.58664063 -1.4409375 11.54828125 -1.796875 12.5390625 C-3 15 -3 15 -6 17 C-4.33846988 11.14340094 -2.52958084 5.5409866 0 0 Z " fill="#BFF7FD" transform="translate(109,201)"/>
<path d="M0 0 C0.99 0 1.98 0 3 0 C2.25749403 4.08378283 1.17076699 8.01939223 0 12 C-0.66 11.67 -1.32 11.34 -2 11 C-1.85892253 9.54119891 -1.71197585 8.08296449 -1.5625 6.625 C-1.48128906 5.81289062 -1.40007812 5.00078125 -1.31640625 4.1640625 C-1 2 -1 2 0 0 Z " fill="#3B4B6A" transform="translate(182,204)"/>
<path d="M0 0 C0.33 1.65 0.66 3.3 1 5 C-0.98 5.99 -2.96 6.98 -5 8 C-5.66 6.68 -6.32 5.36 -7 4 C-2.25 0 -2.25 0 0 0 Z " fill="#E6EFF1" transform="translate(431,272)"/>
<path d="M0 0 C0.66 0.33 1.32 0.66 2 1 C1.54554036 2.41791408 1.08625056 3.83428046 0.625 5.25 C0.36976563 6.03890625 0.11453125 6.8278125 -0.1484375 7.640625 C-0.95173667 9.86627958 -1.89711662 11.90931672 -3 14 C-3.99 13.67 -4.98 13.34 -6 13 C-5.67 12.01 -5.34 11.02 -5 10 C-4.34 10 -3.68 10 -3 10 C-2.01 6.7 -1.02 3.4 0 0 Z " fill="#33415A" transform="translate(248,222)"/>
<path d="M0 0 C0.33 0.99 0.66 1.98 1 3 C1.99 2.67 2.98 2.34 4 2 C3.88570603 3.77155654 3.75816963 5.54226229 3.625 7.3125 C3.52058594 8.79169922 3.52058594 8.79169922 3.4140625 10.30078125 C3 13 3 13 1 16 C0.67 10.72 0.34 5.44 0 0 Z " fill="#EBF1F5" transform="translate(210,200)"/>
<path d="M0 0 C0.66 0.99 1.32 1.98 2 3 C2.66 2.67 3.32 2.34 4 2 C3.38709677 7.51612903 3.38709677 7.51612903 1.5 9.875 C0 11 0 11 -1 11 C-1.14285714 3.57142857 -1.14285714 3.57142857 0 0 Z " fill="#EDF2F1" transform="translate(305,246)"/>
<path d="M0 0 C-0.45082469 1.46067199 -0.91093537 2.91848032 -1.375 4.375 C-1.63023437 5.18710938 -1.88546875 5.99921875 -2.1484375 6.8359375 C-3 9 -3 9 -5 11 C-6.10493755 7.68518735 -6.05432279 5.33868884 -5 2 C-2 0 -2 0 0 0 Z " fill="#ECEFF3" transform="translate(176,219)"/>
<path d="M0 0 C2.67901932 2.31881505 3.66204403 4.31814468 4.6875 7.6875 C4.93886719 8.49574219 5.19023437 9.30398437 5.44921875 10.13671875 C5.63097656 10.75160156 5.81273437 11.36648437 6 12 C1.23634558 9.5571003 1.23634558 9.5571003 0.125 6.9375 C0 5 0 5 1 3 C0.34 3 -0.32 3 -1 3 C-0.67 2.01 -0.34 1.02 0 0 Z " fill="#46536F" transform="translate(438,207)"/>
<path d="M0 0 C0.99 0 1.98 0 3 0 C3 1.65 3 3.3 3 5 C2.34 5 1.68 5 1 5 C1 5.99 1 6.98 1 8 C0.01 8.33 -0.98 8.66 -2 9 C-3 6 -3 6 -1.5625 2.8125 C-1.046875 1.884375 -0.53125 0.95625 0 0 Z " fill="#DAF4FD" transform="translate(113,192)"/>
<path d="M0 0 C0 0.33 0 0.66 0 1 C-1.30324219 1.18175781 -1.30324219 1.18175781 -2.6328125 1.3671875 C-3.78523438 1.53476563 -4.93765625 1.70234375 -6.125 1.875 C-7.26195312 2.03742188 -8.39890625 2.19984375 -9.5703125 2.3671875 C-12.86078915 2.97431417 -15.85779103 3.86345633 -19 5 C-19.66 4.34 -20.32 3.68 -21 3 C-14.49193196 -0.75465464 -7.27186141 -0.1164533 0 0 Z " fill="#2A3C54" transform="translate(408,207)"/>
<path d="M0 0 C2.26273207 3.55818936 2.07331744 6.12547951 1.625 10.25 C1.51414062 11.32765625 1.40328125 12.4053125 1.2890625 13.515625 C1.19367188 14.33546875 1.09828125 15.1553125 1 16 C0.01 15.67 -0.98 15.34 -2 15 C-1.47462276 9.9697924 -0.89405214 4.98114761 0 0 Z " fill="#464E6A" transform="translate(292,264)"/>
<path d="M0 0 C1.65 0.99 3.3 1.98 5 3 C4.67 4.32 4.34 5.64 4 7 C0.62496331 5.8141763 -1.64722731 4.72426311 -4 2 C-3.01 2 -2.02 2 -1 2 C-0.67 1.34 -0.34 0.68 0 0 Z " fill="#E7E9ED" transform="translate(386,257)"/>
<path d="M0 0 C3.63 0 7.26 0 11 0 C10.67 0.99 10.34 1.98 10 3 C8.35 2.67 6.7 2.34 5 2 C4.01 3.485 4.01 3.485 3 5 C2.34 5 1.68 5 1 5 C0.67 3.35 0.34 1.7 0 0 Z " fill="#0FB3F1" transform="translate(43,193)"/>
<path d="M0 0 C1.65 0.33 3.3 0.66 5 1 C3.29058339 4.41883322 0.41883322 7.29058339 -3 9 C-2.01 6.03 -1.02 3.06 0 0 Z " fill="#E6EEF3" transform="translate(233,263)"/>
<path d="M0 0 C3.33161397 2.98696425 5.34826557 5.82719722 7 10 C6.8125 12.3125 6.8125 12.3125 6 14 C5.01 14.495 5.01 14.495 4 15 C3.67 11.7 3.34 8.4 3 5 C2.01 4.67 1.02 4.34 0 4 C0 2.68 0 1.36 0 0 Z " fill="#38B2D7" transform="translate(60,204)"/>
<path d="M0 0 C0.66 0.99 1.32 1.98 2 3 C1.21448343 4.31618998 0.4213763 5.62785228 -0.375 6.9375 C-0.81585938 7.66839844 -1.25671875 8.39929688 -1.7109375 9.15234375 C-3 11 -3 11 -5 12 C-4.43244703 8.02712922 -3.17597408 5.3546267 -1 2 C-0.67 1.34 -0.34 0.68 0 0 Z " fill="#2D3F56" transform="translate(325,262)"/>
<path d="M0 0 C2.29013653 3.4352048 2.17842973 4.985331 2 9 C1.34 9 0.68 9 0 9 C-0.66 9.66 -1.32 10.32 -2 11 C-2.95465783 8.83032311 -3.14401212 7.43671207 -2.3984375 5.17578125 C-1.64129615 3.4315257 -0.82390802 1.71372869 0 0 Z " fill="#3B4A69" transform="translate(165,245)"/>
<path d="M0 0 C2.475 0.99 2.475 0.99 5 2 C5 2.66 5 3.32 5 4 C1.37 4 -2.26 4 -6 4 C-5.67 3.34 -5.34 2.68 -5 2 C-3.35 2 -1.7 2 0 2 C0 1.34 0 0.68 0 0 Z " fill="#00C2FC" transform="translate(53,233)"/>
<path d="M0 0 C0.928125 0.2784375 0.928125 0.2784375 1.875 0.5625 C4.04160178 1.23686176 4.04160178 1.23686176 6 0 C8.1640625 0.33984375 8.1640625 0.33984375 10.625 0.9375 C11.85089844 1.22947266 11.85089844 1.22947266 13.1015625 1.52734375 C14.04128906 1.76130859 14.04128906 1.76130859 15 2 C15 2.33 15 2.66 15 3 C10.05 3 5.1 3 0 3 C0 2.01 0 1.02 0 0 Z " fill="#293951" transform="translate(290,279)"/>
<path d="M0 0 C2.64 1.65 5.28 3.3 8 5 C7.34 5.66 6.68 6.32 6 7 C5.01 6.67 4.02 6.34 3 6 C2.01 6.495 2.01 6.495 1 7 C0.34 6.34 -0.32 5.68 -1 5 C-0.34 5 0.32 5 1 5 C1 4.34 1 3.68 1 3 C0.34 2.67 -0.32 2.34 -1 2 C-0.67 1.34 -0.34 0.68 0 0 Z " fill="#E3EAF0" transform="translate(366,273)"/>
<path d="M0 0 C0.66 0 1.32 0 2 0 C2.33 1.98 2.66 3.96 3 6 C2.01 6.495 2.01 6.495 1 7 C-0.13350534 9.01669827 -0.13350534 9.01669827 -1 11 C-1.0270043 9.54176788 -1.04639787 8.08339325 -1.0625 6.625 C-1.07410156 5.81289063 -1.08570313 5.00078125 -1.09765625 4.1640625 C-1 2 -1 2 0 0 Z " fill="#33405D" transform="translate(259,270)"/>
<path d="M0 0 C0.33 0 0.66 0 1 0 C0.56826373 5.09448798 0.24599784 8.84512277 -3 13 C-3.66 13 -4.32 13 -5 13 C-4.54554036 11.58208592 -4.08625056 10.16571954 -3.625 8.75 C-3.24214844 7.56664062 -3.24214844 7.56664062 -2.8515625 6.359375 C-2.04826333 4.13372042 -1.10288338 2.09068328 0 0 Z " fill="#B7F5FD" transform="translate(93,239)"/>
<path d="M0 0 C0.66 0 1.32 0 2 0 C2.36923077 5.41538462 2.36923077 5.41538462 0.5 8.375 C0.005 8.91125 -0.49 9.4475 -1 10 C-1.66 8.35 -2.32 6.7 -3 5 C-2.34 4.67 -1.68 4.34 -1 4 C-0.34786708 1.97536745 -0.34786708 1.97536745 0 0 Z " fill="#2E415B" transform="translate(328,252)"/>
<path d="M0 0 C1.32168051 2.17688554 2.0131712 3.55217933 1.9375 6.125 C1 8 1 8 -1.5625 9.25 C-2.366875 9.4975 -3.17125 9.745 -4 10 C-2.8905928 6.51329166 -1.73662334 3.22515763 0 0 Z " fill="#E1EBF4" transform="translate(193,222)"/>
<path d="M0 0 C0.66 0 1.32 0 2 0 C2 0.99 2 1.98 2 3 C2.66 3 3.32 3 4 3 C4.33 2.34 4.66 1.68 5 1 C5 1.99 5 2.98 5 4 C4.01 4.33 3.02 4.66 2 5 C1.01 6.485 1.01 6.485 0 8 C-0.66 7.67 -1.32 7.34 -2 7 C-1.34 4.69 -0.68 2.38 0 0 Z " fill="#00BBF2" transform="translate(93,220)"/>
<path d="M0 0 C1.9078584 3.1749094 2.1609041 5.10585211 1.625 8.75 C1.51414062 9.54921875 1.40328125 10.3484375 1.2890625 11.171875 C1.19367188 11.77515625 1.09828125 12.3784375 1 13 C0.34 12.34 -0.32 11.68 -1 11 C-0.9765625 8.3984375 -0.9765625 8.3984375 -0.625 5.375 C-0.51414062 4.37210938 -0.40328125 3.36921875 -0.2890625 2.3359375 C-0.19367188 1.56507813 -0.09828125 0.79421875 0 0 Z " fill="#485A6F" transform="translate(268,216)"/>
<path d="M0 0 C0.33 0.66 0.66 1.32 1 2 C0.01 3.485 0.01 3.485 -1 5 C-0.67 5.66 -0.34 6.32 0 7 C-1.98 7.66 -3.96 8.32 -6 9 C-4.68775452 5.06326356 -3.08089673 2.77280706 0 0 Z " fill="#E6EBF2" transform="translate(343,216)"/>
<path d="M0 0 C6.51791392 -0.3540919 11.17521449 -0.03901852 17 3 C15.02 3.99 15.02 3.99 13 5 C12.525625 4.525625 12.05125 4.05125 11.5625 3.5625 C7.88355203 1.31923904 4.2378888 1.26260422 0 1 C0 0.67 0 0.34 0 0 Z " fill="#C9D3DE" transform="translate(398,208)"/>
<path d="M0 0 C0.99 0 1.98 0 3 0 C2.44894091 3.9492568 1.61064629 7.34920174 0 11 C-0.33 11 -0.66 11 -1 11 C-1.125 3.375 -1.125 3.375 0 0 Z " fill="#CCFAFD" transform="translate(92,203)"/>
<path d="M0 0 C0.33 1.32 0.66 2.64 1 4 C0.01 4.495 0.01 4.495 -1 5 C-0.34 6.32 0.32 7.64 1 9 C-0.98 9.99 -0.98 9.99 -3 11 C-4 8 -4 8 -3.22265625 5.95703125 C-2.83980469 5.24933594 -2.45695313 4.54164063 -2.0625 3.8125 C-1.68222656 3.09707031 -1.30195313 2.38164062 -0.91015625 1.64453125 C-0.60980469 1.10183594 -0.30945313 0.55914062 0 0 Z " fill="#38455E" transform="translate(180,211)"/>
<path d="M0 0 C0.66 0.33 1.32 0.66 2 1 C0.35 5.29 -1.3 9.58 -3 14 C-4.37572688 8.4970925 -2.62289313 4.87108724 0 0 Z " fill="#E6EEF2" transform="translate(180,205)"/>
<path d="M0 0 C1.25955231 3.77865693 0.48087189 5.03411786 -0.9375 8.6875 C-1.31777344 9.68136719 -1.69804688 10.67523438 -2.08984375 11.69921875 C-2.39019531 12.45847656 -2.69054687 13.21773438 -3 14 C-3.66 13.67 -4.32 13.34 -5 13 C-4.54554036 11.58208592 -4.08625056 10.16571954 -3.625 8.75 C-3.24214844 7.56664062 -3.24214844 7.56664062 -2.8515625 6.359375 C-2.04826333 4.13372042 -1.10288338 2.09068328 0 0 Z " fill="#31ADDD" transform="translate(70,264)"/>
<path d="M0 0 C1.1484375 1.734375 1.1484375 1.734375 2 4 C1.1015625 6.140625 1.1015625 6.140625 -0.375 8.25 C-0.85710937 8.95640625 -1.33921875 9.6628125 -1.8359375 10.390625 C-2.22007812 10.92171875 -2.60421875 11.4528125 -3 12 C-4.21386936 8.35839192 -3.6674695 7.66834531 -2.0625 4.3125 C-1.49208984 3.10013672 -1.49208984 3.10013672 -0.91015625 1.86328125 C-0.60980469 1.24839844 -0.30945313 0.63351563 0 0 Z " fill="#DBE7EF" transform="translate(244,237)"/>
<path d="M0 0 C0.66 0.33 1.32 0.66 2 1 C1.9129995 2.62600941 1.8048219 4.25089678 1.6875 5.875 C1.62949219 6.77992188 1.57148438 7.68484375 1.51171875 8.6171875 C1 11 1 11 -2 13 C-1.34 8.71 -0.68 4.42 0 0 Z " fill="#E7EEF6" transform="translate(355,200)"/>
<path d="M0 0 C0.99 0.33 1.98 0.66 3 1 C2.67 2.32 2.34 3.64 2 5 C1.34 4.34 0.68 3.68 0 3 C-0.66 4.32 -1.32 5.64 -2 7 C-2.99 7 -3.98 7 -5 7 C-3.70700306 4.11562221 -2.34058637 2.12780579 0 0 Z " fill="#2B3755" transform="translate(372,201)"/>
<path d="M0 0 C0.99 0 1.98 0 3 0 C3 1.98 3 3.96 3 6 C1.68 6 0.36 6 -1 6 C-0.67 4.02 -0.34 2.04 0 0 Z " fill="#CCF6FA" transform="translate(77,276)"/>
<path d="M0 0 C0.99 0 1.98 0 3 0 C3.1953125 6.0546875 3.1953125 6.0546875 3 8 C2.34 8.66 1.68 9.32 1 10 C0.67 6.7 0.34 3.4 0 0 Z " fill="#DAF9FB" transform="translate(68,256)"/>
<path d="M0 0 C2.1519437 3.22791555 2.20086443 4.28400809 2 8 C-1 7 -1 7 -2.1875 4.9375 C-2.5896875 3.9784375 -2.5896875 3.9784375 -3 3 C-2.01 2.67 -1.02 2.34 0 2 C0 1.34 0 0.68 0 0 Z " fill="#04BBFD" transform="translate(90,232)"/>
<path d="M0 0 C2 3 2 3 2 5 C1.34 5 0.68 5 0 5 C-0.33 6.98 -0.66 8.96 -1 11 C-1.99 10.67 -2.98 10.34 -4 10 C-2.68 6.7 -1.36 3.4 0 0 Z " fill="#C3F5FB" transform="translate(75,229)"/>
<path d="M0 0 C0.99 0.33 1.98 0.66 3 1 C2.67 1.66 2.34 2.32 2 3 C2.66 3.33 3.32 3.66 4 4 C4.33 3.34 4.66 2.68 5 2 C5 2.99 5 3.98 5 5 C2.36 5 -0.28 5 -3 5 C-3 4.01 -3 3.02 -3 2 C-2.01 2 -1.02 2 0 2 C0 1.34 0 0.68 0 0 Z " fill="#2A385A" transform="translate(347,210)"/>
<path d="M0 0 C1.65 0 3.3 0 5 0 C4.34 1.98 3.68 3.96 3 6 C1.68 5.67 0.36 5.34 -1 5 C-0.67 3.35 -0.34 1.7 0 0 Z " fill="#3E4E6A" transform="translate(252,208)"/>
<path d="M0 0 C3.3 0 6.6 0 10 0 C10 0.66 10 1.32 10 2 C3.375 3.125 3.375 3.125 0 2 C0 1.34 0 0.68 0 0 Z " fill="#F7FDEB" transform="translate(82,204)"/>
<path d="M0 0 C4.29 0 8.58 0 13 0 C13 0.33 13 0.66 13 1 C10.03 1 7.06 1 4 1 C3.67 1.99 3.34 2.98 3 4 C3 3.34 3 2.68 3 2 C1.68 2.33 0.36 2.66 -1 3 C-0.67 2.01 -0.34 1.02 0 0 Z " fill="#29385A" transform="translate(243,193)"/>
<path d="M0 0 C0.99 0 1.98 0 3 0 C3 1.32 3 2.64 3 4 C1.02 4.33 -0.96 4.66 -3 5 C-3.33 4.01 -3.66 3.02 -4 2 C-2.68 2 -1.36 2 0 2 C0 1.34 0 0.68 0 0 Z " fill="#F8F9EF" transform="translate(76,282)"/>
<path d="M0 0 C0.66 0 1.32 0 2 0 C1.34 2.97 0.68 5.94 0 9 C-0.99 9 -1.98 9 -3 9 C-2.01 6.03 -1.02 3.06 0 0 Z " fill="#E5EAF3" transform="translate(229,273)"/>
<path d="M0 0 C1.65 1.65 3.3 3.3 5 5 C4.01 5.99 3.02 6.98 2 8 C0.4375 6.25 0.4375 6.25 -1 4 C-0.6875 1.75 -0.6875 1.75 0 0 Z " fill="#16B2F6" transform="translate(87,236)"/>
<path d="M0 0 C0.99 0 1.98 0 3 0 C3.125 3.375 3.125 3.375 3 7 C2.34 7.66 1.68 8.32 1 9 C-0.61949011 6.42786866 -1.04408751 5.32330841 -0.625 2.25 C-0.41875 1.5075 -0.2125 0.765 0 0 Z " fill="#4A5871" transform="translate(211,232)"/>
<path d="M0 0 C-2.97 2.475 -2.97 2.475 -6 5 C-6.33 3.68 -6.66 2.36 -7 1 C-3.375 -1.125 -3.375 -1.125 0 0 Z " fill="#D5F9FD" transform="translate(34,235)"/>
<path d="M0 0 C0.66 0.33 1.32 0.66 2 1 C1.34 3.31 0.68 5.62 0 8 C-0.99 8 -1.98 8 -3 8 C-2.74438677 5.6568787 -2.40729228 3.32156597 -2 1 C-1.34 0.67 -0.68 0.34 0 0 Z " fill="#E7EFF1" transform="translate(316,213)"/>
<path d="M0 0 C1.485 0.99 1.485 0.99 3 2 C2.67 2.99 2.34 3.98 2 5 C1.65179959 6.66362417 1.31595508 8.32995171 1 10 C0.34 9.34 -0.32 8.68 -1 8 C-0.96712417 5.27130593 -0.43602229 2.7033382 0 0 Z " fill="#46516D" transform="translate(270,207)"/>
<path d="M0 0 C0.66 0 1.32 0 2 0 C1.39009109 3.55780196 0.4216319 6.6828589 -1 10 C-1.66 9.67 -2.32 9.34 -3 9 C-2.01 6.03 -1.02 3.06 0 0 Z " fill="#384556" transform="translate(236,251)"/>
<path d="M0 0 C0.66 0.33 1.32 0.66 2 1 C1.67 4.3 1.34 7.6 1 11 C0.34 10.34 -0.32 9.68 -1 9 C-0.9765625 6.8359375 -0.9765625 6.8359375 -0.625 4.375 C-0.51414062 3.55773437 -0.40328125 2.74046875 -0.2890625 1.8984375 C-0.19367188 1.27195313 -0.09828125 0.64546875 0 0 Z " fill="#445169" transform="translate(265,234)"/>
<path d="M0 0 C1.125 1.75 1.125 1.75 2 4 C1.125 6.25 1.125 6.25 0 8 C-0.66 8 -1.32 8 -2 8 C-2.125 5.125 -2.125 5.125 -2 2 C-1.34 1.34 -0.68 0.68 0 0 Z " fill="#ECF0F7" transform="translate(228,221)"/>
<path d="M0 0 C0.66 0 1.32 0 2 0 C2 1.98 2 3.96 2 6 C0.02 6.99 0.02 6.99 -2 8 C-1.125 1.125 -1.125 1.125 0 0 Z " fill="#34405A" transform="translate(233,216)"/>
<path d="M0 0 C1.65 0 3.3 0 5 0 C5 0.99 5 1.98 5 3 C3.02 3.33 1.04 3.66 -1 4 C-0.67 2.68 -0.34 1.36 0 0 Z " fill="#F1F9F9" transform="translate(391,187)"/>
<path d="M0 0 C0.33 0.66 0.66 1.32 1 2 C-0.4375 4.625 -0.4375 4.625 -2 7 C-3.32 6.67 -4.64 6.34 -6 6 C-5.34 6 -4.68 6 -4 6 C-3.896875 5.38125 -3.79375 4.7625 -3.6875 4.125 C-3 2 -3 2 0 0 Z " fill="#1FAFE9" transform="translate(77,274)"/>
<path d="M0 0 C2.64 0 5.28 0 8 0 C5.6875 2.0625 5.6875 2.0625 3 4 C2.01 3.67 1.02 3.34 0 3 C0 2.01 0 1.02 0 0 Z " fill="#3C4965" transform="translate(418,275)"/>
<path d="M0 0 C3.37503669 1.1858237 5.64722731 2.27573689 8 5 C6.02 5 4.04 5 2 5 C1.34 3.35 0.68 1.7 0 0 Z " fill="#36415A" transform="translate(380,259)"/>
<path d="M0 0 C1.24546405 2.49092811 0.7767578 3.41080733 0 6 C0.99 6.33 1.98 6.66 3 7 C0.69 7 -1.62 7 -4 7 C-1.125 1.125 -1.125 1.125 0 0 Z " fill="#27B1DF" transform="translate(36,232)"/>
<path d="M0 0 C1.32 0 2.64 0 4 0 C4 1.65 4 3.3 4 5 C2.68 4.67 1.36 4.34 0 4 C0 2.68 0 1.36 0 0 Z " fill="#02BBFE" transform="translate(66,232)"/>
<path d="M0 0 C2.24497221 2.24497221 2.37003419 2.96027349 2.75 6 C2.84796875 6.70125 2.9459375 7.4025 3.046875 8.125 C3 10 3 10 1 12 C1 9.36 1 6.72 1 4 C0.34 4 -0.32 4 -1 4 C-0.67 2.68 -0.34 1.36 0 0 Z " fill="#425070" transform="translate(234,212)"/>
<path d="M0 0 C0.33 0 0.66 0 1 0 C1.66 2.97 2.32 5.94 3 9 C1.68 9.33 0.36 9.66 -1 10 C-0.67 6.7 -0.34 3.4 0 0 Z " fill="#E2E7EE" transform="translate(291,210)"/>
<path d="M0 0 C1.98 0 3.96 0 6 0 C5.01 2.97 4.02 5.94 3 9 C2.07461831 5.29847322 1.91825838 4.36541838 3 1 C2.01 0.67 1.02 0.34 0 0 Z " fill="#38AED5" transform="translate(107,192)"/>
<path d="M0 0 C0.66 0 1.32 0 2 0 C2.33 2.31 2.66 4.62 3 7 C2.01 7 1.02 7 0 7 C0 4.69 0 2.38 0 0 Z " fill="#444E5D" transform="translate(201,275)"/>
<path d="M0 0 C0.33 0 0.66 0 1 0 C1.1953125 6.0546875 1.1953125 6.0546875 1 8 C0.34 8.66 -0.32 9.32 -1 10 C-2.15837626 5.94568308 -1.83691257 3.78187881 0 0 Z " fill="#48526B" transform="translate(221,244)"/>
<path d="M0 0 C0.33 0 0.66 0 1 0 C1.33 2.31 1.66 4.62 2 7 C-0.97 6.505 -0.97 6.505 -4 6 C-3.67 5.01 -3.34 4.02 -3 3 C-2.34 3 -1.68 3 -1 3 C-0.67 2.01 -0.34 1.02 0 0 Z " fill="#E7F0F6" transform="translate(422,221)"/>
<path d="M0 0 C0.66 1.32 1.32 2.64 2 4 C1.34 4 0.68 4 0 4 C0 5.65 0 7.3 0 9 C-0.33 7.68 -0.66 6.36 -1 5 C-1.66 5 -2.32 5 -3 5 C-1.125 1.125 -1.125 1.125 0 0 Z " fill="#455B79" transform="translate(195,217)"/>
<path d="M0 0 C1.32 0.33 2.64 0.66 4 1 C4 1.99 4 2.98 4 4 C3.34 4 2.68 4 2 4 C1.67 4.66 1.34 5.32 1 6 C0.01 5.34 -0.98 4.68 -2 4 C-1.34 2.68 -0.68 1.36 0 0 Z " fill="#3B4A6D" transform="translate(362,212)"/>
<path d="M0 0 C1.65 0 3.3 0 5 0 C5.625 1.875 5.625 1.875 6 4 C5.34 4.66 4.68 5.32 4 6 C2.68 4.02 1.36 2.04 0 0 Z " fill="#EAECF5" transform="translate(434,201)"/>
<path d="M0 0 C0.66 0.33 1.32 0.66 2 1 C0.71034824 2.37562854 -0.62689293 3.70766393 -2 5 C-2.66 5 -3.32 5 -4 5 C-4.33 5.99 -4.66 6.98 -5 8 C-5.33 7.34 -5.66 6.68 -6 6 C-2.25 1.125 -2.25 1.125 0 0 Z " fill="#273952" transform="translate(332,195)"/>
<path d="M0 0 C2.5 1.375 2.5 1.375 5 3 C5 3.66 5 4.32 5 5 C3.35 5 1.7 5 0 5 C-0.33 4.01 -0.66 3.02 -1 2 C-0.67 1.34 -0.34 0.68 0 0 Z " fill="#39475D" transform="translate(424,194)"/>
<path d="M0 0 C0.66 0 1.32 0 2 0 C2.33 1.98 2.66 3.96 3 6 C2.67 5.34 2.34 4.68 2 4 C0.68 4 -0.64 4 -2 4 C-1 1 -1 1 0 0 Z " fill="#374A6B" transform="translate(276,276)"/>
<path d="M0 0 C0.66 0 1.32 0 2 0 C3.60725635 3.21451269 3.05748185 6.43612536 3 10 C2.67 10 2.34 10 2 10 C1.67 8.35 1.34 6.7 1 5 C0.67 5 0.34 5 0 5 C0 3.35 0 1.7 0 0 Z " fill="#5E6780" transform="translate(210,220)"/>
<path d="M0 0 C3.875 1.75 3.875 1.75 5 4 C4.34 4.66 3.68 5.32 3 6 C1.68 4.35 0.36 2.7 -1 1 C-0.67 0.67 -0.34 0.34 0 0 Z " fill="#2A3B57" transform="translate(418,211)"/>
<path d="M0 0 C0.66 1.32 1.32 2.64 2 4 C1.34 4.66 0.68 5.32 0 6 C0 5.34 0 4.68 0 4 C-0.99 4.33 -1.98 4.66 -3 5 C-2.625 3.0625 -2.625 3.0625 -2 1 C-1.34 0.67 -0.68 0.34 0 0 Z " fill="#2B3B5C" transform="translate(366,209)"/>
</svg>
